<?xml version="1.0" encoding="UTF-8"?>
<svg version="1.1" xmlns="http://www.w3.org/2000/svg" width="409" height="610">
<path d="M0 0 C1.9375 1.625 1.9375 1.625 3 4 C2.57087879 9.08726308 1.24671596 13.53854279 -0.625 18.25 C-1.1712226 19.6664163 -1.71676722 21.08309419 -2.26171875 22.5 C-2.54708496 23.23605469 -2.83245117 23.97210938 -3.12646484 24.73046875 C-4.59930589 28.55705632 -6.02022678 32.40254697 -7.4375 36.25 C-7.87461304 37.43662231 -7.87461304 37.43662231 -8.32055664 38.6472168 C-12.52134923 50.09774577 -16.5701478 61.6020124 -20.36865234 73.19238281 C-22.21452782 78.8241501 -24.07460502 84.3709145 -26.4375 89.8125 C-29.17989915 96.14382665 -31.26404905 102.66361917 -33.40942383 109.21435547 C-35.34988463 115.11670064 -37.43109807 120.93074387 -39.72460938 126.70678711 C-41.09447835 130.24395452 -42.37895668 133.80453749 -43.6484375 137.37890625 C-43.87619873 138.01928833 -44.10395996 138.65967041 -44.33862305 139.31945801 C-44.89327741 140.87933242 -45.44676195 142.43962271 -46 144 C-45.43958511 143.99777939 -44.87917023 143.99555878 -44.30177307 143.99327087 C-19.67690673 143.90044159 4.94311992 143.84461857 29.5625 144.4375 C30.8759993 144.4669722 30.8759993 144.4669722 32.21603394 144.49703979 C34.66634703 144.55348525 37.11635205 144.61693438 39.56640625 144.68359375 C40.28273224 144.70031128 40.99905823 144.71702881 41.73709106 144.73425293 C44.74215872 144.82578206 47.12631246 145.04210415 50 146 C52 149 52 149 51.93359375 152.26953125 C50.84667322 156.61266558 48.89726782 159.34772036 46.0625 162.6875 C45.57249512 163.28763916 45.08249023 163.88777832 44.57763672 164.50610352 C43.06626127 166.35002043 41.53591735 168.17650031 40 170 C39.07379499 171.10902123 38.14799605 172.21838176 37.22265625 173.328125 C35.54213273 175.34220179 33.85521817 177.35024131 32.1640625 179.35546875 C30.32835497 181.59874311 28.63730211 183.8610709 27 186.25 C26.34 187.1575 25.68 188.065 25 189 C24.34 189 23.68 189 23 189 C22.62875 189.81210937 22.62875 189.81210937 22.25 190.640625 C20.72011396 193.5282849 18.90849003 196.09776018 17 198.75 C16.29875 199.73484375 15.5975 200.7196875 14.875 201.734375 C13.946875 202.85585938 13.946875 202.85585938 13 204 C12.34 204 11.68 204 11 204 C10.67 205.32 10.34 206.64 10 208 C9.34 208 8.68 208 8 208 C7.76152344 208.53753906 7.52304687 209.07507813 7.27734375 209.62890625 C3.0411009 217.49251301 -3.49791292 224.48537929 -9.3125 231.25 C-14.08677637 236.80473581 -18.53172527 242.56890269 -22.94580078 248.41210938 C-27.46748615 254.36990656 -32.18723707 260.14195355 -36.96875 265.89208984 C-41.35094271 271.17454804 -45.55550499 276.5657248 -49.7109375 282.02734375 C-52.61388368 285.79721072 -55.63330255 289.46228693 -58.66015625 293.1328125 C-61.26974789 296.33054249 -63.82824076 299.56468674 -66.375 302.8125 C-66.82987793 303.39136963 -67.28475586 303.97023926 -67.75341797 304.56665039 C-70.21106974 307.69931533 -72.65117928 310.84438527 -75.07421875 314.00390625 C-75.82469482 314.97589966 -75.82469482 314.97589966 -76.59033203 315.9675293 C-77.55613613 317.21891029 -78.51693626 318.47417271 -79.47216797 319.73364258 C-80.6017912 321.19282677 -81.79540083 322.6020701 -83 324 C-83.66 324 -84.32 324 -85 324 C-85.10707275 324.58467041 -85.21414551 325.16934082 -85.32446289 325.77172852 C-86.09194349 328.30327727 -87.10034257 329.64418481 -88.80859375 331.65234375 C-89.67508545 332.68439941 -89.67508545 332.68439941 -90.55908203 333.73730469 C-91.17895996 334.46336914 -91.79883789 335.18943359 -92.4375 335.9375 C-93.71653046 337.46082496 -94.99386022 338.98557941 -96.26953125 340.51171875 C-96.90197754 341.26759277 -97.53442383 342.0234668 -98.18603516 342.80224609 C-101.54325966 346.86977435 -104.72579376 351.06538017 -107.9140625 355.265625 C-108.60242188 356.16796875 -109.29078125 357.0703125 -110 358 C-111.06347656 359.41539062 -111.06347656 359.41539062 -112.1484375 360.859375 C-113.06496094 361.91898437 -113.06496094 361.91898437 -114 363 C-114.66 363 -115.32 363 -116 363 C-116.10183594 363.56203125 -116.20367187 364.1240625 -116.30859375 364.703125 C-117.66708536 369.21608019 -120.55774756 372.84076258 -124 376 C-127.16770806 377.01922599 -128.61247302 376.6775054 -132 376 C-133.73632812 374.69921875 -133.73632812 374.69921875 -135 373 C-134.93934776 365.35781773 -132.34636912 359.0082781 -129.5 352 C-128.58490732 349.68711932 -127.67220606 347.37329125 -126.76171875 345.05859375 C-126.29942871 343.8866748 -125.83713867 342.71475586 -125.36083984 341.50732422 C-123.24739293 336.06028828 -121.27320001 330.56601739 -119.3125 325.0625 C-118.57038393 322.98434949 -117.82819793 320.90622395 -117.0859375 318.828125 C-116.73370117 317.84134766 -116.38146484 316.85457031 -116.01855469 315.83789062 C-114.51669304 311.6534132 -112.98044286 307.48197245 -111.4375 303.3125 C-108.9593773 296.61127892 -106.50236982 289.90274888 -104.0625 283.1875 C-103.73072754 282.27468262 -103.39895508 281.36186523 -103.05712891 280.42138672 C-101.33190786 275.67265118 -99.6098504 270.92278438 -97.890625 266.171875 C-94.68196015 257.3139836 -91.44315545 248.4780249 -88.0234375 239.69921875 C-86.80874967 236.49559549 -85.71500531 233.26431115 -84.67578125 230 C-83.8742145 227.62773308 -82.9363644 225.32193547 -82 223 C-82.79728516 223.00523682 -83.59457031 223.01047363 -84.41601562 223.01586914 C-95.61100087 223.07773287 -106.8050155 223.05511179 -118 223 C-119.72612518 222.99223541 -119.72612518 222.99223541 -121.48712158 222.98431396 C-129.07288391 222.94705394 -136.65785949 222.88294054 -144.24316406 222.79147339 C-146.79176349 222.76379867 -149.34044784 222.74307989 -151.88916016 222.72927856 C-155.50081795 222.70811742 -159.11133448 222.66177203 -162.72265625 222.609375 C-163.81800186 222.60814133 -164.91334747 222.60690765 -166.04188538 222.6056366 C-167.04779221 222.585923 -168.05369904 222.56620941 -169.09008789 222.54589844 C-169.96967667 222.53701599 -170.84926544 222.52813354 -171.75550842 222.51898193 C-174 222 -174 222 -175.77830505 220.14508057 C-177.48190819 217.15385432 -177.49628027 215.40185281 -177 212 C-175.13671875 208.9296875 -175.13671875 208.9296875 -172.6875 205.875 C-171.88699219 204.86179687 -171.08648437 203.84859375 -170.26171875 202.8046875 C-169.51535156 201.87914062 -168.76898438 200.95359375 -168 200 C-167.44957031 199.21882812 -166.89914063 198.43765625 -166.33203125 197.6328125 C-165.89246094 197.09398437 -165.45289063 196.55515625 -165 196 C-164.34 196 -163.68 196 -163 196 C-162.938125 195.443125 -162.87625 194.88625 -162.8125 194.3125 C-161.66808952 191.05533172 -159.44269046 189.43235467 -157 187 C-155.25596044 184.87292371 -153.55211163 182.74035187 -151.875 180.5625 C-150.90108083 179.31116743 -149.92712139 178.05986621 -148.953125 176.80859375 C-148.46134766 176.17421387 -147.96957031 175.53983398 -147.46289062 174.88623047 C-145.19250449 171.95882671 -142.91098395 169.04023419 -140.625 166.125 C-139.95283447 165.26757202 -139.95283447 165.26757202 -139.26708984 164.39282227 C-135.18306691 159.20027882 -131.01306404 154.07955456 -126.83642578 148.96142578 C-122.88834926 144.11547458 -119.01215189 139.21847906 -115.16625977 134.29125977 C-111.646249 129.79336212 -108.05145802 125.36012064 -104.4375 120.9375 C-100.46617338 116.07594793 -96.55593191 111.1796964 -92.75 106.1875 C-89.04317491 101.32863426 -85.22766244 96.58176552 -81.33984375 91.8671875 C-78.73025211 88.66945751 -76.17175924 85.43531326 -73.625 82.1875 C-73.17012207 81.60863037 -72.71524414 81.02976074 -72.24658203 80.43334961 C-69.78893026 77.30068467 -67.34882072 74.15561473 -64.92578125 70.99609375 C-64.42546387 70.34809814 -63.92514648 69.70010254 -63.40966797 69.0324707 C-62.44386387 67.78108971 -61.48306374 66.52582729 -60.52783203 65.26635742 C-59.3982088 63.80717323 -58.20459917 62.3979299 -57 61 C-56.34 61 -55.68 61 -55 61 C-54.67 59.68 -54.34 58.36 -54 57 C-53.34 57 -52.68 57 -52 57 C-51.62875 56.18789062 -51.62875 56.18789062 -51.25 55.359375 C-49.72011396 52.4717151 -47.90849003 49.90223982 -46 47.25 C-45.29875 46.26515625 -44.5975 45.2803125 -43.875 44.265625 C-42.946875 43.14414063 -42.946875 43.14414063 -42 42 C-41.34 42 -40.68 42 -40 42 C-39.938125 41.443125 -39.87625 40.88625 -39.8125 40.3125 C-38.897943 37.70953008 -37.59535015 36.54533815 -35.6015625 34.703125 C-32.60756207 31.51926112 -30.24926457 27.81968123 -27.76953125 24.23046875 C-27.18558594 23.49441406 -26.60164062 22.75835937 -26 22 C-25.34 22 -24.68 22 -24 22 C-23.77441406 21.47664063 -23.54882812 20.95328125 -23.31640625 20.4140625 C-21.52962193 17.13740757 -19.24205029 14.29561818 -16.9375 11.375 C-13.67807651 7.37877222 -13.67807651 7.37877222 -11 3 C-10.34 3 -9.68 3 -9 3 C-8.67 2.01 -8.34 1.02 -8 0 C-5.03475663 -1.48262169 -3.14877613 -0.83538959 0 0 Z " fill="#35BC3F" transform="translate(263,97)"/>
<path d="M0 0 C0.8214299 -0.00335861 1.6428598 -0.00671722 2.48918152 -0.01017761 C5.21749366 -0.01971028 7.94574448 -0.02163255 10.67407227 -0.02270508 C12.57300339 -0.02591846 14.47193427 -0.02928259 16.37086487 -0.03279114 C20.36150688 -0.03878987 24.35212723 -0.04063052 28.34277344 -0.04003906 C33.43328534 -0.03993795 38.52365617 -0.05353427 43.61413479 -0.07081127 C47.54261398 -0.08198932 51.47105984 -0.08395642 55.3995533 -0.08342934 C57.27445012 -0.08460287 59.14934798 -0.08898912 61.02422905 -0.0967617 C84.63620462 -0.18540368 84.63620462 -0.18540368 95.49047852 4.64526367 C96.45856445 5.06807617 97.42665039 5.49088867 98.42407227 5.92651367 C100.65586344 6.96116278 102.86231857 8.02662881 105.05297852 9.14526367 C105.05297852 9.80526367 105.05297852 10.46526367 105.05297852 11.14526367 C105.60985352 11.35151367 106.16672852 11.55776367 106.74047852 11.77026367 C109.92575006 13.66420892 111.75815504 16.26202392 114.05297852 19.14526367 C114.53379883 19.5912793 115.01461914 20.03729492 115.51000977 20.49682617 C117.52996524 22.65485455 118.77489225 24.98458633 120.17797852 27.58276367 C120.69618164 28.53022461 121.21438477 29.47768555 121.74829102 30.45385742 C124.19158621 35.49406817 124.20770462 40.16272786 124.22033691 45.69430542 C124.2261303 46.56580896 124.23192369 47.43731249 124.23789263 48.33522522 C124.25595832 51.26131992 124.26682579 54.18739535 124.27758789 57.11352539 C124.2887638 59.20960159 124.30027715 61.30567602 124.31210327 63.40174866 C124.34866548 70.29279087 124.37388601 77.18385136 124.39672852 84.07495117 C124.40067438 85.2482783 124.40462025 86.42160542 124.40868568 87.63048792 C124.44511226 98.70230174 124.47654847 109.77412198 124.4977951 120.84597588 C124.52534557 134.99273758 124.57606345 149.13899661 124.65826941 163.28554904 C124.71414776 173.23990117 124.74304395 183.19411732 124.75226831 193.14862072 C124.75851303 199.0893944 124.77652202 205.0295787 124.82365417 210.97018051 C124.86750425 216.56658185 124.87775223 222.16207522 124.86302567 227.75861931 C124.8633528 229.80395391 124.87550965 231.84932912 124.90087509 233.89450645 C125.09076738 250.06940373 122.5103246 261.32007321 110.89282227 273.38354492 C100.08541542 283.73203853 87.84400624 287.33766264 73.15454102 287.24291992 C72.31958099 287.24150497 71.48462097 287.24009003 70.62435913 287.2386322 C67.97552809 287.23306541 65.32678371 287.22051914 62.67797852 287.20776367 C60.87459433 287.20274438 59.0712088 287.19818222 57.26782227 287.1940918 C52.86284131 287.18310687 48.45792457 287.1658653 44.05297852 287.14526367 C44.05741974 288.23885193 44.06186096 289.33244019 44.06643677 290.45916748 C44.10695921 300.75921006 44.13695157 311.05923649 44.15660286 321.35934067 C44.16704536 326.65487741 44.18121313 331.95034987 44.20385742 337.24584961 C44.22556908 342.35515221 44.23754363 347.46439293 44.242733 352.5737381 C44.24643177 354.52420272 44.25365441 356.47466392 44.26443863 358.42510223 C44.27893119 361.15448865 44.28095739 363.88361848 44.2800293 366.61303711 C44.28721985 367.421521 44.2944104 368.23000488 44.30181885 369.06298828 C44.27521602 376.28083328 44.27521602 376.28083328 42.05297852 379.14526367 C38.82250977 380.17260742 38.82250977 380.17260742 35.05297852 380.14526367 C32.59174218 378.74360018 30.83383583 377.52858041 28.74047852 375.70776367 C28.187229 375.25272461 27.63397949 374.79768555 27.06396484 374.32885742 C25.93301161 373.39769455 24.80819138 372.45903165 23.68969727 371.51293945 C21.26271238 369.48490107 18.7445875 367.5767 16.24047852 365.64526367 C13.78344727 363.73901367 13.78344727 363.73901367 12.05297852 362.14526367 C12.05297852 361.48526367 12.05297852 360.82526367 12.05297852 360.14526367 C10.73297852 359.81526367 9.41297852 359.48526367 8.05297852 359.14526367 C8.05297852 358.48526367 8.05297852 357.82526367 8.05297852 357.14526367 C6.73297852 356.81526367 5.41297852 356.48526367 4.05297852 356.14526367 C4.05297852 355.48526367 4.05297852 354.82526367 4.05297852 354.14526367 C2.97983398 353.77401367 2.97983398 353.77401367 1.88500977 353.39526367 C-1.26111855 352.00662773 -3.58513111 350.30062421 -6.25952148 348.14526367 C-7.1425293 347.44401367 -8.02553711 346.74276367 -8.93530273 346.02026367 C-9.59916992 345.40151367 -10.26303711 344.78276367 -10.94702148 344.14526367 C-10.94702148 343.48526367 -10.94702148 342.82526367 -10.94702148 342.14526367 C-11.49874023 341.89389648 -12.05045898 341.6425293 -12.61889648 341.38354492 C-21.67829282 336.56504049 -29.69434995 328.98703146 -37.60229492 322.48779297 C-38.57924316 321.68595581 -38.57924316 321.68595581 -39.57592773 320.86791992 C-40.44326538 320.15261108 -40.44326538 320.15261108 -41.328125 319.42285156 C-42.81010613 318.25331345 -44.37621113 317.19247057 -45.94702148 316.14526367 C-45.94702148 315.48526367 -45.94702148 314.82526367 -45.94702148 314.14526367 C-46.6031543 313.95061523 -47.25928711 313.7559668 -47.93530273 313.55541992 C-52.21848363 311.54993574 -55.53027678 308.61293863 -59.13452148 305.58276367 C-60.56421998 304.39240918 -61.99515122 303.20353329 -63.42749023 302.01635742 C-64.05550537 301.48969482 -64.68352051 300.96303223 -65.33056641 300.42041016 C-66.93270074 299.0679064 -66.93270074 299.0679064 -68.94702148 298.14526367 C-68.94702148 297.48526367 -68.94702148 296.82526367 -68.94702148 296.14526367 C-69.49874023 295.88358398 -70.05045898 295.6219043 -70.61889648 295.35229492 C-73.25674296 293.9846866 -75.71612296 292.4685608 -78.19702148 290.83276367 C-79.08905273 290.25913086 -79.98108398 289.68549805 -80.90014648 289.09448242 C-82.94702148 287.14526367 -82.94702148 287.14526367 -83.61889648 284.89135742 C-82.56384688 280.57914886 -79.81717317 277.82423894 -76.94702148 274.52026367 C-75.7464181 273.10326489 -74.54850335 271.68398374 -73.35327148 270.26245117 C-72.76803711 269.56732422 -72.18280273 268.87219727 -71.57983398 268.15600586 C-68.70148858 264.61144055 -66.20793653 260.82122329 -63.72827148 256.98901367 C-61.94702148 255.14526367 -61.94702148 255.14526367 -59.36499023 254.73901367 C-56.47069265 255.22529307 -55.45694312 256.36262653 -53.54467773 258.50854492 C-50.66574588 261.4578663 -47.3110281 263.85772601 -44.05639648 266.37573242 C-41.94702148 268.14526367 -41.94702148 268.14526367 -40.94702148 270.14526367 C-39.95702148 270.47526367 -38.96702148 270.80526367 -37.94702148 271.14526367 C-37.94702148 271.80526367 -37.94702148 272.46526367 -37.94702148 273.14526367 C-37.41206055 273.37084961 -36.87709961 273.59643555 -36.32592773 273.82885742 C-33.17631854 275.57174461 -30.58711083 277.85740753 -27.88452148 280.20776367 C-26.7172018 281.20982236 -25.54922323 282.21111396 -24.38061523 283.21166992 C-23.80037598 283.70940918 -23.22013672 284.20714844 -22.62231445 284.7199707 C-20.25910908 286.73052053 -17.85558619 288.6894101 -15.44702148 290.64526367 C-10.69671788 294.509681 -6.01690183 298.45116269 -1.36108398 302.4284668 C1.38765542 304.76935086 4.16076665 306.97610477 7.05297852 309.14526367 C7.38297852 289.34526367 7.71297852 269.54526367 8.05297852 249.14526367 C13.34844727 249.08467773 18.64391602 249.0240918 24.09985352 248.96166992 C27.45402833 248.92117641 30.80819509 248.88040358 34.16235352 248.83862305 C39.48654437 248.77232978 44.81073384 248.70707255 50.13500977 248.64794922 C54.42739793 248.60021979 58.71970722 248.54787392 63.01200104 248.49232292 C64.64983405 248.47193823 66.28768866 248.45321878 67.92556 248.43618965 C70.21908879 248.41205951 72.51246946 248.38201692 74.8059082 248.35058594 C76.11162781 248.33504166 77.41734741 248.31949738 78.76263428 248.30348206 C82.52459963 248.19785454 82.52459963 248.19785454 86.05297852 247.14526367 C88.64414853 243.46234197 88.34086671 239.45767908 88.32713318 235.13635254 C88.33236986 234.32313018 88.33760654 233.50990783 88.3430019 232.67204237 C88.35801885 229.94366551 88.35870742 227.21547591 88.359375 224.48706055 C88.36699518 222.53239118 88.37542243 220.57772482 88.38459778 218.62306213 C88.40655963 213.31121059 88.41534359 207.99941661 88.42042422 202.6875248 C88.42406485 199.3707727 88.43030327 196.05403576 88.43742561 192.73728943 C88.46192293 181.17193945 88.47497328 169.60663437 88.47851562 158.04125977 C88.48215435 147.25069708 88.51207316 136.46041824 88.55392021 125.66994238 C88.58856842 116.41211641 88.60406309 107.15438479 88.60476166 97.89649439 C88.60555614 92.3641814 88.61437366 86.83215765 88.64275932 81.2999115 C88.66884729 76.09924514 88.67119717 70.89910979 88.65510368 65.69840813 C88.65328197 63.7875802 88.66004466 61.87672237 88.67592239 59.96595955 C88.69624968 57.3613954 88.68591133 54.75871281 88.66770935 52.1541748 C88.6875093 51.01429651 88.6875093 51.01429651 88.70770925 49.85139036 C88.64706005 46.0640506 88.37390765 44.47808796 85.70205784 41.70720673 C82.24662861 39.6698258 79.69693033 39.02025134 75.75743103 39.03173828 C74.44297249 39.03184402 74.44297249 39.03184402 73.10195923 39.0319519 C72.14341034 39.03711823 71.18486145 39.04228455 70.19726562 39.04760742 C69.18566879 39.04906769 68.17407196 39.05052795 67.13182068 39.05203247 C64.9333898 39.05584081 62.734962 39.06195983 60.53654289 39.07009888 C57.06183637 39.08283141 53.58716787 39.08936996 50.11244202 39.09423828 C42.73843715 39.10568194 35.36446353 39.1249289 27.99047852 39.14526367 C19.44460336 39.16881786 10.89874605 39.18922255 2.35284615 39.20120239 C-1.07843777 39.20770917 -4.50966741 39.22021681 -7.94093323 39.23291016 C-10.03418937 39.23654108 -12.12744602 39.23989301 -14.22070312 39.24291992 C-15.18127625 39.24808624 -16.14184937 39.25325256 -17.13153076 39.25857544 C-18.00501663 39.25864594 -18.8785025 39.25871643 -19.77845764 39.25878906 C-20.92024522 39.26211998 -20.92024522 39.26211998 -22.08509922 39.26551819 C-23.94702148 39.14526367 -23.94702148 39.14526367 -25.94702148 38.14526367 C-25.51747767 36.74696147 -25.07795114 35.3517246 -24.63452148 33.95776367 C-24.39088867 33.18045898 -24.14725586 32.4031543 -23.89624023 31.60229492 C-22.94702148 29.14526367 -22.94702148 29.14526367 -21.48999023 26.73120117 C-19.79055701 23.88303713 -18.70299718 21.07363967 -17.57202148 17.95776367 C-10.80740373 -0.00628167 -10.80740373 -0.00628167 0 0 Z " fill="#1E452F" transform="translate(284.947021484375,145.854736328125)"/>
<path d="M0 0 C1.33870537 -0.00107666 2.67741027 -0.00302099 4.01611328 -0.00575256 C7.60212856 -0.01053731 11.1880165 -0.00303042 14.77401638 0.00720048 C18.54198976 0.01606899 22.3099602 0.01422197 26.07794189 0.01383972 C32.38857117 0.01477126 38.69915185 0.0233931 45.00976562 0.03710938 C52.30703655 0.05291141 59.60425468 0.0581044 66.90154147 0.05737382 C74.68935465 0.05669948 82.47714751 0.06362465 90.26495457 0.07282043 C92.50590911 0.07495215 94.74686039 0.0756616 96.98781586 0.07605934 C101.14815277 0.07724691 105.30842673 0.08694321 109.46875 0.09765625 C111.33252289 0.09697647 111.33252289 0.09697647 113.23394775 0.09628296 C114.92421082 0.10268044 114.92421082 0.10268044 116.64862061 0.10920715 C118.12294619 0.11172092 118.12294619 0.11172092 119.62705612 0.11428547 C121.95800781 0.24291992 121.95800781 0.24291992 123.95800781 1.24291992 C123.4195993 5.32046709 122.24544126 7.58068823 119.64550781 10.74291992 C119.01515625 11.52151367 118.38480469 12.30010742 117.73535156 13.10229492 C116.85556641 14.1619043 116.85556641 14.1619043 115.95800781 15.24291992 C113.11207156 18.71776687 113.11207156 18.71776687 110.65722656 22.46166992 C108.62339457 25.79060872 106.37172864 28.88357886 104.02050781 31.99291992 C103.59060547 32.58202148 103.16070312 33.17112305 102.71777344 33.77807617 C100.29649028 36.97461084 98.92179611 38.6257284 94.95800781 39.24291992 C93.36800742 39.32560962 91.77488934 39.35646326 90.18275452 39.34971619 C89.2252681 39.34820053 88.26778168 39.34668488 87.28128052 39.34512329 C85.71565872 39.33501724 85.71565872 39.33501724 84.1184082 39.32470703 C82.46171867 39.32010719 82.46171867 39.32010719 80.77156067 39.31541443 C78.37289266 39.30825981 75.97423052 39.29887004 73.57557869 39.28751945 C69.78072344 39.27014951 65.98591018 39.25983651 62.19102478 39.25160217 C51.40115225 39.22712899 40.61134017 39.19158338 29.8215332 39.14697266 C23.22282828 39.11977565 16.62414324 39.10315325 10.02538872 39.09210396 C7.50915759 39.08589007 4.99293291 39.07587969 2.47673225 39.06202507 C-1.03988687 39.04283435 -4.55633366 39.03591627 -8.07299805 39.03173828 C-9.11472168 39.02297668 -10.15644531 39.01421509 -11.22973633 39.00518799 C-12.19004257 39.00649216 -13.15034882 39.00779633 -14.13975525 39.00914001 C-14.97062621 39.00599761 -15.80149717 39.00285521 -16.65754604 38.99961758 C-19.43473234 39.28299405 -21.54163868 40.01232204 -24.04199219 41.24291992 C-24.53699219 42.23291992 -24.53699219 42.23291992 -25.04199219 43.24291992 C-25.70199219 43.24291992 -26.36199219 43.24291992 -27.04199219 43.24291992 C-27.13538272 69.10290792 -27.20594554 94.96287069 -27.24924088 120.82299328 C-27.26987687 132.82996949 -27.2980174 144.83684099 -27.34375 156.84375 C-27.38358587 167.30747382 -27.40941745 177.77112183 -27.41834617 188.23491937 C-27.42356639 193.77680203 -27.43585756 199.31846777 -27.46491241 204.86028099 C-27.49203005 210.07476635 -27.50044452 215.28894509 -27.49442291 220.50349426 C-27.49552478 222.41874164 -27.5035003 224.3339991 -27.51881409 226.24918556 C-27.53868495 228.86211458 -27.5339422 231.47388247 -27.52301025 234.08683777 C-27.5404873 235.22643952 -27.5404873 235.22643952 -27.55831742 236.38906354 C-27.50282186 241.28871323 -26.54491065 243.81054938 -23.04199219 247.24291992 C-19.79352944 248.86715129 -16.21643099 248.42332764 -12.64501953 248.44824219 C-11.7766597 248.45814178 -10.90829987 248.46804138 -10.0136261 248.47824097 C-7.13508864 248.5099015 -4.25653465 248.53463137 -1.37792969 248.55932617 C0.61461829 248.57989177 2.60716186 248.60088813 4.59970093 248.62229919 C9.85054973 248.67756059 15.10143817 248.72695192 20.35235596 248.77514648 C25.70792173 248.82533183 31.06342977 248.88103336 36.41894531 248.9362793 C46.93191685 249.04391062 57.44493847 249.14534453 67.95800781 249.24291992 C69.33698926 253.37986425 67.65213679 255.75053646 65.89550781 259.49291992 C65.24089062 260.92938605 64.5886011 262.3669149 63.93847656 263.80541992 C63.60638184 264.53889648 63.27428711 265.27237305 62.93212891 266.02807617 C60.89400803 270.66211943 59.12340223 275.40542668 57.31738281 280.13354492 C55.177975 285.02713291 55.177975 285.02713291 52.95800781 287.24291992 C49.93113708 287.73739624 49.93113708 287.73739624 46.16674805 287.72875977 C45.48011581 287.73255646 44.79348358 287.73635315 44.08604431 287.74026489 C41.81243386 287.74768215 39.54009891 287.72625863 37.26660156 287.70385742 C35.68058929 287.70147164 34.09457416 287.70056796 32.50856018 287.70108032 C29.17862323 287.69794938 25.84911589 287.68137365 22.51928711 287.65454102 C18.27500152 287.62075425 14.03119227 287.61290697 9.78678799 287.61443138 C6.5068364 287.61388393 3.22698661 287.60285391 -0.05293083 287.5884285 C-1.61603971 287.58211058 -3.17916002 287.57813347 -4.74228096 287.57664108 C-22.18462329 287.54178925 -36.92182021 284.95779908 -50.31542969 273.03198242 C-58.43806158 264.61531861 -63.68028664 254.80475905 -63.54992676 243.06568909 C-63.55616672 242.18709116 -63.56240668 241.30849324 -63.56883574 240.40327114 C-63.58468702 237.48308602 -63.57219241 234.56374479 -63.55957031 231.64355469 C-63.56499496 229.54024776 -63.57211954 227.43694464 -63.58081055 225.33364868 C-63.599007 219.63731565 -63.59199113 213.94127322 -63.5792942 208.24493527 C-63.56914621 202.27452405 -63.57856501 196.30413721 -63.58483887 190.33372498 C-63.59211058 180.30756172 -63.58254059 170.28151643 -63.56347656 160.25537109 C-63.54171477 148.67698315 -63.54875622 137.09887705 -63.57078218 125.52049595 C-63.58895677 115.56692523 -63.59148423 105.61343917 -63.58102751 95.65985721 C-63.57480317 89.72061003 -63.57392774 83.78149514 -63.58717346 77.84225655 C-63.59876101 72.25659296 -63.59065291 66.6712913 -63.56759644 61.08566666 C-63.56232463 59.0403052 -63.56379681 56.99491308 -63.57264709 54.94956398 C-63.62419216 41.82310052 -63.062797 31.98931722 -54.91699219 21.11791992 C-54.23378906 20.1872168 -53.55058594 19.25651367 -52.84667969 18.29760742 C-52.25113281 17.61956055 -51.65558594 16.94151367 -51.04199219 16.24291992 C-50.38199219 16.24291992 -49.72199219 16.24291992 -49.04199219 16.24291992 C-48.79449219 15.64479492 -48.54699219 15.04666992 -48.29199219 14.43041992 C-44.51798336 7.82590448 -35.01284364 4.34464557 -28.04199219 2.24291992 C-18.69991263 0.42796325 -9.49309219 -0.04379037 0 0 Z " fill="#1E452F" transform="translate(63.0419921875,145.757080078125)"/>
<path d="M0 0 C2 3 2 3 1.625 5.1875 C1.41875 5.785625 1.2125 6.38375 1 7 C0.34 7 -0.32 7 -1 7 C-0.505 11.95 -0.505 11.95 0 17 C-2 18 -2 18 -5 19 C-5 20.98 -5 22.96 -5 25 C-6.485 25.495 -6.485 25.495 -8 26 C-8.185625 27.2375 -8.185625 27.2375 -8.375 28.5 C-9.07102155 32.39772067 -10.00880949 36.16739669 -11 40 C-11.66 40 -12.32 40 -13 40 C-13.33 41.65 -13.66 43.3 -14 45 C-14.66 45 -15.32 45 -16 45 C-14.06964869 37.68304931 -11.40232316 30.70338542 -8.60131836 23.68603516 C-6.82426243 19.21365485 -5.19971035 14.72546665 -3.72851562 10.14282227 C-2.90600885 7.72353876 -1.9656766 5.36533902 -1 3 C-2.19592773 3.00785522 -2.19592773 3.00785522 -3.41601562 3.01586914 C-33.28528977 3.18092738 -63.13775834 2.60183113 -93 2 C-93.33 1.34 -93.66 0.68 -94 0 C-92.37174789 0.00333092 -92.37174789 0.00333092 -90.71060181 0.00672913 C-80.49822171 0.0269701 -70.28584567 0.04197677 -60.07345009 0.05181217 C-54.82272127 0.05703856 -49.57200859 0.06413181 -44.32128906 0.07543945 C-39.25738745 0.08627696 -34.1935014 0.09227868 -29.12958908 0.09487724 C-27.19422536 0.09672993 -25.25886252 0.10034756 -23.3235054 0.10573006 C-20.62011093 0.11295192 -17.91678141 0.11399045 -15.21337891 0.11352539 C-14.40705521 0.11712067 -13.60073151 0.12071594 -12.76997375 0.12442017 C-8.03959453 0.11557034 -4.55860275 -1.36758082 0 0 Z " fill="#74C677" transform="translate(182,317)"/>
<path d="M0 0 C26.73 0 53.46 0 81 0 C80.34 0.99 79.68 1.98 79 3 C76.42681081 3.28654687 74.09502901 3.37852887 71.52099609 3.34057617 C70.3647599 3.34123329 70.3647599 3.34123329 69.18516541 3.34190369 C66.63100063 3.3398095 64.07748795 3.31644941 61.5234375 3.29296875 C59.75510008 3.28737502 57.98675803 3.28310387 56.21841431 3.28010559 C51.55923678 3.26863921 46.90033886 3.23915675 42.24127197 3.20599365 C37.48901146 3.1753313 32.73670587 3.16160847 27.984375 3.14648438 C18.65612701 3.11428866 9.32808673 3.06307078 0 3 C0 2.01 0 1.02 0 0 Z " fill="#4B5E53" transform="translate(261,182)"/>
<path d="M0 0 C0.99 0 1.98 0 3 0 C1.38770266 9.02886513 -1.63155388 16.017477 -5 25 C12.16 25 29.32 25 47 25 C47 25.33 47 25.66 47 26 C29.51 26 12.02 26 -6 26 C-6 23.69 -6 21.38 -6 19 C-5.34 19 -4.68 19 -4 19 C-3.04322004 13.8981883 -3.04322004 13.8981883 -3.625 8.875 C-4.25080559 5.74597206 -2.53433275 3.65557592 -1 1 C-0.67 0.67 -0.34 0.34 0 0 Z " fill="#74C577" transform="translate(222,216)"/>
<path d="M0 0 C1.9375 1.625 1.9375 1.625 3 4 C2.79064506 9.44322854 1.01393287 14.00894898 -1 19 C-1.33 19 -1.66 19 -2 19 C-2.14285714 10.42857143 -2.14285714 10.42857143 -1 7 C-1.66 7 -2.32 7 -3 7 C-3.66 5.68 -4.32 4.36 -5 3 C-3.68 3 -2.36 3 -1 3 C-1 2.34 -1 1.68 -1 1 C-4.77254453 1.50980331 -6.44987123 2.20700182 -9 5 C-9.66 5 -10.32 5 -11 5 C-11 4.34 -11 3.68 -11 3 C-10.34 3 -9.68 3 -9 3 C-8.67 2.01 -8.34 1.02 -8 0 C-5.03475663 -1.48262169 -3.14877613 -0.83538959 0 0 Z " fill="#60C064" transform="translate(263,97)"/>
<path d="M0 0 C2 3 2 3 1.625 5.1875 C1.41875 5.785625 1.2125 6.38375 1 7 C0.34 7 -0.32 7 -1 7 C-1 5.68 -1 4.36 -1 3 C-1.68102783 3.01047363 -2.36205566 3.02094727 -3.0637207 3.03173828 C-6.14660966 3.07328878 -9.22943971 3.09932311 -12.3125 3.125 C-13.38435547 3.14175781 -14.45621094 3.15851563 -15.56054688 3.17578125 C-16.58857422 3.18222656 -17.61660156 3.18867188 -18.67578125 3.1953125 C-19.62364502 3.20578613 -20.57150879 3.21625977 -21.5480957 3.22705078 C-24 3 -24 3 -27 1 C-26.40461426 0.97494385 -25.80922852 0.9498877 -25.19580078 0.92407227 C-22.50530864 0.80822506 -19.8151766 0.68544804 -17.125 0.5625 C-16.18785156 0.52318359 -15.25070313 0.48386719 -14.28515625 0.44335938 C-13.38925781 0.40146484 -12.49335938 0.35957031 -11.5703125 0.31640625 C-10.32918701 0.26141968 -10.32918701 0.26141968 -9.06298828 0.20532227 C-1.74377962 -0.52313389 -1.74377962 -0.52313389 0 0 Z " fill="#63C265" transform="translate(182,317)"/>
<path d="M0 0 C-0.33 0.99 -0.66 1.98 -1 3 C-10.57 3 -20.14 3 -30 3 C-30 2.01 -30 1.02 -30 0 C-25.75038214 -0.19694005 -21.50029973 -0.38092074 -17.25 -0.5625 C-16.0434375 -0.61857422 -14.836875 -0.67464844 -13.59375 -0.73242188 C-11.85351562 -0.80493164 -11.85351562 -0.80493164 -10.078125 -0.87890625 C-9.00981445 -0.9260376 -7.94150391 -0.97316895 -6.84082031 -1.02172852 C-4.33305593 -1.00254744 -2.37796573 -0.74499559 0 0 Z " fill="#4C6154" transform="translate(132,182)"/>
<path d="M0 0 C0.33 0 0.66 0 1 0 C1.125 7.75 1.125 7.75 0 10 C-0.66 10 -1.32 10 -2 10 C-1.938125 10.9075 -1.87625 11.815 -1.8125 12.75 C-2.0212109 16.36765567 -2.70064709 17.33275063 -5 20 C-5.33 20.99 -5.66 21.98 -6 23 C-5.01 23.33 -4.02 23.66 -3 24 C-3 24.66 -3 25.32 -3 26 C-0.69 26 1.62 26 4 26 C4 26.66 4 27.32 4 28 C-3.49433468 28.36857384 -3.49433468 28.36857384 -5.7578125 26.71875 C-7.59174065 24.18123935 -7.15352724 21.94969069 -6.7265625 18.9609375 C-5.12639795 12.43983682 -2.49611122 6.22119463 0 0 Z " fill="#69C472" transform="translate(135,445)"/>
<path d="M0 0 C0.33 0.99 0.66 1.98 1 3 C-0.3125 5.1875 -0.3125 5.1875 -2 7 C-2.66 7 -3.32 7 -4 7 C-5.52299523 9.93720508 -6.80100302 12.9168649 -8 16 C-7.34 16 -6.68 16 -6 16 C-5.34 17.65 -4.68 19.3 -4 21 C-6.49361571 19.79618552 -8.68143083 18.54571278 -11 17 C-11.4609375 14.734375 -11.4609375 14.734375 -11 12 C-9.1015625 9.140625 -9.1015625 9.140625 -6.625 6.25 C-5.81289062 5.28578125 -5.00078125 4.3215625 -4.1640625 3.328125 C-2 1 -2 1 0 0 Z " fill="#5B6F64" transform="translate(213,416)"/>
<path d="M0 0 C0.33 0.99 0.66 1.98 1 3 C1.92232422 2.87431641 1.92232422 2.87431641 2.86328125 2.74609375 C3.67152344 2.64425781 4.47976562 2.54242188 5.3125 2.4375 C6.11300781 2.33308594 6.91351563 2.22867187 7.73828125 2.12109375 C10 2 10 2 13 3 C11.125 6.875 11.125 6.875 10 8 C2.80610687 8.46412214 2.80610687 8.46412214 -0.0625 6.8125 C-1.38135516 4.26271335 -0.7975116 2.68253902 0 0 Z " fill="#37BA40" transform="translate(130,463)"/>
<path d="M0 0 C0.66 0.33 1.32 0.66 2 1 C1.60460044 6.75845536 0.22353144 9.6182247 -3.5625 13.9375 C-4.38878906 14.89527344 -5.21507812 15.85304688 -6.06640625 16.83984375 C-7.02353516 17.90912109 -7.02353516 17.90912109 -8 19 C-9.15941038 15.52176885 -8.70820884 13.54104422 -8 10 C-6.35 10.33 -4.7 10.66 -3 11 C-3.061875 9.88625 -3.061875 9.88625 -3.125 8.75 C-2.99440264 5.87685804 -2.4339648 4.44617524 -1 2 C-0.67 1.34 -0.34 0.68 0 0 Z " fill="#60BC67" transform="translate(313,245)"/>
<path d="M0 0 C1.43088528 2.86177057 0.59991697 4.93375773 0 8 C0.66 8.33 1.32 8.66 2 9 C2 9.99 2 10.98 2 12 C8.27 12 14.54 12 21 12 C21 12.33 21 12.66 21 13 C17.72918529 13.02902429 14.4584037 13.04680684 11.1875 13.0625 C10.25873047 13.07087891 9.32996094 13.07925781 8.37304688 13.08789062 C7.48037109 13.09111328 6.58769531 13.09433594 5.66796875 13.09765625 C4.84578857 13.10289307 4.0236084 13.10812988 3.17651367 13.11352539 C1 13 1 13 -2 12 C-3.40457737 9.19084526 -3.24895157 7.11189466 -3 4 C-1.5 1.625 -1.5 1.625 0 0 Z " fill="#43B14A" transform="translate(89,305)"/>
<path d="M0 0 C1.10236375 3.27443883 0.92204708 5.00443712 -0.36328125 8.1875 C-0.67330078 8.96867188 -0.98332031 9.74984375 -1.30273438 10.5546875 C-1.80256836 11.76511719 -1.80256836 11.76511719 -2.3125 13 C-2.63412109 13.80695313 -2.95574219 14.61390625 -3.28710938 15.4453125 C-4.7318339 19.04080763 -6.23339762 22.54918822 -8 26 C-8.54102012 20.04877865 -6.99618661 15.45184119 -4.97265625 9.8671875 C-3.93148094 7.05982301 -3.93148094 7.05982301 -3.55859375 4.2578125 C-3 2 -3 2 0 0 Z " fill="#70C272" transform="translate(239,174)"/>
<path d="M0 0 C3.14581423 -0.02888514 6.29159469 -0.04675923 9.4375 -0.0625 C10.33533203 -0.07087891 11.23316406 -0.07925781 12.15820312 -0.08789062 C13.01220703 -0.09111328 13.86621094 -0.09433594 14.74609375 -0.09765625 C15.93223267 -0.10551147 15.93223267 -0.10551147 17.14233398 -0.11352539 C19 0 19 0 20 1 C22.32817964 1.36760731 24.6618385 1.70241581 27 2 C27 2.33 27 2.66 27 3 C18.09 3 9.18 3 0 3 C0 2.01 0 1.02 0 0 Z " fill="#5A7863" transform="translate(46,182)"/>
<path d="M0 0 C0.99 0.66 1.98 1.32 3 2 C1.20942753 4.12593053 -0.58240553 6.25077556 -2.375 8.375 C-2.88289062 8.97828125 -3.39078125 9.5815625 -3.9140625 10.203125 C-4.64882812 11.07324219 -4.64882812 11.07324219 -5.3984375 11.9609375 C-5.84880371 12.49509277 -6.29916992 13.02924805 -6.76318359 13.57958984 C-7.79399612 14.76341678 -8.89004039 15.89004039 -10 17 C-11 14 -11 14 -9.75 11.3125 C-9.1725 10.549375 -8.595 9.78625 -8 9 C-7.01 9 -6.02 9 -5 9 C-4.67 7.35 -4.34 5.7 -4 4 C-3.01 4 -2.02 4 -1 4 C-0.67 2.68 -0.34 1.36 0 0 Z " fill="#59B85A" transform="translate(229,354)"/>
<path d="M0 0 C0.75 1.75 0.75 1.75 1 4 C-0.875 6.125 -0.875 6.125 -3 8 C-3.33 8.66 -3.66 9.32 -4 10 C-4.66 10 -5.32 10 -6 10 C-5.67 11.98 -5.34 13.96 -5 16 C-5.78375 15.814375 -6.5675 15.62875 -7.375 15.4375 C-9.97089775 14.74037734 -9.97089775 14.74037734 -12 16 C-10.37921571 12.27131047 -8.02767716 9.42653322 -5.4375 6.3125 C-4.63183594 5.33925781 -3.82617188 4.36601562 -2.99609375 3.36328125 C-1 1 -1 1 0 0 Z " fill="#70C46E" transform="translate(154,224)"/>
<path d="M0 0 C1 2 1 2 0.25 5.5 C-1 9 -1 9 -4 11 C-4.99 11 -5.98 11 -7 11 C-7.33 12.32 -7.66 13.64 -8 15 C-8.99 15 -9.98 15 -11 15 C-9.3718356 11.24269753 -6.98598083 8.383177 -4.375 5.25 C-3.55773437 4.26515625 -2.74046875 3.2803125 -1.8984375 2.265625 C-1.27195313 1.51796875 -0.64546875 0.7703125 0 0 Z " fill="#6DC471" transform="translate(200,166)"/>
<path d="M0 0 C1.32 0 2.64 0 4 0 C-0.2 9.1 -0.2 9.1 -4 11 C-4 10.34 -4 9.68 -4 9 C-4.66 8.67 -5.32 8.34 -6 8 C-5.8125 6.125 -5.8125 6.125 -5 4 C-2.4375 2.75 -2.4375 2.75 0 2 C0 1.34 0 0.68 0 0 Z " fill="#476252" transform="translate(174,161)"/>
<path d="M0 0 C0.33 0.66 0.66 1.32 1 2 C1.66 2 2.32 2 3 2 C2.35550393 5.01217112 1.34977818 7.51655836 -0.0625 10.25 C-0.42472656 10.95640625 -0.78695313 11.6628125 -1.16015625 12.390625 C-1.43730469 12.92171875 -1.71445312 13.4528125 -2 14 C-2.33 14 -2.66 14 -3 14 C-3.625 11.1875 -3.625 11.1875 -4 8 C-3.34 7.01 -2.68 6.02 -2 5 C-2.33 4.01 -2.66 3.02 -3 2 C-2.01 1.34 -1.02 0.68 0 0 Z " fill="#3A5245" transform="translate(405,396)"/>
<path d="M0 0 C1.50955702 5.61522844 1.04160243 10.78093394 -1.4375 16.0625 C-1.953125 16.701875 -2.46875 17.34125 -3 18 C-3.66 18 -4.32 18 -5 18 C-5.33 19.32 -5.66 20.64 -6 22 C-7 20 -7 20 -6.47094727 17.93701172 C-6.17244873 17.10959473 -5.8739502 16.28217773 -5.56640625 15.4296875 C-5.24736328 14.53378906 -4.92832031 13.63789063 -4.59960938 12.71484375 C-4.25736328 11.77769531 -3.91511719 10.84054687 -3.5625 9.875 C-3.22412109 8.93011719 -2.88574219 7.98523438 -2.53710938 7.01171875 C-1.6981094 4.67197234 -0.85215708 2.33497991 0 0 Z " fill="#72C779" transform="translate(143,423)"/>
<path d="M0 0 C0.33 1.32 0.66 2.64 1 4 C0.01 4 -0.98 4 -2 4 C-2.020625 4.86625 -2.04125 5.7325 -2.0625 6.625 C-3.23167801 10.83404083 -5.02309097 12.12415951 -8.40625 14.703125 C-10.13591647 15.92891994 -10.13591647 15.92891994 -11 18 C-11.66 18 -12.32 18 -13 18 C-11.25731793 14.03935893 -8.85325271 10.25563451 -6 7 C-5.34 7 -4.68 7 -4 7 C-3.896875 6.401875 -3.79375 5.80375 -3.6875 5.1875 C-2.91123545 2.71756736 -1.92911079 1.67748765 0 0 Z " fill="#75C479" transform="translate(227,132)"/>
<path d="M0 0 C1.2065625 0.0309375 1.2065625 0.0309375 2.4375 0.0625 C0.60499123 3.2039436 -1.19948023 6.28852027 -3.5625 9.0625 C-4.2225 9.0625 -4.8825 9.0625 -5.5625 9.0625 C-5.8925 10.3825 -6.2225 11.7025 -6.5625 13.0625 C-6.8925 13.0625 -7.2225 13.0625 -7.5625 13.0625 C-7.2325 10.7525 -6.9025 8.4425 -6.5625 6.0625 C-5.9025 6.0625 -5.2425 6.0625 -4.5625 6.0625 C-4.418125 5.258125 -4.27375 4.45375 -4.125 3.625 C-3.347189 0.08163876 -3.347189 0.08163876 0 0 Z " fill="#62C565" transform="translate(183.5625,411.9375)"/>
<path d="M0 0 C1.65 0 3.3 0 5 0 C3.51222697 3.25964342 1.64333184 5.93169293 -0.5625 8.75 C-1.49255859 9.94882812 -1.49255859 9.94882812 -2.44140625 11.171875 C-2.95574219 11.77515625 -3.47007812 12.3784375 -4 13 C-4.33 13 -4.66 13 -5 13 C-4.67 10.69 -4.34 8.38 -4 6 C-2.68 5.67 -1.36 5.34 0 5 C0 3.35 0 1.7 0 0 Z " fill="#6FC371" transform="translate(161,437)"/>
<path d="M0 0 C1 2 1 2 0.3125 4.25 C-1.22060288 7.46221556 -2.77960221 10.20864278 -5 13 C-7.75 13.875 -7.75 13.875 -10 14 C-6.86427316 9.17580486 -3.4851448 4.57715684 0 0 Z " fill="#6DC271" transform="translate(251,102)"/>
<path d="M0 0 C1.40966019 4.58139563 1.70441549 8.45699464 -0.3125 12.875 C-0.869375 13.57625 -1.42625 14.2775 -2 15 C-2.99 15 -3.98 15 -5 15 C-1.92482916 4.44191344 -1.92482916 4.44191344 0 0 Z " fill="#51BC57" transform="translate(149,408)"/>
<path d="M0 0 C1.65 0 3.3 0 5 0 C4.06981474 1.46300982 3.13055973 2.92025579 2.1875 4.375 C1.66542969 5.18710937 1.14335937 5.99921875 0.60546875 6.8359375 C-1 9 -1 9 -4 11 C-4.33 10.01 -4.66 9.02 -5 8 C-4.67 7.34 -4.34 6.68 -4 6 C-3.34 6 -2.68 6 -2 6 C-1.34 4.02 -0.68 2.04 0 0 Z " fill="#62C267" transform="translate(213,372)"/>
<path d="M0 0 C0.93423645 3.01031744 1.04449911 3.86650268 0 7 C0.99 7.33 1.98 7.66 3 8 C3 8.66 3 9.32 3 10 C5.31 10 7.62 10 10 10 C10 10.66 10 11.32 10 12 C2.53647059 12.36705882 2.53647059 12.36705882 0.21875 10.78125 C-1.41566571 8.39248858 -1.13708767 7.13264086 -0.6875 4.3125 C-0.56761719 3.50425781 -0.44773438 2.69601562 -0.32421875 1.86328125 C-0.21722656 1.24839844 -0.11023438 0.63351562 0 0 Z " fill="#79C37E" transform="translate(129,461)"/>
<path d="M0 0 C0 3.60573896 -0.81707462 4.41336566 -3 7.1875 C-3.556875 7.90292969 -4.11375 8.61835938 -4.6875 9.35546875 C-5.120625 9.89816406 -5.55375 10.44085938 -6 11 C-8 7.25 -8 7.25 -8 5 C-6.25 3.7109375 -6.25 3.7109375 -4 2.375 C-3.2575 1.92898437 -2.515 1.48296875 -1.75 1.0234375 C-1.1725 0.68570313 -0.595 0.34796875 0 0 Z " fill="#546B5F" transform="translate(169,172)"/>
<path d="M0 0 C2 3 2 3 2 7 C2.99 7.66 3.98 8.32 5 9 C4.67 11.31 4.34 13.62 4 16 C0.9005971 12.09205721 -0.13464242 9.29032666 -0.0625 4.3125 C-0.05347656 3.50425781 -0.04445312 2.69601562 -0.03515625 1.86328125 C-0.02355469 1.24839844 -0.01195312 0.63351562 0 0 Z " fill="#50685A" transform="translate(0,389)"/>
<path d="M0 0 C0.66 0.33 1.32 0.66 2 1 C0.02 4.63 -1.96 8.26 -4 12 C-5.32 11.67 -6.64 11.34 -8 11 C-5.36 7.37 -2.72 3.74 0 0 Z " fill="#80CA83" transform="translate(98,293)"/>
<path d="M0 0 C0.33 0 0.66 0 1 0 C1.25020862 3.00250341 1.22562095 4.61322124 -0.3125 7.25 C-2 9 -2 9 -5 10 C-5.33 10.66 -5.66 11.32 -6 12 C-6.66 12 -7.32 12 -8 12 C-6.59422879 8.98472262 -4.93873852 6.4052059 -2.9375 3.75 C-2.41027344 3.04359375 -1.88304687 2.3371875 -1.33984375 1.609375 C-0.89769531 1.07828125 -0.45554688 0.5471875 0 0 Z " fill="#69C46D" transform="translate(163,212)"/>
<path d="M0 0 C1.35304209 4.05912626 0.15216503 5.77149591 -1.4375 9.6875 C-2.14712891 11.45673828 -2.14712891 11.45673828 -2.87109375 13.26171875 C-3.24363281 14.16535156 -3.61617187 15.06898438 -4 16 C-4.33 16 -4.66 16 -5 16 C-5 14.02 -5 12.04 -5 10 C-4.34 10 -3.68 10 -3 10 C-3 8.02 -3 6.04 -3 4 C-3.66 3.67 -4.32 3.34 -5 3 C-4.360625 2.87625 -3.72125 2.7525 -3.0625 2.625 C-2.0415625 2.315625 -2.0415625 2.315625 -1 2 C-0.67 1.34 -0.34 0.68 0 0 Z " fill="#67C56D" transform="translate(230,200)"/>
<path d="M0 0 C0.68707555 2.49064888 1 4.37886292 1 7 C0.34 7 -0.32 7 -1 7 C-1.33 7.66 -1.66 8.32 -2 9 C-4.5625 9.625 -4.5625 9.625 -7 10 C-5.33248852 6.05860922 -2.77289351 3.2107188 0 0 Z " fill="#69C76F" transform="translate(188,181)"/>
<path d="M0 0 C0.33 0 0.66 0 1 0 C1 2.64 1 5.28 1 8 C0.34 8 -0.32 8 -1 8 C-1.33 10.31 -1.66 12.62 -2 15 C-2.99 15.33 -3.98 15.66 -5 16 C-3.71291613 10.45563871 -2.08135307 5.29798964 0 0 Z " fill="#75C978" transform="translate(158,383)"/>
<path d="M0 0 C1.32 0.33 2.64 0.66 4 1 C1.03 4.63 -1.94 8.26 -5 12 C-5.33 11.01 -5.66 10.02 -6 9 C-5.34 9 -4.68 9 -4 9 C-4.33 8.01 -4.66 7.02 -5 6 C-3.68 5.67 -2.36 5.34 -1 5 C-0.67 3.35 -0.34 1.7 0 0 Z " fill="#63C267" transform="translate(246,332)"/>
<path d="M0 0 C1.32 0 2.64 0 4 0 C2.23867546 4.00301032 -0.26132483 7.6028977 -3 11 C-3.33 11 -3.66 11 -4 11 C-4 9.35 -4 7.7 -4 6 C-3.34 6 -2.68 6 -2 6 C-2 5.34 -2 4.68 -2 4 C-1.34 4 -0.68 4 0 4 C-0.33 3.01 -0.66 2.02 -1 1 C-0.67 0.67 -0.34 0.34 0 0 Z " fill="#63C064" transform="translate(263,310)"/>
<path d="M0 0 C0.33 1.32 0.66 2.64 1 4 C0.34 4 -0.32 4 -1 4 C-1.66 6.31 -2.32 8.62 -3 11 C-4.32 11 -5.64 11 -7 11 C-6.52648061 6.73832553 -3.99978097 4.84979192 -1 2 C-0.67 1.34 -0.34 0.68 0 0 Z " fill="#6BC36E" transform="translate(107,282)"/>
<path d="M0 0 C1.24546405 2.49092811 0.7767578 3.41080733 0 6 C0.66 6.33 1.32 6.66 2 7 C0.865625 7.28875 -0.26875 7.5775 -1.4375 7.875 C-2.613125 8.24625 -3.78875 8.6175 -5 9 C-5.33 9.66 -5.66 10.32 -6 11 C-6.66 10.67 -7.32 10.34 -8 10 C-5.36 6.7 -2.72 3.4 0 0 Z " fill="#7ACC7F" transform="translate(180,191)"/>
<path d="M0 0 C0.91007812 0.00902344 1.82015625 0.01804688 2.7578125 0.02734375 C3.45648438 0.03894531 4.15515625 0.05054688 4.875 0.0625 C3.885 1.5475 3.885 1.5475 2.875 3.0625 C0.4921875 3.35546875 0.4921875 3.35546875 -2.25 3.25 C-3.16007812 3.22292969 -4.07015625 3.19585937 -5.0078125 3.16796875 C-5.70648438 3.13316406 -6.40515625 3.09835938 -7.125 3.0625 C-7.125 2.4025 -7.125 1.7425 -7.125 1.0625 C-4.60024538 -0.19987731 -2.81299534 -0.03606404 0 0 Z " fill="#4A5E52" transform="translate(353.125,181.9375)"/>
<path d="M0 0 C-1.875 3.875 -1.875 3.875 -3 5 C-4.66617115 5.04063832 -6.33388095 5.042721 -8 5 C-7.625 2.5625 -7.625 2.5625 -7 0 C-4.3333581 -1.33332095 -2.83319697 -0.67102033 0 0 Z " fill="#4CBB50" transform="translate(143,466)"/>
<path d="M0 0 C3.94139078 1.66751148 6.7892812 4.22710649 10 7 C9.01 7.66 8.02 8.32 7 9 C5 8 5 8 3.5625 6.0625 C1.99595257 3.76022448 1.99595257 3.76022448 -1 2 C-0.67 1.34 -0.34 0.68 0 0 Z " fill="#61756A" transform="translate(278,445)"/>
<path d="M0 0 C0.33 0.66 0.66 1.32 1 2 C-0.65909182 6.10406925 -2.21704034 8.65195608 -6 11 C-6.66 10.67 -7.32 10.34 -8 10 C-5.36 6.7 -2.72 3.4 0 0 Z " fill="#6DC474" transform="translate(141,240)"/>
<path d="M0 0 C0.99 0.33 1.98 0.66 3 1 C2.67 1.99 2.34 2.98 2 4 C1.34 4 0.68 4 0 4 C-0.66 5.32 -1.32 6.64 -2 8 C-3.32 7.67 -4.64 7.34 -6 7 C-4.02 4.69 -2.04 2.38 0 0 Z " fill="#5EC064" transform="translate(114,274)"/>
<path d="M0 0 C0.33 0.99 0.66 1.98 1 3 C0.34 3 -0.32 3 -1 3 C-1 2.34 -1 1.68 -1 1 C-4.77254453 1.50980331 -6.44987123 2.20700182 -9 5 C-9.66 5 -10.32 5 -11 5 C-11 4.34 -11 3.68 -11 3 C-10.34 3 -9.68 3 -9 3 C-8.67 2.01 -8.34 1.02 -8 0 C-5.13822943 -1.43088528 -3.06624227 -0.59991697 0 0 Z " fill="#94CF98" transform="translate(263,97)"/>
<path d="M0 0 C0.66 0 1.32 0 2 0 C2.33 0.99 2.66 1.98 3 3 C2.360625 3.268125 1.72125 3.53625 1.0625 3.8125 C-1.33131686 4.88667752 -1.33131686 4.88667752 -2 8 C-2.99 7.67 -3.98 7.34 -5 7 C-4.21654285 5.82780457 -3.42297164 4.66236332 -2.625 3.5 C-2.18414062 2.8503125 -1.74328125 2.200625 -1.2890625 1.53125 C-0.65097656 0.77328125 -0.65097656 0.77328125 0 0 Z " fill="#6BC670" transform="translate(206,158)"/>
<path d="M0 0 C2.31 0 4.62 0 7 0 C5.25 5.75 5.25 5.75 3 8 C3 6.02 3 4.04 3 2 C2.01 1.67 1.02 1.34 0 1 C0 0.67 0 0.34 0 0 Z " fill="#53655B" transform="translate(125,396)"/>
<path d="M0 0 C0.33 1.32 0.66 2.64 1 4 C0.01 4.33 -0.98 4.66 -2 5 C-2 6.32 -2 7.64 -2 9 C-3.65 9.33 -5.3 9.66 -7 10 C-4.75421558 6.59260295 -2.48862878 3.23521742 0 0 Z " fill="#70C677" transform="translate(171,202)"/>
<path d="M0 0 C0.33 0.99 0.66 1.98 1 3 C-0.65 4.65 -2.3 6.3 -4 8 C-4.33 6.68 -4.66 5.36 -5 4 C-3.35 2.68 -1.7 1.36 0 0 Z " fill="#445C4F" transform="translate(213,416)"/>
<path d="M0 0 C1.32 0.33 2.64 0.66 4 1 C3.01 1.495 3.01 1.495 2 2 C1.34786708 4.02463255 1.34786708 4.02463255 1 6 C0.34 6 -0.32 6 -1 6 C-1.66 7.32 -2.32 8.64 -3 10 C-3.33 9.01 -3.66 8.02 -4 7 C-3.67 6.34 -3.34 5.68 -3 5 C-2.01 5 -1.02 5 0 5 C0 3.35 0 1.7 0 0 Z " fill="#6FC274" transform="translate(272,299)"/>
<path d="M0 0 C1.6396875 0.0928125 1.6396875 0.0928125 3.3125 0.1875 C3.3125 1.1775 3.3125 2.1675 3.3125 3.1875 C0.0125 3.1875 -3.2875 3.1875 -6.6875 3.1875 C-3.6875 0.1875 -3.6875 0.1875 0 0 Z " fill="#516A5E" transform="translate(89.6875,181.8125)"/>
<path d="M0 0 C2.64 0 5.28 0 8 0 C8 0.99 8 1.98 8 3 C5.36 3 2.72 3 0 3 C0 2.01 0 1.02 0 0 Z " fill="#43725C" transform="translate(46,182)"/>
<path d="M0 0 C-0.125 1.8125 -0.125 1.8125 -1 4 C-3.9375 5.8125 -3.9375 5.8125 -7 7 C-7.66 6.67 -8.32 6.34 -9 6 C-7.8803014 4.99406757 -6.7540588 3.9954151 -5.625 3 C-4.68527344 2.1646875 -4.68527344 2.1646875 -3.7265625 1.3125 C-2 0 -2 0 0 0 Z " fill="#577062" transform="translate(23,154)"/>
<path d="M0 0 C0 0.99 0 1.98 0 3 C-0.66 3 -1.32 3 -2 3 C-2.268125 3.598125 -2.53625 4.19625 -2.8125 4.8125 C-3.98493467 6.97224808 -5.19369282 8.35790256 -7 10 C-7 8.68 -7 7.36 -7 6 C-6.34 6 -5.68 6 -5 6 C-5 5.01 -5 4.02 -5 3 C-4.34 3 -3.68 3 -3 3 C-2.67 2.34 -2.34 1.68 -2 1 C-1.34 0.67 -0.68 0.34 0 0 Z " fill="#6FC175" transform="translate(288,283)"/>
<path d="M0 0 C0.66 0.33 1.32 0.66 2 1 C1.33035714 8.09821429 1.33035714 8.09821429 -2 11 C-1.85892253 9.54119891 -1.71197585 8.08296449 -1.5625 6.625 C-1.48128906 5.81289062 -1.40007812 5.00078125 -1.31640625 4.1640625 C-1 2 -1 2 0 0 Z " fill="#6EBE75" transform="translate(313,245)"/>
<path d="M0 0 C0.66 0 1.32 0 2 0 C1.25749403 4.08378283 0.17076699 8.01939223 -1 12 C-1.33 12 -1.66 12 -2 12 C-2.33 9.36 -2.66 6.72 -3 4 C-2.34 3.67 -1.68 3.34 -1 3 C-0.67 2.01 -0.34 1.02 0 0 Z " fill="#72C771" transform="translate(252,135)"/>
<path d="M0 0 C1.3609623 2.7219246 0.70366248 4.1831957 0.0625 7.125 C-0.13214844 8.03507812 -0.32679687 8.94515625 -0.52734375 9.8828125 C-0.68332031 10.58148438 -0.83929688 11.28015625 -1 12 C-3 10 -3 10 -3.3125 7.125 C-2.9736202 3.73620199 -2.27183419 2.46115371 0 0 Z " fill="#77C77B" transform="translate(89,305)"/>
<path d="M0 0 C1.65 0 3.3 0 5 0 C3.68 2.31 2.36 4.62 1 7 C-1 4 -1 4 -0.625 1.8125 C-0.41875 1.214375 -0.2125 0.61625 0 0 Z " fill="#55BD5B" transform="translate(291,274)"/>
<path d="M0 0 C4.875 2.625 4.875 2.625 6 6 C5.01 6.495 5.01 6.495 4 7 C3.01 6.67 2.02 6.34 1 6 C0.67 4.02 0.34 2.04 0 0 Z " fill="#556C5F" transform="translate(261,430)"/>
<path d="M0 0 C0.99 0 1.98 0 3 0 C1.55746343 3.36591866 -0.33264727 5.51047079 -3 8 C-3.33 7.01 -3.66 6.02 -4 5 C-3.01 5 -2.02 5 -1 5 C-0.67 3.35 -0.34 1.7 0 0 Z " fill="#7CC37E" transform="translate(301,264)"/>
<path d="M0 0 C0.33 0.66 0.66 1.32 1 2 C0.0625 4.125 0.0625 4.125 -1 6 C-1.66 6 -2.32 6 -3 6 C-3 6.99 -3 7.98 -3 9 C-3.99 9 -4.98 9 -6 9 C-4.47291037 5.56404834 -2.40072955 2.88087546 0 0 Z " fill="#77C87B" transform="translate(132,251)"/>
<path d="M0 0 C0.66 0 1.32 0 2 0 C1.67 1.32 1.34 2.64 1 4 C-1.31 4.33 -3.62 4.66 -6 5 C-5.01 4.67 -4.02 4.34 -3 4 C-2.67 3.01 -2.34 2.02 -2 1 C-1.34 1.33 -0.68 1.66 0 2 C0 1.34 0 0.68 0 0 Z " fill="#536A60" transform="translate(326,521)"/>
<path d="M0 0 C0.99 0.33 1.98 0.66 3 1 C2.34 1 1.68 1 1 1 C0.896875 1.61875 0.79375 2.2375 0.6875 2.875 C0 5 0 5 -3 7 C-3.1875 4.625 -3.1875 4.625 -3 2 C-2.01 1.34 -1.02 0.68 0 0 Z " fill="#6EC475" transform="translate(146,459)"/>
<path d="M0 0 C0.99 0.33 1.98 0.66 3 1 C0.525 4.465 0.525 4.465 -2 8 C-2.66 6.68 -3.32 5.36 -4 4 C-3.01 4 -2.02 4 -1 4 C-0.67 2.68 -0.34 1.36 0 0 Z " fill="#6ABF6C" transform="translate(237,344)"/>
<path d="M0 0 C0.66666667 2 1.33333333 4 2 6 C1.21625 5.814375 0.4325 5.62875 -0.375 5.4375 C-2.97089775 4.74037734 -2.97089775 4.74037734 -5 6 C-3.63016497 2.83884224 -3.0109362 2.0072908 0 0 Z " fill="#61BF6C" transform="translate(147,234)"/>
<path d="M0 0 C0.33 0.66 0.66 1.32 1 2 C-0.2739589 4.03833424 -1.61061923 6.03852126 -3 8 C-3.66 8 -4.32 8 -5 8 C-4.67 6.68 -4.34 5.36 -4 4 C-3.34 4 -2.68 4 -2 4 C-1.34 2.68 -0.68 1.36 0 0 Z " fill="#7DC983" transform="translate(213,150)"/>
<path d="M0 0 C0.66 0.33 1.32 0.66 2 1 C2 2.98 2 4.96 2 7 C-1.875 5.25 -1.875 5.25 -3 3 C-2.34 3 -1.68 3 -1 3 C-0.67 2.01 -0.34 1.02 0 0 Z " fill="#4C6659" transform="translate(231,449)"/>
<path d="M0 0 C0.99 0.33 1.98 0.66 3 1 C1.35 2.98 -0.3 4.96 -2 7 C-2.33 5.68 -2.66 4.36 -3 3 C-2.34 3 -1.68 3 -1 3 C-0.67 2.01 -0.34 1.02 0 0 Z " fill="#6FC472" transform="translate(169,430)"/>
<path d="M0 0 C0.95465783 2.16967689 1.14401212 3.56328793 0.3984375 5.82421875 C-0.35870385 7.5684743 -1.17609198 9.28627131 -2 11 C-2.95465783 8.83032311 -3.14401212 7.43671207 -2.3984375 5.17578125 C-1.64129615 3.4315257 -0.82390802 1.71372869 0 0 Z " fill="#7CC97F" transform="translate(149,408)"/>
<path d="M0 0 C1.32 0.66 2.64 1.32 4 2 C2.35 3.65 0.7 5.3 -1 7 C-2 4 -2 4 -1.0625 1.8125 C-0.5365625 0.9153125 -0.5365625 0.9153125 0 0 Z " fill="#68C06E" transform="translate(220,364)"/>
<path d="M0 0 C1.5625 1.75 1.5625 1.75 3 4 C2.6875 6.25 2.6875 6.25 2 8 C2 7.01 2 6.02 2 5 C0.35 4.67 -1.3 4.34 -3 4 C-2.67 3.34 -2.34 2.68 -2 2 C-1.34 2 -0.68 2 0 2 C0 1.34 0 0.68 0 0 Z " fill="#596E63" transform="translate(405,175)"/>
<path d="M0 0 C0.93065133 2.60582371 1.14917407 3.64198224 0.0625 6.25 C-0.4634375 7.11625 -0.4634375 7.11625 -1 8 C-1.33 8 -1.66 8 -2 8 C-2.33 5.69 -2.66 3.38 -3 1 C-2.01 0.67 -1.02 0.34 0 0 Z " fill="#78CA7A" transform="translate(239,174)"/>
<path d="M0 0 C3.65316671 1.24976756 4.78065836 1.67098753 7 5 C4.625 4.75 4.625 4.75 2 4 C0.6875 1.9375 0.6875 1.9375 0 0 Z " fill="#385346" transform="translate(310,516)"/>
<path d="M0 0 C2.64 0.33 5.28 0.66 8 1 C6 3 6 3 2.875 3.125 C1.451875 3.063125 1.451875 3.063125 0 3 C0 2.01 0 1.02 0 0 Z " fill="#62786B" transform="translate(367,429)"/>
<path d="M0 0 C0.66 0.99 1.32 1.98 2 3 C1.125 5.6875 1.125 5.6875 0 8 C-0.33 8 -0.66 8 -1 8 C-1.625 5.125 -1.625 5.125 -2 2 C-1.34 1.34 -0.68 0.68 0 0 Z " fill="#446554" transform="translate(403,402)"/>
<path d="M0 0 C0.33 0.66 0.66 1.32 1 2 C0.67 2.66 0.34 3.32 0 4 C-0.66 4 -1.32 4 -2 4 C-2.33 5.32 -2.66 6.64 -3 8 C-3.99 7.67 -4.98 7.34 -6 7 C-4.625 5 -4.625 5 -3 3 C-2.34 3 -1.68 3 -1 3 C-0.67 2.01 -0.34 1.02 0 0 Z " fill="#81CA84" transform="translate(240,116)"/>
<path d="" fill="#FFFFFF" transform="translate(0,0)"/>
<path d="" fill="#FFFFFF" transform="translate(0,0)"/>
<path d="" fill="#FFFFFF" transform="translate(0,0)"/>
<path d="" fill="#FFFFFF" transform="translate(0,0)"/>
</svg>
