<?xml version="1.0" encoding="UTF-8"?>
<svg version="1.1" xmlns="http://www.w3.org/2000/svg" width="1376" height="752">
<path d="M0 0 C454.08 0 908.16 0 1376 0 C1376 248.16 1376 496.32 1376 752 C921.92 752 467.84 752 0 752 C0 503.84 0 255.68 0 0 Z " fill="#FEFEFE" transform="translate(0,0)"/>
<path d="M0 0 C0.68410769 -0.00453111 1.36821537 -0.00906223 2.0730536 -0.01373065 C4.35282895 -0.02633525 6.63236419 -0.02475685 8.91217041 -0.02310181 C10.55198471 -0.0290896 12.1917962 -0.03589572 13.831604 -0.04345703 C18.27807446 -0.06110048 22.72446789 -0.06581176 27.17096996 -0.0670886 C29.9520847 -0.0685119 32.73317996 -0.07278492 35.51428986 -0.07808304 C45.22570535 -0.09657908 54.93706601 -0.10475434 64.64849854 -0.10317993 C73.68599697 -0.10197922 82.72325631 -0.1230689 91.76069427 -0.15466726 C99.53161924 -0.18086441 107.3024663 -0.19154576 115.07343507 -0.19026911 C119.70937907 -0.18976041 124.34511061 -0.19539226 128.98101044 -0.21662521 C133.34449837 -0.23606521 137.70757245 -0.23609294 142.07107544 -0.22159195 C143.66654315 -0.21950975 145.26203716 -0.22416943 146.85746002 -0.23631287 C158.79148086 -0.321216 168.27664949 0.90990859 177.21392822 9.34164429 C184.55381001 17.4008018 186.26791519 25.42549221 186.25836182 36.07113647 C186.26507904 37.14834961 186.27179626 38.22556274 186.27871704 39.3354187 C186.29768953 42.89092646 186.30162106 46.44624533 186.30377197 50.00180054 C186.31020097 52.48033729 186.3169294 54.95887328 186.32394409 57.43740845 C186.3359154 62.63239297 186.33962511 67.82731101 186.33843994 73.02230835 C186.33823689 79.66438687 186.36552558 86.30602603 186.39998436 92.94802475 C186.42227281 98.06800273 186.42627686 103.18787795 186.42522049 108.30789948 C186.42757402 110.75580572 186.43638345 113.20371489 186.45188522 115.65157318 C186.47158138 119.08339527 186.46569181 122.51429813 186.45367432 125.94613647 C186.46491333 126.94804016 186.47615234 127.94994385 186.48773193 128.98220825 C186.40423571 138.41237053 183.6793352 146.47887921 177.16705322 153.44320679 C170.92839102 158.6180829 162.95838234 162.37626723 154.78222656 162.40545654 C153.54181862 162.41363655 153.54181862 162.41363655 152.27635193 162.42198181 C150.92819145 162.4235453 150.92819145 162.4235453 149.55279541 162.42514038 C148.59945816 162.4302211 147.64612091 162.43530182 146.66389465 162.4405365 C144.59428575 162.45123229 142.52466534 162.45985557 140.45503998 162.46665573 C137.1759795 162.47845744 133.89704996 162.49791433 130.61804199 162.51977539 C121.2950681 162.58134432 111.97210759 162.63540196 102.64898682 162.66879272 C96.944905 162.68977125 91.24106207 162.72510109 85.537117 162.76955032 C83.36671007 162.78368587 81.19626088 162.79242722 79.02581024 162.79560471 C75.98377091 162.80052912 72.94236222 162.82372739 69.90045166 162.85092163 C69.00977493 162.8479155 68.11909821 162.84490936 67.20143127 162.84181213 C60.31127779 162.93299652 54.56639036 163.9596693 49.24517822 168.68539429 C48.47302979 169.5993396 47.70088135 170.51328491 46.90533447 171.45492554 C46.05842041 172.43848022 45.21150635 173.42203491 44.33892822 174.43539429 C43.55646729 175.3699646 42.77400635 176.30453491 41.96783447 177.26742554 C40.80449382 178.60366183 39.63820087 179.93733855 38.46783447 181.26742554 C37.92771729 181.8874646 37.3876001 182.50750366 36.83111572 183.14633179 C34.4571347 185.84878818 32.06257876 188.53212565 29.65533447 191.20492554 C28.81357666 192.14207397 27.97181885 193.07922241 27.10455322 194.04476929 C24.34491982 196.91539343 23.53495632 197.2055577 19.53033447 197.64242554 C18.35470947 197.51867554 17.17908447 197.39492554 15.96783447 197.26742554 C13.15126636 193.68675393 12.5933387 190.90403458 12.56158447 186.41586304 C12.53967041 185.31758179 12.51775635 184.21930054 12.49517822 183.08773804 C12.47688706 180.78305103 12.45865831 178.47836352 12.44049072 176.17367554 C12.41857666 175.07797241 12.3966626 173.98226929 12.37408447 172.85336304 C12.36699463 171.85353394 12.35990479 170.85370483 12.3526001 169.82357788 C12.17070049 167.24441634 12.17070049 167.24441634 10.62994385 165.48080444 C7.2551864 163.01715219 3.93498703 163.12302785 -0.09466553 162.95492554 C-10.87726042 162.14114479 -18.87600924 158.53864365 -26.03216553 150.26742554 C-29.76409151 144.33553365 -32.14182658 138.67808662 -32.17933655 131.63970947 C-32.18649185 130.71469131 -32.19364716 129.78967316 -32.20101929 128.83662415 C-32.20370819 127.82878372 -32.20639709 126.8209433 -32.20916748 125.78256226 C-32.21573868 124.71539474 -32.22230988 123.64822723 -32.2290802 122.54872131 C-32.24879973 119.01485116 -32.2604738 115.48102351 -32.27044678 111.94711304 C-32.2745223 110.73864841 -32.27859783 109.53018379 -32.28279686 108.28509903 C-32.30365335 101.886957 -32.31795608 95.48883639 -32.32733154 89.09066772 C-32.33838599 82.49339236 -32.37277651 75.8964552 -32.41250324 69.29929924 C-32.43869365 64.21707548 -32.44702564 59.13493194 -32.45061302 54.05264664 C-32.45547383 51.62147873 -32.46707326 49.19031428 -32.48565102 46.75921249 C-32.51008966 43.34875735 -32.50906814 39.93917255 -32.50213623 36.52865601 C-32.51494629 35.53296097 -32.52775635 34.53726593 -32.54095459 33.51139832 C-32.46526721 23.24431496 -29.16125825 15.59072437 -22.11419678 8.17758179 C-15.76996376 2.35707533 -8.53640919 0.02344483 0 0 Z " fill="#1FC96A" transform="translate(331.03216552734375,277.7325744628906)"/>
<path d="M0 0 C7.91102849 -0.09312931 15.82182376 -0.16398037 23.73326683 -0.20724869 C27.40782562 -0.22802687 31.08200637 -0.2561623 34.75634766 -0.30175781 C38.30958335 -0.34556907 41.86245796 -0.36921035 45.41594315 -0.37950897 C47.41546807 -0.39037784 49.41484993 -0.42154635 51.41415405 -0.45318604 C62.14683788 -0.45579992 70.34163635 1.61688217 78.24609375 9.07421875 C85.58597554 17.13337626 87.30008072 25.15806667 87.29052734 35.80371094 C87.29724457 36.88092407 87.30396179 37.95813721 87.31088257 39.06799316 C87.32985506 42.62350092 87.33378658 46.17881979 87.3359375 49.734375 C87.34236649 52.21291175 87.34909493 54.69144775 87.35610962 57.16998291 C87.36808092 62.36496743 87.37179064 67.55988547 87.37060547 72.75488281 C87.37040242 79.39696133 87.39769111 86.0386005 87.43214989 92.68059921 C87.45443834 97.80057719 87.45844238 102.92045242 87.45738602 108.04047394 C87.45973954 110.48838018 87.46854897 112.93628936 87.48405075 115.38414764 C87.5037469 118.81596973 87.49785733 122.2468726 87.48583984 125.67871094 C87.49707886 126.68061462 87.50831787 127.68251831 87.51989746 128.71478271 C87.43640123 138.14494499 84.71150072 146.21145367 78.19921875 153.17578125 C71.95490505 158.35534519 63.98825988 162.10079481 55.80766296 162.14476013 C54.56508728 162.15510788 54.56508728 162.15510788 53.29740906 162.16566467 C51.94689201 162.16958473 51.94689201 162.16958473 50.5690918 162.17358398 C49.61414825 162.180271 48.65920471 162.18695801 47.67532349 162.19384766 C45.602442 162.20788992 43.52954513 162.2197866 41.45664024 162.22979546 C38.17365818 162.24622164 34.89078986 162.26946083 31.60786438 162.29469299 C22.27387167 162.36542057 12.93983245 162.42554861 3.60571289 162.47680664 C-2.10480203 162.50864357 -7.81518603 162.54993143 -13.52559471 162.59700203 C-15.6996239 162.61299382 -17.87368322 162.62532839 -20.04775429 162.63390923 C-23.09227373 162.64609821 -26.13648683 162.67026366 -29.1809082 162.69702148 C-30.07518021 162.69761063 -30.96945221 162.69819977 -31.89082336 162.69880676 C-36.96900834 162.7577801 -41.18518966 163.36343233 -46 165 C-44.3610763 159.82714708 -41.18845955 155.86808074 -38 151.5625 C-36.8134201 149.94168583 -35.6272258 148.32058929 -34.44140625 146.69921875 C-33.85504395 145.9004834 -33.26868164 145.10174805 -32.66455078 144.27880859 C-30.39089667 141.16612342 -28.16405991 138.02142524 -25.9375 134.875 C-20.92889799 127.83222582 -15.73780489 120.93003099 -10.53222656 114.03222656 C-8.0147311 110.69321569 -5.50778375 107.34630729 -3 104 C0.07927013 99.89244918 3.16017796 95.78615504 6.24609375 91.68359375 C6.78041016 90.97267578 7.31472656 90.26175781 7.86523438 89.52929688 C8.87758101 88.1824357 9.89055265 86.83604395 10.90429688 85.49023438 C11.82479742 84.26503407 12.74082531 83.03645775 13.65185547 81.80419922 C14.57985189 80.56227718 15.52815568 79.33535659 16.49267578 78.12158203 C18.09913497 76.09768582 18.09913497 76.09768582 20 73 C19.67 71.68 19.34 70.36 19 69 C7.78 68.67 -3.44 68.34 -15 68 C-12.98760279 57.00368669 -10.93411888 46.22546734 -7.93359375 35.4609375 C-6.72921023 30.99615171 -5.77078961 26.49865514 -4.83569336 21.97094727 C-3.90083831 17.48828825 -2.90392673 13.01980473 -1.90625 8.55078125 C-1.72223633 7.7246936 -1.53822266 6.89860596 -1.34863281 6.04748535 C-0.89951564 4.0315617 -0.44981809 2.01576737 0 0 Z " fill="#20C96A" transform="translate(430,278)"/>
<path d="M0 0 C2.26198512 1.42761497 4.31203875 2.93892681 6.37109375 4.64453125 C7.00660156 5.16917969 7.64210938 5.69382812 8.296875 6.234375 C15.76372831 13.02969118 19.79447525 22.41620648 20.58984375 32.38671875 C21.00873543 45.82616007 17.26470895 57.80141811 8.30078125 68 C-2.07942542 77.91514365 -13.5597046 80.0778209 -27.3984375 79.8515625 C-37.93149487 79.47347654 -47.16938133 75.00124026 -54.703125 67.609375 C-63.70991802 56.8442059 -66.50913301 44.3600646 -65.62890625 30.64453125 C-63.74095362 20.1641643 -58.12464393 9.32776674 -49.375 3.01953125 C-46.84392426 1.43513329 -44.28096205 0.01601167 -41.62890625 -1.35546875 C-40.85675781 -1.77183594 -40.08460938 -2.18820312 -39.2890625 -2.6171875 C-26.991807 -8.44866473 -11.79795327 -6.08304574 0 0 Z " fill="#0A6F52" transform="translate(729.62890625,341.35546875)"/>
<path d="M0 0 C0.99 0 1.98 0 3 0 C2.46792477 6.87027254 1.40133657 13.42414678 -0.1875 20.125 C-0.4045459 21.06005371 -0.6215918 21.99510742 -0.84521484 22.95849609 C-3.20456689 33.03875673 -5.72713946 43.07912662 -8.27050781 53.11425781 C-9.52417427 58.0735408 -10.76166792 63.03686958 -12 68 C-10.47076904 67.98428955 -10.47076904 67.98428955 -8.91064453 67.96826172 C-5.13496398 67.93211273 -1.35929879 67.90911823 2.41650391 67.89013672 C4.05194672 67.88006746 5.68737149 67.86641119 7.32275391 67.84912109 C9.6709437 67.82491295 12.01889588 67.81352643 14.3671875 67.8046875 C15.10057343 67.79436493 15.83395935 67.78404236 16.58956909 67.77340698 C18.39462697 67.77300632 20.1990783 67.87787245 22 68 C22.66 68.66 23.32 69.32 24 70 C23.6817907 73.69122785 21.67300966 76.10265379 19.5 79 C18.77296875 79.97582031 18.0459375 80.95164062 17.296875 81.95703125 C16.15992188 83.46330078 16.15992188 83.46330078 15 85 C13.95585937 86.39798828 13.95585937 86.39798828 12.890625 87.82421875 C10.6002881 90.88775332 8.30099842 93.94447364 6 97 C-16.43312483 126.75798765 -16.43312483 126.75798765 -37.9375 157.1875 C-41.05618488 161.72481317 -44.24897404 165.96764709 -48 170 C-48.33 170 -48.66 170 -49 170 C-49.44408252 162.41280295 -47.78779929 155.54924264 -46.0625 148.1875 C-45.75360699 146.84436975 -45.44493656 145.5011883 -45.13647461 144.15795898 C-41.40094009 128.02754764 -37.18174345 112.01929415 -33 96 C-43.89 96 -54.78 96 -66 96 C-66 90.37776374 -66 90.37776374 -63.359375 86.953125 C-62.78936768 86.1993457 -62.21936035 85.44556641 -61.63208008 84.66894531 C-61.01099365 83.87069336 -60.38990723 83.07244141 -59.75 82.25 C-58.45549155 80.54283309 -57.16255111 78.8344762 -55.87109375 77.125 C-55.21866699 76.26648438 -54.56624023 75.40796875 -53.89404297 74.5234375 C-51.11674904 70.82324286 -48.45963178 67.04387032 -45.8125 63.25 C-41.61432583 57.25944833 -37.33922539 51.33368707 -32.9987793 45.44555664 C-30.00677814 41.38325488 -27.05082571 37.29770091 -24.125 33.1875 C-20.18479721 27.65351628 -16.22472247 22.13425289 -12.25 16.625 C-11.71906738 15.88789795 -11.18813477 15.1507959 -10.64111328 14.39135742 C-9.6116131 12.96546268 -8.57833426 11.54228737 -7.54101562 10.12207031 C-6.47367858 8.65228362 -5.42121769 7.17162218 -4.38085938 5.68261719 C-3.85814453 4.94946289 -3.33542969 4.21630859 -2.796875 3.4609375 C-2.33120117 2.79626465 -1.86552734 2.1315918 -1.38574219 1.44677734 C-0.92844727 0.96934082 -0.47115234 0.4919043 0 0 Z " fill="#1BC667" transform="translate(427,278)"/>
<path d="M0 0 C1.14662109 -0.01836914 1.14662109 -0.01836914 2.31640625 -0.03710938 C15.84288444 -0.07155711 27.28969295 5.07184956 37.125 14.1875 C44.69357855 21.89323566 44.69357855 21.89323566 46.125 26.1875 C45.0053014 27.19343243 43.8790588 28.1920849 42.75 29.1875 C42.12351562 29.744375 41.49703125 30.30125 40.8515625 30.875 C39.125 32.1875 39.125 32.1875 37.125 32.1875 C36.7228125 31.24390625 36.7228125 31.24390625 36.3125 30.28125 C32.08472362 21.04689634 26.7502461 14.70805734 17.203125 10.87890625 C8.27403097 7.90813624 -1.90456722 7.75603168 -10.50390625 11.80859375 C-21.49858857 18.20253585 -28.74520072 26.95052142 -32.3671875 39.21484375 C-32.53476562 39.86582031 -32.70234375 40.51679688 -32.875 41.1875 C-33.04628418 41.80689453 -33.21756836 42.42628906 -33.39404297 43.06445312 C-36.74307484 57.84779382 -32.73961654 73.60067921 -24.875 86.1875 C-18.97777002 93.65506517 -11.36290562 99.33396331 -1.875 101.1875 C7.94641822 102.17287255 17.3033546 100.18479192 25.4375 94.4375 C29.87859985 90.79542648 34.53431919 86.36886162 37.125 81.1875 C40.50003669 82.3733237 42.77222731 83.46323689 45.125 86.1875 C42.44729161 94.42660275 34.57985298 100.96115214 27.1875 105.1640625 C13.67747214 111.86790208 -3.86433785 114.16535246 -18.5 109.5 C-20.31094695 108.77562122 -22.10533643 108.007588 -23.875 107.1875 C-24.65875 106.836875 -25.4425 106.48625 -26.25 106.125 C-39.80405173 99.34797414 -47.83466648 88.24193352 -52.83984375 74.3046875 C-57.51441004 60.22806901 -57.48896013 45.55060093 -51.3984375 31.87109375 C-43.92052648 17.13721885 -33.22243278 7.25856653 -17.4453125 1.87890625 C-11.60107504 0.30682414 -6.01204022 0.0050184 0 0 Z " fill="#0A7153" transform="translate(608.875,310.8125)"/>
<path d="M0 0 C5.26149573 4.62096581 8.68043809 10.1383675 9.26312256 17.17961121 C9.34711853 21.16357874 9.33768554 25.13696809 9.29296875 29.12109375 C9.28736618 30.59082097 9.28309921 32.06055384 9.28010559 33.5302887 C9.26870869 37.37893426 9.23928682 41.22723451 9.20599365 45.07574463 C9.17518083 49.01073538 9.16157641 52.94578249 9.14648438 56.88085938 C9.11441132 64.58741445 9.06168651 72.29361464 9 80 C3.39 80 -2.22 80 -8 80 C-8.0093457 78.12820068 -8.01869141 76.25640137 -8.02832031 74.32788086 C-8.06392314 68.12509616 -8.11776875 61.92267672 -8.18390274 55.72014523 C-8.22331641 51.96160644 -8.25553443 48.20329977 -8.27099609 44.44458008 C-8.28620357 40.81328125 -8.32071984 37.18262084 -8.36830902 33.55160713 C-8.38308103 32.17027923 -8.39103861 30.78886016 -8.39188385 29.40745354 C-8.34891087 18.98853248 -8.34891087 18.98853248 -13 10 C-15.90618237 7.61277877 -19.15631253 7.57197528 -22.86328125 7.6953125 C-30.26851113 8.7512685 -37.58261154 14.17139195 -42 20 C-43.26696879 24.64637776 -43.19032683 29.11342878 -43.09765625 33.90625 C-43.10331837 35.24005315 -43.11294127 36.57384478 -43.12632751 37.90759277 C-43.15080686 41.39363888 -43.12199654 44.87722057 -43.08154297 48.36303711 C-43.04976045 51.92960667 -43.06911492 55.49587382 -43.08398438 59.0625 C-43.10563833 66.04234325 -43.06618546 73.02044205 -43 80 C-48.94 80 -54.88 80 -61 80 C-61 52.61 -61 25.22 -61 -3 C-55.06 -3 -49.12 -3 -43 -3 C-42.505 3.93 -42.505 3.93 -42 11 C-40.55625 9.618125 -39.1125 8.23625 -37.625 6.8125 C-26.89219427 -2.85463708 -13.18236752 -8.30000918 0 0 Z " fill="#097052" transform="translate(825,340)"/>
<path d="M0 0 C3.23004392 1.50552894 5.50338938 3.48182039 8 6 C8.62777344 6.59167969 9.25554688 7.18335938 9.90234375 7.79296875 C14.85308526 12.86931047 16.98172858 18.28327953 19 25 C19.495 26.485 19.495 26.485 20 28 C21.12165471 41.16745271 21.30942165 54.85620635 12.625 65.5625 C8.42631258 69.84124714 4.67880316 72.09541866 -1.375 72.4375 C-8.35254808 72.14481761 -13.06543616 69.31331581 -17.75 64.25 C-20.86262974 60.40873194 -23.20181602 56.603684 -25 52 C-25.2990625 51.23558594 -25.598125 50.47117187 -25.90625 49.68359375 C-29.52097029 38.72228916 -30.20841356 23.55389063 -25 13 C-19.08132644 2.90238421 -12.03234835 -2.22999523 0 0 Z " fill="#FAFDFD" transform="translate(711,343)"/>
<path d="M0 0 C6.27 0 12.54 0 19 0 C19.70125 1.4746875 20.4025 2.949375 21.125 4.46875 C30.48823322 24.22073778 30.48823322 24.22073778 40.4921875 43.65234375 C41.11843018 44.81854248 41.11843018 44.81854248 41.75732422 46.00830078 C42.56790906 47.51130662 43.3843785 49.01115806 44.20751953 50.50732422 C47 55.67150043 47 55.67150043 47 59 C47.66 59 48.32 59 49 59 C49.38929688 57.75734375 49.77859375 56.5146875 50.1796875 55.234375 C52.12495244 49.40540567 54.61136532 43.85210126 57.125 38.25 C58.10636454 36.04336692 59.0868174 33.83632818 60.06640625 31.62890625 C60.55641113 30.52562988 61.04641602 29.42235352 61.55126953 28.28564453 C64.14797213 22.39645956 66.66733025 16.47433252 69.18212891 10.54980469 C69.52550293 9.74317383 69.86887695 8.93654297 70.22265625 8.10546875 C70.51922119 7.40574951 70.81578613 6.70603027 71.12133789 5.98510742 C72.017374 3.96074799 73.0099584 1.98008319 74 0 C76.97 0 79.94 0 83 0 C82.37215034 3.83855345 81.230672 7.04688292 79.62890625 10.5859375 C78.89957886 12.20967285 78.89957886 12.20967285 78.15551758 13.86621094 C77.62982178 15.02411133 77.10412598 16.18201172 76.5625 17.375 C75.73123015 19.22259565 74.90201124 21.0711028 74.07292175 22.91967773 C73.51261134 24.16878608 72.95174649 25.41764587 72.39033508 26.66625977 C69.9890445 32.00958503 67.63959082 37.37403344 65.3125 42.75 C64.93085693 43.62970459 64.54921387 44.50940918 64.15600586 45.41577148 C63.29563886 47.39897595 62.43555172 49.38230184 61.57568359 51.36572266 C58.47954812 58.50688669 55.38158788 65.64724458 52.27767944 72.78503418 C51.51596167 74.53784617 50.75506203 76.29101395 49.99502563 78.04455566 C48.9179951 80.52929365 47.83818291 83.01280647 46.7578125 85.49609375 C46.43835159 86.23486252 46.11889069 86.97363129 45.78974915 87.73478699 C39.70350433 101.69534786 33.8793277 111.59016532 19.50390625 118.13671875 C14.91174901 119.71997421 9.59674757 120.10544274 5.0546875 118.171875 C2.78718805 116.70402512 1.21756379 115.43512757 0 113 C-0.49512681 108.62637986 -0.49223866 106.68044756 2.125 103.0625 C5 101 5 101 8 100.5 C11 101 11 101 13.4375 102.5 C16.93608692 104.54795332 18.99621857 104.55224571 23 104 C30.40914215 100.3604214 32.83718356 94.36358503 36 87 C36.40605469 86.175 36.81210937 85.35 37.23046875 84.5 C38.75933324 79.53313059 36.80954375 75.11183315 34.62890625 70.61328125 C34.14252686 69.60297852 33.65614746 68.59267578 33.1550293 67.55175781 C32.36672729 65.9483252 32.36672729 65.9483252 31.5625 64.3125 C31.01827393 63.19327148 30.47404785 62.07404297 29.91333008 60.92089844 C25.61267419 52.12732943 21.10206097 43.45970213 16.49853516 34.82226562 C13.61429842 29.39023945 10.75689452 23.94436175 7.91445923 18.49035645 C7.22474928 17.1696999 6.53269189 15.8502665 5.83822632 14.53210449 C4.86297575 12.68058821 3.89550136 10.82520213 2.9296875 8.96875 C2.08253174 7.35129883 2.08253174 7.35129883 1.21826172 5.70117188 C0 3 0 3 0 0 Z " fill="#0A7253" transform="translate(929,337)"/>
<path d="M0 0 C0.99 0 1.98 0 3 0 C2.46792477 6.87027254 1.40133657 13.42414678 -0.1875 20.125 C-0.4045459 21.06005371 -0.6215918 21.99510742 -0.84521484 22.95849609 C-3.20456689 33.03875673 -5.72713946 43.07912662 -8.27050781 53.11425781 C-9.52417427 58.0735408 -10.76166792 63.03686958 -12 68 C-10.47076904 67.98428955 -10.47076904 67.98428955 -8.91064453 67.96826172 C-5.13496398 67.93211273 -1.35929879 67.90911823 2.41650391 67.89013672 C4.05194672 67.88006746 5.68737149 67.86641119 7.32275391 67.84912109 C9.6709437 67.82491295 12.01889588 67.81352643 14.3671875 67.8046875 C15.10057343 67.79436493 15.83395935 67.78404236 16.58956909 67.77340698 C18.39462697 67.77300632 20.1990783 67.87787245 22 68 C22.66 68.66 23.32 69.32 24 70 C23.6817907 73.69122785 21.67300966 76.10265379 19.5 79 C18.77296875 79.97582031 18.0459375 80.95164062 17.296875 81.95703125 C16.15992188 83.46330078 16.15992188 83.46330078 15 85 C13.95585937 86.39798828 13.95585937 86.39798828 12.890625 87.82421875 C10.6002881 90.88775332 8.30099842 93.94447364 6 97 C-16.43312483 126.75798765 -16.43312483 126.75798765 -37.9375 157.1875 C-41.05618488 161.72481317 -44.24897404 165.96764709 -48 170 C-48.33 170 -48.66 170 -49 170 C-49.44408252 162.41280295 -47.78779929 155.54924264 -46.0625 148.1875 C-45.75360699 146.84436975 -45.44493656 145.5011883 -45.13647461 144.15795898 C-41.40094009 128.02754764 -37.18174345 112.01929415 -33 96 C-43.89 96 -54.78 96 -66 96 C-66 90.37776374 -66 90.37776374 -63.359375 86.953125 C-62.78936768 86.1993457 -62.21936035 85.44556641 -61.63208008 84.66894531 C-61.01099365 83.87069336 -60.38990723 83.07244141 -59.75 82.25 C-58.45549155 80.54283309 -57.16255111 78.8344762 -55.87109375 77.125 C-55.21866699 76.26648438 -54.56624023 75.40796875 -53.89404297 74.5234375 C-51.11674904 70.82324286 -48.45963178 67.04387032 -45.8125 63.25 C-41.61432583 57.25944833 -37.33922539 51.33368707 -32.9987793 45.44555664 C-30.00677814 41.38325488 -27.05082571 37.29770091 -24.125 33.1875 C-20.18479721 27.65351628 -16.22472247 22.13425289 -12.25 16.625 C-11.71906738 15.88789795 -11.18813477 15.1507959 -10.64111328 14.39135742 C-9.6116131 12.96546268 -8.57833426 11.54228737 -7.54101562 10.12207031 C-6.47367858 8.65228362 -5.42121769 7.17162218 -4.38085938 5.68261719 C-3.85814453 4.94946289 -3.33542969 4.21630859 -2.796875 3.4609375 C-2.33120117 2.79626465 -1.86552734 2.1315918 -1.38574219 1.44677734 C-0.92844727 0.96934082 -0.47115234 0.4919043 0 0 Z M-8 21 C-13.81140973 28.30689665 -19.27482993 35.76366332 -24.5 43.5 C-29.00828697 50.17321286 -33.68882374 56.6123022 -38.66015625 62.9453125 C-41.902356 67.17803404 -44.88176373 71.5672021 -47.8828125 75.97265625 C-50.37446574 79.53544456 -53.03288887 82.9290864 -55.78515625 86.29296875 C-57.19327548 87.92238248 -57.19327548 87.92238248 -57 90 C-47.1 90.33 -37.2 90.66 -27 91 C-28.12443249 101.11989238 -28.12443249 101.11989238 -29.0859375 104.796875 C-29.29299316 105.60398926 -29.50004883 106.41110352 -29.71337891 107.24267578 C-29.93171387 108.07009277 -30.15004883 108.89750977 -30.375 109.75 C-30.8291195 111.51276493 -31.28224456 113.27578635 -31.734375 115.0390625 C-31.95287109 115.88758789 -32.17136719 116.73611328 -32.39648438 117.61035156 C-33.19444391 120.76990977 -33.91490176 123.94466641 -34.625 127.125 C-35.68422957 131.82192654 -36.96561951 136.39642537 -38.44921875 140.9765625 C-39.13132226 143.13293639 -39.13132226 143.13293639 -39 146 C-38.34 146 -37.68 146 -37 146 C-35.31498875 143.71955672 -33.74157145 141.43038751 -32.1875 139.0625 C-28.19940805 133.12116521 -24.06909825 127.34489694 -19.6875 121.6875 C-14.3661202 114.81079923 -9.17834898 107.8478119 -4.04223633 100.83178711 C0.17147337 95.08830082 4.49190204 89.44367319 8.9140625 83.859375 C11.19023015 80.73923508 13.08383638 77.35328634 15 74 C4.11 73.67 -6.78 73.34 -18 73 C-15.74971407 59.49828441 -15.74971407 59.49828441 -14.59765625 54.78125 C-14.34693359 53.74613281 -14.09621094 52.71101563 -13.83789062 51.64453125 C-13.58201172 50.60683594 -13.32613281 49.56914062 -13.0625 48.5 C-12.81048828 47.46230469 -12.55847656 46.42460937 -12.29882812 45.35546875 C-11.26567104 41.11186188 -10.23310603 36.87189031 -9.10498047 32.65234375 C-8.67983154 31.04552734 -8.67983154 31.04552734 -8.24609375 29.40625 C-7.98368896 28.44009766 -7.72128418 27.47394531 -7.45092773 26.47851562 C-6.77288709 23.87978636 -6.77288709 23.87978636 -8 21 Z " fill="#02784B" transform="translate(427,278)"/>
<path d="M0 0 C5.94 0 11.88 0 18 0 C21.70017057 8.29488788 25.38823488 16.59507716 29.0682373 24.89892578 C30.02519045 27.05680309 30.98368398 29.21399151 31.94238281 31.37109375 C33.56840678 35.03122011 35.18822447 38.69404209 36.80413818 42.35864258 C37.43423059 43.78512266 38.06626818 45.21074513 38.70025635 46.63549805 C39.59183643 48.64016225 40.47640802 50.64778023 41.359375 52.65625 C41.86952148 53.80931641 42.37966797 54.96238281 42.90527344 56.15039062 C44 59 44 59 44 62 C44.66 62 45.32 62 46 62 C46.1227832 61.27989746 46.24556641 60.55979492 46.37207031 59.81787109 C47.00316926 56.98577777 47.9003704 54.57619268 49.046875 51.9140625 C49.47379639 50.91487793 49.90071777 49.91569336 50.34057617 48.88623047 C50.80568604 47.81002441 51.2707959 46.73381836 51.75 45.625 C52.74149846 43.30755385 53.73235432 40.98983271 54.72265625 38.671875 C54.98311234 38.06378998 55.24356842 37.45570496 55.51191711 36.82919312 C58.4804753 29.89395219 61.39453648 22.93596841 64.30749512 15.97723389 C65.18269747 13.8864727 66.05853496 11.79597868 66.93457031 9.70556641 C68.29020052 6.47058146 69.64527626 3.23536468 71 0 C73.97 0 76.94 0 80 0 C77.73384634 7.18737185 74.94334862 14.03034633 71.9375 20.9375 C71.15676143 22.74340932 70.37604793 24.54932956 69.59594727 26.35551453 C69.02559142 27.67578536 68.45477676 28.99585806 67.88354492 30.31575012 C65.32786795 36.22532476 62.8010301 42.14701773 60.27734375 48.0703125 C59.05033398 50.94678878 57.82306765 53.82315546 56.59573364 56.69949341 C55.78287437 58.60590557 54.97092134 60.51270441 54.15988159 62.41989136 C53.01304084 65.11577059 51.86239996 67.80999844 50.7109375 70.50390625 C50.36558456 71.31832184 50.02023163 72.13273743 49.66441345 72.97183228 C49.34251541 73.72306366 49.02061737 74.47429504 48.68896484 75.24829102 C48.40983246 75.90330093 48.13070007 76.55831085 47.84310913 77.23316956 C47 79 47 79 45 82 C42.8359375 82.29296875 42.8359375 82.29296875 40.375 82.1875 C39.55773437 82.16042969 38.74046875 82.13335937 37.8984375 82.10546875 C37.27195312 82.07066406 36.64546875 82.03585937 36 82 C30.76507498 71.93514416 26.03759878 61.70011964 21.50854492 51.29956055 C16.9962029 40.94525726 12.34829827 30.6549315 7.68310547 20.36889648 C7.39406342 19.731017 7.10502136 19.09313751 6.80722046 18.43592834 C6.02263292 16.70482412 5.23694298 14.97421965 4.45117188 13.24365234 C3.97228516 12.17324707 3.49339844 11.1028418 3 10 C2.71906494 9.38618469 2.43812988 8.77236938 2.14868164 8.13995361 C0.85353808 5.24596917 0 3.2080891 0 0 Z " fill="#087052" transform="translate(843,338)"/>
<path d="M0 0 C2.57613726 2.88839632 3.14141991 4.44542421 3.0625 8.3125 C1.625 11.1875 1.625 11.1875 -0.9375 13.3125 C-4.41594728 13.91625416 -7.72133476 13.92058262 -10.9375 12.3125 C-17.26052262 11.53598845 -20.52484594 12.78367121 -25.76171875 16.31640625 C-30.84092236 20.97614242 -33.19630252 24.33476146 -33.59692383 31.24780273 C-33.6378085 33.58026208 -33.65224834 35.91328887 -33.64453125 38.24609375 C-33.65965256 39.47916763 -33.67477386 40.71224152 -33.69035339 41.98268127 C-33.73320095 45.90530731 -33.74206634 49.82716333 -33.75 53.75 C-33.77039071 56.41608506 -33.79851157 59.08201915 -33.82617188 61.74804688 C-33.88899634 68.26959925 -33.92135451 74.79067175 -33.9375 81.3125 C-39.5475 81.3125 -45.1575 81.3125 -50.9375 81.3125 C-50.9375 54.2525 -50.9375 27.1925 -50.9375 -0.6875 C-45.3275 -0.6875 -39.7175 -0.6875 -33.9375 -0.6875 C-33.6075 4.2625 -33.2775 9.2125 -32.9375 14.3125 C-32.133125 13.136875 -31.32875 11.96125 -30.5 10.75 C-23.19175537 1.04589215 -11.94320348 -6.86098923 0 0 Z " fill="#036E4F" transform="translate(1073.9375,338.6875)"/>
<path d="M0 0 C5.94 0 11.88 0 18 0 C18.495 6.93 18.495 6.93 19 14 C19.99 13.34 20.98 12.68 22 12 C25.1875 12.875 25.1875 12.875 28 14 C23 19 23 19 20.86224365 20.79925537 C18.44622206 23.65443844 18.4852636 25.2536317 18.45410156 28.96191406 C18.42452362 30.76332855 18.42452362 30.76332855 18.39434814 32.60113525 C18.39311951 33.89291687 18.39189087 35.18469849 18.390625 36.515625 C18.37563974 37.85514321 18.35891185 39.19464296 18.34051514 40.53411865 C18.29686689 44.05221413 18.2768486 47.57006041 18.26177979 51.08837891 C18.24219921 54.68146485 18.20023042 58.27428202 18.16015625 61.8671875 C18.08488191 68.91138104 18.03664412 75.95548417 18 83 C12.06 83 6.12 83 0 83 C0 55.61 0 28.22 0 0 Z " fill="#13775A" transform="translate(764,337)"/>
<path d="M0 0 C2.97 0 5.94 0 9 0 C8.37215034 3.83855345 7.230672 7.04688292 5.62890625 10.5859375 C4.89752441 12.21438599 4.89752441 12.21438599 4.15136719 13.87573242 C3.62704102 15.03049072 3.10271484 16.18524902 2.5625 17.375 C1.75012641 19.18197901 0.93776558 20.98896409 0.12661743 22.79649353 C-0.42592852 24.02774134 -0.97901269 25.25874774 -1.53262329 26.48951721 C-4.32327595 32.69978633 -7.04319677 38.94026762 -9.75 45.1875 C-10.39473267 46.67419189 -10.39473267 46.67419189 -11.05249023 48.19091797 C-12.03597633 50.46018871 -13.01856005 52.72984376 -14 55 C-15.65 54.01 -17.3 53.02 -19 52 C-21.6465335 54.6465335 -22.59941997 57.56221264 -24 61 C-24.99 61 -25.98 61 -27 61 C-27 60.34 -27 59.68 -27 59 C-26.34 59 -25.68 59 -25 59 C-24.61070312 57.75734375 -24.22140625 56.5146875 -23.8203125 55.234375 C-21.87504756 49.40540567 -19.38863468 43.85210126 -16.875 38.25 C-15.89363546 36.04336692 -14.9131826 33.83632818 -13.93359375 31.62890625 C-13.44358887 30.52562988 -12.95358398 29.42235352 -12.44873047 28.28564453 C-9.85202787 22.39645956 -7.33266975 16.47433252 -4.81787109 10.54980469 C-4.47449707 9.74317383 -4.13112305 8.93654297 -3.77734375 8.10546875 C-3.48077881 7.40574951 -3.18421387 6.70603027 -2.87866211 5.98510742 C-1.982626 3.96074799 -0.9900416 1.98008319 0 0 Z M-18 49 C-17.67 49.66 -17.34 50.32 -17 51 C-16.67 50.34 -16.34 49.68 -16 49 C-16.66 49 -17.32 49 -18 49 Z " fill="#117356" transform="translate(1003,337)"/>
<path d="M0 0 C2.57613726 2.88839632 3.14141991 4.44542421 3.0625 8.3125 C1.625 11.1875 1.625 11.1875 -0.9375 13.3125 C-4.41594728 13.91625416 -7.72133476 13.92058262 -10.9375 12.3125 C-17.40123495 11.51870799 -20.70925872 12.83447396 -25.94921875 16.64453125 C-28.32064472 18.63392003 -30.2034643 20.74914288 -31.9375 23.3125 C-32.5975 22.9825 -33.2575 22.6525 -33.9375 22.3125 C-32.765625 19.7734375 -32.765625 19.7734375 -31.59375 17.234375 C-30.72207076 15.02007164 -30.72207076 15.02007164 -30.9375 11.3125 C-26.85677918 5.13105307 -21.45097725 0.67885227 -14.5625 -2 C-9.09501295 -3.0369372 -4.96499156 -2.85222919 0 0 Z " fill="#0E7155" transform="translate(1073.9375,338.6875)"/>
<path d="M0 0 C2.97 0 5.94 0 9 0 C6.48998474 8.09369833 3.18401726 15.80021546 -0.1875 23.5625 C-0.75229278 24.87029608 -1.31674848 26.17823778 -1.88085938 27.48632812 C-3.25002748 30.65923901 -4.62373526 33.83015975 -6 37 C-6.33 37 -6.66 37 -7 37 C-7.66 35.02 -8.32 33.04 -9 31 C-9.680625 31.99 -9.680625 31.99 -10.375 33 C-10.91125 33.66 -11.4475 34.32 -12 35 C-12.66 35 -13.32 35 -14 35 C-11.57606156 27.26490635 -8.50605264 19.88362854 -5.3125 12.4375 C-4.80138672 11.23802734 -4.29027344 10.03855469 -3.76367188 8.80273438 C-2.51224198 5.86713715 -1.25761707 2.93295065 0 0 Z " fill="#137356" transform="translate(914,338)"/>
<path d="M0 0 C10.88955602 3.22653512 19.23256169 11.04153727 26 20 C26.33 20.99 26.66 21.98 27 23 C25.8803014 24.00593243 24.7540588 25.0045849 23.625 26 C22.99851562 26.556875 22.37203125 27.11375 21.7265625 27.6875 C20 29 20 29 18 29 C17.731875 28.3709375 17.46375 27.741875 17.1875 27.09375 C12.86704508 17.65696689 7.45745763 11.42251718 -2.3125 7.59375 C-2.869375 7.3978125 -3.42625 7.201875 -4 7 C-2 5 -2 5 1 4 C1.33 3.34 1.66 2.68 2 2 C1.34 2 0.68 2 0 2 C0 1.34 0 0.68 0 0 Z " fill="#137357" transform="translate(628,314)"/>
<path d="M0 0 C0.33 0 0.66 0 1 0 C1.00238835 0.56192456 1.00477671 1.12384912 1.00723743 1.7028017 C1.06654591 15.41794716 1.14238177 29.13291711 1.23571491 42.84787464 C1.28035829 49.4805205 1.3196279 56.11310578 1.34643555 62.74584961 C1.3725284 69.1520753 1.41297358 75.55806713 1.46318626 81.96414757 C1.47981447 84.40280934 1.49135385 86.84151152 1.49761391 89.28022194 C1.50729884 92.70765062 1.53541154 96.13448644 1.56762695 99.56176758 C1.56619186 100.56015152 1.56475677 101.55853546 1.5632782 102.58717346 C1.65387166 109.44477114 2.91255022 115.47396684 5 122 C1.24799195 118.62319275 -0.71355694 115.71792455 -1.24888897 110.63840866 C-1.2483442 109.81838993 -1.24779943 108.9983712 -1.24723816 108.15350342 C-1.25143265 107.20569 -1.25562714 106.25787659 -1.25994873 105.28134155 C-1.25432922 104.25360626 -1.24870972 103.22587097 -1.24291992 102.16699219 C-1.24481827 101.07546844 -1.24671661 99.9839447 -1.24867249 98.85934448 C-1.25237439 95.25511471 -1.24168648 91.65108683 -1.23046875 88.046875 C-1.2292768 85.54534936 -1.22882382 83.04382327 -1.2290802 80.54229736 C-1.22751649 75.30356505 -1.21947657 70.06488475 -1.20581055 64.82617188 C-1.19005367 58.76341125 -1.18481364 52.70071406 -1.1855461 46.63793445 C-1.18615549 40.8068036 -1.18095207 34.97569412 -1.17275429 29.1445694 C-1.16956207 26.66132991 -1.16759893 24.17808854 -1.16686058 21.69484711 C-1.16470484 18.23500839 -1.15597833 14.77525107 -1.14526367 11.31542969 C-1.14571686 10.27959747 -1.14617004 9.24376526 -1.14663696 8.17654419 C-1.14237198 7.24001007 -1.13810699 6.30347595 -1.13371277 5.33856201 C-1.13203692 4.52005138 -1.13036108 3.70154076 -1.12863445 2.85822678 C-1 1 -1 1 0 0 Z " fill="#DDFFEE" transform="translate(298,303)"/>
<path d="M0 0 C2.40703732 2.40703732 2.25197194 2.94378111 2.26069641 6.22862244 C2.26778122 7.11578949 2.27486603 8.00295654 2.28216553 8.91700745 C2.27968811 9.89306442 2.27721069 10.8691214 2.2746582 11.87475586 C2.27976913 12.90101074 2.28488007 13.92726563 2.29014587 14.98461914 C2.30410157 18.39475258 2.30307942 21.80468505 2.30078125 25.21484375 C2.30466732 27.58460058 2.3090018 29.95435671 2.31376648 32.32411194 C2.32124329 37.30341848 2.32092861 42.28265416 2.31567383 47.26196289 C2.30990309 53.62374797 2.32674511 59.98523964 2.3500185 66.34697628 C2.36480528 71.24825216 2.36562037 76.1494584 2.36250877 81.05075264 C2.36302035 83.39455301 2.36822729 85.73835746 2.37832069 88.08213615 C2.39075162 91.37517718 2.38385137 94.66766027 2.37231445 97.96069336 C2.37995819 98.91853226 2.38760193 99.87637115 2.39547729 100.86323547 C2.3395579 108.13821575 1.28983039 115.42033921 -2 122 C-2.66 122 -3.32 122 -4 122 C-3.68268055 121.11586143 -3.68268055 121.11586143 -3.35895061 120.21386147 C-1.14054466 113.54651578 -0.55770021 107.5790264 -0.56762695 100.58349609 C-0.5574353 99.48963593 -0.54724365 98.39577576 -0.53674316 97.26876831 C-0.50677515 93.68693817 -0.49737184 90.10537619 -0.48828125 86.5234375 C-0.4714226 84.02665326 -0.45327077 81.52987746 -0.43388367 79.03311157 C-0.38650668 72.48690423 -0.35661764 65.94073106 -0.33044434 59.39440918 C-0.30216764 52.70427429 -0.25406768 46.01425692 -0.20898438 39.32421875 C-0.12309116 26.21620994 -0.05511786 13.10817252 0 0 Z " fill="#E1FFF4" transform="translate(517,303)"/>
<path d="M0 0 C5.61 0 11.22 0 17 0 C17 4.95 17 9.9 17 15 C16.67 15 16.34 15 16 15 C16 10.38 16 5.76 16 1 C11.38 1 6.76 1 2 1 C2 27.07 2 53.14 2 80 C6.95 80.33 11.9 80.66 17 81 C17 81.33 17 81.66 17 82 C11.39 82 5.78 82 0 82 C0 54.94 0 27.88 0 0 Z " fill="#1B6C54" transform="translate(1023,338)"/>
<path d="M0 0 C-0.99 0.33 -1.98 0.66 -3 1 C-3 1.66 -3 2.32 -3 3 C-37.65 3 -72.3 3 -108 3 C-108 2.67 -108 2.34 -108 2 C-106.77526474 1.99191315 -105.55052948 1.98382629 -104.28868103 1.97549438 C-92.73859546 1.89796138 -81.18862665 1.81020386 -69.63869381 1.71247292 C-63.70096606 1.66255784 -57.76325569 1.61622721 -51.82543945 1.578125 C-46.09358839 1.54121195 -40.36188442 1.49483534 -34.63015938 1.44193649 C-32.44496812 1.42342459 -30.25974538 1.40830484 -28.07450676 1.39665604 C-25.01037455 1.37973893 -21.94657685 1.35069026 -18.88256836 1.31884766 C-17.98201218 1.31668747 -17.08145599 1.31452728 -16.15361023 1.31230164 C-12.23902112 1.2604393 -8.76437143 1.06869781 -5.00733948 -0.08242798 C-2 -1 -2 -1 0 0 Z " fill="#CEFDE5" transform="translate(499,438)"/>
<path d="M0 0 C2.97 0 5.94 0 9 0 C8.52269162 1.4589426 8.04308958 2.91713496 7.5625 4.375 C7.29566406 5.18710937 7.02882813 5.99921875 6.75390625 6.8359375 C6 9 6 9 5 11 C4.34 11 3.68 11 3 11 C2.34 10.34 1.68 9.68 1 9 C-2.15272386 10.61219201 -2.15272386 10.61219201 -2.5 13.0625 C-2.7475 14.0215625 -2.7475 14.0215625 -3 15 C-3.99 15.33 -4.98 15.66 -6 16 C-4.25192871 10.53262809 -2.34205919 5.24175152 0 0 Z " fill="#16795A" transform="translate(914,338)"/>
<path d="M0 0 C0.33 1.32 0.66 2.64 1 4 C0.34 4 -0.32 4 -1 4 C-1.2475 4.70125 -1.495 5.4025 -1.75 6.125 C-4.4768452 12.39674397 -8.91212778 17.54950371 -13 23 C-4.75 23 3.5 23 12 23 C12 23.33 12 23.66 12 24 C2.76 24 -6.48 24 -16 24 C-14.45725102 20.91450203 -13.00715547 18.48725144 -10.99609375 15.7421875 C-10.42052734 14.95199219 -9.84496094 14.16179687 -9.25195312 13.34765625 C-8.35379883 12.12369141 -8.35379883 12.12369141 -7.4375 10.875 C-6.24741275 9.24833529 -5.05854939 7.62077425 -3.87109375 5.9921875 C-3.34443115 5.27401855 -2.81776855 4.55584961 -2.27514648 3.81591797 C-0.95121981 2.02578196 -0.95121981 2.02578196 0 0 Z " fill="#1FBD6C" transform="translate(386,344)"/>
<path d="M0 0 C0.66 0 1.32 0 2 0 C1.84660156 0.93972656 1.69320312 1.87945312 1.53515625 2.84765625 C0.84297096 7.69295331 0.65206371 12.5517789 0.4375 17.4375 C0.39431641 18.35982422 0.35113281 19.28214844 0.30664062 20.23242188 C0.20145069 22.48816163 0.09930893 24.74399499 0 27 C-3.74654228 21.38018658 -2.53962572 12.55873858 -1.546875 6.01171875 C-1.09596072 3.99226692 -0.55920935 1.9921833 0 0 Z " fill="#2A7860" transform="translate(555,349)"/>
<path d="M0 0 C0.33 0 0.66 0 1 0 C1.08858959 3.60400627 1.14091522 7.20772545 1.1875 10.8125 C1.21263672 11.81732422 1.23777344 12.82214844 1.26367188 13.85742188 C1.33786625 21.54890591 0.48643545 29.0271291 -3 36 C-3.66 36 -4.32 36 -5 36 C-4.79503906 35.33613281 -4.59007812 34.67226563 -4.37890625 33.98828125 C-4.10949219 33.10527344 -3.84007812 32.22226562 -3.5625 31.3125 C-3.29566406 30.44238281 -3.02882813 29.57226562 -2.75390625 28.67578125 C-1.55240345 24.41138013 -0.87368878 20.3444672 -0.68359375 15.91796875 C-0.64169922 14.98662109 -0.59980469 14.05527344 -0.55664062 13.09570312 C-0.51732422 12.13599609 -0.47800781 11.17628906 -0.4375 10.1875 C-0.39431641 9.20845703 -0.35113281 8.22941406 -0.30664062 7.22070312 C-0.2009774 4.81392973 -0.09887673 2.40706017 0 0 Z " fill="#E7FEF5" transform="translate(518,389)"/>
<path d="M0 0 C2.97 0 5.94 0 9 0 C8.34580901 5.06998019 6.1453591 9.41990777 4 14 C3.34 14 2.68 14 2 14 C2 12.68 2 11.36 2 10 C2.66 10 3.32 10 4 10 C3.7215625 8.2984375 3.7215625 8.2984375 3.4375 6.5625 C3.293125 5.386875 3.14875 4.21125 3 3 C3.33 2.67 3.66 2.34 4 2 C2.68 1.34 1.36 0.68 0 0 Z " fill="#2F816B" transform="translate(1003,337)"/>
<path d="M0 0 C0.33 0 0.66 0 1 0 C1.02578125 0.72703125 1.0515625 1.4540625 1.078125 2.203125 C1.47195739 9.18469919 2.77022986 15.06522466 5.2578125 21.6015625 C6 24 6 24 5 26 C0.28643105 20.21516537 -0.2823516 15.40751762 -0.125 8.1875 C-0.11597656 7.39923828 -0.10695313 6.61097656 -0.09765625 5.79882812 C-0.07422504 3.86575334 -0.03835838 1.9328362 0 0 Z " fill="#F0FEF8" transform="translate(297,399)"/>
<path d="M0 0 C0.66 0 1.32 0 2 0 C2.03758423 1.0058313 2.03758423 1.0058313 2.07592773 2.03198242 C2.19230801 5.0839959 2.31484348 8.13573258 2.4375 11.1875 C2.47681641 12.24259766 2.51613281 13.29769531 2.55664062 14.38476562 C2.59853516 15.40634766 2.64042969 16.42792969 2.68359375 17.48046875 C2.72025146 18.41785889 2.75690918 19.35524902 2.79467773 20.32104492 C2.99625599 22.95114982 3.42678321 25.42766414 4 28 C3.34 28.33 2.68 28.66 2 29 C0.94163339 25.82490018 0.79756211 23.35717617 0.68359375 20.01953125 C0.64169922 18.85615234 0.59980469 17.69277344 0.55664062 16.49414062 C0.51732422 15.27919922 0.47800781 14.06425781 0.4375 12.8125 C0.39431641 11.58595703 0.35113281 10.35941406 0.30664062 9.09570312 C0.2004691 6.06391619 0.09842048 3.03204685 0 0 Z " fill="#3FC57A" transform="translate(343,444)"/>
<path d="M0 0 C0.66 0 1.32 0 2 0 C2 1.65 2 3.3 2 5 C1.34 5 0.68 5 0 5 C-0.2475 5.556875 -0.495 6.11375 -0.75 6.6875 C-3.34204027 11.48277451 -5.69619518 14.37939297 -11 16 C-10.62488281 15.56429688 -10.24976563 15.12859375 -9.86328125 14.6796875 C-8.7955548 13.43714438 -7.7306076 12.19220939 -6.66796875 10.9453125 C-5.61919182 9.72214877 -4.56061482 8.50725279 -3.48828125 7.3046875 C-0.58686732 4.14329925 -0.58686732 4.14329925 0 0 Z " fill="#DAF4EF" transform="translate(653,396)"/>
<path d="M0 0 C0.33 0.66 0.66 1.32 1 2 C-0.59025991 5.10100683 -2.2996944 7.76931277 -5 10 C-5.66 10 -6.32 10 -7 10 C-7.66 11.32 -8.32 12.64 -9 14 C-9.99 14 -10.98 14 -12 14 C-11.30132812 13.24074219 -10.60265625 12.48148437 -9.8828125 11.69921875 C-8.96343578 10.69540947 -8.04417079 9.69149785 -7.125 8.6875 C-6.66480469 8.18798828 -6.20460938 7.68847656 -5.73046875 7.17382812 C-3.61393392 4.85790957 -1.74473617 2.61710426 0 0 Z " fill="#D5FAE9" transform="translate(380,446)"/>
<path d="M0 0 C0.33 0.66 0.66 1.32 1 2 C0.401875 2.886875 -0.19625 3.77375 -0.8125 4.6875 C-2.09636119 6.63163267 -3.34409727 8.60217023 -4.5 10.625 C-6.07811885 13.12368817 -7.84296061 14.99172195 -10 17 C-10.66 16.67 -11.32 16.34 -12 16 C-8.04 10.72 -4.08 5.44 0 0 Z " fill="#20BD6D" transform="translate(429,379)"/>
<path d="M0 0 C0.66 0.33 1.32 0.66 2 1 C-0.23212517 3.56694395 -1.66760787 4.41457976 -5 5 C-7.24907152 5.06790675 -9.50001605 5.08499984 -11.75 5.0625 C-12.92046875 5.05347656 -14.0909375 5.04445313 -15.296875 5.03515625 C-16.18890625 5.02355469 -17.0809375 5.01195312 -18 5 C-17.67 4.34 -17.34 3.68 -17 3 C-16.35933594 3.03480469 -15.71867188 3.06960938 -15.05859375 3.10546875 C-9.10000734 3.29195208 -5.34442385 2.56086976 0 0 Z " fill="#DEF6F2" transform="translate(953,452)"/>
<path d="M0 0 C0.66 0.33 1.32 0.66 2 1 C0.49760034 4.61941735 -0.82145293 7.7321794 -3 11 C-3.66 11 -4.32 11 -5 11 C-4.54663921 6.12637153 -3.2910841 3.60957611 0 0 Z " fill="#15B565" transform="translate(393,413)"/>
<path d="M0 0 C1.06340773 3.19736014 0.96582104 4.8981025 -0.3125 8 C-0.59351563 8.6909375 -0.87453125 9.381875 -1.1640625 10.09375 C-2.04398261 12.1002968 -2.95616506 14.07292011 -4 16 C-4.66 16 -5.32 16 -6 16 C-4.25192871 10.53262809 -2.34205919 5.24175152 0 0 Z " fill="#24765E" transform="translate(897,378)"/>
<path d="M0 0 C0.66 0.99 1.32 1.98 2 3 C1.67 3.33 1.34 3.66 1 4 C0.43655256 6.85227019 -0.08134945 9.69631608 -0.5625 12.5625 C-0.70107422 13.36880859 -0.83964844 14.17511719 -0.98242188 15.00585938 C-1.32517763 17.00329811 -1.66304388 19.00157472 -2 21 C-2.33 21 -2.66 21 -3 21 C-3.44032071 13.48193151 -2.28612778 7.15775723 0 0 Z " fill="#D9F4EF" transform="translate(577,345)"/>
<path d="M0 0 C0.66 0.33 1.32 0.66 2 1 C-1.63 4.96 -5.26 8.92 -9 13 C-9 8.68381834 -6.86729652 7.07210341 -4 4 C-3.34 4 -2.68 4 -2 4 C-2 3.01 -2 2.02 -2 1 C-1.34 0.67 -0.68 0.34 0 0 Z " fill="#41C57D" transform="translate(373,452)"/>
<path d="M0 0 C-0.33 0.639375 -0.66 1.27875 -1 1.9375 C-2.33056928 6.01236841 -2.16659199 9.75190425 -2 14 C-4.63730092 11.70457142 -4.97181989 11.25831771 -5.375 7.5625 C-4.98567667 3.86392836 -4.36937785 0 0 0 Z " fill="#2F7F66" transform="translate(934,439)"/>
<path d="M0 0 C2.31 0.66 4.62 1.32 7 2 C5.35 3.65 3.7 5.3 2 7 C1.896875 6.360625 1.79375 5.72125 1.6875 5.0625 C1.460625 4.381875 1.23375 3.70125 1 3 C0.01 2.67 -0.98 2.34 -2 2 C-1.34 1.34 -0.68 0.68 0 0 Z " fill="#1C7258" transform="translate(785,349)"/>
<path d="M0 0 C4.0360127 2.83611703 6.33774494 5.30657394 8 10 C7.06640625 12.1875 7.06640625 12.1875 6 14 C5.73445312 13.32453125 5.46890625 12.6490625 5.1953125 11.953125 C4.84210937 11.06109375 4.48890625 10.1690625 4.125 9.25 C3.77695312 8.36828125 3.42890625 7.4865625 3.0703125 6.578125 C2.1353291 4.3259752 1.12219206 2.16350541 0 0 Z " fill="#25745E" transform="translate(825,341)"/>
<path d="M0 0 C-0.66 1.98 -1.32 3.96 -2 6 C-2.598125 5.835 -3.19625 5.67 -3.8125 5.5 C-6.11344336 4.8885876 -6.11344336 4.8885876 -9 5 C-7.87926138 4.16094435 -6.75325453 3.32892169 -5.625 2.5 C-4.99851562 2.0359375 -4.37203125 1.571875 -3.7265625 1.09375 C-2 0 -2 0 0 0 Z " fill="#38C979" transform="translate(318,281)"/>
<path d="M0 0 C2.45098556 0.39532025 4.63904279 1.21301426 7 2 C7.66 3.65 8.32 5.3 9 7 C5.37 5.35 1.74 3.7 -2 2 C-1.34 1.34 -0.68 0.68 0 0 Z " fill="#24795F" transform="translate(626,319)"/>
<path d="M0 0 C1.32 0.33 2.64 0.66 4 1 C1.28817788 3.60334924 0.10866187 3.99456691 -3.75 4.1875 C-4.8225 4.125625 -5.895 4.06375 -7 4 C-7.33 3.34 -7.66 2.68 -8 2 C-5.36 2 -2.72 2 0 2 C0 1.34 0 0.68 0 0 Z " fill="#42C782" transform="translate(354,471)"/>
<path d="M0 0 C-1.60032137 0.84069415 -3.20541171 1.67231505 -4.8125 2.5 C-6.15248047 3.19609375 -6.15248047 3.19609375 -7.51953125 3.90625 C-10 5 -10 5 -13 5 C-13 4.34 -13 3.68 -13 3 C-11.21189234 2.30329584 -9.41937948 1.61788811 -7.625 0.9375 C-6.62726563 0.55464844 -5.62953125 0.17179687 -4.6015625 -0.22265625 C-2 -1 -2 -1 0 0 Z " fill="#3AC578" transform="translate(504,434)"/>
<path d="M0 0 C0.66 0.99 1.32 1.98 2 3 C0.68 5.64 -0.64 8.28 -2 11 C-2.99 11 -3.98 11 -5 11 C-5 10.34 -5 9.68 -5 9 C-4.34 9 -3.68 9 -3 9 C-2.01 6.03 -1.02 3.06 0 0 Z " fill="#267B63" transform="translate(981,387)"/>
<path d="M0 0 C0.66 1.32 1.32 2.64 2 4 C0.625 7.25 0.625 7.25 -1 10 C-1.66 10 -2.32 10 -3 10 C-2.01 6.7 -1.02 3.4 0 0 Z " fill="#2B7D66" transform="translate(968,416)"/>
<path d="M0 0 C2.22825644 2.22825644 2.69239369 3.65761628 3.625 6.625 C4.01558594 7.85089844 4.01558594 7.85089844 4.4140625 9.1015625 C4.60742188 9.72804688 4.80078125 10.35453125 5 11 C4.01 10.67 3.02 10.34 2 10 C0.47839986 6.3962102 0 3.94779314 0 0 Z " fill="#2A7C64" transform="translate(879,381)"/>
<path d="M0 0 C0.66 0.33 1.32 0.66 2 1 C0.88266271 2.50571657 -0.24410035 4.00444292 -1.375 5.5 C-2.00148438 6.3353125 -2.62796875 7.170625 -3.2734375 8.03125 C-3.84320312 8.6809375 -4.41296875 9.330625 -5 10 C-5.66 10 -6.32 10 -7 10 C-5.6062718 5.56541027 -3.39417765 3.12621626 0 0 Z " fill="#DCF7F2" transform="translate(694,346)"/>
<path d="M0 0 C0.33 0 0.66 0 1 0 C1.19402245 4.17148265 1.01430083 7.28944583 -1 11 C-1.99 11.33 -2.98 11.66 -4 12 C-2.66666667 8 -1.33333333 4 0 0 Z " fill="#34826A" transform="translate(912,342)"/>
<path d="M0 0 C1.32 0 2.64 0 4 0 C2.60667426 3.36720387 1.0210714 4.9859524 -2 7 C-1.34 4.69 -0.68 2.38 0 0 Z " fill="#0D7B55" transform="translate(380,441)"/>
<path d="M0 0 C-1.33332095 3.99996286 -3.4957827 4.83782337 -7 7 C-7.33 6.01 -7.66 5.02 -8 4 C-2.25 0 -2.25 0 0 0 Z " fill="#217960" transform="translate(1058,338)"/>
<path d="M0 0 C0.99 0 1.98 0 3 0 C3 1.98 3 3.96 3 6 C2.34 5.01 1.68 4.02 1 3 C0.01 3.33 -0.98 3.66 -2 4 C-2 4.66 -2 5.32 -2 6 C-2.66 5.67 -3.32 5.34 -4 5 C-2.1875 2.5 -2.1875 2.5 0 0 Z " fill="#0A8650" transform="translate(427,278)"/>
<path d="M0 0 C0.66 0 1.32 0 2 0 C0.25 5.75 0.25 5.75 -2 8 C-2.125 5.125 -2.125 5.125 -2 2 C-1.34 1.34 -0.68 0.68 0 0 Z " fill="#1D775D" transform="translate(969,431)"/>
<path d="M0 0 C1.96301592 3.50538557 2.95902388 7.13351728 4 11 C2 9.4375 2 9.4375 0 7 C-0.25 3.25 -0.25 3.25 0 0 Z " fill="#CBF8E0" transform="translate(299,414)"/>
<path d="M0 0 C1 3 1 3 0.0625 5.1875 C-0.4634375 6.0846875 -0.4634375 6.0846875 -1 7 C-2.32 6.67 -3.64 6.34 -5 6 C-3.35 4.02 -1.7 2.04 0 0 Z " fill="#10AB5F" transform="translate(419,299)"/>
<path d="M0 0 C0.99 0.33 1.98 0.66 3 1 C1.515 4.465 1.515 4.465 0 8 C-1.125 6.25 -1.125 6.25 -2 4 C-1.125 1.75 -1.125 1.75 0 0 Z " fill="#197458" transform="translate(896,395)"/>
<path d="M0 0 C2.475 0.99 2.475 0.99 5 2 C4.67 3.32 4.34 4.64 4 6 C3.34 6 2.68 6 2 6 C1.34 4.02 0.68 2.04 0 0 Z " fill="#1D755A" transform="translate(929,338)"/>
</svg>
