<?xml version="1.0" encoding="UTF-8"?>
<svg version="1.1" xmlns="http://www.w3.org/2000/svg" width="839" height="297">
<path d="M0 0 C2.66047668 -0.29679871 2.66047668 -0.29679871 5 0 C5.18184716 5.13130634 4.58773166 9.43356757 3.27734375 14.390625 C3.00579468 15.43270363 3.00579468 15.43270363 2.72875977 16.49583435 C2.13959576 18.74938979 1.53864729 20.9996147 0.9375 23.25 C0.5278998 24.80813233 0.11913456 26.36648439 -0.28881836 27.92504883 C-1.1168081 31.08411144 -1.94915026 34.24197536 -2.78515625 37.39892578 C-4.57225747 44.15454367 -6.31481112 50.92159874 -8.0625 57.6875 C-9.04065146 61.45859727 -10.02011969 65.22935162 -11 69 C-10.34 69 -9.68 69 -9 69 C-8.74863281 68.29359375 -8.49726563 67.5871875 -8.23828125 66.859375 C-6.86534591 63.68906374 -5.15232125 61.09016227 -3.1875 58.25 C-0.28448931 53.97655904 2.34505303 49.6883213 4.79296875 45.14453125 C6.51945096 42.07709198 8.47096158 39.18417619 10.453125 36.27734375 C11.52492693 34.69941313 12.57571552 33.107082 13.609375 31.50390625 C14.13015625 30.69824219 14.6509375 29.89257812 15.1875 29.0625 C15.65542969 28.33160156 16.12335938 27.60070312 16.60546875 26.84765625 C18 25 18 25 21 23 C33.05151026 21.39797842 46.73175317 21.54354803 56.6953125 29.0234375 C64.57416758 35.75377143 70.21654407 42.38057301 71.18523598 53.03792953 C71.26429221 55.18119401 71.28182876 57.31575265 71.2746582 59.46044922 C71.27976913 60.26485443 71.28488007 61.06925964 71.29014587 61.89804077 C71.30394447 64.53366726 71.30309243 67.16902938 71.30078125 69.8046875 C71.30467364 71.65259903 71.30900942 73.50050968 71.31376648 75.34841919 C71.32120787 79.21326605 71.32095263 83.07802153 71.31567383 86.94287109 C71.30988324 91.87421465 71.32681045 96.80518211 71.3500185 101.73646355 C71.36481296 105.55081334 71.36561977 109.36507376 71.36250877 113.17944717 C71.36301916 114.99656036 71.36820327 116.81367892 71.37832069 118.63076401 C71.44675735 132.64018505 70.9009173 143.23524428 61 154 C54.16316122 160.65205936 45.26593884 163.67911085 36 165 C36.02320313 166.19496094 36.04640625 167.38992187 36.0703125 168.62109375 C36.2810946 184.30130573 36.2810946 184.30130573 34 192 C28.70012464 193.39188646 28.70012464 193.39188646 25.61328125 191.6640625 C24.47439453 190.65472656 24.47439453 190.65472656 23.3125 189.625 C22.44882813 188.88121094 21.58515625 188.13742188 20.6953125 187.37109375 C19.36113281 186.19740234 19.36113281 186.19740234 18 185 C16.23413934 183.55639581 14.46322559 182.11895226 12.6875 180.6875 C7.81777634 176.70128335 3.01367343 172.64107861 -1.76098633 168.54174805 C-7.42253889 163.70952277 -12.47248521 162.70303145 -19.8125 163.01953125 C-24.09021503 163.63324847 -26.0000771 165.35343456 -28.59985352 168.71044922 C-30.41584023 171.39449018 -32.12869214 174.11937793 -33.76513672 176.91650391 C-35.69495676 180.17255061 -37.84806761 183.26351164 -40 186.375 C-40.70125 187.43460938 -41.4025 188.49421875 -42.125 189.5859375 C-44 192 -44 192 -47 193 C-49 191 -49 191 -49.1171875 189.21484375 C-48.20518176 180.63904782 -46.08322156 172.35226504 -44 164 C-44.94206299 164.01047363 -45.88412598 164.02094727 -46.85473633 164.03173828 C-50.40147423 164.0661367 -53.94803091 164.09105113 -57.49487305 164.10986328 C-59.02029241 164.11982599 -60.54569316 164.13340109 -62.07104492 164.15087891 C-88.87018703 164.44991758 -88.87018703 164.44991758 -99.1953125 154.98828125 C-111.35510721 142.13300013 -110.15966262 127.43536113 -110.16796875 110.68359375 C-110.17119212 109.1352587 -110.17455695 107.58692393 -110.17805481 106.03858948 C-110.18399877 102.81388646 -110.18589943 99.58921006 -110.18530273 96.36450195 C-110.18520092 92.26074713 -110.19889399 88.15716457 -110.21607494 84.05345058 C-110.22726127 80.86272923 -110.22921998 77.67204883 -110.22869301 74.48130989 C-110.22986157 72.96925318 -110.23421901 71.45719501 -110.24202538 69.945158 C-110.31332618 54.72137768 -109.31324212 42.73918325 -98.6875 31.125 C-93.46938026 26.20837163 -86.28095082 23.0149025 -79.07633972 22.98982239 C-77.3721563 23.06604073 -77.3721563 23.06604073 -75.63354492 23.14379883 C-74.34087204 23.19486282 -73.04819916 23.24592682 -71.71635437 23.29853821 C-70.68233773 23.33960914 -70.68233773 23.33960914 -69.62743187 23.38150978 C-65.16698833 23.53841012 -60.7040446 23.59795361 -56.24151134 23.66658497 C-52.33561203 23.73192627 -48.43907293 23.83658826 -44.53735352 24.03198242 C-27.45272438 25.46066402 -27.45272438 25.46066402 -12.13336182 19.75140381 C-7.4392737 14.41490127 -4.16109628 8.51928982 -1.40205383 1.99076843 C-0.93937607 1.33381485 -0.4766983 0.67686127 0 0 Z " fill="#1CBC69" transform="translate(183,53)"/>
<path d="M0 0 C1.81207947 -0.00472824 1.81207947 -0.00472824 3.6607666 -0.009552 C4.96187378 -0.00752777 6.26298096 -0.00550354 7.60351562 -0.00341797 C8.95585141 -0.00409193 10.30818709 -0.00506272 11.66052246 -0.00631714 C14.4916296 -0.00778977 17.32270514 -0.0056535 20.15380859 -0.00097656 C23.77864853 0.00472047 27.40341442 0.00143915 31.02825165 -0.00454903 C33.81980953 -0.00816635 36.61134991 -0.00701066 39.40290833 -0.00442123 C41.38819426 -0.00343183 43.37348087 -0.00646335 45.35876465 -0.009552 C46.56681763 -0.00639984 47.77487061 -0.00324768 49.01953125 0 C50.61359802 0.00119339 50.61359802 0.00119339 52.23986816 0.00241089 C54.66759159 0.11370785 56.69376336 0.42856776 59.00976562 1.12939453 C58.44730924 5.34781745 57.04743737 7.96075386 54.63476562 11.44189453 C53.91160156 12.49505859 53.1884375 13.54822266 52.44335938 14.63330078 C52.05003418 15.19807129 51.65670898 15.7628418 51.25146484 16.34472656 C49.96558998 18.19288725 48.69153331 20.04873854 47.41992188 21.90673828 C44.14882347 26.68264868 40.86068413 31.44675805 37.57324219 36.21142578 C32.26781453 43.90339052 27.00191967 51.61480449 21.83789062 59.40283203 C20.09450115 62.00301548 18.31313978 64.57055283 16.50976562 67.12939453 C15.95160156 67.92861328 15.3934375 68.72783203 14.81835938 69.55126953 C13.48958183 71.44542327 12.14629547 73.32942008 10.79492188 75.20751953 C9.69470703 76.77759766 9.69470703 76.77759766 8.57226562 78.37939453 C7.89292969 79.33330078 7.21359375 80.28720703 6.51367188 81.27001953 C4.7982916 84.53146982 4.88901987 86.50514025 5.00976562 90.12939453 C6.07936523 90.13874023 7.14896484 90.14808594 8.25097656 90.15771484 C12.22470533 90.19762966 16.19766106 90.26339174 20.17089844 90.33691406 C21.88954731 90.3651152 23.60832568 90.38633407 25.32714844 90.40039062 C27.8001531 90.42183286 30.27160237 90.46848609 32.74414062 90.52001953 C33.51095154 90.52124817 34.27776245 90.52247681 35.06781006 90.52374268 C38.54706943 90.61897025 40.65714991 90.88080642 43.53295898 92.90820312 C45.22393045 95.4515092 45.40386569 96.31442657 44.90429688 99.27783203 C44.77619629 100.06641602 44.6480957 100.855 44.51611328 101.66748047 C43.68099072 105.72793174 42.7464679 109.74382969 41.69726562 113.75439453 C41.47723877 114.61452148 41.25721191 115.47464844 41.03051758 116.36083984 C40.36484028 118.95249225 39.68950234 121.54139694 39.00976562 124.12939453 C38.80351562 124.91475586 38.59726563 125.70011719 38.38476562 126.50927734 C37.2750097 130.72014399 36.14962518 134.92656043 35.00976562 139.12939453 C34.01976562 139.12939453 33.02976562 139.12939453 32.00976562 139.12939453 C32.00976562 139.78939453 32.00976562 140.44939453 32.00976562 141.12939453 C27.51148894 141.1794053 23.01336618 141.21539829 18.51489258 141.23925781 C16.98947322 141.24922052 15.46407247 141.26279562 13.9387207 141.28027344 C-12.86042141 141.57931211 -12.86042141 141.57931211 -23.18554688 132.11767578 C-35.34534158 119.26239466 -34.149897 104.56475566 -34.15820312 87.81298828 C-34.16142649 86.26465323 -34.16479132 84.71631847 -34.16828918 83.16798401 C-34.17423314 79.94328099 -34.17613381 76.71860459 -34.17553711 73.49389648 C-34.1754353 69.39014166 -34.18912836 65.2865591 -34.20630932 61.18284512 C-34.21749565 57.99212377 -34.21945436 54.80144336 -34.21892738 51.61070442 C-34.22009594 50.09864771 -34.22445339 48.58658954 -34.23225975 47.07455254 C-34.30356056 31.85077221 -33.3034765 19.86857778 -22.67773438 8.25439453 C-16.37272462 2.31367423 -8.48821958 0.00635466 0 0 Z " fill="#1DC16C" transform="translate(106.990234375,75.87060546875)"/>
<path d="M0 0 C0.75684082 0.0932959 1.51368164 0.1865918 2.29345703 0.28271484 C2.47979755 5.41701718 1.8648394 9.91883176 0.53564453 14.84912109 C0.35183228 15.55714874 0.16802002 16.26517639 -0.0213623 16.99465942 C-0.41425775 18.50245441 -0.81114375 20.00921441 -1.21173096 21.51498413 C-1.83729916 23.8668557 -2.45149526 26.22146394 -3.06347656 28.5769043 C-4.8621042 35.47137721 -6.70420015 42.34928303 -8.67529297 49.19677734 C-9.10044189 50.68649048 -9.10044189 50.68649048 -9.53417969 52.20629883 C-10.04761251 53.98602112 -10.57427755 55.76200628 -11.1171875 57.53295898 C-12.66069122 62.86431901 -12.91873278 66.82786068 -11.70654297 72.28271484 C-8.50335452 73.88430907 -5.00909825 73.48244149 -1.48779297 73.52880859 C0.18278541 73.56173592 1.85335819 73.59494775 3.52392578 73.62841797 C6.16402476 73.67592301 8.80409929 73.72037264 11.44433594 73.75952148 C13.98803032 73.7991259 16.53126418 73.85068641 19.07470703 73.90380859 C19.86744019 73.91222275 20.66017334 73.9206369 21.47692871 73.92930603 C27.0667587 74.05601651 27.0667587 74.05601651 29.29345703 76.28271484 C30.12098134 81.32241245 28.54391796 84.04319518 25.78759766 88.04443359 C25.31515625 88.70056641 24.84271484 89.35669922 24.35595703 90.03271484 C23.42960585 91.36044239 22.50379893 92.68854987 21.57861328 94.01708984 C20.82451172 95.09474609 20.07041016 96.17240234 19.29345703 97.28271484 C18.96345703 97.94271484 18.63345703 98.60271484 18.29345703 99.28271484 C17.63345703 99.28271484 16.97345703 99.28271484 16.29345703 99.28271484 C16.02533203 100.00458984 15.75720703 100.72646484 15.48095703 101.47021484 C14.29444341 104.28037867 13.01860064 106.76688041 11.29345703 109.28271484 C10.63345703 109.28271484 9.97345703 109.28271484 9.29345703 109.28271484 C8.79845703 111.26271484 8.79845703 111.26271484 8.29345703 113.28271484 C7.63345703 113.28271484 6.97345703 113.28271484 6.29345703 113.28271484 C6.02533203 114.00845703 5.75720703 114.73419922 5.48095703 115.48193359 C4.30675322 118.25135508 2.95402463 120.59190918 1.29345703 123.09521484 C0.77783203 123.88541016 0.26220703 124.67560547 -0.26904297 125.48974609 C-0.74341797 126.08142578 -1.21779297 126.67310547 -1.70654297 127.28271484 C-2.36654297 127.28271484 -3.02654297 127.28271484 -3.70654297 127.28271484 C-3.78517578 128.32556641 -3.86380859 129.36841797 -3.94482422 130.44287109 C-4.80058694 134.7567929 -6.00776221 136.46650135 -8.89404297 139.72021484 C-9.70486328 140.65994141 -10.51568359 141.59966797 -11.35107422 142.56787109 C-12.51703125 143.91171875 -12.51703125 143.91171875 -13.70654297 145.28271484 C-17.00478016 149.45671523 -20.06397015 153.65821242 -22.70654297 158.28271484 C-23.36654297 159.27271484 -24.02654297 160.26271484 -24.70654297 161.28271484 C-22.06654297 161.28271484 -19.42654297 161.28271484 -16.70654297 161.28271484 C-17.03654297 162.27271484 -17.36654297 163.26271484 -17.70654297 164.28271484 C-18.29242188 164.20512939 -18.87830078 164.12754395 -19.48193359 164.04760742 C-24.17995946 163.61990733 -24.17995946 163.61990733 -28.33544922 165.47949219 C-29.78340129 167.23824739 -31.00171665 169.03676886 -32.20654297 170.97021484 C-32.66158203 171.64197754 -33.11662109 172.31374023 -33.58544922 173.00585938 C-34.98639186 175.08142028 -36.34655919 177.18016022 -37.70654297 179.28271484 C-38.97120368 181.17548412 -40.24670383 183.05991245 -41.53271484 184.93823242 C-42.64760439 186.57137865 -43.74023551 188.21965467 -44.83154297 189.86865234 C-46.70654297 192.28271484 -46.70654297 192.28271484 -49.70654297 193.28271484 C-51.70654297 191.28271484 -51.70654297 191.28271484 -51.82373047 189.42724609 C-51.11492542 182.60213937 -49.44325801 176.17794776 -47.54638672 169.60302734 C-46.54306407 166.20721649 -46.54306407 166.20721649 -46.70654297 162.28271484 C-45.71654297 162.28271484 -44.72654297 162.28271484 -43.70654297 162.28271484 C-43.61373047 161.06583984 -43.52091797 159.84896484 -43.42529297 158.59521484 C-42.59820538 151.15142659 -40.28405301 144.05616366 -38.23388672 136.87646484 C-36.31998028 130.02163677 -34.70654297 123.44787895 -34.70654297 116.28271484 C-38.29333424 115.08711775 -41.59647302 115.10971623 -45.33154297 115.07177734 C-46.85759557 115.04372004 -48.38363711 115.01505566 -49.90966797 114.98583984 C-52.31266094 114.94451073 -54.71544476 114.90761754 -57.11865234 114.88134766 C-59.44004721 114.8537799 -61.7605071 114.80792576 -64.08154297 114.75927734 C-64.80035645 114.75602448 -65.51916992 114.75277161 -66.25976562 114.74942017 C-69.18738654 114.67711749 -71.23171249 114.60705069 -73.68774414 112.92944336 C-74.70654297 111.28271484 -74.70654297 111.28271484 -74.63232422 108.45849609 C-73.57595523 104.83474932 -72.1133044 102.52119948 -69.89404297 99.47021484 C-69.50168457 98.92252441 -69.10932617 98.37483398 -68.70507812 97.81054688 C-67.84474957 96.61022021 -66.97996121 95.41308073 -66.11132812 94.21875 C-63.57210434 90.71926363 -61.07835279 87.18752544 -58.58154297 83.65771484 C-58.06293701 82.92641357 -57.54433105 82.1951123 -57.01000977 81.44165039 C-53.72044083 76.78313366 -50.61593015 72.04596433 -47.60107422 67.20458984 C-45.13689117 63.40415908 -42.51972316 59.72271566 -39.89404297 56.03271484 C-35.94005698 50.46699586 -32.01884347 44.88420417 -28.20654297 39.22021484 C-27.80975342 38.63788086 -27.41296387 38.05554688 -27.00415039 37.45556641 C-24.17975969 33.22894879 -21.91362557 28.86241125 -19.70654297 24.28271484 C-21.02654297 23.95271484 -22.34654297 23.62271484 -23.70654297 23.28271484 C-22.69849609 23.17185547 -21.69044922 23.06099609 -20.65185547 22.94677734 C-14.81506935 21.28122237 -12.50107535 15.55996262 -9.58154297 10.65771484 C-8.40783167 8.697286 -7.21840302 6.74615592 -6.01123047 4.80615234 C-5.49544434 3.93909668 -4.9796582 3.07204102 -4.44824219 2.17871094 C-2.70654297 0.28271484 -2.70654297 0.28271484 0 0 Z " fill="#015949" transform="translate(185.70654296875,52.71728515625)"/>
<path d="M0 0 C1.35328792 1.11298446 2.64801961 2.29691436 3.921875 3.5 C3.32352775 7.64298667 1.91523215 10.68194377 -0.140625 14.3125 C-0.68847656 15.28832031 -1.23632812 16.26414062 -1.80078125 17.26953125 C-2.22230469 18.00558594 -2.64382813 18.74164063 -3.078125 19.5 C-6.75489146 18.48888922 -9.6923877 17.17848533 -12.828125 15.0625 C-21.70825897 9.37786879 -31.4648559 8.17977993 -41.78125 9.96875 C-49.00331355 11.82964981 -54.74748543 14.86420227 -58.8359375 21.2421875 C-65.62055063 34.12311968 -67.47048335 48.34794868 -63.390625 62.4375 C-60.12618883 71.62796837 -56.74784095 78.49192545 -48.078125 83.5 C-39.16740795 87.69068376 -28.37122265 87.2255887 -19.078125 84.5 C-15.21766267 82.9426169 -11.79884532 80.97502021 -8.328125 78.6875 C-6.078125 77.5 -6.078125 77.5 -4.1015625 77.69140625 C-1.50074844 78.7307277 -0.85126486 79.85061159 0.546875 82.25 C1.15402344 83.26320312 1.15402344 83.26320312 1.7734375 84.296875 C2.99751089 86.64509741 3.97929479 89.0268079 4.921875 91.5 C-7.80235621 102.20880924 -22.7478862 107.33885942 -39.4921875 106.28515625 C-53.24271085 104.68448557 -65.32381527 100.34901147 -74.48828125 89.69921875 C-78.94746486 83.99291387 -82.81744503 78.40763324 -85.078125 71.5 C-85.37460937 70.60667969 -85.67109375 69.71335937 -85.9765625 68.79296875 C-90.87333629 51.29486425 -89.60927897 30.89353639 -80.703125 14.9375 C-71.9723157 1.27830575 -61.6097528 -5.32371786 -46.078125 -9.5 C-30.08724571 -12.674069 -13.31087414 -9.607849 0 0 Z " fill="#047263" transform="translate(368.078125,100.5)"/>
<path d="M0 0 C8.85469608 6.59265607 13.35351378 15.19268476 15.01171875 25.94140625 C16.56651686 39.81797935 14.14463182 51.79390073 5.57421875 63.0234375 C-0.93668255 70.25325082 -10.40045547 74.22027966 -20.0390625 75.00390625 C-31.63257785 75.30205798 -42.94223101 74.05903224 -52.30078125 66.41796875 C-61.05993818 57.56401575 -65.01891439 46.19590819 -65.17578125 33.79296875 C-65.05998863 23.67391279 -62.8324309 13.9095387 -56.67578125 5.73046875 C-40.81556223 -9.6640789 -18.67169336 -11.8713278 0 0 Z M-40.125 16.46484375 C-45.41294345 24.19030269 -44.71933382 35.40274546 -43.24609375 44.3359375 C-41.56005742 49.55016096 -37.79179228 54.18096246 -33.67578125 57.73046875 C-27.97922988 59.81034552 -20.95670631 59.61618893 -15.36328125 57.35546875 C-10.42230727 54.53491275 -8.50338563 49.92846042 -6.67578125 44.73046875 C-5.99281193 41.75467385 -5.67578125 39.69776639 -5.67578125 36.73046875 C-5.67578125 35.72886719 -5.67578125 34.72726563 -5.67578125 33.6953125 C-6.00778247 24.82465479 -7.83657694 17.56967306 -14.23828125 11.16796875 C-23.88807228 5.47706635 -33.23072621 8.69923159 -40.125 16.46484375 Z " fill="#037263" transform="translate(442.67578125,131.26953125)"/>
<path d="M0 0 C6.64026915 3.92479485 10.68015964 9.68875904 13.375 16.875 C14.15697563 20.86470929 14.49771492 24.6350064 14.48852539 28.69677734 C14.48841209 30.37784073 14.48841209 30.37784073 14.48829651 32.09286499 C14.48313522 33.28682892 14.47797394 34.48079285 14.47265625 35.7109375 C14.4712413 36.94542633 14.46982635 38.17991516 14.46836853 39.45181274 C14.46278272 43.38456675 14.45023275 47.31726328 14.4375 51.25 C14.43191912 53.92057208 14.42792058 56.59114363 14.42382812 59.26171875 C14.41281792 65.79950122 14.39556297 72.33724088 14.375 78.875 C7.775 78.875 1.175 78.875 -5.625 78.875 C-6.34906253 75.25468733 -6.74346701 72.67168885 -6.70678711 69.10400391 C-6.7002562 68.18600006 -6.69372528 67.26799622 -6.68699646 66.32217407 C-6.67556107 65.34187225 -6.66412567 64.36157043 -6.65234375 63.3515625 C-6.63969692 61.25781416 -6.627336 59.16406407 -6.61523438 57.0703125 C-6.59043577 53.78314738 -6.5624601 50.4960737 -6.52905273 47.20898438 C-6.49875361 44.02733799 -6.48104625 40.84580759 -6.46484375 37.6640625 C-6.45138412 36.68780914 -6.4379245 35.71155579 -6.42405701 34.70571899 C-6.40082475 28.35018975 -6.45240153 22.60826904 -10.5625 17.4375 C-15.20650399 15.06811021 -19.51375389 15.25773611 -24.625 15.875 C-29.38742339 17.55066749 -32.5937373 19.8388095 -35.625 23.875 C-36.3940767 28.03964337 -36.34614719 32.16887802 -36.33203125 36.39453125 C-36.34715256 37.60823898 -36.36227386 38.82194672 -36.37785339 40.07243347 C-36.42079896 43.9443103 -36.42957572 47.81540851 -36.4375 51.6875 C-36.46063873 54.31447393 -36.48600275 56.94142926 -36.51367188 59.56835938 C-36.57659306 66.0039753 -36.60887469 72.43910353 -36.625 78.875 C-43.225 78.875 -49.825 78.875 -56.625 78.875 C-57.7937761 75.3686717 -57.764966 72.22057283 -57.75439453 68.57373047 C-57.75614685 67.83362732 -57.75789917 67.09352417 -57.75970459 66.33099365 C-57.76410605 63.88470109 -57.76119171 61.4384808 -57.7578125 58.9921875 C-57.75848589 57.29493191 -57.7594562 55.59767641 -57.76071167 53.90042114 C-57.76218621 50.3445748 -57.76004136 46.78875358 -57.75537109 43.23291016 C-57.74966527 38.66498765 -57.75295974 34.09712378 -57.75894356 29.52920341 C-57.76254834 26.02576247 -57.76141112 22.52233555 -57.75881577 19.0188942 C-57.75814672 17.3339042 -57.75897416 15.64891294 -57.76129532 13.96392441 C-57.76382143 11.61507516 -57.75998227 9.26632248 -57.75439453 6.91748047 C-57.75641876 6.21513275 -57.75844299 5.51278503 -57.76052856 4.78915405 C-57.73926458 -0.01073542 -57.73926458 -0.01073542 -56.625 -1.125 C-53.96677343 -1.25158222 -51.34612576 -1.31020214 -48.6875 -1.3125 C-47.5747168 -1.33086914 -47.5747168 -1.33086914 -46.43945312 -1.34960938 C-44.49986371 -1.35488478 -42.5607629 -1.24688902 -40.625 -1.125 C-37.9394406 1.5605594 -37.56450026 4.25121328 -36.625 7.875 C-36.02365234 7.29492188 -36.02365234 7.29492188 -35.41015625 6.703125 C-25.54498127 -2.33435956 -12.7479311 -5.88805786 0 0 Z " fill="#027364" transform="translate(529.625,126.125)"/>
<path d="M0 0 C3.10385211 -0.11613204 6.20714662 -0.18722029 9.3125 -0.25 C10.19357422 -0.28351563 11.07464844 -0.31703125 11.98242188 -0.3515625 C12.82998047 -0.36445312 13.67753906 -0.37734375 14.55078125 -0.390625 C15.33106689 -0.41157227 16.11135254 -0.43251953 16.9152832 -0.45410156 C19 0 19 0 20.61108398 1.62719727 C22.26785704 4.45760285 23.47342572 7.30108154 24.671875 10.35546875 C24.91538696 10.97056808 25.15889893 11.58566742 25.40979004 12.21940613 C26.19533405 14.20666183 26.97261906 16.19703878 27.75 18.1875 C28.55461483 20.2279871 29.36135745 22.26762485 30.16815186 24.30725098 C30.70048486 25.65356608 31.232105 27.00016328 31.76300049 28.3470459 C33.87781157 33.70966791 36.04329091 39.04962552 38.25 44.375 C38.68070801 45.41563599 38.68070801 45.41563599 39.12011719 46.47729492 C39.74532934 47.98545084 40.37238585 49.49284208 41 51 C41.37769531 49.95328125 41.75539063 48.9065625 42.14453125 47.828125 C45.65383578 38.16581805 49.26294594 28.53933171 52.96273804 18.94836426 C53.67929331 17.08385419 54.38524427 15.21528 55.09106445 13.34667969 C55.53925537 12.19200195 55.98744629 11.03732422 56.44921875 9.84765625 C57.04222778 8.3009021 57.04222778 8.3009021 57.6472168 6.72290039 C59.10322351 3.79223031 60.43624701 2.02778507 63 0 C65.01464844 -0.45410156 65.01464844 -0.45410156 67.109375 -0.390625 C67.86347656 -0.37773438 68.61757813 -0.36484375 69.39453125 -0.3515625 C70.17183594 -0.31804687 70.94914063 -0.28453125 71.75 -0.25 C72.93916016 -0.22292969 72.93916016 -0.22292969 74.15234375 -0.1953125 C76.10208348 -0.14833082 78.05119878 -0.07659044 80 0 C79.42017663 5.86587974 77.12069727 10.74307243 74.75 16.0625 C73.9265077 17.94318934 73.10488675 19.82469922 72.28515625 21.70703125 C71.8895752 22.61533691 71.49399414 23.52364258 71.08642578 24.45947266 C69.31664233 28.59798201 67.72482597 32.79242612 66.16796875 37.015625 C64.58010031 41.07292095 62.7907418 45.02878649 61 49 C52.48146579 67.87195857 52.48146579 67.87195857 44.5625 87 C44.24345703 87.80646973 43.92441406 88.61293945 43.59570312 89.44384766 C43.29212891 90.21132324 42.98855469 90.97879883 42.67578125 91.76953125 C41.23088177 95.42216534 39.78289765 99.07060252 38.25 102.6875 C37.90453125 103.51636719 37.5590625 104.34523438 37.203125 105.19921875 C36 107 36 107 34.16796875 107.60644531 C30.71381757 108.23348267 27.24722345 108.10266246 23.75 108.0625 C23.00492188 108.05798828 22.25984375 108.05347656 21.4921875 108.04882812 C19.6614236 108.03709246 17.83070127 108.0191585 16 108 C16.62489564 104.31045661 17.65637722 101.12563345 19.125 97.6875 C19.54910156 96.61757812 19.97320313 95.54765625 20.41015625 94.4453125 C21.61188127 91.84108285 22.67778542 89.95842417 24.30859375 87.6796875 C26.98668617 83.61004832 28.83783197 79.94658313 29 75 C27.04367582 66.13086952 22.71650885 57.88192438 18.78076172 49.74511719 C16.02296047 44.01139819 13.62591019 38.12466749 11.1875 32.25 C10.29220742 30.12812775 9.39512937 28.00700779 8.49609375 25.88671875 C8.07569824 24.89333496 7.65530273 23.89995117 7.22216797 22.87646484 C6.06365437 20.14981537 4.894157 17.42811974 3.72265625 14.70703125 C3.06475902 13.1590008 2.40718124 11.61083454 1.75 10.0625 C1.44989014 9.37639648 1.14978027 8.69029297 0.84057617 7.98339844 C-1.11354454 3.34063363 -1.11354454 3.34063363 0 0 Z " fill="#047364" transform="translate(635,125)"/>
<path d="M0 0 C3.12498063 -0.02895976 6.2499269 -0.04678483 9.375 -0.0625 C10.70917969 -0.07506836 10.70917969 -0.07506836 12.0703125 -0.08789062 C13.34648438 -0.09272461 13.34648438 -0.09272461 14.6484375 -0.09765625 C15.43395996 -0.10289307 16.21948242 -0.10812988 17.02880859 -0.11352539 C19 0 19 0 21 1 C21.94646849 3.20874278 22.78109341 5.38450599 23.57421875 7.6484375 C23.94160912 8.66933723 23.94160912 8.66933723 24.31642151 9.71086121 C25.11341726 11.92992674 25.9004271 14.15239788 26.6875 16.375 C27.22873104 17.88691006 27.77072374 19.39854768 28.31347656 20.90991211 C29.38608005 23.89810348 30.45563753 26.88735614 31.52294922 29.87744141 C33.3968807 35.11876048 35.31669088 40.34282558 37.25 45.5625 C37.53705811 46.33964355 37.82411621 47.11678711 38.11987305 47.91748047 C38.74582529 49.61193339 39.37276426 51.30602178 40 53 C41.68272807 50.4759079 42.67631263 48.50248452 43.734375 45.7109375 C44.22019043 44.43440308 44.22019043 44.43440308 44.71582031 43.13208008 C45.22773926 41.76732544 45.22773926 41.76732544 45.75 40.375 C46.10416992 39.43873779 46.45833984 38.50247559 46.82324219 37.5378418 C49.03761691 31.65397461 51.17613634 25.74720086 53.25 19.8125 C56.58335795 10.29985636 56.58335795 10.29985636 58.1875 6.0625 C58.61095703 4.93521484 58.61095703 4.93521484 59.04296875 3.78515625 C60 2 60 2 63 0 C64.90112305 -0.22705078 64.90112305 -0.22705078 67.01171875 -0.1953125 C67.76904297 -0.18886719 68.52636719 -0.18242188 69.30664062 -0.17578125 C70.09232422 -0.15902344 70.87800781 -0.14226562 71.6875 -0.125 C72.48478516 -0.11597656 73.28207031 -0.10695313 74.10351562 -0.09765625 C76.069139 -0.07411585 78.03460775 -0.03824547 80 0 C78.61982907 7.2533983 76.30594385 13.74507582 73.5 20.5625 C73.05930176 21.64877686 72.61860352 22.73505371 72.16455078 23.85424805 C68.70664852 32.35170221 65.18074513 40.82144748 61.62890625 49.2800293 C58.48055545 56.78922076 55.44516783 64.33917661 52.51123047 71.93481445 C52.20846191 72.70656006 51.90569336 73.47830566 51.59375 74.2734375 C51.33271484 74.94810059 51.07167969 75.62276367 50.80273438 76.31787109 C50 78 50 78 48 80 C45.0906442 80.14517744 42.280054 80.18630796 39.375 80.125 C38.57320312 80.11597656 37.77140625 80.10695313 36.9453125 80.09765625 C34.96341477 80.07406223 32.98167019 80.03819065 31 80 C28.31521407 75.04347213 26.21502555 70.01060909 24.2890625 64.71875 C21.13649417 56.18939964 17.60566277 47.84571344 14 39.5 C10.40848024 31.18702214 6.8676522 22.86274299 3.625 14.40625 C3.37419678 13.76554565 3.12339355 13.12484131 2.86499023 12.46472168 C1.28728434 8.27536575 0.48859351 4.41722618 0 0 Z " fill="#047264" transform="translate(553,125)"/>
<path d="M0 0 C0.0809313 2.60478883 0.14045434 5.20706653 0.1875 7.8125 C0.21263672 8.55048828 0.23777344 9.28847656 0.26367188 10.04882812 C0.33668878 15.42774019 0.33668878 15.42774019 -1.18359375 18.01171875 C-3.67798337 19.36888127 -5.43063162 19.18900794 -8.25 19 C-13.48940185 18.87558149 -16.49131951 19.29479171 -21 22 C-26.64766673 27.402116 -26.96107343 32.33515276 -27.18945312 39.81787109 C-27.22411054 41.63632041 -27.25450759 43.45485456 -27.28125 45.2734375 C-27.31900741 47.25130214 -27.35676792 49.22916672 -27.39453125 51.20703125 C-27.448381 54.30808522 -27.50056929 57.409163 -27.55224609 60.51025391 C-27.60377851 63.51473578 -27.66105319 66.51906872 -27.71875 69.5234375 C-27.73232544 70.45876312 -27.74590088 71.39408875 -27.7598877 72.35775757 C-27.77660522 73.21600128 -27.79332275 74.074245 -27.81054688 74.95849609 C-27.82933899 76.09597794 -27.82933899 76.09597794 -27.84851074 77.25643921 C-28 79 -28 79 -29 80 C-35.6 80 -42.2 80 -49 80 C-49 53.6 -49 27.2 -49 0 C-43.72 0 -38.44 0 -33 0 C-30.22133679 4.63110535 -29.50606416 6.83814555 -29 12 C-28.43152344 11.31292969 -27.86304688 10.62585938 -27.27734375 9.91796875 C-20.55076434 2.06842116 -10.87628983 -5.43814491 0 0 Z " fill="#027264" transform="translate(774,125)"/>
<path d="M0 0 C0.75684082 0.0932959 1.51368164 0.1865918 2.29345703 0.28271484 C2.50788019 5.72906302 1.78496457 10.39520708 0.41845703 15.65771484 C0.24443359 16.38087891 0.07041016 17.10404297 -0.10888672 17.84912109 C-0.57241529 19.67920057 -1.13223115 21.48432235 -1.70654297 23.28271484 C-2.36654297 23.61271484 -3.02654297 23.94271484 -3.70654297 24.28271484 C-3.37654297 22.63271484 -3.04654297 20.98271484 -2.70654297 19.28271484 C-4.02273295 20.06823142 -5.33439525 20.86133855 -6.64404297 21.65771484 C-7.37494141 22.09857422 -8.10583984 22.53943359 -8.85888672 22.99365234 C-10.84426569 24.16011324 -10.84426569 24.16011324 -11.70654297 26.28271484 C-12.61404297 26.79833984 -13.52154297 27.31396484 -14.45654297 27.84521484 C-18.0704287 30.16534673 -19.55217759 33.1292414 -21.47216797 36.88818359 C-23.32942832 40.49103358 -25.52233048 43.87162556 -27.70654297 47.28271484 C-26.71654297 47.77771484 -26.71654297 47.77771484 -25.70654297 48.28271484 C-26.03654297 49.27271484 -26.36654297 50.26271484 -26.70654297 51.28271484 C-27.49029297 51.36521484 -28.27404297 51.44771484 -29.08154297 51.53271484 C-31.81239165 52.0147524 -31.81239165 52.0147524 -33.01904297 54.15771484 C-33.86045311 56.3861961 -33.86045311 56.3861961 -33.70654297 59.28271484 C-34.82029297 59.09708984 -34.82029297 59.09708984 -35.95654297 58.90771484 C-38.98841212 59.00696091 -38.98841212 59.00696091 -40.95654297 61.97021484 C-42.54509328 64.97711365 -43.53399551 66.91803933 -43.70654297 70.28271484 C-42.85674822 73.03527728 -42.85674822 73.03527728 -41.70654297 75.28271484 C-42.28404297 75.07646484 -42.86154297 74.87021484 -43.45654297 74.65771484 C-45.68212412 74.12285899 -45.68212412 74.12285899 -47.70654297 74.84521484 C-50.4918884 76.84718187 -51.88431859 79.4024247 -53.70654297 82.28271484 C-54.26341797 82.79833984 -54.82029297 83.31396484 -55.39404297 83.84521484 C-57.1989631 85.82203213 -57.35473372 87.67932643 -57.70654297 90.28271484 C-58.36654297 90.28271484 -59.02654297 90.28271484 -59.70654297 90.28271484 C-60.30387116 93.04535773 -60.70654297 95.44304253 -60.70654297 98.28271484 C-61.85123047 98.59208984 -61.85123047 98.59208984 -63.01904297 98.90771484 C-66.56526221 100.72205957 -67.06819103 102.72108019 -68.70654297 106.28271484 C-70.89404297 108.65771484 -70.89404297 108.65771484 -72.70654297 110.28271484 C-72.04654297 110.28271484 -71.38654297 110.28271484 -70.70654297 110.28271484 C-70.70654297 110.94271484 -70.70654297 111.60271484 -70.70654297 112.28271484 C-69.22154297 111.78771484 -69.22154297 111.78771484 -67.70654297 111.28271484 C-66.07721143 111.26710721 -64.446812 111.31506381 -62.81982422 111.40380859 C-61.88203125 111.45214844 -60.94423828 111.50048828 -59.97802734 111.55029297 C-58.51333008 111.6344043 -58.51333008 111.6344043 -57.01904297 111.72021484 C-56.03097656 111.77242188 -55.04291016 111.82462891 -54.02490234 111.87841797 C-51.58512621 112.00806791 -49.14576192 112.14303226 -46.70654297 112.28271484 C-46.70654297 112.61271484 -46.70654297 112.94271484 -46.70654297 113.28271484 C-55.61654297 113.28271484 -64.52654297 113.28271484 -73.70654297 113.28271484 C-74.82041232 106.59949875 -74.82041232 106.59949875 -71.84838867 102.28564453 C-71.40970459 101.68655273 -70.97102051 101.08746094 -70.51904297 100.47021484 C-69.84651489 99.50776855 -69.84651489 99.50776855 -69.16040039 98.52587891 C-67.69225269 96.43262833 -66.20040128 94.35767643 -64.70654297 92.28271484 C-63.15624517 90.0970893 -61.61045966 87.90831707 -60.06469727 85.71948242 C-59.03182111 84.25818536 -57.99681548 82.79839121 -56.9597168 81.34008789 C-54.26898346 77.54704284 -51.66582855 73.73193256 -49.20654297 69.78271484 C-46.27261713 65.07130109 -43.11054531 60.55302781 -39.89404297 56.03271484 C-35.94005698 50.46699586 -32.01884347 44.88420417 -28.20654297 39.22021484 C-27.80975342 38.63788086 -27.41296387 38.05554688 -27.00415039 37.45556641 C-24.17975969 33.22894879 -21.91362557 28.86241125 -19.70654297 24.28271484 C-21.02654297 23.95271484 -22.34654297 23.62271484 -23.70654297 23.28271484 C-22.69849609 23.17185547 -21.69044922 23.06099609 -20.65185547 22.94677734 C-14.81506935 21.28122237 -12.50107535 15.55996262 -9.58154297 10.65771484 C-8.40783167 8.697286 -7.21840302 6.74615592 -6.01123047 4.80615234 C-5.49544434 3.93909668 -4.9796582 3.07204102 -4.44824219 2.17871094 C-2.70654297 0.28271484 -2.70654297 0.28271484 0 0 Z " fill="#04493E" transform="translate(185.70654296875,52.71728515625)"/>
<path d="M0 0 C5.28 0 10.56 0 16 0 C19.375 5.625 19.375 5.625 19 10 C18.71125 9.401875 18.4225 8.80375 18.125 8.1875 C16.95257974 5.80672208 16.95257974 5.80672208 15 3 C12.63500496 2.55982299 12.63500496 2.55982299 10 2.6875 C8.6696875 2.69330078 8.6696875 2.69330078 7.3125 2.69921875 C4.80735945 2.78597593 4.80735945 2.78597593 3 5 C2.6666271 8.15776613 2.6666271 8.15776613 2.68115234 11.92822266 C2.67110672 12.64052536 2.6610611 13.35282806 2.65071106 14.0867157 C2.61977096 16.44582293 2.60281423 18.80481615 2.5859375 21.1640625 C2.56723452 22.79789214 2.54766177 24.43171203 2.5272522 26.06552124 C2.4758329 30.36940781 2.43625982 34.67332573 2.39910889 38.97735596 C2.35913047 43.36779599 2.3080101 47.75810452 2.2578125 52.1484375 C2.16093721 60.765542 2.07759923 69.38270033 2 78 C11.405 77.505 11.405 77.505 21 77 C20.67 77.99 20.34 78.98 20 80 C13.4 80 6.8 80 0 80 C0 53.6 0 27.2 0 0 Z " fill="#18665A" transform="translate(725,125)"/>
<path d="M0 0 C0.495 1.485 0.495 1.485 1 3 C-0.31306433 5.0133653 -1.64837492 7.01231606 -3 9 C-4.37405531 13.02401912 -3.84150087 15.20867469 -2 19 C-2.86625 18.690625 -2.86625 18.690625 -3.75 18.375 C-5.97558116 17.84014415 -5.97558116 17.84014415 -8 18.5625 C-10.78534543 20.56446703 -12.17777562 23.11970985 -14 26 C-14.556875 26.515625 -15.11375 27.03125 -15.6875 27.5625 C-17.49242013 29.53931728 -17.64819075 31.39661158 -18 34 C-18.66 34 -19.32 34 -20 34 C-20.59732819 36.76264289 -21 39.16032769 -21 42 C-21.763125 42.20625 -22.52625 42.4125 -23.3125 42.625 C-26.85871924 44.43934473 -27.36164806 46.43836535 -29 50 C-31.1875 52.375 -31.1875 52.375 -33 54 C-32.34 54 -31.68 54 -31 54 C-31 54.66 -31 55.32 -31 56 C-29.515 55.505 -29.515 55.505 -28 55 C-26.37066846 54.98439237 -24.74026903 55.03234896 -23.11328125 55.12109375 C-22.17548828 55.16943359 -21.23769531 55.21777344 -20.27148438 55.26757812 C-18.80678711 55.35168945 -18.80678711 55.35168945 -17.3125 55.4375 C-16.32443359 55.48970703 -15.33636719 55.54191406 -14.31835938 55.59570312 C-11.87858324 55.72535306 -9.43921895 55.86031742 -7 56 C-7 56.33 -7 56.66 -7 57 C-15.91 57 -24.82 57 -34 57 C-35.11386935 50.31678391 -35.11386935 50.31678391 -32.1418457 46.00292969 C-31.70316162 45.40383789 -31.26447754 44.80474609 -30.8125 44.1875 C-30.13997192 43.22505371 -30.13997192 43.22505371 -29.45385742 42.24316406 C-27.98570972 40.14991349 -26.49385831 38.07496159 -25 36 C-23.44919296 33.81365653 -21.90290175 31.62416479 -20.35668945 29.43457031 C-19.32885286 27.98048622 -18.29874683 26.5280036 -17.26635742 25.07714844 C-13.85814211 20.27478891 -10.64708266 15.38330358 -7.53515625 10.3828125 C-5.21241772 6.77754405 -2.64115255 3.37641846 0 0 Z " fill="#013C24" transform="translate(146,109)"/>
<path d="M0 0 C1.3921875 0.4021875 1.3921875 0.4021875 2.8125 0.8125 C5 2 5 2 5.8125 4.625 C5.874375 5.40875 5.93625 6.1925 6 7 C10.48133574 7.72256829 10.48133574 7.72256829 15 8 C17 8 19 8 21 8 C20.67 9.65 20.34 11.3 20 13 C19.34 13 18.68 13 18 13 C18 13.66 18 14.32 18 15 C18.99 15.33 19.98 15.66 21 16 C21 16.66 21 17.32 21 18 C21.763125 17.79375 22.52625 17.5875 23.3125 17.375 C26 17 26 17 29 19 C29.6875 21.625 29.6875 21.625 30 24 C31.32 24.33 32.64 24.66 34 25 C33.34 25.99 32.68 26.98 32 28 C33.32 28 34.64 28 36 28 C36 28.66 36 29.32 36 30 C32.11470074 29.45849488 29.89662034 28.48163496 26.875 26 C26.09382813 25.36578125 25.31265625 24.7315625 24.5078125 24.078125 C23.68023437 23.39234375 22.85265625 22.7065625 22 22 C21.15179688 21.31421875 20.30359375 20.6284375 19.4296875 19.921875 C15.45345223 16.6991537 11.5026716 13.46773958 7.69140625 10.05078125 C7.12905273 9.55416992 6.56669922 9.05755859 5.98730469 8.54589844 C4.90318416 7.5856774 3.82882725 6.6142701 2.76660156 5.62988281 C-1.34475637 2.01241325 -4.75183869 0.99504683 -10 0 C-6.1968172 -2.63297271 -4.11585382 -1.67994034 0 0 Z " fill="#23985C" transform="translate(179,216)"/>
<path d="M0 0 C0.33 0 0.66 0 1 0 C1.75 3.25 1.75 3.25 2 7 C0.0625 9.25 0.0625 9.25 -2 11 C-2 11.99 -2 12.98 -2 14 C-3.171875 15.61328125 -3.171875 15.61328125 -4.75 17.3125 C-8.76434426 21.80970171 -11.97820479 26.27158023 -14 32 C-14.66 31.34 -15.32 30.68 -16 30 C-19.99926986 32.97088618 -22.92118304 36.12948725 -26 40 C-26.33 39.34 -26.66 38.68 -27 38 C-26.67 37.34 -26.34 36.68 -26 36 C-25.34 36 -24.68 36 -24 36 C-23.731875 35.27425781 -23.46375 34.54851562 -23.1875 33.80078125 C-22.01329619 31.03135976 -20.6605676 28.69080566 -19 26.1875 C-18.484375 25.39730469 -17.96875 24.60710937 -17.4375 23.79296875 C-16.963125 23.20128906 -16.48875 22.60960937 -16 22 C-15.34 22 -14.68 22 -14 22 C-13.67 20.68 -13.34 19.36 -13 18 C-12.34 18 -11.68 18 -11 18 C-10.731875 17.278125 -10.46375 16.55625 -10.1875 15.8125 C-9.00098638 13.00233617 -7.72514361 10.51583443 -6 8 C-5.34 8 -4.68 8 -4 8 C-3.71125 7.236875 -3.4225 6.47375 -3.125 5.6875 C-2 3 -2 3 0 0 Z " fill="#168A53" transform="translate(208,144)"/>
<path d="M0 0 C2.98193359 3.68115234 2.98193359 3.68115234 3.14453125 6.55078125 C2.50080464 11.90507203 1.53556531 16.81746709 0 22 C-0.2120226 24.29691151 -0.37086899 26.5817837 -0.4609375 28.88671875 C-1 31 -1 31 -2.93359375 32.8671875 C-5.58388915 35.60265307 -5.94617533 37.73087666 -6.6875 41.4375 C-6.91824219 42.54996094 -7.14898437 43.66242188 -7.38671875 44.80859375 C-7.76977374 46.80194362 -8.14039002 48.79777186 -8.4921875 50.796875 C-9.09200734 53.39917033 -9.89106184 54.397207 -12 56 C-12.66 56 -13.32 56 -14 56 C-13.67 52.7 -13.34 49.4 -13 46 C-12.01 46 -11.02 46 -10 46 C-9.90589844 44.78054687 -9.81179687 43.56109375 -9.71484375 42.3046875 C-9.02038571 36.06310856 -7.27309314 30.1521408 -5.5625 24.125 C-3.30391136 16.12447363 -1.31869528 8.21323426 0 0 Z " fill="#014D32" transform="translate(152,169)"/>
<path d="M0 0 C2.5 1.375 2.5 1.375 5 3 C5 3.66 5 4.32 5 5 C5.66 5 6.32 5 7 5 C8.30755782 10.96318756 8.12597009 16.89105712 8.09765625 22.9609375 C8.0962413 24.10664215 8.09482635 25.2523468 8.09336853 26.43276978 C8.0877858 30.08020678 8.07523641 33.72758165 8.0625 37.375 C8.05748277 39.85286369 8.05292025 42.33072835 8.04882812 44.80859375 C8.03782201 50.87241965 8.0205692 56.9361993 8 63 C13.94 63 19.88 63 26 63 C26 45.51 26 28.02 26 10 C26.33 10 26.66 10 27 10 C27 28.15 27 46.3 27 65 C20.4 65 13.8 65 7 65 C6.27593747 61.37968733 5.88153299 58.79668885 5.91821289 55.22900391 C5.9247438 54.31100006 5.93127472 53.39299622 5.93800354 52.44717407 C5.94943893 51.46687225 5.96087433 50.48657043 5.97265625 49.4765625 C5.98530308 47.38281416 5.997664 45.28906407 6.00976562 43.1953125 C6.03456423 39.90814738 6.0625399 36.6210737 6.09594727 33.33398438 C6.12624639 30.15233799 6.14395375 26.97080759 6.16015625 23.7890625 C6.17361588 22.81280914 6.1870755 21.83655579 6.20094299 20.83071899 C6.22605084 13.96209625 6.14152957 8.39647357 1.375 3.0625 C0.59125 2.381875 -0.1925 1.70125 -1 1 C-0.67 0.67 -0.34 0.34 0 0 Z " fill="#156459" transform="translate(517,140)"/>
<path d="M0 0 C0.66 0.33 1.32 0.66 2 1 C1.195625 1.61875 0.39125 2.2375 -0.4375 2.875 C-3.03874519 4.74164041 -3.03874519 4.74164041 -4 7 C-4.11931048 8.75590877 -4.17719868 10.51614607 -4.20532227 12.27587891 C-4.22526749 13.3768692 -4.24521271 14.4778595 -4.26576233 15.61221313 C-4.29083107 17.40131607 -4.29083107 17.40131607 -4.31640625 19.2265625 C-4.33718735 20.44451508 -4.35796844 21.66246765 -4.37937927 22.91732788 C-4.44492584 26.8198262 -4.50378355 30.7223935 -4.5625 34.625 C-4.60568035 37.26563222 -4.64929448 39.90625739 -4.69335938 42.546875 C-4.80061248 49.03117875 -4.90186553 55.51555209 -5 62 C-11.6 62 -18.2 62 -25 62 C-25.495 60.515 -25.495 60.515 -26 59 C-19.73 59.33 -13.46 59.66 -7 60 C-7.03665771 58.3600708 -7.07331543 56.7201416 -7.11108398 55.03051758 C-7.23778671 48.94599144 -7.31814845 42.86158182 -7.38452148 36.77612305 C-7.41972351 34.14246004 -7.46749213 31.50893381 -7.52807617 28.87573242 C-7.61299671 25.08998901 -7.6526933 21.30605326 -7.68359375 17.51953125 C-7.71972275 16.34227982 -7.75585175 15.16502838 -7.79307556 13.95210266 C-7.79692587 5.93594201 -7.79692587 5.93594201 -5.39505005 3.11508179 C-3.45727539 1.7175293 -3.45727539 1.7175293 0 0 Z " fill="#156659" transform="translate(498,143)"/>
<path d="M0 0 C0.70703125 1.69140625 0.70703125 1.69140625 1 4 C-0.36328125 6.40234375 -0.36328125 6.40234375 -2.3125 8.9375 C-4.80655797 12.2106349 -6.6286751 15.10877858 -8 19 C-7.34 19 -6.68 19 -6 19 C-6.33 19.99 -6.66 20.98 -7 22 C-7.78375 22.0825 -8.5675 22.165 -9.375 22.25 C-12.10584868 22.73203756 -12.10584868 22.73203756 -13.3125 24.875 C-14.15391014 27.10348125 -14.15391014 27.10348125 -14 30 C-15.65 29.67 -17.3 29.34 -19 29 C-18.44484141 24.63803966 -16.87652055 21.95825917 -14.375 18.375 C-10.92164251 13.37166159 -7.67928357 8.2893568 -4.54296875 3.08203125 C-3 1 -3 1 0 0 Z " fill="#024530" transform="translate(166,82)"/>
<path d="M0 0 C0.75732422 0.00644531 1.51464844 0.01289062 2.29492188 0.01953125 C3.08060547 0.03628906 3.86628906 0.05304688 4.67578125 0.0703125 C5.47306641 0.07933594 6.27035156 0.08835937 7.09179688 0.09765625 C9.05742025 0.12119665 11.022889 0.15706703 12.98828125 0.1953125 C12.40988005 6.11657221 10.0637934 11.07324037 7.67578125 16.4453125 C6.88679645 18.24165022 6.09903137 20.03852418 5.3125 21.8359375 C4.73121338 23.15754883 4.73121338 23.15754883 4.13818359 24.50585938 C2.63042888 28.03227677 1.2511463 31.60374183 -0.10620117 35.19042969 C-1.01171875 37.1953125 -1.01171875 37.1953125 -3.01171875 39.1953125 C-3.36691726 34.93293038 -2.54694145 33.51060373 -0.01171875 30.1953125 C0.45685039 28.62225895 0.91788157 27.0462936 1.328125 25.45703125 C3.41007302 18.32420343 6.16334144 11.55162647 9.98828125 5.1953125 C9.98828125 4.5353125 9.98828125 3.8753125 9.98828125 3.1953125 C7.8847463 3.1142919 5.78032173 3.05611343 3.67578125 3.0078125 C2.50402344 2.97300781 1.33226562 2.93820313 0.125 2.90234375 C-2.97756114 2.90900712 -2.97756114 2.90900712 -4.82421875 4.6015625 C-5.21609375 5.1275 -5.60796875 5.6534375 -6.01171875 6.1953125 C-7.01171875 7.1953125 -8.01171875 8.1953125 -9.01171875 9.1953125 C-7.59027381 3.29084891 -6.57674301 -0.09889839 0 0 Z " fill="#16675C" transform="translate(702.01171875,124.8046875)"/>
<path d="M0 0 C0.66 0 1.32 0 2 0 C1.33991122 4.27447735 -0.12628939 7.86702606 -1.875 11.8125 C-3.61025954 15.75552138 -5.30459205 19.68944674 -6.75 23.75 C-8 27 -8 27 -10 29 C-12.9093558 29.14517744 -15.719946 29.18630796 -18.625 29.125 C-19.42679688 29.11597656 -20.22859375 29.10695312 -21.0546875 29.09765625 C-23.03658523 29.07406223 -25.01832981 29.03819065 -27 29 C-29.50388907 24.33739842 -31.46363605 20.36363946 -32 15 C-31.01 15.33 -30.02 15.66 -29 16 C-28.34 19.63 -27.68 23.26 -27 27 C-18.585 26.505 -18.585 26.505 -10 26 C-9.34 23.03 -8.68 20.06 -8 17 C-7.34 17 -6.68 17 -6 17 C-5.88785156 16.47921875 -5.77570312 15.9584375 -5.66015625 15.421875 C-4.80140373 12.27142197 -3.62376488 9.29170481 -2.4375 6.25 C-1.98246094 5.07953125 -1.52742187 3.9090625 -1.05859375 2.703125 C-0.70925781 1.81109375 -0.35992188 0.9190625 0 0 Z " fill="#176559" transform="translate(611,176)"/>
<path d="M0 0 C0.66 0 1.32 0 2 0 C2 15.51 2 31.02 2 47 C1.34 46.67 0.68 46.34 0 46 C-1.44430669 30.64590886 -0.6922926 15.38271019 0 0 Z " fill="#32AA70" transform="translate(252,105)"/>
<path d="M0 0 C0.99 0.33 1.98 0.66 3 1 C3 1.66 3 2.32 3 3 C2.34 3 1.68 3 1 3 C1 3.66 1 4.32 1 5 C1.66 5.226875 2.32 5.45375 3 5.6875 C6.29296335 7.12817147 9.07730103 8.94999239 12.03515625 10.9765625 C14.22203126 12.30797554 14.22203126 12.30797554 18 12 C17.67 12.99 17.34 13.98 17 15 C13.32323354 13.98888922 10.3857373 12.67848533 7.25 10.5625 C-2.38103952 4.44353129 -11.97881241 4.63080389 -23 5 C-23 4.34 -23 3.68 -23 3 C-17.25068583 1.93036015 -11.73106326 1.99037607 -5.890625 2.16015625 C-2.80146738 2.23440472 -2.80146738 2.23440472 0 0 Z " fill="#0F6C5E" transform="translate(348,105)"/>
<path d="M0 0 C1 2 1 2 0 6 C12.54 5.67 25.08 5.34 38 5 C38.495 6.485 38.495 6.485 39 8 C33.64316151 8.04941382 28.2864555 8.08572607 22.92944336 8.10986328 C21.10682871 8.11992491 19.28423021 8.1335756 17.46166992 8.15087891 C14.84289565 8.17512021 12.22433469 8.18648138 9.60546875 8.1953125 C8.38188911 8.21079636 8.38188911 8.21079636 7.1335907 8.22659302 C3.22869244 8.2273686 1.32475992 8.21650661 -2 6 C-1.125 1.125 -1.125 1.125 0 0 Z " fill="#23AA6D" transform="translate(175,119)"/>
<path d="M0 0 C0.33 0 0.66 0 1 0 C0.57136605 6.10803379 -0.39417507 9.99190982 -4 15 C-6.6875 16.3125 -6.6875 16.3125 -9 17 C-9.33 17.66 -9.66 18.32 -10 19 C-12.37531394 19.0543965 -14.74935883 19.09385864 -17.125 19.125 C-17.79015625 19.14175781 -18.4553125 19.15851563 -19.140625 19.17578125 C-23.52412058 19.2187567 -26.90244524 18.47702555 -31 17 C-33.77747682 17.28639786 -33.77747682 17.28639786 -36 18 C-36 17.34 -36 16.68 -36 16 C-35.34 16 -34.68 16 -34 16 C-33.67 14.68 -33.34 13.36 -33 12 C-33.66 12 -34.32 12 -35 12 C-35.33 9.69 -35.66 7.38 -36 5 C-35.62875 5.515625 -35.2575 6.03125 -34.875 6.5625 C-33.2902229 8.62271023 -31.70177393 10.67057056 -30.0625 12.6875 C-29.33740234 13.59048828 -29.33740234 13.59048828 -28.59765625 14.51171875 C-25.06619687 17.80141563 -20.10331782 17.28944331 -15.53125 17.1953125 C-11.61728222 16.89330881 -9.28854761 16.19236507 -6 14 C-3.14009467 9.65442956 -1.10911239 5.08539829 0 0 Z " fill="#15675B" transform="translate(436,172)"/>
<path d="M0 0 C1.35762828 0.00373569 2.71525928 0.00658003 4.07289124 0.00857544 C7.62553507 0.01616819 11.17801228 0.03577853 14.73059082 0.0579834 C18.36399075 0.07853637 21.99741792 0.08759726 25.63085938 0.09765625 C32.74485934 0.11902911 39.85874685 0.15311163 46.97265625 0.1953125 C46.97265625 0.5253125 46.97265625 0.8553125 46.97265625 1.1953125 C45.90603004 1.20744278 45.90603004 1.20744278 44.81785583 1.21981812 C38.09461017 1.2979755 31.37155294 1.38532882 24.64855862 1.48283958 C21.192748 1.53264314 17.7369656 1.5789735 14.28100586 1.6171875 C10.30174997 1.66134366 6.32279494 1.72092841 2.34375 1.78125 C1.1111998 1.79280121 -0.1213504 1.80435242 -1.39125061 1.81625366 C-7.3347464 1.91800086 -12.40553267 2.25695638 -18.02734375 4.1953125 C-20.96484375 4.3203125 -20.96484375 4.3203125 -23.02734375 4.1953125 C-17.24555578 -1.58647547 -7.51590348 -0.05976363 0 0 Z " fill="#3FA571" transform="translate(115.02734375,75.8046875)"/>
<path d="M0 0 C0.75772705 0.08209717 1.5154541 0.16419434 2.29614258 0.2487793 C2.29614258 2.5587793 2.29614258 4.8687793 2.29614258 7.2487793 C0.29614258 6.2487793 0.29614258 6.2487793 -0.70385742 3.2487793 C-1.16276367 3.91264648 -1.62166992 4.57651367 -2.09448242 5.26049805 C-7.38013881 12.86695734 -7.38013881 12.86695734 -10.14135742 16.1237793 C-12.09878439 18.34627689 -12.09878439 18.34627689 -11.70385742 22.2487793 C-13.68385742 22.9087793 -15.66385742 23.5687793 -17.70385742 24.2487793 C-15.67011091 18.77526171 -12.63315445 14.26119585 -9.39135742 9.4362793 C-8.53767578 8.11080078 -8.53767578 8.11080078 -7.66674805 6.75854492 C-6.82466797 5.50654297 -6.82466797 5.50654297 -5.96557617 4.22924805 C-5.45986084 3.46507568 -4.95414551 2.70090332 -4.43310547 1.91357422 C-2.70385742 0.2487793 -2.70385742 0.2487793 0 0 Z " fill="#0C3A34" transform="translate(185.703857421875,52.751220703125)"/>
<path d="M0 0 C0.33 0 0.66 0 1 0 C1.07497625 4.23173639 1.12898541 8.46310588 1.16479492 12.6953125 C1.17974586 14.1306025 1.20011424 15.56584791 1.22631836 17.00097656 C1.3760116 25.41902011 1.18631101 33.05158493 -2 41 C-2.99 41 -3.98 41 -5 41 C-4.01 40.505 -4.01 40.505 -3 40 C-3.020625 39.030625 -3.04125 38.06125 -3.0625 37.0625 C-3 34 -3 34 -2 33 C-1.95174997 30.57543613 -1.95809387 28.17333968 -2 25.75 C-2.16101094 7.62709744 -2.16101094 7.62709744 0 0 Z " fill="#31B472" transform="translate(253,157)"/>
<path d="M0 0 C1.08784335 3.31395986 1.07262544 3.83580335 -0.4375 7.25 C-0.953125 8.1575 -1.46875 9.065 -2 10 C-3.32 9.67 -4.64 9.34 -6 9 C-6.144375 9.9075 -6.28875 10.815 -6.4375 11.75 C-6.86409473 14.21476956 -7.35074221 16.58847107 -8 19 C-8.66 19 -9.32 19 -10 19 C-10.66 22.3 -11.32 25.6 -12 29 C-12.33 29 -12.66 29 -13 29 C-14.02767797 20.39795477 -11.66019386 14.20763172 -7 7 C-4.83529513 4.43778446 -2.56685779 2.15676808 0 0 Z " fill="#35B475" transform="translate(87,82)"/>
<path d="M0 0 C0.75023437 0.49113281 0.75023437 0.49113281 1.515625 0.9921875 C4.91792104 2.3723642 8.14350651 2.21362838 11.75 2.125 C12.79607422 2.11146484 12.79607422 2.11146484 13.86328125 2.09765625 C15.57566958 2.07419888 17.28788004 2.03833104 19 2 C19 1.34 19 0.68 19 0 C19.99 0 20.98 0 22 0 C22.12375 0.804375 22.2475 1.60875 22.375 2.4375 C22.58125 3.283125 22.7875 4.12875 23 5 C23.66 5.33 24.32 5.66 25 6 C24.67 6.99 24.34 7.98 24 9 C23.2575 8.360625 22.515 7.72125 21.75 7.0625 C16.91246956 3.43435217 11.87117796 3.57912703 6 4 C2.41426093 5.03588018 -0.11649006 6.65047339 -3 9 C-3.33 7.02 -3.66 5.04 -4 3 C-2.68 2.67 -1.36 2.34 0 2 C0 1.34 0 0.68 0 0 Z " fill="#106D5F" transform="translate(407,137)"/>
<path d="M0 0 C0.33 0 0.66 0 1 0 C1.75 3.25 1.75 3.25 2 7 C0.0625 9.25 0.0625 9.25 -2 11 C-2 11.99 -2 12.98 -2 14 C-4.375 17.1875 -4.375 17.1875 -7 20 C-7.66 20 -8.32 20 -9 20 C-9.1875 17.6875 -9.1875 17.6875 -9 15 C-8.00137646 13.99862543 -7.00123533 12.99876314 -6 12 C-5.11819923 10.10197804 -5.11819923 10.10197804 -4.5 8.0625 C-3.40516444 4.93357522 -2.27368386 2.48038239 0 0 Z " fill="#199758" transform="translate(208,144)"/>
<path d="M0 0 C0.99 0 1.98 0 3 0 C3.2475 1.27875 3.495 2.5575 3.75 3.875 C4.23891114 6.07448022 4.23891114 6.07448022 5 8 C7.00016466 9.20882096 7.00016466 9.20882096 9 10 C9.75 12.625 9.75 12.625 10 15 C10.99 14.67 11.98 14.34 13 14 C13.61875 14.928125 13.61875 14.928125 14.25 15.875 C16.05573879 18.06768281 17.4090534 18.92788417 20 20 C20 20.66 20 21.32 20 22 C13.01657453 20.42872927 8.24196883 16.13495642 4.15625 10.421875 C0 3.71698113 0 3.71698113 0 0 Z " fill="#3AB075" transform="translate(75,192)"/>
<path d="M0 0 C1.18613892 0.00785522 1.18613892 0.00785522 2.39624023 0.01586914 C3.67724609 0.02070312 3.67724609 0.02070312 4.98413086 0.02563477 C5.88196289 0.03401367 6.77979492 0.04239258 7.70483398 0.05102539 C8.6065332 0.05553711 9.50823242 0.06004883 10.43725586 0.06469727 C12.67234712 0.07652315 14.90730835 0.09300319 17.14233398 0.11352539 C17.80233398 1.43352539 18.46233398 2.75352539 19.14233398 4.11352539 C18.48233398 3.78352539 17.82233398 3.45352539 17.14233398 3.11352539 C14.4247329 3.04170718 11.73374011 3.02053033 9.01733398 3.05102539 C7.88618164 3.05779297 7.88618164 3.05779297 6.73217773 3.06469727 C4.86886272 3.0764904 3.00558843 3.09442597 1.14233398 3.11352539 C1.29573242 4.03391602 1.44913086 4.95430664 1.60717773 5.90258789 C2.11889648 8.97290039 2.63061523 12.04321289 3.14233398 15.11352539 C0.67046944 12.15005753 -0.52014963 9.57310851 -1.54516602 5.86352539 C-1.7965332 4.97149414 -2.04790039 4.07946289 -2.30688477 3.16040039 C-2.48864258 2.48493164 -2.67040039 1.80946289 -2.85766602 1.11352539 C-1.85766602 0.11352539 -1.85766602 0.11352539 0 0 Z " fill="#16675D" transform="translate(636.857666015625,124.886474609375)"/>
<path d="M0 0 C1.3921875 0.4021875 1.3921875 0.4021875 2.8125 0.8125 C5 2 5 2 5.8125 4.625 C5.874375 5.40875 5.93625 6.1925 6 7 C6.94875 7.2475 7.8975 7.495 8.875 7.75 C12 9 12 9 13.3125 11 C13.6528125 11.99 13.6528125 11.99 14 13 C14.33 13.66 14.66 14.32 15 15 C10.2884215 13.07877381 6.79755771 9.40940924 3.12890625 5.98828125 C-1.06742211 2.27039412 -4.48323966 1.01180757 -10 0 C-6.1968172 -2.63297271 -4.11585382 -1.67994034 0 0 Z " fill="#238556" transform="translate(179,216)"/>
<path d="M0 0 C2.62527189 -0.05382106 5.24944713 -0.09358313 7.875 -0.125 C8.62136719 -0.14175781 9.36773437 -0.15851563 10.13671875 -0.17578125 C12.09194461 -0.1933959 14.04742021 -0.10320189 16 0 C18.6855594 2.6855594 19.06049974 5.37621328 20 9 C20.45890625 8.57847656 20.9178125 8.15695313 21.390625 7.72265625 C22.00421875 7.17480469 22.6178125 6.62695312 23.25 6.0625 C23.85328125 5.51722656 24.4565625 4.97195312 25.078125 4.41015625 C27.08467305 2.93787201 28.57002449 2.42470811 31 2 C30.67 2.66 30.34 3.32 30 4 C29.34 4 28.68 4 28 4 C28 4.66 28 5.32 28 6 C26.04109119 7.39300182 24.0360882 8.72245446 22 10 C21.01 10.66 20.02 11.32 19 12 C16.95616979 8.74845193 15.38297859 5.57770548 14 2 C11.87506859 1.97306425 9.75004088 1.95363372 7.625 1.9375 C5.84996094 1.92009766 5.84996094 1.92009766 4.0390625 1.90234375 C1.08078479 1.78533407 1.08078479 1.78533407 -1 3 C-0.67 2.01 -0.34 1.02 0 0 Z " fill="#12675A" transform="translate(473,125)"/>
<path d="M0 0 C5.05435088 0.04416275 10.10745366 0.11400429 15.16113281 0.20751953 C16.87978169 0.23572067 18.59856005 0.25693954 20.31738281 0.27099609 C22.79038747 0.29243833 25.26183675 0.33909156 27.734375 0.390625 C28.50118591 0.39185364 29.26799683 0.39308228 30.05804443 0.39434814 C33.62019249 0.49184438 35.64422738 0.73341065 38.53222656 2.89746094 C40 5 40 5 39.75 7.25 C39.5025 7.8275 39.255 8.405 39 9 C38.505 7.7934375 38.505 7.7934375 38 6.5625 C36.1956015 3.67247138 36.1956015 3.67247138 32.78125 3.375 C26.37521898 2.76176444 19.92916256 2.6367779 13.5 2.4375 C11.5509375 2.37272461 11.5509375 2.37272461 9.5625 2.30664062 C6.37509155 2.2011749 3.18761302 2.09905552 0 2 C0 1.34 0 0.68 0 0 Z " fill="#2FB875" transform="translate(112,166)"/>
<path d="M0 0 C-2.28670508 4.73099833 -5.09085108 9.11253536 -7.875 13.5625 C-8.66970703 14.85704102 -8.66970703 14.85704102 -9.48046875 16.17773438 C-10.25970703 17.42200195 -10.25970703 17.42200195 -11.0546875 18.69140625 C-11.52374512 19.44623291 -11.99280273 20.20105957 -12.47607422 20.97875977 C-14.09977741 23.13233854 -15.77667054 24.49316969 -18 26 C-18 24.68 -18 23.36 -18 22 C-17.01 21.34 -16.02 20.68 -15 20 C-14.690625 19.21625 -14.38125 18.4325 -14.0625 17.625 C-12.86022439 14.65467202 -11.23883937 13.23883937 -9 11 C-9 10.01 -9 9.02 -9 8 C-8.01 8 -7.02 8 -6 8 C-5.71125 6.865625 -5.4225 5.73125 -5.125 4.5625 C-4.75375 3.386875 -4.3825 2.21125 -4 1 C-2 0 -2 0 0 0 Z " fill="#29B06E" transform="translate(142,114)"/>
<path d="M0 0 C3.33333333 0 6.66666667 0 10 0 C9.67 1.65 9.34 3.3 9 5 C8.34 5 7.68 5 7 5 C7 5.99 7 6.98 7 8 C5.1875 7.8125 5.1875 7.8125 3 7 C0 2.82142857 0 2.82142857 0 0 Z " fill="#199D57" transform="translate(190,224)"/>
<path d="M0 0 C1.65 0 3.3 0 5 0 C4.44598558 4.4899975 2.71734092 7.34987631 0.1875 11.0625 C-0.84310547 12.59583984 -0.84310547 12.59583984 -1.89453125 14.16015625 C-3.77471438 16.6961361 -5.7012829 18.84592127 -8 21 C-7.67 19.35 -7.34 17.7 -7 16 C-6.34 16 -5.68 16 -5 16 C-5 15.01 -5 14.02 -5 13 C-4.34 12.67 -3.68 12.34 -3 12 C-1.94647157 9.69034152 -0.94280904 7.3570226 0 5 C0.66 5 1.32 5 2 5 C2 4.01 2 3.02 2 2 C1.34 2 0.68 2 0 2 C0 1.34 0 0.68 0 0 Z " fill="#27B672" transform="translate(161,77)"/>
<path d="M0 0 C1.35602585 0.26136553 2.70974092 0.53472143 4.0625 0.8125 C5.19365234 1.03873047 5.19365234 1.03873047 6.34765625 1.26953125 C9 2 9 2 12.28125 3.5 C16.25948362 5.26098114 20.13692298 5.75862269 24.4375 6.1875 C25.16904297 6.26935547 25.90058594 6.35121094 26.65429688 6.43554688 C28.43514466 6.63341885 30.21744927 6.81810707 32 7 C32 7.33 32 7.66 32 8 C21.10134092 8.69565909 11.99464519 7.69946893 2 3 C1.34 2.01 0.68 1.02 0 0 Z " fill="#166B5E" transform="translate(393,198)"/>
<path d="M0 0 C0.33 0 0.66 0 1 0 C1.62277469 10.00887894 2.17707265 19.96588331 2 30 C1.34 29.67 0.68 29.34 0 29 C-0.75406186 19.20879681 -1.22598899 9.78905055 0 0 Z " fill="#2DBB74" transform="translate(252,122)"/>
<path d="M0 0 C0.78012175 2.28502844 1.12353597 3.59416924 0.41088867 5.93530273 C-0.08060669 6.92445679 -0.08060669 6.92445679 -0.58203125 7.93359375 C-0.93716797 8.66513672 -1.29230469 9.39667969 -1.65820312 10.15039062 C-2.03912109 10.90513672 -2.42003906 11.65988281 -2.8125 12.4375 C-3.54934545 13.93562383 -4.2850527 15.43430809 -5.01953125 16.93359375 C-5.36580566 17.63468262 -5.71208008 18.33577148 -6.06884766 19.05810547 C-7.15890273 21.3313876 -8.11334692 23.64028307 -9 26 C-9.66 26 -10.32 26 -11 26 C-8.34810503 16.88411104 -4.1194169 8.5225941 0 0 Z " fill="#14675B" transform="translate(664,201)"/>
<path d="M0 0 C2.61188347 4.26409763 1.87545446 7.23676066 0.90234375 11.96875 C-0.92106793 18.09415028 -3.59437952 24.39625302 -9 28 C-7.24324324 20.83783784 -7.24324324 20.83783784 -4 18 C-1.76760039 14.44690597 -1.408384 10.86467654 -0.875 6.75 C-0.70742188 5.48671875 -0.53984375 4.2234375 -0.3671875 2.921875 C-0.24601562 1.95765625 -0.12484375 0.9934375 0 0 Z " fill="#146157" transform="translate(456,166)"/>
<path d="M0 0 C0.66 0 1.32 0 2 0 C1.67 2.31 1.34 4.62 1 7 C0.34 7 -0.32 7 -1 7 C-1 7.99 -1 8.98 -1 10 C-1.78375 10.2475 -2.5675 10.495 -3.375 10.75 C-6.32317108 12.15389099 -6.9024777 13.00675737 -8 16 C-8 12.01536179 -6.17290766 9.58277469 -4.125 6.3125 C-3.76019531 5.70599609 -3.39539063 5.09949219 -3.01953125 4.47460938 C-2.07283765 2.94440826 -1.04210006 1.46689185 0 0 Z " fill="#33B274" transform="translate(185,103)"/>
<path d="M0 0 C0.33 0 0.66 0 1 0 C1 4 1 8 1 12 C-1.22189824 14.22189824 -3.08482708 14.92598892 -6 16 C-5.51911359 10.95069268 -3.86726807 8.12169785 -1 4 C-0.23060319 1.77397385 -0.23060319 1.77397385 0 0 Z " fill="#1EA367" transform="translate(215,131)"/>
<path d="M0 0 C6.0546875 -0.1953125 6.0546875 -0.1953125 8 0 C10 2 10 2 10.5 4.5625 C9.76703587 9.60162837 7.00108895 12.98068444 4 17 C2.78057924 13.5027933 2.78057924 13.5027933 3.77734375 11.21875 C4.16019531 10.6515625 4.54304687 10.084375 4.9375 9.5 C6.94327081 6.50834184 7 5.93767568 7 2 C4.69 1.67 2.38 1.34 0 1 C0 0.67 0 0.34 0 0 Z " fill="#006B45" transform="translate(205,127)"/>
<path d="M0 0 C0.66 0 1.32 0 2 0 C2.13535156 0.60585937 2.27070313 1.21171875 2.41015625 1.8359375 C4.2290666 8.91552868 7.30120787 14.39541662 12 20 C12.66 20.33 13.32 20.66 14 21 C14 21.66 14 22.32 14 23 C8.21848774 20.4955087 5.20802148 15.75325141 2.7265625 10.09765625 C0 2.73980496 0 2.73980496 0 0 Z " fill="#146559" transform="translate(379,175)"/>
<path d="M0 0 C0.66 0 1.32 0 2 0 C2.32613281 0.89203125 2.65226562 1.7840625 2.98828125 2.703125 C3.42527344 3.87359375 3.86226563 5.0440625 4.3125 6.25 C4.74175781 7.41015625 5.17101562 8.5703125 5.61328125 9.765625 C6.83193825 12.60801373 8.11718077 14.59264169 10 17 C10 17.66 10 18.32 10 19 C10.66 19 11.32 19 12 19 C12.66 20.65 13.32 22.3 14 24 C6.13760486 18.31634086 1.63670699 9.45652929 0 0 Z " fill="#156559" transform="translate(282,167)"/>
<path d="M0 0 C1.18916016 0.02707031 1.18916016 0.02707031 2.40234375 0.0546875 C4.35208348 0.10166918 6.30119878 0.17340956 8.25 0.25 C7.96640113 1.6891134 7.67278601 3.12625518 7.375 4.5625 C7.21257813 5.36300781 7.05015625 6.16351563 6.8828125 6.98828125 C6.25 9.25 6.25 9.25 4.25 12.25 C4.58 8.95 4.91 5.65 5.25 2.25 C3.31257659 2.22296619 1.37504521 2.20358875 -0.5625 2.1875 C-2.18091797 2.17009766 -2.18091797 2.17009766 -3.83203125 2.15234375 C-6.81512169 2.11375234 -6.81512169 2.11375234 -9.75 3.25 C-10.08 3.91 -10.41 4.57 -10.75 5.25 C-11.41 4.92 -12.07 4.59 -12.75 4.25 C-9.14448484 -0.67366049 -5.60574573 -0.24170711 0 0 Z " fill="#1A6256" transform="translate(624.75,124.75)"/>
<path d="M0 0 C0.66 0.33 1.32 0.66 2 1 C-0.20326815 6.4960645 -5.03763002 9.13653942 -10 12 C-12.71756651 12.99731207 -15.13010051 13.52168342 -18 14 C-15.60490662 11.10067643 -13.68754757 10.49831724 -10 10 C-10 9.34 -10 8.68 -10 8 C-9.01 8 -8.02 8 -7 8 C-7 7.34 -7 6.68 -7 6 C-6.030625 5.566875 -5.06125 5.13375 -4.0625 4.6875 C-0.72268235 3.2985139 -0.72268235 3.2985139 0 0 Z " fill="#156559" transform="translate(371,189)"/>
<path d="M0 0 C-2.15761143 6.66898078 -7.09397267 11.23414488 -12 16 C-5.88235294 0 -5.88235294 0 0 0 Z " fill="#0B6D4B" transform="translate(177,190)"/>
<path d="M0 0 C1.46373047 0.02707031 1.46373047 0.02707031 2.95703125 0.0546875 C3.69308594 0.07789062 4.42914062 0.10109375 5.1875 0.125 C5.1875 0.455 5.1875 0.785 5.1875 1.125 C4.54683594 1.13917969 3.90617188 1.15335937 3.24609375 1.16796875 C-3.4056642 1.53475719 -6.66788967 2.94500411 -11.8125 7.125 C-13.47916667 7.125 -15.14583333 7.125 -16.8125 7.125 C-11.37501103 2.31977719 -7.51031958 -0.18097156 0 0 Z " fill="#15665B" transform="translate(766.8125,123.875)"/>
<path d="M0 0 C4.34242429 4.34242429 4.7444669 8.13551546 5 14 C4.01 13.67 3.02 13.34 2 13 C2 11.02 2 9.04 2 7 C1.34 7 0.68 7 0 7 C0 4.69 0 2.38 0 0 Z " fill="#0E675D" transform="translate(538,135)"/>
<path d="M0 0 C0.33 0 0.66 0 1 0 C1 1.65 1 3.3 1 5 C0.34 5 -0.32 5 -1 5 C-1 9.95 -1 14.9 -1 20 C-1.99 19.34 -2.98 18.68 -4 18 C-3.61020794 11.44074057 -2.57886807 6.05473373 0 0 Z " fill="#0E4A3F" transform="translate(138,226)"/>
<path d="M0 0 C0.66 0.66 1.32 1.32 2 2 C0.8125 4.4375 0.8125 4.4375 -1 7 C-3.6875 7.8125 -3.6875 7.8125 -6 8 C-5.34 6.02 -4.68 4.04 -4 2 C-5.32 1.67 -6.64 1.34 -8 1 C-6.865625 1.020625 -5.73125 1.04125 -4.5625 1.0625 C-1.18424326 1.41577477 -1.18424326 1.41577477 0 0 Z " fill="#06563C" transform="translate(170,75)"/>
<path d="M0 0 C-1.3937282 4.43458973 -3.60582235 6.87378374 -7 10 C-7.99 9.67 -8.98 9.34 -10 9 C-9.34 7.35 -8.68 5.7 -8 4 C-6.68 4.33 -5.36 4.66 -4 5 C-4 3.68 -4 2.36 -4 1 C-2 0 -2 0 0 0 Z " fill="#31B474" transform="translate(249,199)"/>
<path d="M0 0 C4.95 0 9.9 0 15 0 C16.88343932 3.76687864 17.22057835 5.02958963 17 9 C16.71125 8.401875 16.4225 7.80375 16.125 7.1875 C14.95257974 4.80672208 14.95257974 4.80672208 13 2 C10.66903882 1.55952863 10.66903882 1.55952863 8.0625 1.6875 C7.18722656 1.69136719 6.31195312 1.69523437 5.41015625 1.69921875 C2.74052153 1.84986919 2.74052153 1.84986919 0 4 C0 2.68 0 1.36 0 0 Z " fill="#0C6659" transform="translate(727,126)"/>
<path d="M0 0 C0.61875 0.33 1.2375 0.66 1.875 1 C3.91018344 2.14193235 3.91018344 2.14193235 6 2 C6 2.66 6 3.32 6 4 C5.2575 4.268125 4.515 4.53625 3.75 4.8125 C1.13363446 5.94229421 -0.80187111 7.20893202 -3 9 C-3.33 7.02 -3.66 5.04 -4 3 C-2.68 2.67 -1.36 2.34 0 2 C0 1.34 0 0.68 0 0 Z " fill="#0B6658" transform="translate(407,137)"/>
<path d="M0 0 C4.12958734 1.41954565 7.45973894 3.52687064 11.03515625 5.9765625 C13.22203126 7.30797554 13.22203126 7.30797554 17 7 C16.67 7.99 16.34 8.98 16 10 C9.52999195 8.22074779 4.51341187 4.67560791 -1 1 C-0.67 0.67 -0.34 0.34 0 0 Z " fill="#146358" transform="translate(349,110)"/>
<path d="M0 0 C1.32 0 2.64 0 4 0 C3.67 1.65 3.34 3.3 3 5 C1.68 5.33 0.36 5.66 -1 6 C-1 6.99 -1 7.98 -1 9 C-1.99 9 -2.98 9 -4 9 C-2.80100302 5.9168649 -1.52299523 2.93720508 0 0 Z " fill="#2FB675" transform="translate(196,85)"/>
<path d="M0 0 C0 0.33 0 0.66 0 1 C-0.73605469 1.06058594 -1.47210937 1.12117187 -2.23046875 1.18359375 C-3.20628906 1.26738281 -4.18210937 1.35117188 -5.1875 1.4375 C-6.15042969 1.51871094 -7.11335938 1.59992188 -8.10546875 1.68359375 C-10.78649602 1.97666151 -13.3662986 2.42703754 -16 3 C-15.4375 1.0625 -15.4375 1.0625 -14 -1 C-8.66199998 -2.46533334 -5.06070482 -1.75575473 0 0 Z " fill="#0F6559" transform="translate(516,140)"/>
<path d="M0 0 C-0.78375 0.0825 -1.5675 0.165 -2.375 0.25 C-3.24125 0.4975 -4.1075 0.745 -5 1 C-6.09166275 2.93330603 -6.09166275 2.93330603 -7 5 C-9 6.3125 -9 6.3125 -11 7 C-11.66 6.67 -12.32 6.34 -13 6 C-13 5.34 -13 4.68 -13 4 C-11.40233897 3.13372601 -9.79660056 2.28233535 -8.1875 1.4375 C-7.29417969 0.96183594 -6.40085937 0.48617187 -5.48046875 -0.00390625 C-3 -1 -3 -1 0 0 Z " fill="#12685C" transform="translate(315,95)"/>
<path d="M0 0 C0.66 0 1.32 0 2 0 C2.33 0.66 2.66 1.32 3 2 C3.66 2 4.32 2 5 2 C4.62403791 4.78211944 4.32681541 6.5879284 2.5625 8.8125 C1 10 1 10 -1 10 C-0.67 6.7 -0.34 3.4 0 0 Z " fill="#0A4D3F" transform="translate(139,215)"/>
<path d="M0 0 C2.67756647 1.05572621 3.39850734 2.2989035 4.86328125 4.74609375 C5.30285156 5.45636719 5.74242187 6.16664063 6.1953125 6.8984375 C6.47761719 7.52878906 6.75992187 8.15914062 7.05078125 8.80859375 C6.72078125 9.46859375 6.39078125 10.12859375 6.05078125 10.80859375 C4.07078125 7.34359375 4.07078125 7.34359375 2.05078125 3.80859375 C-0.25921875 3.80859375 -2.56921875 3.80859375 -4.94921875 3.80859375 C-4.61921875 2.81859375 -4.28921875 1.82859375 -3.94921875 0.80859375 C-1.94921875 -0.19140625 -1.94921875 -0.19140625 0 0 Z " fill="#126558" transform="translate(363.94921875,178.19140625)"/>
<path d="M0 0 C0.66 0 1.32 0 2 0 C0.6877964 2.86185356 -0.76448587 5.04577974 -2.875 7.375 C-5.56912912 10.43230829 -7.81908391 13.56086309 -10 17 C-10.33 16.34 -10.66 15.68 -11 15 C-2.72093023 3.02325581 -2.72093023 3.02325581 0 0 Z " fill="#13665A" transform="translate(297,103)"/>
<path d="M0 0 C7.84179688 6.4453125 7.84179688 6.4453125 10 10 C10 10.66 10 11.32 10 12 C8.68 11.34 7.36 10.68 6 10 C6 9.34 6 8.68 6 8 C5.195625 7.79375 4.39125 7.5875 3.5625 7.375 C2.2940625 6.694375 2.2940625 6.694375 1 6 C0.1875 2.875 0.1875 2.875 0 0 Z " fill="#32B073" transform="translate(240,83)"/>
<path d="M0 0 C2.64 0 5.28 0 8 0 C2.46153846 4.76923077 2.46153846 4.76923077 -1 5 C-1.99 4.34 -2.98 3.68 -4 3 C-2.68 2.67 -1.36 2.34 0 2 C0 1.34 0 0.68 0 0 Z " fill="#2BB771" transform="translate(231,210)"/>
<path d="M0 0 C0.99 0.33 1.98 0.66 3 1 C3 1.66 3 2.32 3 3 C3.99 3.33 4.98 3.66 6 4 C5.67 4.66 5.34 5.32 5 6 C5.08651631 7.54613014 5.24002636 9.08909387 5.4375 10.625 C5.53933594 11.44226563 5.64117187 12.25953125 5.74609375 13.1015625 C5.82988281 13.72804687 5.91367187 14.35453125 6 15 C5.34 15 4.68 15 4 15 C3.87882812 14.41992188 3.75765625 13.83984375 3.6328125 13.2421875 C2.66264526 8.71971558 1.56602217 4.36249034 0 0 Z " fill="#0E6557" transform="translate(432,146)"/>
<path d="M0 0 C4.62 0 9.24 0 14 0 C14 0.33 14 0.66 14 1 C10.37 1.33 6.74 1.66 3 2 C2.67 4.64 2.34 7.28 2 10 C-0.32221873 6.22639456 0 4.98800589 0 0 Z " fill="#0D6A5D" transform="translate(554,126)"/>
<path d="M0 0 C2.46934085 3.70401128 2.44928433 6.70587865 2 11 C1 13.5 1 13.5 0 15 C-0.66 14.67 -1.32 14.34 -2 14 C-1.649375 13.113125 -1.29875 12.22625 -0.9375 11.3125 C0.0373431 7.86805436 -0.17727975 6.38229437 -1 3 C-0.67 2.01 -0.34 1.02 0 0 Z " fill="#016451" transform="translate(170,104)"/>
<path d="M0 0 C10.33215548 3.95053004 10.33215548 3.95053004 12.3125 7.0625 C12.6528125 8.0215625 12.6528125 8.0215625 13 9 C13.33 9.66 13.66 10.32 14 11 C10.50004453 9.43810398 7.72827143 7.33666309 4.75 4.9375 C3.85796875 4.22464844 2.9659375 3.51179687 2.046875 2.77734375 C1.37140625 2.19082031 0.6959375 1.60429687 0 1 C0 0.67 0 0.34 0 0 Z " fill="#287A55" transform="translate(180,220)"/>
<path d="M0 0 C0.69287109 0.00451172 1.38574219 0.00902344 2.09960938 0.01367188 C3.79561068 0.02536844 5.49156703 0.04330076 7.1875 0.0625 C7.1875 0.3925 7.1875 0.7225 7.1875 1.0625 C6.10082031 1.15337891 6.10082031 1.15337891 4.9921875 1.24609375 C0.01039343 1.67784924 -4.88405332 2.20002183 -9.8125 3.0625 C-10.8025 3.0625 -11.7925 3.0625 -12.8125 3.0625 C-12.8125 2.4025 -12.8125 1.7425 -12.8125 1.0625 C-8.52952469 0.00630997 -4.38264354 -0.05452092 0 0 Z " fill="#126558" transform="translate(417.8125,123.9375)"/>
<path d="M0 0 C4.29 0 8.58 0 13 0 C13 0.33 13 0.66 13 1 C11.96939453 1.02126953 11.96939453 1.02126953 10.91796875 1.04296875 C8.19339102 1.18718817 5.6616416 1.39137986 3 2 C0.78693049 4.37255115 0.78693049 4.37255115 0 7 C-0.66 6.01 -1.32 5.02 -2 4 C-1.34 2.68 -0.68 1.36 0 0 Z " fill="#0A6D60" transform="translate(474,126)"/>
<path d="M0 0 C2.62527189 -0.05382106 5.24944713 -0.09358313 7.875 -0.125 C8.62136719 -0.14175781 9.36773437 -0.15851563 10.13671875 -0.17578125 C12.09194461 -0.1933959 14.04742021 -0.10320189 16 0 C16.66 0.66 17.32 1.32 18 2 C17.625 4.125 17.625 4.125 17 6 C17 5.01 17 4.02 17 3 C13.62231526 1.87410509 10.99187928 1.86705725 7.4375 1.875 C5.70306641 1.87113281 5.70306641 1.87113281 3.93359375 1.8671875 C1.06546562 1.79797384 1.06546562 1.79797384 -1 3 C-0.67 2.01 -0.34 1.02 0 0 Z " fill="#1F5C55" transform="translate(473,125)"/>
<path d="M0 0 C0 0.99 0 1.98 0 3 C-0.969375 3.45375 -1.93875 3.9075 -2.9375 4.375 C-6.07079582 5.65786221 -6.07079582 5.65786221 -7 8 C-8.65 7.67 -10.3 7.34 -12 7 C-12 6.34 -12 5.68 -12 5 C-10.82630859 4.58427734 -10.82630859 4.58427734 -9.62890625 4.16015625 C-8.61699219 3.79792969 -7.60507812 3.43570313 -6.5625 3.0625 C-5.55316406 2.70285156 -4.54382813 2.34320313 -3.50390625 1.97265625 C-1.09686255 1.23122361 -1.09686255 1.23122361 0 0 Z " fill="#0F6153" transform="translate(357,181)"/>
<path d="M0 0 C2.16321167 3.24481751 3.6314591 6.35055759 5 10 C4.67 10.99 4.34 11.98 4 13 C1 8.25 1 8.25 1 6 C0.01 5.67 -0.98 5.34 -2 5 C-1.34 4.67 -0.68 4.34 0 4 C0 2.68 0 1.36 0 0 Z " fill="#0F685C" transform="translate(582,151)"/>
<path d="M0 0 C1.305239 3.91571701 0.32239848 5.03892997 -1.4375 8.6875 C-1.91058594 9.68136719 -2.38367188 10.67523438 -2.87109375 11.69921875 C-3.42990234 12.83810547 -3.42990234 12.83810547 -4 14 C-5.31223496 10.06329512 -4.24296256 7.87511856 -3 4 C-2.34 4 -1.68 4 -1 4 C-0.67 2.68 -0.34 1.36 0 0 Z " fill="#10685B" transform="translate(624,147)"/>
<path d="M0 0 C1.32 0 2.64 0 4 0 C4 0.99 4 1.98 4 3 C6.64 3 9.28 3 12 3 C12 3.33 12 3.66 12 4 C10.20866022 4.05391993 8.41686101 4.09275571 6.625 4.125 C5.62726563 4.14820313 4.62953125 4.17140625 3.6015625 4.1953125 C1 4 1 4 -1 2 C-0.67 1.34 -0.34 0.68 0 0 Z " fill="#24C075" transform="translate(99,211)"/>
<path d="M0 0 C0.8125 3.125 0.8125 3.125 1 6 C-0.0209375 4.7934375 -0.0209375 4.7934375 -1.0625 3.5625 C-4.48477302 0.57711289 -6.5428126 0.26218749 -11 0 C-11 -0.33 -11 -0.66 -11 -1 C-6.71941818 -1.99548414 -3.78328505 -2.48615875 0 0 Z " fill="#26B570" transform="translate(151,169)"/>
<path d="M0 0 C0.6875 1.625 0.6875 1.625 1 4 C-0.4375 7.25 -0.4375 7.25 -2 10 C-2.33 9.34 -2.66 8.68 -3 8 C-3.66 7.67 -4.32 7.34 -5 7 C-1.125 1.125 -1.125 1.125 0 0 Z " fill="#2ABC75" transform="translate(87,82)"/>
<path d="M0 0 C0.99 0 1.98 0 3 0 C1.6062718 4.43458973 -0.60582235 6.87378374 -4 10 C-3.67 8.02 -3.34 6.04 -3 4 C-2.01 4 -1.02 4 0 4 C0 2.68 0 1.36 0 0 Z " fill="#28B270" transform="translate(150,98)"/>
<path d="M0 0 C3.63 0 7.26 0 11 0 C10.67 0.99 10.34 1.98 10 3 C7.03 3 4.06 3 1 3 C0.67 3.66 0.34 4.32 0 5 C-0.66 5 -1.32 5 -2 5 C-1.34 3.35 -0.68 1.7 0 0 Z " fill="#1C654F" transform="translate(158,214)"/>
<path d="M0 0 C1 3 1 3 -0.25 6.0625 C-2 9 -2 9 -5 11 C-5 9.35 -5 7.7 -5 6 C-4.01 6 -3.02 6 -2 6 C-1.34 4.02 -0.68 2.04 0 0 Z " fill="#0C6B5D" transform="translate(681,203)"/>
<path d="M0 0 C0.99 0.66 1.98 1.32 3 2 C0.14723863 4.93200474 -2.65079784 7.64315404 -6 10 C-5.67 8.68 -5.34 7.36 -5 6 C-4.34 6 -3.68 6 -3 6 C-2.690625 5.195625 -2.38125 4.39125 -2.0625 3.5625 C-1 1 -1 1 0 0 Z " fill="#10794E" transform="translate(187,174)"/>
<path d="M0 0 C0.99 0 1.98 0 3 0 C3.66 2.31 4.32 4.62 5 7 C4.01 6.67 3.02 6.34 2 6 C2 5.34 2 4.68 2 4 C1.01 4.33 0.02 4.66 -1 5 C-0.67 3.35 -0.34 1.7 0 0 Z " fill="#0C6B5D" transform="translate(666,159)"/>
<path d="M0 0 C1.57499749 3.14999498 0.70833498 5.63540882 0 9 C-1.5625 10.9375 -1.5625 10.9375 -3 12 C-3.2954439 6.97745369 -2.98514628 4.10457614 0 0 Z " fill="#0B594F" transform="translate(747,151)"/>
<path d="M0 0 C0.33 0 0.66 0 1 0 C0.64989059 8.35010941 0.64989059 8.35010941 -2.0625 11.0625 C-2.701875 11.371875 -3.34125 11.68125 -4 12 C-2.66666667 8 -1.33333333 4 0 0 Z " fill="#12695C" transform="translate(685,152)"/>
<path d="M0 0 C0.5775 0.61875 1.155 1.2375 1.75 1.875 C3.80249821 3.81347053 5.43366582 4.90014249 8 6 C8 6.66 8 7.32 8 8 C4.21616321 7.07506212 2.43306306 6.60628829 0.125 3.375 C-0.24625 2.59125 -0.6175 1.8075 -1 1 C-0.67 0.67 -0.34 0.34 0 0 Z " fill="#30B777" transform="translate(87,206)"/>
<path d="M0 0 C0.66 0 1.32 0 2 0 C2.33 1.65 2.66 3.3 3 5 C0 7 0 7 -3 7 C-2.1654738 4.49642139 -1.20628008 2.33214148 0 0 Z " fill="#0D6255" transform="translate(595,175)"/>
<path d="M0 0 C1.60080151 4.00200378 0.29279692 7.04556236 -1 11 C-1.66 10.34 -2.32 9.68 -3 9 C-2.625 5.375 -2.625 5.375 -2 2 C-1.34 2 -0.68 2 0 2 C0 1.34 0 0.68 0 0 Z " fill="#115B4D" transform="translate(178,91)"/>
<path d="M0 0 C1.32 0.33 2.64 0.66 4 1 C0.535 3.97 0.535 3.97 -3 7 C-3.66 6.67 -4.32 6.34 -5 6 C-4.54625 5.566875 -4.0925 5.13375 -3.625 4.6875 C-1.79975666 2.89201658 -1.79975666 2.89201658 0 0 Z " fill="#0F6153" transform="translate(443,194)"/>
<path d="M0 0 C0.66 0 1.32 0 2 0 C2.22036864 3.85645121 1.60355101 6.49223216 0 10 C-0.66 9.34 -1.32 8.68 -2 8 C-1.625 5.375 -1.625 5.375 -1 3 C-0.34 3 0.32 3 1 3 C0.67 2.01 0.34 1.02 0 0 Z " fill="#23C573" transform="translate(250,185)"/>
<path d="M0 0 C0.66 0 1.32 0 2 0 C2 0.66 2 1.32 2 2 C1.34 2 0.68 2 0 2 C-0.4021875 3.1446875 -0.4021875 3.1446875 -0.8125 4.3125 C-1.94424112 6.87380884 -2.91223401 8.19692938 -5 10 C-4.49890042 5.61537866 -3.01704885 3.1999003 0 0 Z " fill="#016747" transform="translate(202,150)"/>
<path d="M0 0 C1.32 0 2.64 0 4 0 C2.9024777 2.99324263 2.32317108 3.84610901 -0.625 5.25 C-1.40875 5.4975 -2.1925 5.745 -3 6 C-2.42655063 3.13275314 -2.1385485 2.1385485 0 0 Z " fill="#1AA95E" transform="translate(212,141)"/>
<path d="M0 0 C1.134375 0.020625 2.26875 0.04125 3.4375 0.0625 C1.26325883 2.56287734 -0.29295798 3.49878586 -3.5625 4.0625 C-3.8925 3.0725 -4.2225 2.0825 -4.5625 1.0625 C-3.5625 0.0625 -3.5625 0.0625 0 0 Z " fill="#27BF73" transform="translate(93.5625,79.9375)"/>
<path d="M0 0 C1.98 0 3.96 0 6 0 C3.42215154 2.64752004 1.08351902 4.94432065 -2 7 C-2 6.01 -2 5.02 -2 4 C-1.34 4 -0.68 4 0 4 C0 2.68 0 1.36 0 0 Z " fill="#166659" transform="translate(750,144)"/>
<path d="M0 0 C1.79068573 2.6860286 2.66055791 4.6626589 3.625 7.6875 C3.88539063 8.49574219 4.14578125 9.30398437 4.4140625 10.13671875 C4.60742188 10.75160156 4.80078125 11.36648437 5 12 C1.98642026 9.12340116 0.04541243 7.15801695 -0.125 2.8125 C-0.08375 1.884375 -0.0425 0.95625 0 0 Z " fill="#116557" transform="translate(656,129)"/>
<path d="M0 0 C3.99500618 1.3697164 6.80009492 3.25722422 10 6 C9.67 6.66 9.34 7.32 9 8 C7.49712782 6.85793642 5.99776716 5.71125043 4.5 4.5625 C3.6646875 3.92441406 2.829375 3.28632813 1.96875 2.62890625 C1.3190625 2.09136719 0.669375 1.55382812 0 1 C0 0.67 0 0.34 0 0 Z " fill="#166357" transform="translate(527,126)"/>
<path d="M0 0 C0.33 0 0.66 0 1 0 C1.36923077 5.53846154 1.36923077 5.53846154 -0.5 7.875 C-1.2425 8.431875 -1.2425 8.431875 -2 9 C-2.25 3.375 -2.25 3.375 0 0 Z " fill="#023F2D" transform="translate(151,183)"/>
<path d="M0 0 C2.24027294 2.88035092 4.16172132 5.84866512 6 9 C4.125 8.75 4.125 8.75 2 8 C-0.02755186 5.06004981 0 3.72295997 0 0 Z " fill="#106255" transform="translate(307,171)"/>
<path d="M0 0 C0.66 0 1.32 0 2 0 C2 0.99 2 1.98 2 3 C2.66 3 3.32 3 4 3 C4 4.98 4 6.96 4 9 C1.49701566 6.06171403 0.53069061 3.82097239 0 0 Z " fill="#186B5B" transform="translate(645,152)"/>
<path d="M0 0 C1.46534385 3.80989402 0.55203911 6.3241179 -1 10 C-1.99 10.495 -1.99 10.495 -3 11 C-2.44894091 7.0507432 -1.61064629 3.65079826 0 0 Z " fill="#16655A" transform="translate(689,141)"/>
<path d="M0 0 C3 1 3 1 4 3 C4.039992 4.99960012 4.04346799 7.00047242 4 9 C1.3144406 6.3144406 0.93950026 3.62378672 0 0 Z " fill="#156A5C" transform="translate(641,143)"/>
<path d="M0 0 C0.66 0.33 1.32 0.66 2 1 C1.34 4.63 0.68 8.26 0 12 C-2.61577816 6.76844369 -1.6207859 5.40261966 0 0 Z " fill="#135B4C" transform="translate(172,109)"/>
<path d="M0 0 C3.3 0 6.6 0 10 0 C10 0.66 10 1.32 10 2 C6.18510326 3.46726798 3.70988378 2.43336419 0 1 C0 0.67 0 0.34 0 0 Z " fill="#34B874" transform="translate(128,214)"/>
<path d="M0 0 C2.6855594 2.6855594 3.06049974 5.37621328 4 9 C3.01 9 2.02 9 1 9 C0.67 6.03 0.34 3.06 0 0 Z " fill="#116A5D" transform="translate(661,142)"/>
<path d="" fill="#FFFFFF" transform="translate(0,0)"/>
<path d="" fill="#FFFFFF" transform="translate(0,0)"/>
<path d="" fill="#FFFFFF" transform="translate(0,0)"/>
<path d="" fill="#FFFFFF" transform="translate(0,0)"/>
<path d="" fill="#FFFFFF" transform="translate(0,0)"/>
<path d="" fill="#FFFFFF" transform="translate(0,0)"/>
<path d="" fill="#FFFFFF" transform="translate(0,0)"/>
<path d="" fill="#FFFFFF" transform="translate(0,0)"/>
<path d="" fill="#FFFFFF" transform="translate(0,0)"/>
<path d="" fill="#FFFFFF" transform="translate(0,0)"/>
<path d="" fill="#FFFFFF" transform="translate(0,0)"/>
<path d="" fill="#FFFFFF" transform="translate(0,0)"/>
<path d="" fill="#FFFFFF" transform="translate(0,0)"/>
<path d="" fill="#FFFFFF" transform="translate(0,0)"/>
<path d="" fill="#FFFFFF" transform="translate(0,0)"/>
<path d="" fill="#FFFFFF" transform="translate(0,0)"/>
<path d="" fill="#FFFFFF" transform="translate(0,0)"/>
<path d="" fill="#FFFFFF" transform="translate(0,0)"/>
<path d="" fill="#FFFFFF" transform="translate(0,0)"/>
<path d="" fill="#FFFFFF" transform="translate(0,0)"/>
<path d="" fill="#FFFFFF" transform="translate(0,0)"/>
<path d="" fill="#FFFFFF" transform="translate(0,0)"/>
<path d="" fill="#FFFFFF" transform="translate(0,0)"/>
<path d="" fill="#FFFFFF" transform="translate(0,0)"/>
<path d="" fill="#FFFFFF" transform="translate(0,0)"/>
<path d="" fill="#FFFFFF" transform="translate(0,0)"/>
<path d="" fill="#FFFFFF" transform="translate(0,0)"/>
<path d="" fill="#FFFFFF" transform="translate(0,0)"/>
<path d="" fill="#FFFFFF" transform="translate(0,0)"/>
<path d="" fill="#FFFFFF" transform="translate(0,0)"/>
<path d="" fill="#FFFFFF" transform="translate(0,0)"/>
<path d="" fill="#FFFFFF" transform="translate(0,0)"/>
<path d="" fill="#000000" transform="translate(0,0)"/>
<path d="" fill="#FFFFFF" transform="translate(0,0)"/>
<path d="" fill="#FFFFFF" transform="translate(0,0)"/>
<path d="" fill="#FFFFFF" transform="translate(0,0)"/>
<path d="" fill="#FFFFFF" transform="translate(0,0)"/>
<path d="" fill="#FFFFFF" transform="translate(0,0)"/>
<path d="" fill="#FFFFFF" transform="translate(0,0)"/>
<path d="" fill="#FFFFFF" transform="translate(0,0)"/>
<path d="" fill="#FFFFFF" transform="translate(0,0)"/>
<path d="" fill="#FFFFFF" transform="translate(0,0)"/>
<path d="" fill="#000000" transform="translate(0,0)"/>
<path d="" fill="#FFFFFF" transform="translate(0,0)"/>
<path d="" fill="#FFFFFF" transform="translate(0,0)"/>
<path d="" fill="#FFFFFF" transform="translate(0,0)"/>
<path d="" fill="#FFFFFF" transform="translate(0,0)"/>
<path d="" fill="#FFFFFF" transform="translate(0,0)"/>
<path d="" fill="#FFFFFF" transform="translate(0,0)"/>
<path d="" fill="#FFFFFF" transform="translate(0,0)"/>
<path d="" fill="#FFFFFF" transform="translate(0,0)"/>
<path d="" fill="#FFFFFF" transform="translate(0,0)"/>
<path d="" fill="#FFFFFF" transform="translate(0,0)"/>
<path d="" fill="#FFFFFF" transform="translate(0,0)"/>
<path d="" fill="#FFFFFF" transform="translate(0,0)"/>
<path d="" fill="#FFFFFF" transform="translate(0,0)"/>
<path d="" fill="#FFFFFF" transform="translate(0,0)"/>
<path d="" fill="#FFFFFF" transform="translate(0,0)"/>
<path d="" fill="#FFFFFF" transform="translate(0,0)"/>
<path d="" fill="#FFFFFF" transform="translate(0,0)"/>
<path d="" fill="#FFFFFF" transform="translate(0,0)"/>
<path d="" fill="#FFFFFF" transform="translate(0,0)"/>
<path d="" fill="#FFFFFF" transform="translate(0,0)"/>
<path d="" fill="#FFFFFF" transform="translate(0,0)"/>
<path d="" fill="#FFFFFF" transform="translate(0,0)"/>
<path d="" fill="#FFFFFF" transform="translate(0,0)"/>
<path d="" fill="#FFFFFF" transform="translate(0,0)"/>
<path d="" fill="#FFFFFF" transform="translate(0,0)"/>
<path d="" fill="#FFFFFF" transform="translate(0,0)"/>
<path d="" fill="#FFFFFF" transform="translate(0,0)"/>
<path d="" fill="#FFFFFF" transform="translate(0,0)"/>
<path d="" fill="#FFFFFF" transform="translate(0,0)"/>
<path d="" fill="#FFFFFF" transform="translate(0,0)"/>
<path d="" fill="#FFFFFF" transform="translate(0,0)"/>
<path d="" fill="#FFFFFF" transform="translate(0,0)"/>
<path d="" fill="#FFFFFF" transform="translate(0,0)"/>
<path d="" fill="#FFFFFF" transform="translate(0,0)"/>
<path d="" fill="#FFFFFF" transform="translate(0,0)"/>
<path d="" fill="#FFFFFF" transform="translate(0,0)"/>
<path d="" fill="#FFFFFF" transform="translate(0,0)"/>
<path d="" fill="#FFFFFF" transform="translate(0,0)"/>
</svg>
