<?xml version="1.0" encoding="UTF-8"?>
<svg version="1.1" xmlns="http://www.w3.org/2000/svg" width="409" height="610">
<path d="M0 0 C1.38942863 -0.0041782 2.77885385 -0.00965838 4.16827279 -0.01631981 C7.96735242 -0.03072861 11.76621427 -0.02654415 15.56530559 -0.019153 C19.66961552 -0.01441248 23.77387893 -0.02693873 27.87817383 -0.03717041 C35.91015761 -0.05434432 43.94206312 -0.05520164 51.9740605 -0.04995751 C58.50126276 -0.04591327 65.02844192 -0.04736237 71.55564308 -0.05270576 C72.94999753 -0.0538284 72.94999753 -0.0538284 74.37252075 -0.05497371 C76.26098456 -0.0565052 78.14944837 -0.05804355 80.03791217 -0.05958868 C97.7356482 -0.0733077 115.43333999 -0.0678794 133.131075 -0.05640347 C149.32514212 -0.04646361 165.51909511 -0.05942581 181.71314462 -0.08333766 C198.34499293 -0.10771092 214.97678803 -0.1173414 231.60865384 -0.11068493 C240.94483691 -0.10718981 250.2809321 -0.10944454 259.61710167 -0.12693596 C267.56141375 -0.14163542 275.50557602 -0.14232258 283.44988509 -0.12486505 C287.50334318 -0.11633553 291.5565334 -0.11425304 295.60997772 -0.1295166 C299.32020644 -0.14331507 303.02993655 -0.13866369 306.74013606 -0.11927737 C308.71860793 -0.11371323 310.69710487 -0.12782883 312.67552918 -0.14263147 C323.37711046 -0.05338358 323.37711046 -0.05338358 328.20222473 4.38768005 C331.72892049 8.27920641 332.32845684 11.82806882 332.32247925 16.96879578 C332.32454124 18.34013672 332.32454124 18.34013672 332.3266449 19.73918152 C332.32304962 20.73468018 332.31945435 21.73017883 332.31575012 22.75584412 C332.31589615 23.80981384 332.31604218 24.86378357 332.31619263 25.94969177 C332.31549583 29.43425045 332.30771426 32.91875571 332.29988098 36.40330505 C332.29801598 38.81897452 332.29659246 41.23464436 332.29559326 43.65031433 C332.29177459 50.00923201 332.28194981 56.36812686 332.27088928 62.72703552 C332.26066122 69.21547639 332.25609265 75.70392095 332.25105286 82.19236755 C332.240327 94.92414813 332.22345048 107.65591288 332.20222473 120.38768005 C333.63006287 120.3419989 333.63006287 120.3419989 335.08674622 120.2953949 C336.34044006 120.27170837 337.59413391 120.24802185 338.88581848 120.22361755 C340.74678162 120.1779364 340.74678162 120.1779364 342.64533997 120.1313324 C349.40757439 120.61869228 353.15407903 124.36720137 357.7855835 128.93614197 C361.02615818 132.88617988 360.90226863 136.56599126 360.83332825 141.51072693 C360.8440612 142.85820763 360.8440612 142.85820763 360.85501099 144.23291016 C360.87186803 147.19127335 360.85251285 150.14811475 360.83113098 153.10643005 C360.83195995 155.16856512 360.83442041 157.23070011 360.83843994 159.29283142 C360.8412959 163.61029499 360.82661612 167.92723921 360.79914856 172.24461365 C360.76506648 177.7729311 360.7710861 183.30032005 360.78981113 188.82868195 C360.80039034 193.08557342 360.79143486 197.34224963 360.77642632 201.59912109 C360.77125083 203.63723104 360.7717186 205.67536353 360.77797127 207.71347046 C360.78343451 210.56434807 360.76301262 213.41390602 360.735672 216.26463318 C360.74546082 217.52256432 360.74546082 217.52256432 360.75544739 218.8059082 C360.66878813 224.13231458 359.69687614 227.13768531 356.20222473 231.38768005 C349.21735435 237.54992116 341.16560938 238.43142299 332.20222473 238.38768005 C332.21221748 239.73618797 332.21221748 239.73618797 332.22241211 241.11193848 C332.282624 249.60094447 332.32825033 258.08987832 332.35766125 266.57904911 C332.37329022 270.9430054 332.39447765 275.30678463 332.42854309 279.67063904 C332.46123566 283.88519459 332.47909856 288.09958025 332.48685646 292.31425285 C332.49238225 293.91895152 332.50317276 295.52364131 332.5194149 297.12826729 C332.54132135 299.38298975 332.54418624 301.637018 332.5428009 303.89183044 C332.55279366 305.81376976 332.55279366 305.81376976 332.56298828 307.77453613 C332.01307453 313.28207018 330.37493105 317.07196077 326.63972473 321.26268005 C319.94848387 326.28714877 308.51471051 324.53016507 300.58892822 324.5146637 C298.73434536 324.51700368 298.73434536 324.51700368 296.84229618 324.51939094 C293.43565535 324.52267327 290.0290702 324.52151372 286.62243283 324.51840472 C282.93770419 324.51613226 279.25298025 324.51963964 275.56825256 324.52238464 C268.35555885 324.52682359 261.14287556 324.52587363 253.93018144 324.522972 C248.05725452 324.52070798 242.18433051 324.52040978 236.31140327 324.52149582 C235.47349107 324.52164905 234.63557886 324.52180229 233.77227538 324.52196016 C232.069549 324.52227992 230.36682262 324.52260413 228.66409624 324.52293275 C212.70406793 324.52578274 196.74404536 324.52250943 180.78401799 324.51713239 C167.13899351 324.51267706 153.49397756 324.51343069 139.84895325 324.51805115 C123.96689577 324.52342667 108.08484334 324.52549522 92.20278507 324.52243888 C90.50195094 324.52212038 88.80111681 324.52180601 87.10028267 324.52149582 C86.26369672 324.52134154 85.42711077 324.52118727 84.56517373 324.52102832 C78.7183079 324.52017114 72.87144532 324.52160893 67.02458 324.52397537 C59.8706629 324.52680732 52.71675675 324.52596517 45.56284087 324.52069463 C41.92431439 324.51810085 38.28580601 324.51697706 34.64727974 324.52034378 C21.16596092 324.53161949 7.69305857 324.46937816 -5.78152466 324.00849915 C-6.79820113 323.97866601 -7.8148776 323.94883288 -8.86236244 323.91809571 C-20.98413159 323.432838 -30.1220216 319.08262787 -38.79777527 310.38768005 C-38.79777527 309.72768005 -38.79777527 309.06768005 -38.79777527 308.38768005 C-39.78777527 308.05768005 -40.77777527 307.72768005 -41.79777527 307.38768005 C-43.11418152 305.6806488 -43.11418152 305.6806488 -44.36027527 303.57518005 C-44.77406433 302.88810974 -45.18785339 302.20103943 -45.61418152 301.4931488 C-46.00476746 300.79834412 -46.39535339 300.10353943 -46.79777527 299.38768005 C-47.14676549 298.77907355 -47.49575572 298.17046705 -47.85532141 297.54341793 C-48.91833443 295.111917 -49.05235708 293.43542121 -49.0606308 290.79040527 C-49.06831309 289.86674164 -49.07599538 288.943078 -49.08391047 287.99142456 C-49.0821775 286.98016006 -49.08044454 285.96889557 -49.07865906 284.92698669 C-49.0846013 283.84989441 -49.09054355 282.77280212 -49.09666586 281.66307068 C-49.11405715 278.04129469 -49.11705781 274.41965078 -49.12004089 270.7978363 C-49.12929623 268.20590939 -49.13934541 265.61398521 -49.15013123 263.02206421 C-49.17728948 255.97007429 -49.18934698 248.91810712 -49.19815254 241.86607361 C-49.20368084 237.45977803 -49.21215637 233.0534912 -49.22116089 228.64720154 C-49.24554896 216.440064 -49.26614456 204.23293347 -49.27291107 192.02577209 C-49.2733502 191.24451434 -49.27378934 190.46325659 -49.27424178 189.65832436 C-49.27467833 188.87522106 -49.27511489 188.09211775 -49.27556467 187.28528404 C-49.27645159 185.69848505 -49.27734472 184.11168607 -49.27824402 182.52488708 C-49.27868688 181.7377839 -49.27912974 180.95068072 -49.27958602 180.13972592 C-49.28747408 167.39922415 -49.3223565 154.65895172 -49.36896306 141.91853845 C-49.41646134 128.82828112 -49.44131813 115.73813864 -49.44364691 102.64779377 C-49.44547686 95.30210192 -49.45689041 87.95670859 -49.49328613 80.61109924 C-49.5274253 73.69662188 -49.53054055 66.78271836 -49.51300812 59.86818123 C-49.51146923 57.3350377 -49.52012852 54.80186356 -49.53992462 52.26879692 C-49.73582346 25.63218993 -49.73582346 25.63218993 -39.54777527 14.63768005 C-36.79777527 12.38768005 -36.79777527 12.38768005 -34.79777527 12.38768005 C-34.46777527 11.39768005 -34.13777527 10.40768005 -33.79777527 9.38768005 C-31.61027527 7.88768005 -31.61027527 7.88768005 -28.79777527 6.38768005 C-27.89027527 5.89268005 -26.98277527 5.39768005 -26.04777527 4.88768005 C-17.20195749 0.80499493 -9.75119993 -0.04589103 0 0 Z " fill="#FEFEFE" transform="translate(48.79777526855469,152.61231994628906)"/>
<path d="M0 0 C1.38942863 -0.0041782 2.77885385 -0.00965838 4.16827279 -0.01631981 C7.96735242 -0.03072861 11.76621427 -0.02654415 15.56530559 -0.019153 C19.66961552 -0.01441248 23.77387893 -0.02693873 27.87817383 -0.03717041 C35.91015761 -0.05434432 43.94206312 -0.05520164 51.9740605 -0.04995751 C58.50126276 -0.04591327 65.02844192 -0.04736237 71.55564308 -0.05270576 C72.94999753 -0.0538284 72.94999753 -0.0538284 74.37252075 -0.05497371 C76.26098456 -0.0565052 78.14944837 -0.05804355 80.03791217 -0.05958868 C97.7356482 -0.0733077 115.43333999 -0.0678794 133.131075 -0.05640347 C149.32514212 -0.04646361 165.51909511 -0.05942581 181.71314462 -0.08333766 C198.34499293 -0.10771092 214.97678803 -0.1173414 231.60865384 -0.11068493 C240.94483691 -0.10718981 250.2809321 -0.10944454 259.61710167 -0.12693596 C267.56141375 -0.14163542 275.50557602 -0.14232258 283.44988509 -0.12486505 C287.50334318 -0.11633553 291.5565334 -0.11425304 295.60997772 -0.1295166 C299.32020644 -0.14331507 303.02993655 -0.13866369 306.74013606 -0.11927737 C308.71860793 -0.11371323 310.69710487 -0.12782883 312.67552918 -0.14263147 C323.37711046 -0.05338358 323.37711046 -0.05338358 328.20222473 4.38768005 C331.72892049 8.27920641 332.32845684 11.82806882 332.32247925 16.96879578 C332.32454124 18.34013672 332.32454124 18.34013672 332.3266449 19.73918152 C332.32304962 20.73468018 332.31945435 21.73017883 332.31575012 22.75584412 C332.31589615 23.80981384 332.31604218 24.86378357 332.31619263 25.94969177 C332.31549583 29.43425045 332.30771426 32.91875571 332.29988098 36.40330505 C332.29801598 38.81897452 332.29659246 41.23464436 332.29559326 43.65031433 C332.29177459 50.00923201 332.28194981 56.36812686 332.27088928 62.72703552 C332.26066122 69.21547639 332.25609265 75.70392095 332.25105286 82.19236755 C332.240327 94.92414813 332.22345048 107.65591288 332.20222473 120.38768005 C333.63006287 120.3419989 333.63006287 120.3419989 335.08674622 120.2953949 C336.34044006 120.27170837 337.59413391 120.24802185 338.88581848 120.22361755 C340.74678162 120.1779364 340.74678162 120.1779364 342.64533997 120.1313324 C349.40757439 120.61869228 353.15407903 124.36720137 357.7855835 128.93614197 C361.02615818 132.88617988 360.90226863 136.56599126 360.83332825 141.51072693 C360.8440612 142.85820763 360.8440612 142.85820763 360.85501099 144.23291016 C360.87186803 147.19127335 360.85251285 150.14811475 360.83113098 153.10643005 C360.83195995 155.16856512 360.83442041 157.23070011 360.83843994 159.29283142 C360.8412959 163.61029499 360.82661612 167.92723921 360.79914856 172.24461365 C360.76506648 177.7729311 360.7710861 183.30032005 360.78981113 188.82868195 C360.80039034 193.08557342 360.79143486 197.34224963 360.77642632 201.59912109 C360.77125083 203.63723104 360.7717186 205.67536353 360.77797127 207.71347046 C360.78343451 210.56434807 360.76301262 213.41390602 360.735672 216.26463318 C360.74546082 217.52256432 360.74546082 217.52256432 360.75544739 218.8059082 C360.66878813 224.13231458 359.69687614 227.13768531 356.20222473 231.38768005 C349.21735435 237.54992116 341.16560938 238.43142299 332.20222473 238.38768005 C332.21221748 239.73618797 332.21221748 239.73618797 332.22241211 241.11193848 C332.282624 249.60094447 332.32825033 258.08987832 332.35766125 266.57904911 C332.37329022 270.9430054 332.39447765 275.30678463 332.42854309 279.67063904 C332.46123566 283.88519459 332.47909856 288.09958025 332.48685646 292.31425285 C332.49238225 293.91895152 332.50317276 295.52364131 332.5194149 297.12826729 C332.54132135 299.38298975 332.54418624 301.637018 332.5428009 303.89183044 C332.55279366 305.81376976 332.55279366 305.81376976 332.56298828 307.77453613 C332.01307453 313.28207018 330.37493105 317.07196077 326.63972473 321.26268005 C319.94848387 326.28714877 308.51471051 324.53016507 300.58892822 324.5146637 C298.73434536 324.51700368 298.73434536 324.51700368 296.84229618 324.51939094 C293.43565535 324.52267327 290.0290702 324.52151372 286.62243283 324.51840472 C282.93770419 324.51613226 279.25298025 324.51963964 275.56825256 324.52238464 C268.35555885 324.52682359 261.14287556 324.52587363 253.93018144 324.522972 C248.05725452 324.52070798 242.18433051 324.52040978 236.31140327 324.52149582 C235.47349107 324.52164905 234.63557886 324.52180229 233.77227538 324.52196016 C232.069549 324.52227992 230.36682262 324.52260413 228.66409624 324.52293275 C212.70406793 324.52578274 196.74404536 324.52250943 180.78401799 324.51713239 C167.13899351 324.51267706 153.49397756 324.51343069 139.84895325 324.51805115 C123.96689577 324.52342667 108.08484334 324.52549522 92.20278507 324.52243888 C90.50195094 324.52212038 88.80111681 324.52180601 87.10028267 324.52149582 C86.26369672 324.52134154 85.42711077 324.52118727 84.56517373 324.52102832 C78.7183079 324.52017114 72.87144532 324.52160893 67.02458 324.52397537 C59.8706629 324.52680732 52.71675675 324.52596517 45.56284087 324.52069463 C41.92431439 324.51810085 38.28580601 324.51697706 34.64727974 324.52034378 C21.16596092 324.53161949 7.69305857 324.46937816 -5.78152466 324.00849915 C-6.79820113 323.97866601 -7.8148776 323.94883288 -8.86236244 323.91809571 C-20.98413159 323.432838 -30.1220216 319.08262787 -38.79777527 310.38768005 C-38.79777527 309.72768005 -38.79777527 309.06768005 -38.79777527 308.38768005 C-39.78777527 308.05768005 -40.77777527 307.72768005 -41.79777527 307.38768005 C-43.11418152 305.6806488 -43.11418152 305.6806488 -44.36027527 303.57518005 C-44.77406433 302.88810974 -45.18785339 302.20103943 -45.61418152 301.4931488 C-46.00476746 300.79834412 -46.39535339 300.10353943 -46.79777527 299.38768005 C-47.14676549 298.77907355 -47.49575572 298.17046705 -47.85532141 297.54341793 C-48.91833443 295.111917 -49.05235708 293.43542121 -49.0606308 290.79040527 C-49.06831309 289.86674164 -49.07599538 288.943078 -49.08391047 287.99142456 C-49.0821775 286.98016006 -49.08044454 285.96889557 -49.07865906 284.92698669 C-49.0846013 283.84989441 -49.09054355 282.77280212 -49.09666586 281.66307068 C-49.11405715 278.04129469 -49.11705781 274.41965078 -49.12004089 270.7978363 C-49.12929623 268.20590939 -49.13934541 265.61398521 -49.15013123 263.02206421 C-49.17728948 255.97007429 -49.18934698 248.91810712 -49.19815254 241.86607361 C-49.20368084 237.45977803 -49.21215637 233.0534912 -49.22116089 228.64720154 C-49.24554896 216.440064 -49.26614456 204.23293347 -49.27291107 192.02577209 C-49.2733502 191.24451434 -49.27378934 190.46325659 -49.27424178 189.65832436 C-49.27467833 188.87522106 -49.27511489 188.09211775 -49.27556467 187.28528404 C-49.27645159 185.69848505 -49.27734472 184.11168607 -49.27824402 182.52488708 C-49.27868688 181.7377839 -49.27912974 180.95068072 -49.27958602 180.13972592 C-49.28747408 167.39922415 -49.3223565 154.65895172 -49.36896306 141.91853845 C-49.41646134 128.82828112 -49.44131813 115.73813864 -49.44364691 102.64779377 C-49.44547686 95.30210192 -49.45689041 87.95670859 -49.49328613 80.61109924 C-49.5274253 73.69662188 -49.53054055 66.78271836 -49.51300812 59.86818123 C-49.51146923 57.3350377 -49.52012852 54.80186356 -49.53992462 52.26879692 C-49.73582346 25.63218993 -49.73582346 25.63218993 -39.54777527 14.63768005 C-36.79777527 12.38768005 -36.79777527 12.38768005 -34.79777527 12.38768005 C-34.46777527 11.39768005 -34.13777527 10.40768005 -33.79777527 9.38768005 C-31.61027527 7.88768005 -31.61027527 7.88768005 -28.79777527 6.38768005 C-27.89027527 5.89268005 -26.98277527 5.39768005 -26.04777527 4.88768005 C-17.20195749 0.80499493 -9.75119993 -0.04589103 0 0 Z M-26.79777527 69.38768005 C-26.88027527 104.18205505 -26.96277527 138.97643005 -27.04777527 174.82518005 C-27.08419128 185.81113464 -27.1206073 196.79708923 -27.15812683 208.11595154 C-27.17150466 217.96465051 -27.17150466 217.96465051 -27.17955017 227.81335449 C-27.18327641 232.19970799 -27.19826481 236.5858678 -27.22007751 240.97216797 C-27.24754688 246.57025867 -27.25573382 252.16806837 -27.25006437 257.76622021 C-27.25124961 259.81879408 -27.25916213 261.87137793 -27.27463579 263.92389381 C-27.29460345 266.70196508 -27.28971063 269.47895211 -27.27879333 272.25704956 C-27.29044399 273.0554831 -27.30209465 273.85391665 -27.31409836 274.67654514 C-27.24231564 281.49680508 -25.23768924 287.42916088 -20.86808777 292.7275238 C-20.22613464 293.25475037 -19.58418152 293.78197693 -18.92277527 294.32518005 C-18.28597839 294.87045349 -17.64918152 295.41572693 -16.99308777 295.9775238 C-12.61336861 298.79083095 -8.26820636 299.63785486 -3.12439919 299.63377571 C-2.01169989 299.63775781 -0.8990006 299.6417399 0.24741685 299.64584267 C1.45947947 299.64001699 2.67154208 299.63419131 3.92033386 299.62818909 C5.21586296 299.62989794 6.51139205 299.63160679 7.8461796 299.63336742 C11.43556576 299.63783421 15.0248323 299.62984649 18.61420321 299.6198113 C22.4873445 299.61116946 26.36047911 299.61409748 30.23362732 299.61561584 C36.94194002 299.61666423 43.65021379 299.61039246 50.35851669 299.59914017 C60.05757532 299.58288187 69.75661515 299.57767682 79.45568593 299.57516418 C95.19201031 299.5707876 110.92831395 299.55747949 126.66462708 299.53855896 C141.95043331 299.52019921 157.23623391 299.50604317 172.52204895 299.49754333 C173.46436321 299.49701789 174.40667747 299.49649244 175.37754671 299.49595107 C180.10488939 299.49334098 184.8322321 299.49081357 189.55957484 299.48832726 C228.77380989 299.46759591 267.98800658 299.43072675 307.20222473 299.38768005 C307.20222473 278.59768005 307.20222473 257.80768005 307.20222473 236.38768005 C297.96222473 236.05768005 288.72222473 235.72768005 279.20222473 235.38768005 C265.45222473 229.88768005 265.45222473 229.88768005 263.20222473 225.38768005 C262.54222473 225.38768005 261.88222473 225.38768005 261.20222473 225.38768005 C261.07847473 224.60393005 260.95472473 223.82018005 260.82722473 223.01268005 C260.4110448 220.24710184 260.4110448 220.24710184 258.20222473 218.38768005 C256.90644516 214.80823461 257.03427367 211.16313441 256.97761536 207.39109802 C256.96622528 206.69456619 256.95483521 205.99803436 256.94309998 205.28039551 C256.83252492 198.00290557 256.78503643 190.72442627 256.74226379 183.4462738 C256.7200196 180.00077793 256.67829141 176.55637051 256.61921692 173.11131287 C256.54780236 168.9373897 256.5113851 164.76448757 256.49914551 160.58998489 C256.48880049 159.007204 256.46650931 157.42445051 256.43154907 155.84202194 C256.22357829 145.91320006 257.04555005 138.94451208 264.20222473 131.38768005 C271.05759859 124.34702582 280.24576246 122.94509606 289.67341614 122.68553162 C291.04417297 122.6697406 292.41492981 122.65394958 293.82722473 122.63768005 C298.24097473 122.55518005 302.65472473 122.47268005 307.20222473 122.38768005 C307.20222473 104.89768005 307.20222473 87.40768005 307.20222473 69.38768005 C196.98222473 69.38768005 86.76222473 69.38768005 -26.79777527 69.38768005 Z " fill="#29B94D" transform="translate(48.79777526855469,152.61231994628906)"/>
<path d="M0 0 C1.4298806 0.00084764 2.85976249 0.00036846 4.28964233 -0.00132751 C8.14654068 -0.00218357 12.00315561 0.01537841 15.85998845 0.03639436 C19.89984378 0.05522669 23.93970655 0.05691674 27.979599 0.06047058 C35.61858566 0.06977187 43.25744257 0.09435953 50.89637226 0.12451905 C59.59772718 0.15812293 68.2990885 0.17456408 77.00049222 0.18960536 C94.88964512 0.22091094 112.77866964 0.2742426 130.66772461 0.34057617 C130.66772461 7.60057617 130.66772461 14.86057617 130.66772461 22.34057617 C128.0889299 22.34604462 128.0889299 22.34604462 125.45803833 22.35162354 C109.24384415 22.3885898 93.02984571 22.44614486 76.81579781 22.52447891 C68.48030414 22.56422463 60.14490427 22.59663974 51.80932617 22.61157227 C44.54083981 22.62461203 37.27256022 22.6516357 30.00419033 22.69518924 C26.15848554 22.71775209 22.31303529 22.73348999 18.46725845 22.73246002 C14.840804 22.73171032 11.21491109 22.74978394 7.58860207 22.781744 C5.63679016 22.794205 3.6848837 22.78720319 1.73304749 22.7794342 C-7.06460014 22.88287252 -13.8282055 24.46563794 -21.26977539 29.21557617 C-25.4769012 33.55019064 -26.34166117 37.39689088 -27.33227539 43.34057617 C25.13772461 43.34057617 77.60772461 43.34057617 131.66772461 43.34057617 C131.66772461 50.93057617 131.66772461 58.52057617 131.66772461 66.34057617 C79.19772461 66.67057617 26.72772461 67.00057617 -27.33227539 67.34057617 C-27.44880477 104.80052027 -27.44880477 104.80052027 -27.52758789 142.26049805 C-27.55132666 157.53553638 -27.5792408 172.81048649 -27.6340332 188.08544922 C-27.67391837 199.2098979 -27.69971239 210.33427503 -27.70862937 221.45879322 C-27.71384121 227.34844226 -27.72607935 233.23788662 -27.75519562 239.12747002 C-27.78239102 244.67355642 -27.79071193 250.21935427 -27.78470612 255.76550102 C-27.78580449 257.7983965 -27.79373361 259.83130184 -27.80909729 261.86413956 C-27.82908967 264.64642606 -27.82418088 267.42763257 -27.81329346 270.20994568 C-27.82494482 271.00861114 -27.83659619 271.80727661 -27.84860063 272.63014406 C-27.77985525 279.15923566 -26.11398018 285.27717742 -21.64079499 290.20334715 C-13.75229566 297.56243007 -5.96770742 297.78446008 4.40576172 297.77294922 C5.79594794 297.78197553 7.18612622 297.79230488 8.57629395 297.80383301 C12.3340453 297.83132735 16.09164533 297.84067716 19.84948421 297.84668708 C23.78265637 297.85609054 27.71571638 297.88229548 31.64881897 297.9066925 C39.08945826 297.95030707 46.53007571 297.97888495 53.9708038 298.00201589 C62.44487203 298.02909465 70.91882715 298.07300448 79.39281452 298.11830461 C96.81772835 298.21107863 114.2426628 298.28219547 131.66772461 298.34057617 C131.66772461 305.60057617 131.66772461 312.86057617 131.66772461 320.34057617 C115.81271426 320.36371237 99.95770987 320.38156426 84.10268688 320.39238834 C76.74114088 320.39754745 69.37960556 320.40458283 62.01806641 320.41601562 C55.60271441 320.42597421 49.18737014 320.43243241 42.77201062 320.43466467 C39.37426981 320.43596977 35.97655111 320.43904302 32.57881737 320.44630623 C28.78837123 320.45352979 24.99797141 320.45456655 21.20751953 320.45410156 C19.51251312 320.45949448 19.51251312 320.45949448 17.78326416 320.46499634 C16.75261337 320.46362167 15.72196259 320.46224701 14.66007996 320.46083069 C13.3147231 320.46221338 13.3147231 320.46221338 11.94218731 320.463624 C9.66772461 320.34057617 9.66772461 320.34057617 6.66772461 319.34057617 C6.66772461 319.67057617 6.66772461 320.00057617 6.66772461 320.34057617 C3.66747514 320.39501618 0.66823422 320.43445978 -2.33227539 320.46557617 C-3.17145508 320.48233398 -4.01063477 320.4990918 -4.87524414 320.51635742 C-9.03672631 320.54861697 -12.74157093 320.36769117 -16.76977539 319.27026367 C-20.26009731 318.0134442 -20.26009731 318.0134442 -23.33227539 319.34057617 C-29.64484139 317.12234931 -35.86873426 313.38053486 -40.33227539 308.34057617 C-40.33227539 307.68057617 -40.33227539 307.02057617 -40.33227539 306.34057617 C-41.32227539 306.01057617 -42.31227539 305.68057617 -43.33227539 305.34057617 C-44.64868164 303.63354492 -44.64868164 303.63354492 -45.89477539 301.52807617 C-46.30856445 300.84100586 -46.72235352 300.15393555 -47.14868164 299.44604492 C-47.53926758 298.75124023 -47.92985352 298.05643555 -48.33227539 297.34057617 C-48.68126562 296.73196967 -49.03025584 296.12336317 -49.38982153 295.49631405 C-50.45283455 293.06481312 -50.58685721 291.38831733 -50.59513092 288.74330139 C-50.60281321 287.81963776 -50.6104955 286.89597412 -50.61841059 285.94432068 C-50.61667762 284.93305618 -50.61494466 283.92179169 -50.61315918 282.87988281 C-50.61910142 281.80279053 -50.62504367 280.72569824 -50.63116598 279.6159668 C-50.64855727 275.99419081 -50.65155793 272.3725469 -50.65454102 268.75073242 C-50.66379635 266.15880551 -50.67384553 263.56688132 -50.68463135 260.97496033 C-50.7117896 253.92297041 -50.72384711 246.87100324 -50.73265266 239.81896973 C-50.73818096 235.41267415 -50.74665649 231.00638732 -50.75566101 226.60009766 C-50.78004908 214.39296012 -50.80064468 202.18582959 -50.80741119 189.97866821 C-50.80785033 189.19741046 -50.80828946 188.41615271 -50.8087419 187.61122048 C-50.80917845 186.82811717 -50.80961501 186.04501387 -50.81006479 185.23818016 C-50.81095172 183.65138117 -50.81184484 182.06458219 -50.81274414 180.4777832 C-50.813187 179.69068002 -50.81362986 178.90357684 -50.81408614 178.09262204 C-50.8219742 165.35212026 -50.85685662 152.61184783 -50.90346318 139.87143457 C-50.95096147 126.78117723 -50.97581825 113.69103476 -50.97814703 100.60068989 C-50.97997699 93.25499804 -50.99139053 85.90960471 -51.02778625 78.56399536 C-51.06192542 71.649518 -51.06504067 64.73561448 -51.04750824 57.82107735 C-51.04596935 55.28793382 -51.05462864 52.75475968 -51.07442474 50.22169304 C-51.26832755 23.85648974 -51.26832755 23.85648974 -41.33227539 12.71557617 C-38.22758766 10.25769839 -36.09018595 9.44584398 -32.33227539 8.34057617 C-30.17242783 7.17065874 -28.06807904 5.93242639 -25.96899414 4.65698242 C-17.35971096 0.35871808 -9.53480951 -0.07964522 0 0 Z " fill="#1A6330" transform="translate(50.332275390625,154.659423828125)"/>
<path d="M0 0 C1.29638352 -0.00170885 2.59276704 -0.0034177 3.92843491 -0.00517833 C7.51556184 -0.00963954 11.1025688 -0.00166512 14.68968046 0.00837779 C18.56212246 0.01702772 22.43455789 0.01409104 26.30700684 0.01257324 C33.0125736 0.01152537 39.7181014 0.01779179 46.42365837 0.02904892 C56.118721 0.04531416 65.81376482 0.05051297 75.50883961 0.0530249 C91.23906314 0.0574004 106.9692659 0.07070556 122.69947815 0.08963013 C137.97844845 0.10799269 153.2574131 0.12214736 168.53639221 0.13064575 C169.94946952 0.13143392 169.94946952 0.13143392 171.39109384 0.13223802 C176.11716588 0.13484812 180.84323796 0.13737553 185.56931007 0.13986182 C224.76676684 0.16058979 263.96419989 0.19596021 303.16163635 0.24050903 C303.16163635 6.84050903 303.16163635 13.44050903 303.16163635 20.24050903 C193.27163635 20.24050903 83.38163635 20.24050903 -29.83836365 20.24050903 C-29.83836365 12.68557333 -27.7089235 9.11106888 -22.46336365 3.86550903 C-15.41309516 -0.49894289 -8.04447446 -0.03875827 0 0 Z " fill="#FAFEFB" transform="translate(52.83836364746094,177.75949096679688)"/>
<path d="M0 0 C3.01299308 1.77417981 5.4111938 3.82238761 7 7 C7.57300474 11.08265875 7.81093652 13.60064003 5.71875 17.2109375 C3.90036931 19.56656703 1.98737586 21.78517588 0 24 C-0.71800781 24.84820312 -1.43601562 25.69640625 -2.17578125 26.5703125 C-6.12599542 31.1776921 -6.12599542 31.1776921 -8 33 C-8.66 33 -9.32 33 -10 33 C-10.21398437 33.53238281 -10.42796875 34.06476563 -10.6484375 34.61328125 C-12.50977113 37.90020278 -15.03852792 40.46856172 -17.625 43.1875 C-18.70917566 44.34035426 -19.79250574 45.4940043 -20.875 46.6484375 C-21.40609375 47.21401367 -21.9371875 47.77958984 -22.484375 48.36230469 C-25.23180758 51.33101889 -27.85541775 54.40815967 -30.4765625 57.48828125 C-32 59 -32 59 -34 59 C-34.2475 59.556875 -34.495 60.11375 -34.75 60.6875 C-37.3630918 65.52171983 -41.14650976 69.14650976 -45 73 C-45.66 73.825 -46.32 74.65 -47 75.5 C-49.1711083 78.21388537 -51.5260318 80.55739196 -54 83 C-63.32711517 92.15072389 -63.32711517 92.15072389 -72.109375 101.81640625 C-74.78711378 104.90908389 -77.54651526 107.92377249 -80.3125 110.9375 C-80.84109619 111.51822266 -81.36969238 112.09894531 -81.91430664 112.69726562 C-86.71634383 117.91582582 -86.71634383 117.91582582 -91.8125 118.25 C-95.70629689 118.40063044 -97.84424321 117.25956 -101 115 C-102.93158055 113.07682981 -104.7561215 111.15774021 -106.5625 109.125 C-107.61695642 107.95942633 -108.6716511 106.79406815 -109.7265625 105.62890625 C-110.26442383 105.03094238 -110.80228516 104.43297852 -111.35644531 103.81689453 C-112.98197529 102.01992571 -114.62371344 100.23960682 -116.2734375 98.46484375 C-116.80380615 97.89427246 -117.3341748 97.32370117 -117.88061523 96.73583984 C-118.88745761 95.6536856 -119.89475135 94.57195106 -120.90258789 93.49072266 C-123.23905917 90.96803149 -125.51132701 88.41554305 -127.703125 85.765625 C-129.92456074 83.00436981 -129.92456074 83.00436981 -132.3125 80.6875 C-133.6428125 79.3571875 -133.6428125 79.3571875 -135 78 C-135.6909375 77.35289062 -136.381875 76.70578125 -137.09375 76.0390625 C-140.91368458 72.20567745 -143.54427705 69.37812619 -143.8125 63.8125 C-143.39653127 58.77378438 -141.65438105 56.39335383 -138 53 C-134.85575698 51.42787849 -131.42208708 51.4820625 -128 52 C-123.38981651 54.16595896 -120.44216139 57.50776588 -117.125 61.25 C-116.06232756 62.42680232 -114.9985335 63.60259282 -113.93359375 64.77734375 C-113.17344971 65.61821533 -113.17344971 65.61821533 -112.39794922 66.47607422 C-110.71432203 68.31142191 -108.96855415 70.07183257 -107.1875 71.8125 C-104.79946575 74.14836846 -102.60614921 76.58390887 -100.4375 79.125 C-97.53732184 82.49760537 -94.50352579 85.26554084 -91 88 C-90.7421875 87.42765625 -90.484375 86.8553125 -90.21875 86.265625 C-88.88634058 83.78871005 -87.34943882 81.8658834 -85.5 79.75 C-84.58734375 78.69039062 -84.58734375 78.69039062 -83.65625 77.609375 C-82 76 -82 76 -80 76 C-79.773125 75.4225 -79.54625 74.845 -79.3125 74.25 C-78 72 -78 72 -75.8125 70.3125 C-73.30427678 68.25018313 -71.78463719 66.51115971 -69.875 63.9375 C-66.12246376 58.94240209 -61.83241316 54.71772971 -57.35546875 50.3828125 C-54.88729716 48.03727114 -54.88729716 48.03727114 -53 45 C-52.34 45 -51.68 45 -51 45 C-50.7421875 44.42765625 -50.484375 43.8553125 -50.21875 43.265625 C-48.88634058 40.78871005 -47.34943882 38.8658834 -45.5 36.75 C-44.8915625 36.04359375 -44.283125 35.3371875 -43.65625 34.609375 C-42 33 -42 33 -40 33 C-39.67 32.01 -39.34 31.02 -39 30 C-38.34 30 -37.68 30 -37 30 C-36.73574219 29.40703125 -36.47148437 28.8140625 -36.19921875 28.203125 C-34.95629575 25.91970946 -33.69598354 24.52573277 -31.8125 22.75 C-28.68903666 19.71651297 -25.81486881 16.55416073 -22.96875 13.26171875 C-20.56848924 10.50427633 -18.13529962 7.77767668 -15.6875 5.0625 C-14.84574219 4.12535156 -14.00398437 3.18820312 -13.13671875 2.22265625 C-9.12956296 -1.94566485 -5.36262856 -1.34065714 0 0 Z " fill="#29B94B" transform="translate(264,275)"/>
<path d="M0 0 C0.97262787 0.00444122 1.94525574 0.00888245 2.94735718 0.01345825 C4.06376587 0.01369995 5.18017456 0.01394165 6.33041382 0.01419067 C8.09638916 0.02953857 8.09638916 0.02953857 9.89804077 0.04519653 C11.51682129 0.04821777 11.51682129 0.04821777 13.16830444 0.05130005 C17.21107211 0.06178749 21.25377933 0.08970992 25.29647827 0.11550903 C34.33022827 0.15675903 43.36397827 0.19800903 52.67147827 0.24050903 C52.67147827 22.35050903 52.67147827 44.46050903 52.67147827 67.24050903 C43.63772827 67.28175903 34.60397827 67.32300903 25.29647827 67.36550903 C21.01671021 67.39282104 21.01671021 67.39282104 16.65048218 67.42068481 C14.39967029 67.4265237 12.14885631 67.43162068 9.89804077 67.43582153 C8.72072388 67.44605347 7.54340698 67.4562854 6.33041382 67.46682739 C5.21400513 67.46706909 4.09759644 67.46731079 2.94735718 67.46755981 C1.48841537 67.47422165 1.48841537 67.47422165 0 67.48101807 C-2.32852173 67.24050903 -2.32852173 67.24050903 -4.32852173 65.24050903 C-4.58248901 62.62173462 -4.58248901 62.62173462 -4.58731079 59.26199341 C-4.59361511 58.00729248 -4.59991943 56.75259155 -4.60641479 55.45986938 C-4.60283511 54.08466451 -4.59873318 52.70946092 -4.59414673 51.33425903 C-4.59549346 49.9294325 -4.59743405 48.52460643 -4.59994507 47.11978149 C-4.60289599 44.17413907 -4.59859982 41.22861785 -4.58926392 38.2829895 C-4.57786928 34.50312401 -4.58442894 30.72354251 -4.59640884 26.94368744 C-4.60362838 24.04238741 -4.60133911 21.14115495 -4.59615326 18.23985291 C-4.59481702 16.84596218 -4.59646361 15.45206537 -4.60111237 14.05818176 C-4.60617884 12.11179722 -4.59709043 10.16539123 -4.58731079 8.21902466 C-4.5857196 7.11031006 -4.58412842 6.00159546 -4.58248901 4.85928345 C-4.24962559 1.42697435 -3.48516398 0.35997664 0 0 Z " fill="#FEFEFE" transform="translate(333.3285217285156,297.7594909667969)"/>
<path d="M0 0 C4.61018349 2.16595896 7.55783861 5.50776588 10.875 9.25 C11.93767244 10.42680232 13.0014665 11.60259282 14.06640625 12.77734375 C14.82655029 13.61821533 14.82655029 13.61821533 15.60205078 14.47607422 C17.28567797 16.31142191 19.03144585 18.07183257 20.8125 19.8125 C23.20053425 22.14836846 25.39385079 24.58390887 27.5625 27.125 C30.46267816 30.49760537 33.49647421 33.26554084 37 36 C37.226875 35.443125 37.45375 34.88625 37.6875 34.3125 C39.37550036 31.33840412 41.46676517 29.27991135 44 27 C44.66 27 45.32 27 46 27 C45.98058005 31.91210489 45.92886826 36.82241807 45.84741211 41.73388672 C45.82423812 43.40403476 45.80983775 45.07432881 45.80444336 46.74462891 C45.79514864 49.14838579 45.7541534 51.54984841 45.70703125 53.953125 C45.71293022 55.0705307 45.71293022 55.0705307 45.71894836 56.21051025 C45.61092623 60.06231193 45.32120249 61.67126502 42.5847168 64.47192383 C40.07329179 65.95667013 38.86282145 66.52407726 36 66.4375 C35.360625 66.43621094 34.72125 66.43492187 34.0625 66.43359375 C28.4933879 65.2628145 25.06819372 61.21066484 21.4375 57.125 C20.38304358 55.95942633 19.3283489 54.79406815 18.2734375 53.62890625 C17.73557617 53.03094238 17.19771484 52.43297852 16.64355469 51.81689453 C15.01802471 50.01992571 13.37628656 48.23960682 11.7265625 46.46484375 C11.19619385 45.89427246 10.6658252 45.32370117 10.11938477 44.73583984 C9.11254239 43.6536856 8.10524865 42.57195106 7.09741211 41.49072266 C4.76094083 38.96803149 2.48867299 36.41554305 0.296875 33.765625 C-1.92456074 31.00436981 -1.92456074 31.00436981 -4.3125 28.6875 C-5.199375 27.800625 -6.08625 26.91375 -7 26 C-7.6909375 25.35289062 -8.381875 24.70578125 -9.09375 24.0390625 C-12.91368458 20.20567745 -15.54427705 17.37812619 -15.8125 11.8125 C-15.39653127 6.77378438 -13.65438105 4.39335383 -10 1 C-6.85575698 -0.57212151 -3.42208708 -0.5179375 0 0 Z " fill="#1C6433" transform="translate(136,327)"/>
<path d="M0 0 C0.33 0 0.66 0 1 0 C1 21.45 1 42.9 1 65 C-55.43 65.33 -111.86 65.66 -170 66 C-171.2905062 71.8072779 -172.36156928 77.14771843 -173 83 C-172.16283951 83.01030746 -171.32567902 83.02061493 -170.46315002 83.03123474 C-162.59025264 83.12903782 -154.71743342 83.23152725 -146.84466648 83.33933926 C-142.79678183 83.39460529 -138.74889 83.44803102 -134.70092773 83.49731445 C-130.79757638 83.54490393 -126.89431551 83.5972445 -122.9910717 83.65294075 C-121.49868955 83.67338894 -120.00628257 83.69209787 -118.51385689 83.70907402 C-116.43045151 83.7330638 -114.3472186 83.76312519 -112.26391602 83.79467773 C-111.07588882 83.81022202 -109.88786163 83.8257663 -108.66383362 83.84178162 C-106 84 -106 84 -105 85 C-101.36805359 85.19149081 -101.36805359 85.19149081 -98 84 C-98 84.66 -98 85.32 -98 86 C-96.741875 85.690625 -95.48375 85.38125 -94.1875 85.0625 C-80.7539843 82.08200523 -80.7539843 82.08200523 -75 84 C-72.20071909 84.22255993 -69.4168612 84.39888334 -66.61328125 84.53515625 C-65.38776802 84.59962196 -65.38776802 84.59962196 -64.13749695 84.66539001 C-61.52935056 84.80168311 -58.92095008 84.93216151 -56.3125 85.0625 C-54.54359996 85.15391393 -52.77471943 85.24570621 -51.00585938 85.33789062 C-46.67078704 85.56298376 -42.33547782 85.78286263 -38 86 C-38 86.66 -38 87.32 -38 88 C-70.82431173 88.02296358 -103.64862136 88.0405474 -136.47293931 88.05106533 C-140.3612727 88.05231581 -144.24960608 88.05361016 -148.13793945 88.05493164 C-149.2989285 88.05532511 -149.2989285 88.05532511 -150.48337186 88.05572652 C-162.96304758 88.06006018 -175.44271863 88.06793488 -187.92239159 88.0771528 C-200.75832288 88.08655373 -213.59425174 88.09206915 -226.43018633 88.09408849 C-234.33012945 88.09545044 -242.23005935 88.09972806 -250.12999839 88.10791647 C-256.22051175 88.11390205 -262.31101533 88.11444287 -268.40153122 88.11310768 C-270.87598183 88.11337959 -273.35043301 88.115325 -275.8248806 88.11920547 C-288.24272001 88.13770054 -300.63968947 88.02254278 -313.04981995 87.55540466 C-314.12243889 87.51660913 -315.19505783 87.47781359 -316.30018038 87.43784243 C-317.28286868 87.39645142 -318.26555698 87.35506041 -319.27802372 87.31241512 C-320.14435651 87.27647997 -321.0106893 87.24054481 -321.9032746 87.20352072 C-324 87 -324 87 -326 86 C-326 85.34 -326 84.68 -326 84 C-326.66 83.67 -327.32 83.34 -328 83 C-327.48695313 83.144375 -326.97390625 83.28875 -326.4453125 83.4375 C-320.4461609 84.89183978 -314.64397861 85.22069062 -308.5 85.25 C-307.69836426 85.25902344 -306.89672852 85.26804687 -306.07080078 85.27734375 C-301.56083379 85.43910592 -301.56083379 85.43910592 -298 83 C-298 83.66 -298 84.32 -298 85 C-257.08 85.33 -216.16 85.66 -174 86 C-174 78.74 -174 71.48 -174 64 C-220.53 64 -267.06 64 -315 64 C-315 63.67 -315 63.34 -315 63 C-211.05 63 -107.1 63 0 63 C0 42.21 0 21.42 0 0 Z " fill="#4AA862" transform="translate(356,389)"/>
<path d="M0 0 C1.38942863 -0.0041782 2.77885385 -0.00965838 4.16827279 -0.01631981 C7.96735242 -0.03072861 11.76621427 -0.02654415 15.56530559 -0.019153 C19.66961552 -0.01441248 23.77387893 -0.02693873 27.87817383 -0.03717041 C35.91015761 -0.05434432 43.94206312 -0.05520164 51.9740605 -0.04995751 C58.50126276 -0.04591327 65.02844192 -0.04736237 71.55564308 -0.05270576 C72.94999753 -0.0538284 72.94999753 -0.0538284 74.37252075 -0.05497371 C76.26098456 -0.0565052 78.14944837 -0.05804355 80.03791217 -0.05958868 C97.7356482 -0.0733077 115.43333999 -0.0678794 133.131075 -0.05640347 C149.32514212 -0.04646361 165.51909511 -0.05942581 181.71314462 -0.08333766 C198.34499293 -0.10771092 214.97678803 -0.1173414 231.60865384 -0.11068493 C240.94483691 -0.10718981 250.2809321 -0.10944454 259.61710167 -0.12693596 C267.56141375 -0.14163542 275.50557602 -0.14232258 283.44988509 -0.12486505 C287.50334318 -0.11633553 291.5565334 -0.11425304 295.60997772 -0.1295166 C299.32020644 -0.14331507 303.02993655 -0.13866369 306.74013606 -0.11927737 C308.71860793 -0.11371323 310.69710487 -0.12782883 312.67552918 -0.14263147 C323.37711046 -0.05338358 323.37711046 -0.05338358 328.20222473 4.38768005 C331.72892049 8.27920641 332.32845684 11.82806882 332.32247925 16.96879578 C332.32454124 18.34013672 332.32454124 18.34013672 332.3266449 19.73918152 C332.32304962 20.73468018 332.31945435 21.73017883 332.31575012 22.75584412 C332.31589615 23.80981384 332.31604218 24.86378357 332.31619263 25.94969177 C332.31549583 29.43425045 332.30771426 32.91875571 332.29988098 36.40330505 C332.29801598 38.81897452 332.29659246 41.23464436 332.29559326 43.65031433 C332.29177459 50.00923201 332.28194981 56.36812686 332.27088928 62.72703552 C332.26066122 69.21547639 332.25609265 75.70392095 332.25105286 82.19236755 C332.240327 94.92414813 332.22345048 107.65591288 332.20222473 120.38768005 C333.63006287 120.3419989 333.63006287 120.3419989 335.08674622 120.2953949 C336.34044006 120.27170837 337.59413391 120.24802185 338.88581848 120.22361755 C340.74678162 120.1779364 340.74678162 120.1779364 342.64533997 120.1313324 C348.06662568 120.52204899 351.30156566 122.76800066 355.20222473 126.38768005 C356.02206848 127.14178162 356.02206848 127.14178162 356.85847473 127.91111755 C359.34606007 130.52308216 360.18052241 132.15329503 360.51472473 135.76268005 C360.41159973 136.62893005 360.30847473 137.49518005 360.20222473 138.38768005 C359.11348228 136.75456638 358.02536993 135.121029 356.94050598 133.4853363 C353.7649333 128.95253256 350.71021154 124.96114347 345.20222473 123.38768005 C342.60451124 123.12540842 340.05159455 122.92222683 337.44831848 122.7900238 C336.75121765 122.74937805 336.05411682 122.7087323 335.33589172 122.66685486 C333.62499804 122.56793809 331.91364563 122.4770121 330.20222473 122.38768005 C330.19891459 121.8305322 330.19560444 121.27338434 330.19219398 120.69935322 C330.11093883 107.13655806 330.01871341 93.5738756 329.91469765 80.01123524 C329.86472766 73.45241224 329.81839749 66.8936054 329.78034973 60.33470154 C329.74350608 54.0063526 329.69714828 47.67813866 329.64416122 41.34990501 C329.62561245 38.93418938 329.61050629 36.5184448 329.59888077 34.10268593 C329.5820269 30.72203845 329.5529932 27.34170046 329.52107239 23.96116638 C329.5189122 22.95991226 329.51675201 21.95865814 329.51452637 20.92706299 C329.45877963 16.31283217 329.38728082 12.5682987 327.20222473 8.38768005 C326.76909973 7.27393005 326.76909973 7.27393005 326.32722473 6.13768005 C325.36562748 4.24745568 325.36562748 4.24745568 323.48659182 3.78669387 C320.79525736 3.31659445 318.26087739 3.25831608 315.52735138 3.25345898 C314.36333345 3.24900113 313.19931552 3.24454329 312.00002432 3.23995036 C310.72028439 3.24013472 309.44054446 3.24031908 308.12202454 3.24050903 C306.74944025 3.23720917 305.37685693 3.23348334 304.00427485 3.22936755 C300.22835248 3.21935313 296.45244601 3.21563165 292.67651224 3.21297824 C288.60541516 3.20907347 284.53433064 3.19949516 280.46324158 3.19076538 C270.62865335 3.17100452 260.79406409 3.16093464 250.95946097 3.15203759 C246.32670255 3.14765354 241.69394527 3.14228698 237.06118774 3.13704872 C221.65775032 3.12003582 206.2543136 3.1055425 190.85086823 3.09829998 C186.85372924 3.09639012 182.85659026 3.09446978 178.85945129 3.09251404 C177.36926789 3.09178843 177.36926789 3.09178843 175.84897977 3.09104816 C159.76212086 3.08275106 143.67533639 3.05741983 127.58850998 3.02493336 C111.06754261 2.9918426 94.54661303 2.97384934 78.02561235 2.97065574 C68.75174882 2.96849237 59.4779938 2.95976922 50.2041626 2.93419456 C42.30456502 2.9124599 34.4051023 2.90445069 26.5054782 2.91416135 C22.47762833 2.91869822 18.45005655 2.91685582 14.42224503 2.8973999 C10.72817445 2.8797109 7.03458365 2.88081181 3.34050757 2.89629719 C1.38510737 2.89977831 -0.57029819 2.88368978 -2.52562761 2.86669272 C-13.88930621 2.94898841 -22.78313836 5.48285178 -31.79777527 12.38768005 C-32.78777527 12.38768005 -33.77777527 12.38768005 -34.79777527 12.38768005 C-33.52059216 8.55613072 -32.29892911 8.2549621 -28.79777527 6.38768005 C-27.89027527 5.89268005 -26.98277527 5.39768005 -26.04777527 4.88768005 C-17.20195749 0.80499493 -9.75119993 -0.04589103 0 0 Z " fill="#438A5A" transform="translate(48.79777526855469,152.61231994628906)"/>
<path d="M0 0 C0.98989473 0.00042423 1.97978946 0.00084846 2.999681 0.00128555 C28.18729907 0.01226516 53.37489649 0.03337724 78.5625 0.0625 C78.5625 18.5425 78.5625 37.0225 78.5625 56.0625 C75.6405231 57.52348845 73.06356525 57.17384901 69.8046875 57.16015625 C68.81011032 57.15803383 68.81011032 57.15803383 67.79544067 57.15586853 C65.67608137 57.15026754 63.55682741 57.137715 61.4375 57.125 C60.00130361 57.11998512 58.56510556 57.11542219 57.12890625 57.11132812 C53.60673655 57.10029782 50.08462855 57.08303259 46.5625 57.0625 C46.5625 57.7225 46.5625 58.3825 46.5625 59.0625 C44.9125 58.7325 43.2625 58.4025 41.5625 58.0625 C44.43926814 55.18573186 46.56760812 55.09984459 50.58691406 54.94897461 C51.73901367 54.95421143 52.89111328 54.95944824 54.078125 54.96484375 C55.76856934 54.96859009 55.76856934 54.96859009 57.49316406 54.97241211 C58.91854492 54.98151611 60.34392578 54.99062012 61.8125 55 C66.35 55.020625 70.8875 55.04125 75.5625 55.0625 C75.5625 37.5725 75.5625 20.0825 75.5625 2.0625 C-34.3275 2.0625 -144.2175 2.0625 -257.4375 2.0625 C-257.4375 1.7325 -257.4375 1.4025 -257.4375 1.0625 C-234.62508705 0.88335698 -211.81258377 0.71829165 -189 0.5625 C-187.69658102 0.55357719 -187.69658102 0.55357719 -186.36683035 0.54447412 C-124.24426383 0.12016813 -62.1239496 -0.02742388 0 0 Z " fill="#72BE87" transform="translate(280.4375,219.9375)"/>
<path d="M0 0 C57.42 0 114.84 0 174 0 C174 0.66 174 1.32 174 2 C170.52120205 3.15959932 167.85688115 3.10664107 164.18537903 3.08229065 C163.48861185 3.07906152 162.79184468 3.07583239 162.07396334 3.07250541 C159.73390523 3.0604196 157.39396382 3.04104899 155.05395508 3.02172852 C153.37865961 3.01158686 151.70336138 3.00189307 150.02806091 2.99261475 C145.4746268 2.96612239 140.92125681 2.93334517 136.36787248 2.89946485 C131.6112938 2.86513308 126.85468075 2.83654624 122.09806824 2.80735779 C113.08831607 2.75119346 104.07860695 2.68984015 95.06890172 2.62663645 C84.81270431 2.55494013 74.55647241 2.48900737 64.30023348 2.42356598 C43.20011085 2.28880415 22.10004222 2.14678083 1 2 C1.144375 2.928125 1.28875 3.85625 1.4375 4.8125 C2.11504126 9.85641826 2.53924355 14.93167906 3 20 C87.645 20.495 87.645 20.495 174 21 C174 21.33 174 21.66 174 22 C116.58 22 59.16 22 0 22 C0 14.74 0 7.48 0 0 Z " fill="#3BB05A" transform="translate(182,198)"/>
<path d="M0 0 C0 0.66 0 1.32 0 2 C0.99 2.33 1.98 2.66 3 3 C2.91534603 11.0761788 2.82036737 19.15214408 2.71247292 27.2280426 C2.66268334 30.97865147 2.61635295 34.72923453 2.578125 38.47998047 C2.54105164 42.10463229 2.4946344 45.7290585 2.44193649 49.35351562 C2.42350894 50.73124199 2.40835878 52.10901651 2.39665604 53.48681641 C2.33385716 60.62941611 2.15618448 67.16073413 0 74 C-7.13497872 74.05083199 -14.26991048 74.08578906 -21.4050293 74.10986328 C-23.8308283 74.11990263 -26.25661526 74.13353687 -28.68237305 74.15087891 C-32.17499775 74.17521775 -35.66746202 74.186504 -39.16015625 74.1953125 C-40.77930687 74.21079636 -40.77930687 74.21079636 -42.4311676 74.22659302 C-48.01579081 74.22741967 -52.74554796 73.95525064 -58 72 C-59.82032246 70.17967754 -59.2010078 67.32710704 -59.25292969 64.87548828 C-59.28255798 63.56387726 -59.31218628 62.25226624 -59.3427124 60.90090942 C-59.36965975 59.45738746 -59.39603329 58.01385468 -59.421875 56.5703125 C-59.43573494 55.84682491 -59.44959488 55.12333733 -59.46387482 54.37792587 C-59.53720128 50.54906793 -59.60475613 46.72015911 -59.66748047 42.89111328 C-59.73339813 38.93056893 -59.81799954 34.97065836 -59.9070549 31.01057625 C-59.97212927 27.97043199 -60.02362372 24.9301666 -60.07138824 21.88970566 C-60.0966646 20.42955822 -60.12703594 18.96948989 -60.16255951 17.50955582 C-60.21092351 15.46776001 -60.23827534 13.42549903 -60.26464844 11.38330078 C-60.28605896 10.22049591 -60.30746948 9.05769104 -60.32952881 7.85964966 C-60 5 -60 5 -58.70394897 3.14376831 C-53.44781305 -0.38438998 -44.53579882 0.88354684 -38.4453125 0.9375 C-37.46255341 0.94128662 -36.47979431 0.94507324 -35.46725464 0.94897461 C-32.35312347 0.96111414 -29.23908839 0.97975987 -26.125 1 C-22.00260692 1.02652275 -17.88025836 1.04652268 -13.7578125 1.0625 C-12.33446091 1.07494751 -12.33446091 1.07494751 -10.88235474 1.08764648 C-10.00739349 1.09094971 -9.13243225 1.09425293 -8.23095703 1.09765625 C-7.46010773 1.10289307 -6.68925842 1.10812988 -5.89505005 1.11352539 C-3.64649303 0.97882271 -2.27181204 0 0 0 Z M-57 6 C-57.30738873 8.73760747 -57.30738873 8.73760747 -57.25878906 11.97851562 C-57.26509338 13.23321655 -57.27139771 14.48791748 -57.27789307 15.78063965 C-57.27431339 17.15584452 -57.27021145 18.53104812 -57.265625 19.90625 C-57.26697173 21.31107653 -57.26891232 22.71590261 -57.27142334 24.12072754 C-57.27437426 27.06636996 -57.27007809 30.01189118 -57.26074219 32.95751953 C-57.24934755 36.73738503 -57.25590721 40.51696652 -57.26788712 44.29682159 C-57.27510665 47.19812163 -57.27281738 50.09935409 -57.26763153 53.00065613 C-57.26629529 54.39454685 -57.26794188 55.78844366 -57.27259064 57.18232727 C-57.27765711 59.12871181 -57.2685687 61.07511781 -57.25878906 63.02148438 C-57.25719788 64.13019897 -57.25560669 65.23891357 -57.25396729 66.38122559 C-57.26457037 69.15912981 -57.26457037 69.15912981 -55 71 C-52.57299406 71.29276047 -52.57299406 71.29276047 -49.72412109 71.22705078 C-48.04950806 71.22668823 -48.04950806 71.22668823 -46.34106445 71.22631836 C-45.16374756 71.21608643 -43.98643066 71.20585449 -42.7734375 71.1953125 C-41.69425049 71.19329834 -40.61506348 71.19128418 -39.50317383 71.18920898 C-35.46040617 71.17872154 -31.41769895 71.15079912 -27.375 71.125 C-18.34125 71.08375 -9.3075 71.0425 0 71 C0 48.89 0 26.78 0 4 C-9.03375 3.95875 -18.0675 3.9175 -27.375 3.875 C-30.22817871 3.85679199 -33.08135742 3.83858398 -36.02099609 3.81982422 C-38.27180798 3.81398533 -40.52262196 3.80888835 -42.7734375 3.8046875 C-44.53941284 3.7893396 -44.53941284 3.7893396 -46.34106445 3.77368164 C-47.45747314 3.77343994 -48.57388184 3.77319824 -49.72412109 3.77294922 C-50.69674896 3.768508 -51.66937683 3.76406677 -52.67147827 3.75949097 C-55.19303103 3.77255405 -55.19303103 3.77255405 -57 6 Z " fill="#4DB568" transform="translate(386,294)"/>
<path d="M0 0 C2.49293807 5.43102718 2.26962611 10.74343278 2.22705078 16.59521484 C2.22734283 17.64947662 2.22763489 18.7037384 2.22793579 19.78994751 C2.22654596 23.26369547 2.21100086 26.73722715 2.1953125 30.2109375 C2.19158114 32.62374759 2.18873475 35.03655919 2.18673706 37.44937134 C2.1791103 43.79185183 2.15946991 50.13424035 2.1373291 56.47668457 C2.11685013 62.95189164 2.10773095 69.42711361 2.09765625 75.90234375 C2.07622321 88.60160168 2.04248458 101.30079594 2 114 C3.42783813 113.95431885 3.42783813 113.95431885 4.88452148 113.90771484 C6.13821533 113.88402832 7.39190918 113.8603418 8.68359375 113.8359375 C10.54455688 113.79025635 10.54455688 113.79025635 12.44311523 113.74365234 C17.86440095 114.13436893 21.09934093 116.38032061 25 120 C25.81984375 120.75410156 25.81984375 120.75410156 26.65625 121.5234375 C29.14383534 124.13540211 29.97829768 125.76561498 30.3125 129.375 C30.1578125 130.674375 30.1578125 130.674375 30 132 C28.91125755 130.36688633 27.8231452 128.73334895 26.73828125 127.09765625 C23.56270857 122.56485251 20.50798681 118.57346341 15 117 C12.40228651 116.73772836 9.84936982 116.53454677 7.24609375 116.40234375 C6.2004425 116.34137512 6.2004425 116.34137512 5.13366699 116.2791748 C3.42277331 116.18025804 1.7114209 116.08933204 0 116 C-0.00331015 115.44285214 -0.00662029 114.88570429 -0.01003075 114.31167316 C-0.0912859 100.748878 -0.18351132 87.18619554 -0.28752708 73.62355518 C-0.33749707 67.06473218 -0.38382724 60.50592534 -0.421875 53.94702148 C-0.45871865 47.61867255 -0.50507645 41.2904586 -0.55806351 34.96222496 C-0.57661228 32.54650932 -0.59171844 30.13076475 -0.60334396 27.71500587 C-0.62019783 24.3343584 -0.64923153 20.95402041 -0.68115234 17.57348633 C-0.68331253 16.57223221 -0.68547272 15.57097809 -0.68769836 14.53938293 C-0.7434451 9.92515211 -0.81494391 6.18061865 -3 2 C-3.433125 0.88625 -3.433125 0.88625 -3.875 -0.25 C-4.82895313 -2.11673239 -4.82895313 -2.11673239 -6.59417343 -2.59948635 C-9.93424488 -3.15552984 -13.2422645 -3.15363123 -16.6182251 -3.15821838 C-17.38935064 -3.16315636 -18.16047618 -3.16809434 -18.95496917 -3.17318195 C-21.5406153 -3.18854833 -24.12623663 -3.19691525 -26.71191406 -3.20532227 C-28.56469949 -3.21490146 -30.41748273 -3.22491157 -32.27026367 -3.23532104 C-37.30291019 -3.26237163 -42.33556609 -3.28338039 -47.36824512 -3.30332303 C-52.62667871 -3.32518161 -57.88508339 -3.35257093 -63.14349365 -3.37937927 C-73.10231463 -3.42930788 -83.06115166 -3.4742461 -93.02000403 -3.51740164 C-104.35726415 -3.56677256 -115.69449526 -3.62169124 -127.03172731 -3.67708123 C-150.35445781 -3.79090386 -173.67721613 -3.89774231 -197 -4 C-197 -4.33 -197 -4.66 -197 -5 C-173.13031116 -5.1539771 -149.26059186 -5.30200821 -125.39082241 -5.4429636 C-114.30764788 -5.50855038 -103.22449158 -5.57608178 -92.14135742 -5.64819336 C-82.4811538 -5.71104181 -72.82093588 -5.77023935 -63.16068321 -5.82505554 C-58.04582069 -5.85420677 -52.93098395 -5.88518432 -47.8161602 -5.92053413 C-43.00066514 -5.95375753 -38.1851659 -5.98209438 -33.36961937 -6.00670624 C-31.60357314 -6.01658959 -29.83753579 -6.02824833 -28.07151413 -6.04183006 C-25.65671933 -6.06013345 -23.24197353 -6.07199451 -20.82713318 -6.08229065 C-20.13158858 -6.08909444 -19.43604399 -6.09589823 -18.71942228 -6.10290819 C-10.89537137 -6.12073766 -5.60173545 -5.86228129 0 0 Z " fill="#71CF88" transform="translate(379,159)"/>
<path d="M0 0 C0.33 0 0.66 0 1 0 C1 2.64 1 5.28 1 8 C58.09 8.33 115.18 8.66 174 9 C174 9.66 174 10.32 174 11 C70.38 11 -33.24 11 -140 11 C-140 10.67 -140 10.34 -140 10 C-93.8 10 -47.6 10 0 10 C0 6.7 0 3.4 0 0 Z " fill="#47A161" transform="translate(182,167)"/>
<path d="M0 0 C24.44306363 -0.04668692 48.8861206 -0.0819726 73.32921982 -0.10362434 C84.67815388 -0.11394409 96.02706026 -0.12801778 107.37597656 -0.15087891 C117.26580138 -0.17079139 127.15560615 -0.18371135 137.04545045 -0.18817699 C142.28374096 -0.190788 147.52197412 -0.19693952 152.76024628 -0.21146011 C157.68821823 -0.22501018 162.61610909 -0.22922786 167.5440979 -0.22621536 C169.35493663 -0.22676668 171.165778 -0.23075942 172.97660065 -0.23841095 C175.44509244 -0.24833192 177.91327628 -0.24597934 180.3817749 -0.24050903 C181.10162182 -0.24633472 181.82146873 -0.2521604 182.56312919 -0.25816262 C186.20599992 -0.23627769 188.94952752 -0.08205778 192 2 C196.1026052 6.45425708 197.12709247 9.68373893 197.12025452 15.61907959 C197.12231651 17.00304176 197.12231651 17.00304176 197.12442017 18.41496277 C197.12082489 19.41981216 197.11722961 20.42466156 197.11352539 21.45996094 C197.11367142 22.52368423 197.11381744 23.58740753 197.1139679 24.68336487 C197.11327106 28.20038897 197.10548933 31.71736015 197.09765625 35.234375 C197.09579126 37.67246471 197.09436774 40.1105548 197.09336853 42.54864502 C197.08954976 48.96674636 197.0797249 55.38482508 197.06866455 61.80291748 C197.0584367 68.35168146 197.05386796 74.90044909 197.04882812 81.44921875 C197.03810209 94.29948882 197.02122544 107.14974321 197 120 C198.54482056 119.96519531 198.54482056 119.96519531 200.12084961 119.9296875 C201.48550704 119.91092126 202.85017236 119.89272198 204.21484375 119.875 C204.89204468 119.85824219 205.56924561 119.84148437 206.26696777 119.82421875 C211.1677109 119.77650844 214.44663383 120.39342328 218.34765625 123.35546875 C221.29706035 126.29092768 223.72354791 129.52496139 226 133 C223 133 223 133 221 132 C221 131.01 221 130.02 221 129 C220.01 128.67 219.02 128.34 218 128 C217.67 127.01 217.34 126.02 217 125 C210.53523926 121.0910749 203.38759156 121.29714307 196 121 C195.07288753 118.21866258 194.88161831 116.60999059 194.89993286 113.74482727 C194.90289368 112.87719254 194.90585449 112.0095578 194.90890503 111.1156311 C194.91721344 110.16650848 194.92552185 109.21738586 194.93408203 108.23950195 C194.94109131 106.73656334 194.94109131 106.73656334 194.94824219 105.20326233 C194.95875372 103.02448261 194.97141932 100.84571247 194.98596573 98.66695595 C195.00795568 95.21580973 195.02205678 91.7647182 195.03366089 88.31352234 C195.06728157 78.49971007 195.10878779 68.68598798 195.17138672 58.87231445 C195.20909953 52.87125567 195.23207907 46.87029079 195.24569321 40.86913109 C195.25373518 38.58423436 195.26732664 36.29935003 195.28662491 34.01452065 C195.31319265 30.81205392 195.32100544 27.61003423 195.32470703 24.4074707 C195.34324234 22.99896851 195.34324234 22.99896851 195.3621521 21.56201172 C195.34440926 15.72198355 194.66142028 11.24994134 192 6 C189.95652692 5.24012171 189.95652692 5.24012171 188 5 C187.67 3.68 187.34 2.36 187 1 C95.425 1.495 95.425 1.495 2 2 C1.67 4.31 1.34 6.62 1 9 C0.67 9 0.34 9 0 9 C0 6.03 0 3.06 0 0 Z " fill="#399F55" transform="translate(182,155)"/>
<path d="M0 0 C0.495 0.99 0.495 0.99 1 2 C-5.435 2.495 -5.435 2.495 -12 3 C-11.99333817 3.89900528 -11.98667633 4.79801056 -11.97981262 5.72425842 C-11.91960073 14.21326442 -11.8739744 22.70219827 -11.84456348 31.19136906 C-11.82893451 35.55532535 -11.80774708 39.91910458 -11.77368164 44.28295898 C-11.74098907 48.49751453 -11.72312617 52.71190019 -11.71536827 56.9265728 C-11.70984248 58.53127146 -11.69905197 60.13596126 -11.68280983 61.74058723 C-11.66090338 63.9953097 -11.6580385 66.24933794 -11.65942383 68.50415039 C-11.65276199 69.78544327 -11.64610016 71.06673615 -11.63923645 72.38685608 C-12.1891502 77.89439013 -13.82729368 81.68428072 -17.5625 85.875 C-24.91850581 91.34715066 -37.31160213 89.10426077 -46 89 C-45.505 88.01 -45.505 88.01 -45 87 C-42.19921875 86.62109375 -42.19921875 86.62109375 -38.6875 86.4375 C-34.96741227 86.23337425 -31.59778465 85.9282131 -28 85 C-26.68 85 -25.36 85 -24 85 C-23.773125 84.38125 -23.54625 83.7625 -23.3125 83.125 C-22 81 -22 81 -19.4375 80 C-18.2309375 79.505 -18.2309375 79.505 -17 79 C-16.11306697 76.95894361 -16.11306697 76.95894361 -16 75 C-15.34 75 -14.68 75 -14 75 C-14 50.58 -14 26.16 -14 1 C-9.04591276 0.38073909 -4.87062125 -0.12176553 0 0 Z " fill="#5FBC74" transform="translate(393,388)"/>
<path d="M0 0 C0.33 0 0.66 0 1 0 C1 25.08 1 50.16 1 76 C1.99 76.33 2.98 76.66 4 77 C4.5546875 78.99609375 4.5546875 78.99609375 4.875 81.4375 C5.27596073 83.86991203 5.27596073 83.86991203 6 86 C8.41499457 87.46664648 8.41499457 87.46664648 11 88 C11.66 88.99 12.32 89.98 13 91 C11.515 91.495 11.515 91.495 10 92 C7.3125 90.1875 7.3125 90.1875 5 88 C5 87.34 5 86.68 5 86 C4.34 86 3.68 86 3 86 C2.71125 85.21625 2.4225 84.4325 2.125 83.625 C1.15087746 80.90328368 1.15087746 80.90328368 -1 79 C-2.32776614 75.37883158 -2.13391122 71.69433838 -2.14526367 67.87646484 C-2.15030159 66.81239159 -2.15030159 66.81239159 -2.15544128 65.7268219 C-2.16492055 63.38817585 -2.16689248 61.04960155 -2.16796875 58.7109375 C-2.17118203 57.08476736 -2.17454616 55.45859751 -2.17805481 53.83242798 C-2.18403749 50.42799203 -2.18589545 47.02358145 -2.18530273 43.61914062 C-2.18520084 39.24971658 -2.19888511 34.88045403 -2.21607494 30.51106834 C-2.22717017 27.15513353 -2.22922276 23.79923818 -2.22869301 20.4432869 C-2.22987564 18.83168605 -2.23431318 17.22008426 -2.24202538 15.60850143 C-2.25178101 13.36046599 -2.24896567 11.11278681 -2.24291992 8.86474609 C-2.24434494 7.58441498 -2.24576996 6.30408386 -2.24723816 4.98495483 C-2 2 -2 2 0 0 Z " fill="#58BC73" transform="translate(307,292)"/>
<path d="M0 0 C56.76 0 113.52 0 172 0 C172 17.49 172 34.98 172 53 C158.5 53.375 158.5 53.375 154.29101562 53.47802734 C147.90057704 53.68176175 142.11704926 54.10000743 136 56 C136 55.01 136 54.02 136 53 C140.36893737 52.15937224 144.4835198 51.88267044 148.9296875 51.90234375 C150.21875 51.90556641 151.5078125 51.90878906 152.8359375 51.91210938 C154.18229236 51.92046267 155.52864652 51.92892759 156.875 51.9375 C158.24479004 51.9425217 159.61458185 51.94708343 160.984375 51.95117188 C164.3229619 51.96292746 167.66145815 51.97936036 171 52 C170.88270883 45.03982616 170.75787295 38.07981755 170.62768555 31.11987305 C170.5842619 28.75011292 170.54259251 26.38032 170.50268555 24.01049805 C170.44516232 20.61236667 170.38141697 17.21440157 170.31640625 13.81640625 C170.29133751 12.2164254 170.29133751 12.2164254 170.26576233 10.5841217 C170.24581711 9.60318039 170.22587189 8.62223907 170.20532227 7.61157227 C170.18977798 6.74331314 170.1742337 5.87505402 170.15821838 4.98048401 C170.21537575 2.99919221 170.21537575 2.99919221 169 2 C166.82338634 1.89073908 164.64317693 1.85307346 162.46385193 1.84178162 C161.77287715 1.83684364 161.08190238 1.83190566 160.36998898 1.82681805 C158.03759612 1.81136994 155.70523092 1.80306278 153.37280273 1.79467773 C151.70764927 1.78510494 150.04249826 1.77509523 148.37734985 1.76467896 C143.84244542 1.73755887 139.3075305 1.7165879 134.77258945 1.69667697 C130.03864537 1.67486108 125.30473387 1.64745095 120.57081604 1.62062073 C111.60000261 1.57063419 102.62917117 1.52571756 93.65832239 1.48259836 C83.44807296 1.43327682 73.23785618 1.3783399 63.02763832 1.32291877 C42.01845596 1.20900726 21.00924243 1.10218829 0 1 C0 0.67 0 0.34 0 0 Z " fill="#E5FEED" transform="translate(184,222)"/>
<path d="M0 0 C0.76957031 0.2165625 0.76957031 0.2165625 1.5546875 0.4375 C7.5538391 1.89183978 13.35602139 2.22069062 19.5 2.25 C20.30163574 2.25902344 21.10327148 2.26804687 21.92919922 2.27734375 C26.43916621 2.43910592 26.43916621 2.43910592 30 0 C30 0.66 30 1.32 30 2 C70.59 2.33 111.18 2.66 153 3 C153 3.33 153 3.66 153 4 C128.88243955 4.98432196 104.78802752 5.15785424 80.65258789 5.13037109 C75.56132053 5.12464747 70.47010513 5.12808201 65.37883949 5.13380814 C29.55460209 5.16809695 29.55460209 5.16809695 13.77734375 4.5546875 C12.77619034 4.51594513 11.77503693 4.47720276 10.74354553 4.43728638 C4.26962656 4.13481328 4.26962656 4.13481328 2 3 C2 2.34 2 1.68 2 1 C1.34 0.67 0.68 0.34 0 0 Z " fill="#4A7C5B" transform="translate(28,472)"/>
<path d="M0 0 C0.33 0 0.66 0 1 0 C1.01030746 0.77452011 1.02061493 1.54904022 1.03123474 2.34703064 C1.12904297 9.63128921 1.23153311 16.91545946 1.33933926 24.19957638 C1.39460231 27.94478798 1.44802755 31.69000734 1.49731445 35.43530273 C1.54490835 39.04688586 1.59724906 42.65837132 1.65294075 46.26983833 C1.67338694 47.65057519 1.69209622 49.03133886 1.70907402 50.41212273 C1.7330678 52.33983314 1.76370264 54.26745749 1.79467773 56.19506836 C1.81799416 57.84387245 1.81799416 57.84387245 1.84178162 59.52598572 C1.72288192 61.94306073 1.72288192 61.94306073 3 63 C4.71774167 63.12307311 6.44042739 63.17786558 8.16235352 63.20532227 C9.26341934 63.22526749 10.36448517 63.24521271 11.49891663 63.26576233 C12.6968132 63.28247482 13.89470978 63.29918732 15.12890625 63.31640625 C16.34827377 63.33718735 17.5676413 63.35796844 18.82395935 63.37937927 C22.73674645 63.44500428 26.64960317 63.50381972 30.5625 63.5625 C33.20768962 63.60567291 35.85287209 63.64928678 38.49804688 63.69335938 C44.99862336 63.8006988 51.49926979 63.90244067 58 64 C58 64.99 58 65.98 58 67 C50.86502128 67.05083199 43.73008952 67.08578906 36.5949707 67.10986328 C34.1691717 67.11990263 31.74338474 67.13353687 29.31762695 67.15087891 C25.82500225 67.17521775 22.33253798 67.186504 18.83984375 67.1953125 C17.22069313 67.21079636 17.22069313 67.21079636 15.5688324 67.22659302 C9.98420919 67.22741967 5.25445204 66.95525064 0 65 C-1.94713435 63.05286565 -1.12921681 60.1044611 -1.13894653 57.51309204 C-1.1369223 56.59353729 -1.13489807 55.67398254 -1.1328125 54.7265625 C-1.13376923 53.77421722 -1.13472595 52.82187195 -1.13571167 51.84066772 C-1.13639478 49.80784032 -1.13453147 47.77501076 -1.13037109 45.7421875 C-1.12513003 42.7004674 -1.13025548 39.6589023 -1.13671875 36.6171875 C-1.14047383 24.37937609 -0.78714977 12.21247628 0 0 Z " fill="#5AB871" transform="translate(328,301)"/>
<path d="M0 0 C1.32 0.33 2.64 0.66 4 1 C2.5484451 2.67257355 1.08855591 4.33791758 -0.375 6 C-1.18710937 6.928125 -1.99921875 7.85625 -2.8359375 8.8125 C-3.55007813 9.534375 -4.26421875 10.25625 -5 11 C-5.66 11 -6.32 11 -7 11 C-7.21398437 11.53238281 -7.42796875 12.06476563 -7.6484375 12.61328125 C-9.50977113 15.90020278 -12.03852792 18.46856172 -14.625 21.1875 C-15.70917566 22.34035426 -16.79250574 23.4940043 -17.875 24.6484375 C-18.40609375 25.21401367 -18.9371875 25.77958984 -19.484375 26.36230469 C-22.23180758 29.33101889 -24.85541775 32.40815967 -27.4765625 35.48828125 C-29 37 -29 37 -31 37 C-31.2475 37.556875 -31.495 38.11375 -31.75 38.6875 C-34.3630918 43.52171983 -38.14650976 47.14650976 -42 51 C-43.051875 52.36125 -43.051875 52.36125 -44.125 53.75 C-46 56 -46 56 -49 57 C-49.3125 54.8125 -49.3125 54.8125 -49 52 C-46.625 49.1875 -46.625 49.1875 -44 47 C-43.34 47 -42.68 47 -42 47 C-41.67 46.34 -41.34 45.68 -41 45 C-40.01 45 -39.02 45 -38 45 C-37.67 43.35 -37.34 41.7 -37 40 C-35.515 39.505 -35.515 39.505 -34 39 C-34 37.35 -34 35.7 -34 34 C-33.236875 33.79375 -32.47375 33.5875 -31.6875 33.375 C-28.17770897 31.57929296 -27.47400219 29.56863688 -26 26 C-24.35 26 -22.7 26 -21 26 C-20.67 24.68 -20.34 23.36 -20 22 C-19.34 22 -18.68 22 -18 22 C-17.9175 21.401875 -17.835 20.80375 -17.75 20.1875 C-16.79060637 17.38926857 -15.35950479 16.69589407 -13 15 C-12.67 14.01 -12.34 13.02 -12 12 C-11.01 12 -10.02 12 -9 12 C-9 11.34 -9 10.68 -9 10 C-8.01 10 -7.02 10 -6 10 C-5.67 8.68 -5.34 7.36 -5 6 C-4.34 6 -3.68 6 -3 6 C-2.67 4.68 -2.34 3.36 -2 2 C-1.34 2 -0.68 2 0 2 C0 1.34 0 0.68 0 0 Z " fill="#46B361" transform="translate(261,297)"/>
<path d="M0 0 C1.24910156 0.00515625 2.49820313 0.0103125 3.78515625 0.015625 C5.03167969 0.01046875 6.27820313 0.0053125 7.5625 0 C10.84765625 0.265625 10.84765625 0.265625 13.84765625 2.265625 C13.51765625 3.585625 13.18765625 4.905625 12.84765625 6.265625 C11.71328125 6.575 10.57890625 6.884375 9.41015625 7.203125 C6.05990526 7.89487031 6.05990526 7.89487031 4.84765625 9.265625 C1.68347534 9.79161983 -1.52210009 10.02985152 -4.71484375 10.328125 C-5.65545654 10.41755371 -6.59606934 10.50698242 -7.56518555 10.59912109 C-15.7858599 11.32981677 -23.90386387 11.47562873 -32.15234375 11.265625 C-32.15234375 10.605625 -32.15234375 9.945625 -32.15234375 9.265625 C-26.87234375 9.265625 -21.59234375 9.265625 -16.15234375 9.265625 C-16.15234375 8.605625 -16.15234375 7.945625 -16.15234375 7.265625 C-12.68734375 6.770625 -12.68734375 6.770625 -9.15234375 6.265625 C-9.15234375 6.925625 -9.15234375 7.585625 -9.15234375 8.265625 C-8.49234375 8.265625 -7.83234375 8.265625 -7.15234375 8.265625 C-6.86359375 7.316875 -6.57484375 6.368125 -6.27734375 5.390625 C-4.82547568 1.35765813 -4.33990463 0.36569209 0 0 Z " fill="#3DB756" transform="translate(357.15234375,465.734375)"/>
<path d="M0 0 C0.33 0 0.66 0 1 0 C1.34842354 3.65844715 1.13132751 5.73187299 -0.5 9.0625 C-4.07436052 13.26237361 -5.77424036 14.72210477 -11 17 C-16.94 17 -22.88 17 -29 17 C-29 40.76 -29 64.52 -29 89 C-29.33 89 -29.66 89 -30 89 C-30 64.91 -30 40.82 -30 16 C-23.25 12.625 -23.25 12.625 -19 12 C-19 12.66 -19 13.32 -19 14 C-18.01 14 -17.02 14 -16 14 C-15.34 13.34 -14.68 12.68 -14 12 C-13.34 12 -12.68 12 -12 12 C-11.01 11.67 -10.02 11.34 -9 11 C-9 10.34 -9 9.68 -9 9 C-8.01 9 -7.02 9 -6 9 C-6 8.34 -6 7.68 -6 7 C-4.125 4.875 -4.125 4.875 -2 3 C-1.34 3 -0.68 3 0 3 C0 2.01 0 1.02 0 0 Z " fill="#41A85C" transform="translate(408,372)"/>
<path d="M0 0 C0.33 0 0.66 0 1 0 C1.00238835 0.70291892 1.00477671 1.40583784 1.00723743 2.13005733 C1.06645184 19.25766867 1.142043 36.38512997 1.23571491 53.51258755 C1.28062232 61.79540672 1.32004857 70.07818339 1.34643555 78.36108398 C1.36945666 85.58302201 1.40290041 92.80482494 1.44870156 100.02665573 C1.47257852 103.84825471 1.4913434 107.66972035 1.49761391 111.49139214 C1.50368994 115.09396114 1.52377966 118.69618922 1.55427551 122.29863167 C1.56715969 124.23990021 1.56549271 126.18124856 1.5632782 128.12255859 C1.63745389 135.06513482 2.39259865 140.54884722 5 147 C4.01 147.99 4.01 147.99 3 149 C-0.67694852 142.22684202 -1.56100258 136.70330419 -1.42578125 129.0625 C-1.42285568 127.98446609 -1.41993011 126.90643219 -1.41691589 125.79573059 C-1.40176067 122.19673814 -1.35731724 118.59873595 -1.3125 115 C-1.29534179 112.45272797 -1.27975754 109.90544492 -1.265625 107.3581543 C-1.21574116 99.39567247 -1.12334908 91.43384858 -1.02875519 83.47179413 C-0.9776605 79.07969817 -0.93133235 74.6875509 -0.88427734 70.29541016 C-0.63092137 46.8630276 -0.33216133 23.43139159 0 0 Z " fill="#235C37" transform="translate(21,296)"/>
<path d="M0 0 C18.15 0 36.3 0 55 0 C55 22.11 55 44.22 55 67 C36.85 67 18.7 67 0 67 C0 66.67 0 66.34 0 66 C17.82 66 35.64 66 54 66 C53.85125635 54.82707825 53.85125635 54.82707825 53.69335938 43.65429688 C53.62696483 39.10021265 53.56166309 34.54613046 53.50268555 29.99194336 C53.45509259 26.32200665 53.40275191 22.65216609 53.34705925 18.98234367 C53.32661263 17.57927773 53.30790343 16.1761854 53.29092598 14.7730732 C53.26693313 12.81423074 53.23629801 10.85547299 53.20532227 8.89672852 C53.18977798 7.77976089 53.1742337 6.66279327 53.15821838 5.51197815 C53.28180962 3.06138999 53.28180962 3.06138999 52 2 C50.34261557 1.90653085 48.68125356 1.88255023 47.02124023 1.88647461 C45.42970375 1.88658791 45.42970375 1.88658791 43.80601501 1.88670349 C42.651866 1.89186478 41.49771698 1.89702606 40.30859375 1.90234375 C38.5461306 1.90446617 38.5461306 1.90446617 36.74806213 1.90663147 C32.97784936 1.91225008 29.20769496 1.92480574 25.4375 1.9375 C22.88867273 1.9425126 20.33984453 1.94707592 17.79101562 1.95117188 C11.52732367 1.96222556 5.26366601 1.97898179 -1 2 C-0.67 1.34 -0.34 0.68 0 0 Z " fill="#DFFEE6" transform="translate(331,298)"/>
<path d="M0 0 C3.81271343 0.70488217 7.61990606 0.88145135 11.48461914 1.07177734 C12.70588753 1.13624306 12.70588753 1.13624306 13.951828 1.20201111 C16.53941608 1.33781255 19.12723175 1.46853789 21.71508789 1.59912109 C23.47487098 1.69058255 25.23463686 1.78237575 26.99438477 1.87451172 C31.29692931 2.09905777 35.59968507 2.31905325 39.90258789 2.53662109 C39.90258789 3.19662109 39.90258789 3.85662109 39.90258789 4.53662109 C17.79258789 4.53662109 -4.31741211 4.53662109 -27.09741211 4.53662109 C-26.09741211 2.53662109 -26.09741211 2.53662109 -23.03491211 1.41162109 C-21.58084961 0.97849609 -21.58084961 0.97849609 -20.09741211 0.53662109 C-20.09741211 1.19662109 -20.09741211 1.85662109 -20.09741211 2.53662109 C-19.55213867 2.40384766 -19.00686523 2.27107422 -18.44506836 2.13427734 C-4.80170456 -1.06083521 -4.80170456 -1.06083521 0 0 Z " fill="#51BF6E" transform="translate(278.097412109375,472.46337890625)"/>
<path d="M0 0 C1.21115479 0.16443604 2.42230957 0.32887207 3.67016602 0.49829102 C9.873347 1.18383934 16.04422029 1.08703677 22.27734375 1.02734375 C24.83658726 1.01471201 27.39583212 1.00235001 29.95507812 0.99023438 C33.96692242 0.96529769 37.97869785 0.93752654 41.99047852 0.90405273 C45.87773378 0.87222998 49.76499195 0.85613733 53.65234375 0.83984375 C54.86059311 0.82638412 56.06884247 0.8129245 57.31370544 0.79905701 C58.42568802 0.79567825 59.53767059 0.7922995 60.68334961 0.78881836 C61.66436142 0.78136093 62.64537323 0.7739035 63.65611267 0.76622009 C66 1 66 1 68 3 C45.23 3 22.46 3 -1 3 C-0.67 2.01 -0.34 1.02 0 0 Z " fill="#57B76E" transform="translate(182,473)"/>
<path d="M0 0 C0.33 0 0.66 0 1 0 C1.01030746 0.65954681 1.02061493 1.31909363 1.03123474 1.99862671 C1.13915379 8.8439149 1.25376339 15.68906754 1.37231445 22.53417969 C1.41571022 25.09111707 1.4573818 27.64808431 1.49731445 30.20507812 C1.55490469 33.87378959 1.61863138 37.54235011 1.68359375 41.2109375 C1.70030624 42.35992523 1.71701874 43.50891296 1.73423767 44.69271851 C1.7641555 46.28414169 1.7641555 46.28414169 1.79467773 47.90771484 C1.81799416 49.31336197 1.81799416 49.31336197 1.84178162 50.74740601 C1.85779985 53.03513791 1.85779985 53.03513791 3 55 C0.0780231 56.46098845 -2.49893475 56.11134901 -5.7578125 56.09765625 C-6.75238968 56.09553383 -6.75238968 56.09553383 -7.76705933 56.09336853 C-9.88641863 56.08776754 -12.00567259 56.075215 -14.125 56.0625 C-15.56119639 56.05748512 -16.99739444 56.05292219 -18.43359375 56.04882812 C-21.95576345 56.03779782 -25.47787145 56.02053259 -29 56 C-29 56.66 -29 57.32 -29 58 C-30.65 57.67 -32.3 57.34 -34 57 C-31.12323186 54.12323186 -28.99489188 54.03734459 -24.97558594 53.88647461 C-23.82348633 53.89171143 -22.67138672 53.89694824 -21.484375 53.90234375 C-19.79393066 53.90609009 -19.79393066 53.90609009 -18.06933594 53.90991211 C-15.93126465 53.92356812 -15.93126465 53.92356812 -13.75 53.9375 C-9.2125 53.958125 -4.675 53.97875 0 54 C0 36.18 0 18.36 0 0 Z " fill="#51B668" transform="translate(356,221)"/>
<path d="M0 0 C0.66 0.66 1.32 1.32 2 2 C-0.22765452 4.39724312 -2.45739721 6.79253447 -4.6875 9.1875 C-5.31333984 9.86103516 -5.93917969 10.53457031 -6.58398438 11.22851562 C-7.19951172 11.88916016 -7.81503906 12.54980469 -8.44921875 13.23046875 C-9.28972778 14.13381958 -9.28972778 14.13381958 -10.1472168 15.05541992 C-12.3905824 17.40993396 -14.70038856 19.70038856 -17 22 C-17 15.73 -17 9.46 -17 3 C-16.01 3.495 -16.01 3.495 -15 4 C-15 6.97 -15 9.94 -15 13 C-12.54775306 12.89386164 -12.54775306 12.89386164 -10 12 C-9.29788106 10.34795544 -8.63028587 8.68076231 -8 7 C-5.875 6.1875 -5.875 6.1875 -4 6 C-3.896875 5.38125 -3.79375 4.7625 -3.6875 4.125 C-3 2 -3 2 0 0 Z " fill="#42B25C" transform="translate(199,365)"/>
<path d="M0 0 C5.87385373 0.64926881 8.80624336 2.00345023 12.94921875 6.25 C14.54308917 9.43774083 14.47585012 12.78927959 13.94921875 16.25 C11.94921875 18.75 11.94921875 18.75 9.94921875 20.25 C7.75930808 18.06008933 8.56152965 13.09784341 8.42578125 10.1328125 C8.15762588 7.2938545 8.15762588 7.2938545 6.734375 5.41015625 C4.38014058 3.88016145 2.55027764 3.74357525 -0.23828125 3.5625 C-1.13933594 3.49675781 -2.04039062 3.43101562 -2.96875 3.36328125 C-3.65582031 3.32589844 -4.34289062 3.28851563 -5.05078125 3.25 C-3.41825629 1.25987434 -2.60638893 0.31773122 0 0 Z " fill="#3EAF5C" transform="translate(257.05078125,273.75)"/>
<path d="M0 0 C0.33 0.66 0.66 1.32 1 2 C-3.29 2.66 -7.58 3.32 -12 4 C-12.33 25.45 -12.66 46.9 -13 69 C-13.33 69 -13.66 69 -14 69 C-14 46.56 -14 24.12 -14 1 C-9.04591276 0.38073909 -4.87062125 -0.12176553 0 0 Z " fill="#8EE8A3" transform="translate(393,388)"/>
<path d="M0 0 C0.66 0.33 1.32 0.66 2 1 C2 10.57 2 20.14 2 30 C-2 27 -2 27 -2.45410156 25.00708008 C-2.4331543 24.26868896 -2.41220703 23.53029785 -2.390625 22.76953125 C-2.37773437 21.96708984 -2.36484375 21.16464844 -2.3515625 20.33789062 C-2.31804687 19.50451172 -2.28453125 18.67113281 -2.25 17.8125 C-2.23195312 16.96751953 -2.21390625 16.12253906 -2.1953125 15.25195312 C-2.14820586 13.16748427 -2.07646233 11.08359856 -2 9 C-1.34 9 -0.68 9 0 9 C0 6.03 0 3.06 0 0 Z " fill="#13662B" transform="translate(179,359)"/>
<path d="M0 0 C1.92860314 2.89290471 3.32908132 5.73594516 4.8125 8.875 C7.08326014 13.49462997 9.17518008 16.62515889 13 20 C13 20.66 13 21.32 13 22 C13.57234375 22.2784375 14.1446875 22.556875 14.734375 22.84375 C16.96617566 23.98273792 19.10870874 25.19936383 21.25 26.5 C21.95640625 26.9228125 22.6628125 27.345625 23.390625 27.78125 C23.92171875 28.1834375 24.4528125 28.585625 25 29 C25 29.66 25 30.32 25 31 C20.55175141 30.47903395 18.12407776 28.87794815 14.6875 26.0625 C13.80449219 25.35222656 12.92148438 24.64195312 12.01171875 23.91015625 C11.01591797 22.96462891 11.01591797 22.96462891 10 22 C10 21.34 10 20.68 10 20 C9.01 19.67 8.02 19.34 7 19 C5.68359375 17.29296875 5.68359375 17.29296875 4.4375 15.1875 C4.02371094 14.50042969 3.60992187 13.81335938 3.18359375 13.10546875 C2.79300781 12.41066406 2.40242187 11.71585937 2 11 C1.43345703 9.99646484 1.43345703 9.99646484 0.85546875 8.97265625 C-0.43296018 6.00162151 -0.12272189 3.19076921 0 0 Z " fill="#7CA688" transform="translate(0,441)"/>
<path d="M0 0 C0.33 0 0.66 0 1 0 C1 7.26 1 14.52 1 22 C-8.9 22 -18.8 22 -29 22 C-29 21.34 -29 20.68 -29 20 C-25.29215008 19.80199058 -21.58371765 19.61846755 -17.875 19.4375 C-16.82828125 19.38142578 -15.7815625 19.32535156 -14.703125 19.26757812 C-13.68476563 19.21923828 -12.66640625 19.17089844 -11.6171875 19.12109375 C-10.21895752 19.05039673 -10.21895752 19.05039673 -8.79248047 18.97827148 C-6 19 -6 19 0 20 C0 13.4 0 6.8 0 0 Z " fill="#256B3B" transform="translate(181,453)"/>
<path d="M0 0 C0.57830566 0.06131104 1.15661133 0.12262207 1.75244141 0.18579102 C6.52658718 0.67903461 11.29929976 1.1114321 16.0859375 1.46484375 C17.63474609 1.58182617 17.63474609 1.58182617 19.21484375 1.70117188 C21.34463867 1.86044578 23.47487025 2.01397224 25.60546875 2.16210938 C27.14267578 2.28102539 27.14267578 2.28102539 28.7109375 2.40234375 C30.09224854 2.50276978 30.09224854 2.50276978 31.50146484 2.60522461 C34.03462679 3.00547113 35.79070231 3.72605136 38 5 C33.54189248 5.11734237 29.08418872 5.18763372 24.625 5.25 C23.37332031 5.28351563 22.12164062 5.31703125 20.83203125 5.3515625 C13.01086333 5.43345955 6.98398782 4.61528871 0 1 C0 0.67 0 0.34 0 0 Z " fill="#55B66C" transform="translate(318,384)"/>
<path d="M0 0 C1.09658936 3.28976808 0.79953138 4.71303767 0 8 C-1.65 8 -3.3 8 -5 8 C-4.67 8.99 -4.34 9.98 -4 11 C-4.66 11 -5.32 11 -6 11 C-6.144375 11.61875 -6.28875 12.2375 -6.4375 12.875 C-7 15 -7 15 -8 17 C-9.32 17 -10.64 17 -12 17 C-12.33 17.66 -12.66 18.32 -13 19 C-13.66 18.34 -14.32 17.68 -15 17 C-10.0331362 11.30362808 -5.02832615 5.64217376 0 0 Z " fill="#47B75F" transform="translate(251,277)"/>
<path d="M0 0 C0.66 0 1.32 0 2 0 C1.42235003 3.3503698 0.41423154 4.68233772 -2 7 C-3.17574711 9.09989652 -3.17574711 9.09989652 -4 11 C-4.66 11 -5.32 11 -6 11 C-6 11.66 -6 12.32 -6 13 C-6.99 13.495 -6.99 13.495 -8 14 C-8.66 14.66 -9.32 15.32 -10 16 C-10.99 16 -11.98 16 -13 16 C-12.67 17.32 -12.34 18.64 -12 20 C-13.98 20.99 -13.98 20.99 -16 22 C-16.33 21.01 -16.66 20.02 -17 19 C-15.84765625 17.23828125 -15.84765625 17.23828125 -14.0625 15.3125 C-13.42054688 14.61382812 -12.77859375 13.91515625 -12.1171875 13.1953125 C-9.35848125 10.33480897 -6.55377867 7.52654791 -3.69921875 4.76171875 C-1.80910864 2.90690694 -1.80910864 2.90690694 0 0 Z " fill="#50B567" transform="translate(211,320)"/>
<path d="M0 0 C0 3.76154738 -1.24622913 5.68732168 -3 9 C-3.7115625 10.60875 -3.7115625 10.60875 -4.4375 12.25 C-6 15 -6 15 -7.9375 16.4375 C-10.34445404 17.09394201 -11.67454648 16.83051911 -14 16 C-13.67 15.01 -13.34 14.02 -13 13 C-12.34 13 -11.68 13 -11 13 C-10.67 12.01 -10.34 11.02 -10 10 C-9.34 10 -8.68 10 -8 10 C-7.79375 9.46375 -7.5875 8.9275 -7.375 8.375 C-5.42003056 4.9982346 -2.81776305 2.69525161 0 0 Z " fill="#47B662" transform="translate(235,295)"/>
<path d="M0 0 C3.92673202 3.26978826 6.87090648 5.72610246 7.3671875 11.0859375 C7.2640625 11.9521875 7.1609375 12.8184375 7.0546875 13.7109375 C5.96594505 12.07782383 4.8778327 10.44428645 3.79296875 8.80859375 C0.61377992 4.27062833 -2.4540996 0.34040548 -7.9453125 -1.2890625 C-12.60929343 -1.88805895 -17.24652417 -2.15872163 -21.9453125 -2.2890625 C-21.9453125 -2.6190625 -21.9453125 -2.9490625 -21.9453125 -3.2890625 C-13.11648267 -4.76053414 -7.47105839 -5.50635099 0 0 Z " fill="#8CDAA4" transform="translate(401.9453125,277.2890625)"/>
<path d="M0 0 C0.76957031 0.2165625 0.76957031 0.2165625 1.5546875 0.4375 C7.5538391 1.89183978 13.35602139 2.22069062 19.5 2.25 C20.30163574 2.25902344 21.10327148 2.26804687 21.92919922 2.27734375 C26.43916621 2.43910592 26.43916621 2.43910592 30 0 C30 0.66 30 1.32 30 2 C35.94 2.33 41.88 2.66 48 3 C48 3.33 48 3.66 48 4 C37.10636275 4.84396474 26.35981151 5.06567644 15.4375 4.625 C14.33736572 4.58189697 13.23723145 4.53879395 12.10375977 4.49438477 C4.26859144 4.13429572 4.26859144 4.13429572 2 3 C2 2.34 2 1.68 2 1 C1.34 0.67 0.68 0.34 0 0 Z " fill="#51825F" transform="translate(28,472)"/>
<path d="M0 0 C0 0.33 0 0.66 0 1 C-0.68964844 1.09796875 -1.37929688 1.1959375 -2.08984375 1.296875 C-10.00725341 2.55670973 -16.75186354 4.66099636 -23.375 9.25 C-26 11 -26 11 -29 11 C-27.48006431 6.44019292 -24.10523982 5.57335209 -19.98046875 3.43359375 C-12.83386731 -0.00389344 -7.87618027 -1.57523605 0 0 Z " fill="#84B08F" transform="translate(43,154)"/>
<path d="M0 0 C0.33 0 0.66 0 1 0 C1.34842354 3.65844715 1.13132751 5.73187299 -0.5 9.0625 C-3.5221007 12.61346832 -6.76708312 15.03564843 -11 17 C-11.99 17 -12.98 17 -14 17 C-14 16.34 -14 15.68 -14 15 C-13.05125 14.608125 -12.1025 14.21625 -11.125 13.8125 C-7.51720834 11.71998083 -7.29609044 10.79569342 -6 7 C-4 4.6875 -4 4.6875 -2 3 C-1.34 3 -0.68 3 0 3 C0 2.01 0 1.02 0 0 Z " fill="#82D197" transform="translate(408,372)"/>
<path d="M0 0 C0.33 0.66 0.66 1.32 1 2 C1.77601563 1.82597656 2.55203125 1.65195312 3.3515625 1.47265625 C8.09219921 0.85850524 12.61600307 1.14218421 17.375 1.4375 C18.76525391 1.51581055 18.76525391 1.51581055 20.18359375 1.59570312 C22.45613901 1.72455878 24.72815099 1.85948311 27 2 C27.495 2.99 27.495 2.99 28 4 C16.78 4 5.56 4 -6 4 C-4.60804085 1.2160817 -2.84424221 1.02101003 0 0 Z " fill="#5AD58F" transform="translate(257,473)"/>
<path d="M0 0 C0.99 0.33 1.98 0.66 3 1 C2.113125 1.94875 1.22625 2.8975 0.3125 3.875 C-4.68658656 9.70135857 -7.87260059 16.65080204 -10 24 C-10.33 24 -10.66 24 -11 24 C-11.99539567 16.70043174 -8.71343984 11.13978578 -5 5 C-3.42441045 3.03763782 -1.948589 1.60472035 0 0 Z " fill="#7CA689" transform="translate(11,166)"/>
<path d="M0 0 C3.49167166 0.29097264 4.76200675 0.75539583 7.25 3.3125 C9.80654216 7.23861831 10.12589212 10.35369212 10.09765625 14.984375 C10.09443359 15.91894531 10.09121094 16.85351562 10.08789062 17.81640625 C10.07951172 18.78449219 10.07113281 19.75257813 10.0625 20.75 C10.05798828 21.73355469 10.05347656 22.71710938 10.04882812 23.73046875 C10.03706483 26.15370791 10.02062684 28.57682273 10 31 C9.67 31 9.34 31 9 31 C8.96261719 29.7934375 8.92523438 28.586875 8.88671875 27.34375 C8.82100781 25.72913822 8.75456229 24.11455622 8.6875 22.5 C8.66494141 21.70851562 8.64238281 20.91703125 8.61914062 20.1015625 C8.36709986 14.51084001 7.48560623 10.05084286 5 5 C2.95805554 4.23529547 2.95805554 4.23529547 1 4 C0.67 2.68 0.34 1.36 0 0 Z " fill="#44A45D" transform="translate(369,156)"/>
<path d="M0 0 C0.66 0.99 1.32 1.98 2 3 C0.58474822 4.58459815 -0.8322642 6.16762391 -2.25 7.75 C-3.43335938 9.07257813 -3.43335938 9.07257813 -4.640625 10.421875 C-6.70791223 12.68083124 -8.77654099 14.89460076 -11 17 C-11.33 17 -11.66 17 -12 17 C-12.3125 14.8125 -12.3125 14.8125 -12 12 C-9.625 9.1875 -9.625 9.1875 -7 7 C-6.34 7 -5.68 7 -5 7 C-4.67 6.34 -4.34 5.68 -4 5 C-3.01 5 -2.02 5 -1 5 C-0.67 3.35 -0.34 1.7 0 0 Z " fill="#4AB264" transform="translate(224,337)"/>
<path d="M0 0 C2.62697064 -0.22137393 5.00893964 -0.28162025 7.625 -0.1875 C8.33140625 -0.17396484 9.0378125 -0.16042969 9.765625 -0.14648438 C11.51074128 -0.1111104 13.25546608 -0.05730221 15 0 C15 0.99 15 1.98 15 3 C11.05352382 3.98844951 7.72607036 3.96191905 3.6875 3.5625 C2.61886719 3.46066406 1.55023438 3.35882813 0.44921875 3.25390625 C-0.35902344 3.17011719 -1.16726563 3.08632813 -2 3 C-1.34 2.01 -0.68 1.02 0 0 Z " fill="#24BB4A" transform="translate(353,470)"/>
<path d="M0 0 C0.66 0 1.32 0 2 0 C2 6.93 2 13.86 2 21 C0.68 21 -0.64 21 -2 21 C-2 20.34 -2 19.68 -2 19 C-1.34 19 -0.68 19 0 19 C-0.08378906 17.71222656 -0.16757813 16.42445313 -0.25390625 15.09765625 C-0.35704621 13.41928773 -0.45989584 11.74090136 -0.5625 10.0625 C-0.61857422 9.21236328 -0.67464844 8.36222656 -0.73242188 7.48632812 C-0.80493164 6.27299805 -0.80493164 6.27299805 -0.87890625 5.03515625 C-0.9260376 4.2862915 -0.97316895 3.53742676 -1.02172852 2.76586914 C-1 1 -1 1 0 0 Z " fill="#0C6928" transform="translate(179,199)"/>
<path d="M0 0 C1.01320312 0.15597656 2.02640625 0.31195313 3.0703125 0.47265625 C4.42180536 0.66974896 5.77337192 0.86633675 7.125 1.0625 C7.79015625 1.16626953 8.4553125 1.27003906 9.140625 1.37695312 C13.34114812 1.97408631 16.86069634 1.92199443 21 1 C21.33 1.66 21.66 2.32 22 3 C18.13229545 4.28923485 14.46562684 4.14505706 10.4375 4.125 C9.65697266 4.12886719 8.87644531 4.13273437 8.07226562 4.13671875 C2.25335498 4.12667749 2.25335498 4.12667749 0 3 C0 2.01 0 1.02 0 0 Z " fill="#265D38" transform="translate(58,471)"/>
<path d="M0 0 C0.33 1.32 0.66 2.64 1 4 C0.43410156 4.47050781 -0.13179687 4.94101562 -0.71484375 5.42578125 C-1.44832031 6.04839844 -2.18179688 6.67101562 -2.9375 7.3125 C-4.03384766 8.23482422 -4.03384766 8.23482422 -5.15234375 9.17578125 C-7.23820366 10.95975519 -7.23820366 10.95975519 -8 14 C-9.65 14.33 -11.3 14.66 -13 15 C-9.54122788 9.13512553 -4.88678132 4.69882819 0 0 Z " fill="#D3F7DF" transform="translate(207,360)"/>
<path d="M0 0 C0.33 0.99 0.66 1.98 1 3 C0.67 3.66 0.34 4.32 0 5 C-0.66 5 -1.32 5 -2 5 C-2.226875 5.556875 -2.45375 6.11375 -2.6875 6.6875 C-4.69538899 10.22520917 -7.1626819 13.45278432 -11.1640625 14.64453125 C-11.76992187 14.76183594 -12.37578125 14.87914062 -13 15 C-12.61328125 14.55269531 -12.2265625 14.10539062 -11.828125 13.64453125 C-11.30734375 13.03996094 -10.7865625 12.43539063 -10.25 11.8125 C-9.43015625 10.86117188 -9.43015625 10.86117188 -8.59375 9.890625 C-7.26789342 8.31779514 -6.00087924 6.69559234 -4.75 5.0625 C-4.1725 4.381875 -3.595 3.70125 -3 3 C-2.34 3 -1.68 3 -1 3 C-0.67 2.01 -0.34 1.02 0 0 Z " fill="#D5F8E0" transform="translate(225,340)"/>
<path d="M0 0 C2.80632062 2.80632062 2.56763542 5.665166 2.8125 9.4375 C2.87630859 10.11876953 2.94011719 10.80003906 3.00585938 11.50195312 C3.14453125 13.49609375 3.14453125 13.49609375 3 17 C2.01 17.99 1.02 18.98 0 20 C0 13.4 0 6.8 0 0 Z " fill="#53B669" transform="translate(356,178)"/>
<path d="M0 0 C0.33 0 0.66 0 1 0 C1 6.27 1 12.54 1 19 C0.01 18.67 -0.98 18.34 -2 18 C-1.85980308 15.18711295 -1.71312045 12.37483115 -1.5625 9.5625 C-1.52318359 8.76005859 -1.48386719 7.95761719 -1.44335938 7.13085938 C-1.11328125 1.11328125 -1.11328125 1.11328125 0 0 Z " fill="#0D6B26" transform="translate(180,454)"/>
<path d="M0 0 C0.33 0.66 0.66 1.32 1 2 C-0.093125 2.103125 -1.18625 2.20625 -2.3125 2.3125 C-7.68965184 2.9689566 -12.81178648 4.483592 -18 6 C-17.67 5.01 -17.34 4.02 -17 3 C-14.453125 1.796875 -14.453125 1.796875 -11.25 0.75 C-10.20328125 0.39421875 -9.1565625 0.0384375 -8.078125 -0.328125 C-4.90402283 -1.02094933 -3.06038235 -1.03480554 0 0 Z " fill="#265D37" transform="translate(41,156)"/>
<path d="M0 0 C1.41778293 2.83556587 0.86257622 4.9908706 0.5625 8.125 C0.46066406 9.22070312 0.35882813 10.31640625 0.25390625 11.4453125 C0.17011719 12.28835938 0.08632812 13.13140625 0 14 C-0.99 14 -1.98 14 -3 14 C-3.08153933 12.41753293 -3.13943557 10.83383727 -3.1875 9.25 C-3.22230469 8.36828125 -3.25710937 7.4865625 -3.29296875 6.578125 C-2.94923684 3.55328417 -1.99772541 2.24416398 0 0 Z " fill="#3A6E4D" transform="translate(124,330)"/>
<path d="M0 0 C0.33 0.99 0.66 1.98 1 3 C0.67 3.66 0.34 4.32 0 5 C-0.66 5 -1.32 5 -2 5 C-2.20625 5.928125 -2.4125 6.85625 -2.625 7.8125 C-4 11 -4 11 -7 12.9375 C-7.99 13.288125 -8.98 13.63875 -10 14 C-10.66 13.67 -11.32 13.34 -12 13 C-11.30132812 12.31292969 -10.60265625 11.62585938 -9.8828125 10.91796875 C-8.97273437 10.01691406 -8.06265625 9.11585938 -7.125 8.1875 C-6.22007812 7.29417969 -5.31515625 6.40085937 -4.3828125 5.48046875 C-1.90168486 3.04361667 -1.90168486 3.04361667 0 0 Z " fill="#D5FAE4" transform="translate(249,314)"/>
<path d="M0 0 C0.99 0.66 1.98 1.32 3 2 C1.68 5.3 0.36 8.6 -1 12 C-3.76223278 9.23776722 -3.57856291 6.79293383 -4 3 C-3.01 2.67 -2.02 2.34 -1 2 C-0.67 1.34 -0.34 0.68 0 0 Z " fill="#296339" transform="translate(23,186)"/>
<path d="M0 0 C4.509029 1.9470807 7.45441078 3.72341012 10 8 C9.75 10.8125 9.75 10.8125 9 13 C8.5978125 12.1028125 8.5978125 12.1028125 8.1875 11.1875 C7.1106021 8.95672092 7.1106021 8.95672092 5.375 7.375 C4.92125 6.92125 4.4675 6.4675 4 6 C4 5.34 4 4.68 4 4 C2.02 3.34 0.04 2.68 -2 2 C-1.34 1.34 -0.68 0.68 0 0 Z " fill="#9CD9AE" transform="translate(370,153)"/>
<path d="M0 0 C1.09658936 3.28976808 0.79953138 4.71303767 0 8 C-1.65 8 -3.3 8 -5 8 C-4.67 8.99 -4.34 9.98 -4 11 C-5.65 11 -7.3 11 -9 11 C-8.06558465 9.72689688 -7.12732889 8.456612 -6.1875 7.1875 C-5.66542969 6.47980469 -5.14335937 5.77210938 -4.60546875 5.04296875 C-3.16871123 3.21468607 -1.68184237 1.60103312 0 0 Z " fill="#58BB6C" transform="translate(251,277)"/>
<path d="M0 0 C3.74807139 0.13805051 6.1311503 1.01620933 9.125 3.375 C9.455 4.035 9.785 4.695 10.125 5.375 C8.475 5.045 6.825 4.715 5.125 4.375 C5.125 3.715 5.125 3.055 5.125 2.375 C-0.815 2.87 -0.815 2.87 -6.875 3.375 C-3.875 0.375 -3.875 0.375 0 0 Z " fill="#3D704E" transform="translate(131.875,326.625)"/>
<path d="M0 0 C0.33 0.66 0.66 1.32 1 2 C-3.62 2.66 -8.24 3.32 -13 4 C-13.33 3.01 -13.66 2.02 -14 1 C-9.27616037 0.34843591 -4.78025483 -0.11950637 0 0 Z " fill="#8FE2AC" transform="translate(393,388)"/>
<path d="M0 0 C0.99 0.33 1.98 0.66 3 1 C0.53846154 6.66153846 0.53846154 6.66153846 -2.1875 8.375 C-2.785625 8.58125 -3.38375 8.7875 -4 9 C-4 8.01 -4 7.02 -4 6 C-3.34 6 -2.68 6 -2 6 C-2 4.35 -2 2.7 -2 1 C-1.34 0.67 -0.68 0.34 0 0 Z " fill="#3AB156" transform="translate(229,330)"/>
<path d="M0 0 C0.66 0.33 1.32 0.66 2 1 C1.34 2.65 0.68 4.3 0 6 C-0.99 6 -1.98 6 -3 6 C-3 6.66 -3 7.32 -3 8 C-4.32 8.33 -5.64 8.66 -7 9 C-5.44499019 5.18315774 -2.96404505 2.80804268 0 0 Z " fill="#49B663" transform="translate(220,311)"/>
<path d="M0 0 C3.16451962 0.63432938 5.51687779 1.73182928 8.25 3.4375 C8.95640625 3.86933594 9.6628125 4.30117188 10.390625 4.74609375 C10.92171875 5.15988281 11.4528125 5.57367188 12 6 C12 6.66 12 7.32 12 8 C6.73610189 7.68097587 3.55597551 4.60721435 0 1 C0 0.67 0 0.34 0 0 Z " fill="#77A181" transform="translate(13,464)"/>
<path d="M0 0 C-0.66 0 -1.32 0 -2 0 C-1.2265625 1.175625 -1.2265625 1.175625 -0.4375 2.375 C0.036875 3.24125 0.51125 4.1075 1 5 C0.67 5.66 0.34 6.32 0 7 C-2.99324263 5.9024777 -3.84610901 5.32317108 -5.25 2.375 C-5.4975 1.59125 -5.745 0.8075 -6 0 C-3 -1 -3 -1 0 0 Z " fill="#2F663F" transform="translate(167,385)"/>
<path d="M0 0 C-0.66 0 -1.32 0 -2 0 C-2.33 0.99 -2.66 1.98 -3 3 C-8.25714286 7 -8.25714286 7 -12 7 C-10.84625061 3.53875184 -10.12298029 3.11687417 -7.125 1.25 C-6.42632812 0.80140625 -5.72765625 0.3528125 -5.0078125 -0.109375 C-3 -1 -3 -1 0 0 Z " fill="#659275" transform="translate(26,158)"/>
<path d="M0 0 C0 3.75366417 -1.11420063 5.78715662 -3 9 C-3.99 9.33 -4.98 9.66 -6 10 C-6.66 9.34 -7.32 8.68 -8 8 C-5.36 5.36 -2.72 2.72 0 0 Z " fill="#50BC6C" transform="translate(235,295)"/>
<path d="M0 0 C0.66 0 1.32 0 2 0 C1.58682778 4.82034262 -0.38019915 6.90992611 -4 10 C-4.66 10 -5.32 10 -6 10 C-4.8006207 6.58638198 -3.66702528 4.43511004 -1 2 C-0.67 1.34 -0.34 0.68 0 0 Z " fill="#73D3A4" transform="translate(378,465)"/>
<path d="M0 0 C1.29640378 0.59393382 2.58698839 1.20057989 3.875 1.8125 C4.59429687 2.14894531 5.31359375 2.48539062 6.0546875 2.83203125 C8 4 8 4 10 7 C9.01 7.33 8.02 7.66 7 8 C4.3125 6.1875 4.3125 6.1875 2 4 C2 3.34 2 2.68 2 2 C1.34 2 0.68 2 0 2 C0 1.34 0 0.68 0 0 Z " fill="#4DB969" transform="translate(310,376)"/>
<path d="M0 0 C0.66 1.32 1.32 2.64 2 4 C1.01 4.495 1.01 4.495 0 5 C-0.65555119 7.52733235 -0.65555119 7.52733235 -1 10 C-1.99 9.34 -2.98 8.68 -4 8 C-3.67 7.34 -3.34 6.68 -3 6 C-3.66 5.67 -4.32 5.34 -5 5 C-4.360625 4.731875 -3.72125 4.46375 -3.0625 4.1875 C-0.66868314 3.11332248 -0.66868314 3.11332248 0 0 Z " fill="#4FB268" transform="translate(185,348)"/>
<path d="M0 0 C0.33 0 0.66 0 1 0 C1 1.98 1 3.96 1 6 C0.01 6.33 -0.98 6.66 -2 7 C-3.37195574 8.29355827 -4.71182656 9.62298702 -6 11 C-6.33 10.34 -6.66 9.68 -7 9 C-5.38405168 6.95880212 -3.7143618 4.95927063 -2 3 C-1.34 3 -0.68 3 0 3 C0 2.01 0 1.02 0 0 Z " fill="#6AC386" transform="translate(408,372)"/>
<path d="M0 0 C0 0.66 0 1.32 0 2 C-5.28 1.67 -10.56 1.34 -16 1 C-16 0.67 -16 0.34 -16 0 C-13.89651926 -0.19504458 -11.79217415 -0.38078496 -9.6875 -0.5625 C-8.51574219 -0.66691406 -7.34398437 -0.77132813 -6.13671875 -0.87890625 C-3 -1 -3 -1 0 0 Z " fill="#3EAE5D" transform="translate(304,473)"/>
<path d="M0 0 C0 1.65 0 3.3 0 5 C-1.65 5.66 -3.3 6.32 -5 7 C-5.33 6.01 -5.66 5.02 -6 4 C-2.25 0 -2.25 0 0 0 Z " fill="#2D6E3D" transform="translate(182,354)"/>
<path d="M0 0 C0.99 0.33 1.98 0.66 3 1 C2.67 1.99 2.34 2.98 2 4 C-1.375 4.625 -1.375 4.625 -5 5 C-5.66 4.34 -6.32 3.68 -7 3 C-5.5459375 2.5359375 -5.5459375 2.5359375 -4.0625 2.0625 C-1.15934208 1.30476658 -1.15934208 1.30476658 0 0 Z " fill="#2E5F3F" transform="translate(19,162)"/>
<path d="M0 0 C0.66 0.66 1.32 1.32 2 2 C0.09598862 3.90401138 -1.33425686 4.93520439 -4.046875 5.19921875 C-6.03233273 5.1886578 -8.0169914 5.09915043 -10 5 C-10 4.67 -10 4.34 -10 4 C-8.906875 3.71125 -7.81375 3.4225 -6.6875 3.125 C-2.95986155 2.18106796 -2.95986155 2.18106796 0 0 Z " fill="#3B6B49" transform="translate(178,388)"/>
<path d="M0 0 C3.63 1.32 7.26 2.64 11 4 C11 4.33 11 4.66 11 5 C8.03 5 5.06 5 2 5 C2 4.01 2 3.02 2 2 C1.34 2 0.68 2 0 2 C0 1.34 0 0.68 0 0 Z " fill="#DBFDE8" transform="translate(317,384)"/>
<path d="M0 0 C0 2.33333333 0 4.66666667 0 7 C-1.98 7.99 -1.98 7.99 -4 9 C-4.33 8.01 -4.66 7.02 -5 6 C-3.59554165 3.7363436 -1.8032087 1.9791315 0 0 Z " fill="#5ABD74" transform="translate(199,333)"/>
<path d="M0 0 C0.66 0.33 1.32 0.66 2 1 C1.21302675 4.41021743 0.12880057 7.68885166 -1 11 C-1.66 10.67 -2.32 10.34 -3 10 C-2.69201674 8.51988629 -2.378482 7.04092675 -2.0625 5.5625 C-1.88847656 4.73878906 -1.71445312 3.91507813 -1.53515625 3.06640625 C-1 1 -1 1 0 0 Z " fill="#285D38" transform="translate(5,178)"/>
<path d="M0 0 C1.9453125 -0.29296875 1.9453125 -0.29296875 4.125 -0.1875 C5.40375 -0.125625 6.6825 -0.06375 8 0 C7.01 1.485 7.01 1.485 6 3 C4.0546875 3.29296875 4.0546875 3.29296875 1.875 3.1875 C0.59625 3.125625 -0.6825 3.06375 -2 3 C-1.34 2.01 -0.68 1.02 0 0 Z " fill="#255935" transform="translate(40,472)"/>
<path d="M0 0 C1 2 1 2 0.4375 4.5625 C-1 7 -1 7 -4.125 7.8125 C-5.548125 7.9053125 -5.548125 7.9053125 -7 8 C-6.02133662 6.85373678 -5.04205413 5.70800212 -4.0625 4.5625 C-3.51722656 3.92441406 -2.97195312 3.28632813 -2.41015625 2.62890625 C-1.63204305 1.73008851 -0.84063472 0.84063472 0 0 Z " fill="#4DB36B" transform="translate(193,340)"/>
<path d="M0 0 C0.66 0 1.32 0 2 0 C1.67 1.65 1.34 3.3 1 5 C0.34 5 -0.32 5 -1 5 C-1.33 5.99 -1.66 6.98 -2 8 C-2.99 8 -3.98 8 -5 8 C-4.67 7.01 -4.34 6.02 -4 5 C-3.34 4.67 -2.68 4.34 -2 4 C-0.86649466 1.98330173 -0.86649466 1.98330173 0 0 Z " fill="#35B350" transform="translate(214,319)"/>
<path d="M0 0 C0.33 0 0.66 0 1 0 C1.1875 2.375 1.1875 2.375 1 5 C0.01 5.66 -0.98 6.32 -2 7 C-2.99 6.67 -3.98 6.34 -5 6 C-3.35830472 3.97945196 -1.69088222 1.97956942 0 0 Z " fill="#CFF7E2" transform="translate(263,299)"/>
<path d="M0 0 C1.3921875 0.0928125 1.3921875 0.0928125 2.8125 0.1875 C2.8125 1.1775 2.8125 2.1675 2.8125 3.1875 C-0.1575 3.1875 -3.1275 3.1875 -6.1875 3.1875 C-3.1875 0.1875 -3.1875 0.1875 0 0 Z " fill="#60B47A" transform="translate(258.1875,273.8125)"/>
<path d="M0 0 C0.99 0 1.98 0 3 0 C3 0.66 3 1.32 3 2 C3.66 2.33 4.32 2.66 5 3 C5 3.99 5 4.98 5 6 C5.66 6.33 6.32 6.66 7 7 C5.35 6.67 3.7 6.34 2 6 C2 5.01 2 4.02 2 3 C1.34 2.67 0.68 2.34 0 2 C0 1.34 0 0.68 0 0 Z " fill="#367244" transform="translate(23,467)"/>
<path d="M0 0 C2.31 0.33 4.62 0.66 7 1 C7 1.66 7 2.32 7 3 C5.35 3.66 3.7 4.32 2 5 C1.01 4.01 0.02 3.02 -1 2 C-0.67 1.34 -0.34 0.68 0 0 Z " fill="#23B245" transform="translate(369,464)"/>
<path d="M0 0 C0.33 0.99 0.66 1.98 1 3 C-1.97 5.475 -1.97 5.475 -5 8 C-5.66 7.67 -6.32 7.34 -7 7 C-4.69 4.69 -2.38 2.38 0 0 Z " fill="#CAF5D7" transform="translate(193,375)"/>
<path d="M0 0 C1.9375 0.8125 1.9375 0.8125 4 2 C4.33 2.99 4.66 3.98 5 5 C5.66 5.33 6.32 5.66 7 6 C6.01 6.33 5.02 6.66 4 7 C3.566875 6.0409375 3.566875 6.0409375 3.125 5.0625 C2.17176549 2.84793921 2.17176549 2.84793921 0 2 C0 1.34 0 0.68 0 0 Z " fill="#8FB39D" transform="translate(8,458)"/>
<path d="M0 0 C3.16115776 1.36983503 3.9927092 1.9890638 6 5 C5.01 5.495 5.01 5.495 4 6 C2 4.6875 2 4.6875 0 3 C0 2.01 0 1.02 0 0 Z " fill="#2B613F" transform="translate(160,353)"/>
<path d="M0 0 C0.66 0.33 1.32 0.66 2 1 C0.9024777 3.99324263 0.32317108 4.84610901 -2.625 6.25 C-3.40875 6.4975 -4.1925 6.745 -5 7 C-5 6.34 -5 5.68 -5 5 C-4.34 5 -3.68 5 -3 5 C-2.87625 4.360625 -2.7525 3.72125 -2.625 3.0625 C-2.41875 2.381875 -2.2125 1.70125 -2 1 C-1.34 0.67 -0.68 0.34 0 0 Z " fill="#20B746" transform="translate(256,278)"/>
<path d="M0 0 C0 0.99 0 1.98 0 3 C-0.99 3.495 -0.99 3.495 -2 4 C-2.33 4.99 -2.66 5.98 -3 7 C-3.66 7 -4.32 7 -5 7 C-4.625 4.0625 -4.625 4.0625 -4 1 C-2 0 -2 0 0 0 Z " fill="#33B053" transform="translate(256,276)"/>
<path d="M0 0 C0.66 0 1.32 0 2 0 C1.875 1.875 1.875 1.875 1 4 C-2.0625 5.25 -2.0625 5.25 -5 6 C-3.625 4 -3.625 4 -2 2 C-1.34 2 -0.68 2 0 2 C0 1.34 0 0.68 0 0 Z " fill="#3FA555" transform="translate(399,381)"/>
<path d="M0 0 C0.66 0 1.32 0 2 0 C1.67 1.65 1.34 3.3 1 5 C-0.65 5.33 -2.3 5.66 -4 6 C-2.7260411 3.96166576 -1.38938077 1.96147874 0 0 Z " fill="#D0F6DF" transform="translate(254,308)"/>
<path d="M0 0 C0.33 1.32 0.66 2.64 1 4 C-0.32 4.99 -1.64 5.98 -3 7 C-3.66 6.67 -4.32 6.34 -5 6 C-3.35 4.02 -1.7 2.04 0 0 Z " fill="#C7F4D4" transform="translate(269,292)"/>
<path d="M0 0 C-4.95 1.485 -4.95 1.485 -10 3 C-10.33 2.01 -10.66 1.02 -11 0 C-6.79405774 -0.72795155 -4.19895255 -1.04973814 0 0 Z " fill="#487B58" transform="translate(40,179)"/>
</svg>
