<?xml version="1.0" encoding="UTF-8"?>
<svg version="1.1" xmlns="http://www.w3.org/2000/svg" width="409" height="610">
<path d="M0 0 C1.65786973 0.73529655 3.31679054 1.46822621 4.9765625 2.19921875 C5.8727832 2.59802246 6.76900391 2.99682617 7.69238281 3.40771484 C13.20930191 5.81528144 18.79603544 8.05343121 24.375 10.3125 C25.5491748 10.78985596 26.72334961 11.26721191 27.93310547 11.7590332 C34.79861298 14.5489637 41.67360753 17.31322541 48.55859375 20.0546875 C55.26963746 22.73910498 61.95359406 25.49107488 68.64453125 28.22509766 C74.97066778 30.80554129 81.30426402 33.36473606 87.65234375 35.890625 C88.65328819 36.28923233 88.65328819 36.28923233 89.67445374 36.69589233 C92.90206375 37.98075839 96.13083903 39.26255874 99.36157227 40.53955078 C105.71411939 43.06460911 111.96708208 45.71743971 118.17236328 48.58447266 C121.58014813 50.11705995 125.04874245 51.42173066 128.5625 52.6875 C134.41198902 54.8397558 140.20021617 57.08970119 145.93359375 59.5390625 C147.68655114 60.28705883 149.44944205 61.01231777 151.22265625 61.7109375 C152.41181641 62.19433594 152.41181641 62.19433594 153.625 62.6875 C154.305625 62.955625 154.98625 63.22375 155.6875 63.5 C161.41444205 67.01006126 163.73683244 73.71375411 166.4375 79.5625 C166.87763428 80.5014209 167.31776855 81.4403418 167.77124023 82.40771484 C169.06214362 85.16475098 170.34441603 87.92565897 171.625 90.6875 C172.25463813 92.03672457 172.884778 93.38571522 173.515625 94.734375 C174.6243845 97.10732757 175.72603321 99.48361649 176.8203125 101.86328125 C178.17050772 104.76859822 179.60056936 107.62581712 181.0546875 110.48046875 C181.67815063 111.72932861 181.67815063 111.72932861 182.31420898 113.00341797 C183.12053195 114.6160639 183.94198529 116.22127286 184.78149414 117.81689453 C187.54091233 123.39343167 188.83274157 128.47578416 187.625 134.6875 C184.4265307 140.06983711 180.53873207 142.11258807 174.9375 144.3125 C174.28072266 144.58578125 173.62394531 144.8590625 172.94726562 145.140625 C170.84717195 146.00906954 168.7370207 146.84846514 166.625 147.6875 C164.86858849 148.3894479 163.1123251 149.09176653 161.35620117 149.79443359 C160.466884 150.15024506 159.57756683 150.50605652 158.66130066 150.87265015 C157.98932144 151.1415506 157.31734222 151.41045105 156.625 151.6875 C156.61913376 152.97487564 156.61326752 154.26225128 156.60722351 155.58863831 C156.54998353 167.72740042 156.47721492 179.8659836 156.38928509 192.00456333 C156.34457855 198.24497242 156.30532279 204.48531617 156.27856445 210.72583008 C156.25253469 216.74949925 156.21213396 222.77291707 156.16181374 228.79643059 C156.14514293 231.09325977 156.13363 233.39013243 156.12738609 235.68701363 C156.11774764 238.90692554 156.08969017 242.12619405 156.05737305 245.34594727 C156.05880814 246.29325714 156.06024323 247.24056702 156.0617218 248.21658325 C155.98272248 253.79079477 155.28271328 257.75462269 152.625 262.6875 C150.76245117 264.22900391 150.76245117 264.22900391 148.66796875 265.1640625 C147.89179199 265.52218018 147.11561523 265.88029785 146.31591797 266.24926758 C145.48979004 266.60013428 144.66366211 266.95100098 143.8125 267.3125 C142.96316895 267.69365967 142.11383789 268.07481934 141.23876953 268.4675293 C135.13108186 271.16500514 128.93913582 273.50218715 122.6171875 275.6484375 C119.31698454 276.79446098 116.17662929 278.14276115 113.00390625 279.59765625 C104.97173106 283.27742124 96.85495822 286.64955062 88.5625 289.6875 C83.68412085 291.47672328 78.95012293 293.39613667 74.25 295.625 C68.49665947 298.35287698 62.64777912 300.6699514 56.70410156 302.93896484 C51.08401338 305.09392109 45.53528699 307.38641052 40 309.75 C33.45694981 312.53928968 26.87464892 315.14606274 20.2019043 317.60742188 C13.27817399 320.16689681 6.37538321 322.82763694 -0.2421875 326.109375 C-6.08652282 328.99106942 -10.85353398 331.22539796 -17.375 329.6875 C-21.39122186 328.14279928 -25.27958062 326.41154525 -29.1796875 324.59765625 C-32.91156544 322.86797937 -36.69274887 321.39996396 -40.5625 320 C-48.50997142 317.10487172 -56.31536181 313.8693421 -64.125 310.625 C-64.74047699 310.36933258 -65.35595398 310.11366516 -65.99008179 309.85025024 C-70.12008345 308.13339154 -74.24778363 306.41104127 -78.375 304.6875 C-87.86488635 300.72534807 -97.36671864 296.79275739 -106.875 292.875 C-107.62478119 292.56591705 -108.37456238 292.25683411 -109.14706421 291.93838501 C-117.80846625 288.36909109 -126.47704382 284.8233021 -135.1875 281.375 C-142.86958729 278.33325808 -150.47075929 275.12012787 -158.05004883 271.83081055 C-158.86111084 271.47929932 -159.67217285 271.12778809 -160.5078125 270.765625 C-161.30227783 270.42128418 -162.09674316 270.07694336 -162.9152832 269.72216797 C-166.32361544 268.28846951 -169.77522633 266.97197311 -173.2355957 265.66943359 C-176.99679132 263.94313795 -179.51216601 261.41316797 -181.375 257.6875 C-182.45420558 251.41742331 -182.51460018 245.10498888 -182.48852539 238.76147461 C-182.48867142 237.81406403 -182.48881744 236.86665344 -182.4889679 235.89053345 C-182.48827681 232.79027944 -182.48052241 229.69008714 -182.47265625 226.58984375 C-182.47078921 224.42794325 -182.46936666 222.26604232 -182.46836853 220.10414124 C-182.46456588 214.43741673 -182.45475499 208.77071821 -182.44366455 203.10400391 C-182.43340184 197.31217805 -182.42886053 191.52034797 -182.42382812 185.72851562 C-182.41313056 174.38149906 -182.3960814 163.0345017 -182.375 151.6875 C-184.56981596 150.74102113 -186.76520788 149.7959176 -188.9609375 148.8515625 C-189.57316162 148.58738525 -190.18538574 148.32320801 -190.81616211 148.05102539 C-195.78752799 145.9148147 -200.80401405 143.91081238 -205.8515625 141.9609375 C-209.28109751 140.23024336 -211.64927691 138.13894619 -213.375 134.6875 C-214.24014973 127.27707536 -212.73334018 122.0019253 -209.3125 115.5 C-208.47473954 113.82447909 -207.63750496 112.14869514 -206.80078125 110.47265625 C-206.38521973 109.65684082 -205.9696582 108.84102539 -205.54150391 108.00048828 C-203.95037868 104.8455447 -202.47462581 101.64866813 -201 98.4375 C-200.44699219 97.25929688 -199.89398438 96.08109375 -199.32421875 94.8671875 C-198.23555148 92.5453963 -197.16159046 90.21817883 -196.10009766 87.88378906 C-194.68431544 84.77035843 -193.24917464 81.66633701 -191.8125 78.5625 C-191.36535645 77.56573242 -190.91821289 76.56896484 -190.45751953 75.54199219 C-186.51754982 67.1035185 -182.91192642 63.55539384 -174.30078125 60.19921875 C-171.99270856 59.3605438 -169.68410933 58.52331656 -167.375 57.6875 C-165.2598912 56.85096331 -163.14909502 56.00343229 -161.04296875 55.14453125 C-159.4643103 54.50161133 -159.4643103 54.50161133 -157.85375977 53.84570312 C-156.76764404 53.40162109 -155.68152832 52.95753906 -154.5625 52.5 C-153.39452881 52.02369141 -152.22655762 51.54738281 -151.02319336 51.05664062 C-143.47753254 47.97365399 -135.95341471 44.84214892 -128.4375 41.6875 C-118.3949852 37.47411087 -108.27325507 33.48086616 -98.12695312 29.52490234 C-91.12837468 26.79004002 -84.19907378 23.96024821 -77.31640625 20.9453125 C-73.13946652 19.15915766 -68.89260558 17.57263972 -64.64453125 15.96484375 C-61.24626465 14.63720554 -57.90671799 13.20812449 -54.5625 11.75 C-48.88756763 9.2872935 -43.16222498 7.06645942 -37.35205078 4.95092773 C-34.03428686 3.73081824 -30.78004978 2.45132243 -27.56640625 0.9765625 C-26.36886719 0.42742187 -25.17132813 -0.12171875 -23.9375 -0.6875 C-22.88691406 -1.19023437 -21.83632812 -1.69296875 -20.75390625 -2.2109375 C-13.08769475 -4.71021108 -7.1218115 -3.32382814 0 0 Z " fill="#289334" transform="translate(217.375,157.3125)"/>
<path d="M0 0 C0 29.7 0 59.4 0 90 C-2.97 91.32 -5.94 92.64 -9 94 C-10.25941406 94.56460938 -11.51882813 95.12921875 -12.81640625 95.7109375 C-19.37375671 98.63320674 -25.94232165 101.41404848 -32.6875 103.875 C-39.01428299 106.18372909 -45.19788112 108.75487193 -51.375 111.4375 C-59.52006184 114.97477554 -67.72731016 118.27654305 -76.015625 121.4609375 C-82.95034019 124.12738433 -89.77913538 127.03422573 -96.59375 129.9921875 C-106.19166922 134.14981994 -115.82373885 138.18196734 -125.5625 142 C-126.54387939 142.38575195 -127.52525879 142.77150391 -128.53637695 143.16894531 C-132.36471236 144.65764902 -136.00613871 146.00153468 -140 147 C-140 102.78 -140 58.56 -140 13 C-139.34 13 -138.68 13 -138 13 C-137.69296143 13.65484375 -137.38592285 14.3096875 -137.06958008 14.984375 C-135.655747 17.99205595 -134.23418725 20.99602412 -132.8125 24 C-132.32974609 25.02996094 -131.84699219 26.05992187 -131.34960938 27.12109375 C-127.2578589 37.38187269 -127.2578589 37.38187269 -120 45 C-114.33779039 45.4236067 -110.26657866 44.32852368 -105.125 42.25 C-104.41520996 41.97341553 -103.70541992 41.69683105 -102.97412109 41.41186523 C-98.7900457 39.76671709 -94.67330108 38.0060552 -90.58984375 36.125 C-86.11642436 34.1817952 -81.55164217 32.46637473 -76.99658203 30.72485352 C-71.66614864 28.67854821 -66.39609462 26.50712088 -61.13012695 24.30053711 C-54.90076224 21.71229705 -48.62386912 19.24178648 -42.35546875 16.75 C-36.18227489 14.28994765 -30.03584999 11.77497233 -23.90576172 9.20947266 C-19.39018484 7.32994251 -14.85349228 5.50458651 -10.3125 3.6875 C-9.42111328 3.32849609 -8.52972656 2.96949219 -7.61132812 2.59960938 C-6.76634766 2.26123047 -5.92136719 1.92285156 -5.05078125 1.57421875 C-4.29450439 1.27088623 -3.53822754 0.96755371 -2.7590332 0.6550293 C-1 0 -1 0 0 0 Z " fill="#FBFCFB" transform="translate(353,316)"/>
<path d="M0 0 C3.80006252 0.95001563 6.98693435 2.23445706 10.5625 3.8125 C15.73212556 6.06942387 20.93630445 8.11166859 26.25390625 9.9921875 C31.91489031 12.0697606 37.60311391 14.30155696 43 17 C43 24.26 43 31.52 43 39 C45.97 39.495 45.97 39.495 49 40 C51.2890625 40.91015625 51.2890625 40.91015625 53.625 42.0625 C62.23821328 46.13550767 71.14492569 49.49362829 80 53 C80 46.07 80 39.14 80 32 C83.86628912 32.96657228 87.16467365 34.28623923 90.8125 35.875 C91.99457031 36.38804687 93.17664063 36.90109375 94.39453125 37.4296875 C95.58433594 37.94789063 96.77414063 38.46609375 98 39 C99.23534059 39.52943168 100.47101083 40.05809491 101.70703125 40.5859375 C103.51963031 41.36430151 105.32842261 42.15269834 107.1171875 42.984375 C113.30306891 45.67867002 118.68360094 45.10546635 125 43 C126.10457591 40.73047199 126.10457591 40.73047199 127 38 C128.79398686 33.89883555 130.64876514 29.82558683 132.5 25.75 C132.99886719 24.63625 133.49773437 23.5225 134.01171875 22.375 C134.49253906 21.31796875 134.97335938 20.2609375 135.46875 19.171875 C135.90638672 18.2034668 136.34402344 17.23505859 136.79492188 16.23730469 C138 14 138 14 140 13 C140 57.22 140 101.44 140 147 C133.92318558 145.17695567 128.85917289 143.61515684 123.24829102 141.02172852 C121.03037433 140.01380351 118.79519888 139.10412792 116.52734375 138.21484375 C109.2001111 135.30433036 101.96581333 132.17447807 94.72070312 129.06640625 C88.68313272 126.49465059 82.62724936 124.11236866 76.44555664 121.91162109 C71.89766326 120.21631972 67.615331 118.0184808 63.26171875 115.87890625 C59.82326707 114.28366407 56.31404215 113.02907819 52.734375 111.78515625 C43.51021053 108.54635687 34.55523456 104.70114176 25.5625 100.875 C23.85496772 100.15198937 22.14728615 99.4293312 20.43945312 98.70703125 C13.61944401 95.82046767 6.80695418 92.91726608 0 90 C0 60.3 0 30.6 0 0 Z " fill="#FAFCFA" transform="translate(55,316)"/>
<path d="M0 0 C3.16998631 1.42075682 3.69740902 3.60099777 5.08740234 6.72583008 C5.3560611 7.31744431 5.62471985 7.90905853 5.90151978 8.51860046 C6.76124526 10.41901593 7.60061308 12.32762144 8.43896484 14.23754883 C9.27118424 16.0991305 10.10756498 17.95879254 10.94488525 19.81808472 C11.49755842 21.04675531 12.04781872 22.27651413 12.59564209 23.50735474 C14.87835015 28.60929316 17.38587723 33.57618413 19.984375 38.5234375 C21.06396484 40.92504883 21.06396484 40.92504883 21.06396484 43.92504883 C-18.95556641 59.93286133 -18.95556641 59.93286133 -21.44726562 60.92944336 C-23.10913926 61.59425802 -24.77092286 62.25929783 -26.43261719 62.92456055 C-30.6100591 64.59667981 -34.78900774 66.26482162 -38.97119141 67.92504883 C-47.99769812 71.51340493 -56.977167 75.18957543 -65.91699219 78.98876953 C-72.11781135 81.6110997 -78.37305024 84.07083798 -84.65478516 86.49169922 C-92.23226558 89.41456141 -99.72796951 92.50021005 -107.15478516 95.78833008 C-108.24895752 96.27172852 -108.24895752 96.27172852 -109.36523438 96.76489258 C-110.80601399 97.40310316 -112.24520545 98.04491371 -113.68261719 98.69067383 C-118.71616753 100.92504883 -118.71616753 100.92504883 -120.93603516 100.92504883 C-124.14048712 94.64904845 -127.17336722 88.30359244 -130.12207031 81.90429688 C-131.74365512 78.40816706 -133.41553286 74.94632772 -135.16259766 71.51098633 C-135.71500122 70.42454834 -135.71500122 70.42454834 -136.27856445 69.31616211 C-136.99598092 67.91332098 -137.71861874 66.51313503 -138.44702148 65.1159668 C-140.93603516 60.25144094 -140.93603516 60.25144094 -140.93603516 56.92504883 C-132.58327498 52.37090572 -123.80245262 49.06166523 -114.93164062 45.68579102 C-109.44251641 43.59328905 -104.00711493 41.38625887 -98.60400391 39.08129883 C-90.27597075 35.53316153 -81.99629135 32.09335599 -73.40478516 29.22583008 C-70.45049011 28.11796944 -67.63895416 26.89997877 -64.77587891 25.58129883 C-58.92627729 22.88778212 -52.986851 20.47840817 -46.99853516 18.11254883 C-44.80060519 17.23888437 -42.60268871 16.36518599 -40.40478516 15.49145508 C-39.31939453 15.06106934 -38.23400391 14.63068359 -37.11572266 14.18725586 C-32.40616012 12.31775046 -27.70232936 10.4340091 -22.99853516 8.55004883 C-21.46862025 7.93798715 -19.93867369 7.32600456 -18.40869141 6.71411133 C-17.6882666 6.42568359 -16.9678418 6.13725586 -16.22558594 5.84008789 C-14.557992 5.17361934 -12.88958693 4.50917928 -11.22070312 3.84594727 C-9.87129639 3.3088916 -9.87129639 3.3088916 -8.49462891 2.76098633 C-7.25990845 2.27057861 -7.25990845 2.27057861 -6.00024414 1.77026367 C-1.53200538 -0.05930967 -1.53200538 -0.05930967 0 0 Z " fill="#FAFCF9" transform="translate(361.93603515625,240.074951171875)"/>
<path d="M0 0 C5.61393408 2.36214713 11.13529442 4.34017767 17 6 C18.175625 6.556875 19.35125 7.11375 20.5625 7.6875 C26.91746234 10.11394017 32.50332734 7.21629991 38.5 4.8125 C39.28810059 4.50151367 40.07620117 4.19052734 40.88818359 3.87011719 C46.97633475 1.45158715 52.99393008 -1.11371807 59.0078125 -3.7109375 C70.00696864 -8.44947735 70.00696864 -8.44947735 76 -8 C76 -8.66 76 -9.32 76 -10 C80.74780065 -9.33103396 84.74337031 -7.47151841 89.0625 -5.5 C90.468714 -4.86162755 91.87622974 -4.22611326 93.28515625 -3.59375 C93.90269775 -3.31208984 94.52023926 -3.03042969 95.15649414 -2.74023438 C97.08105073 -1.9674552 98.97940534 -1.45764055 101 -1 C101 -0.34 101 0.32 101 1 C82.015625 8.59375 82.015625 8.59375 80.08642578 9.36523438 C78.82159759 9.87129575 77.55694867 10.37780543 76.29248047 10.88476562 C73.57131763 11.97524484 70.84814683 13.05925977 68.1171875 14.125 C62.91867452 16.15989193 57.95727219 18.42956257 53 21 C54.01578125 21.37511719 55.0315625 21.75023437 56.078125 22.13671875 C57.46879597 22.65352215 58.8594183 23.17045644 60.25 23.6875 C60.91257813 23.93177734 61.57515625 24.17605469 62.2578125 24.42773438 C67.51055939 26.3851259 72.68229105 28.51206802 77.85058594 30.68188477 C80.98751582 31.99477503 84.13283377 33.28523965 87.28125 34.5703125 C89.35416667 35.421875 91.42708333 36.2734375 93.5 37.125 C95.08554687 37.76888672 95.08554687 37.76888672 96.703125 38.42578125 C97.71890625 38.84472656 98.7346875 39.26367188 99.78125 39.6953125 C100.68939453 40.06672363 101.59753906 40.43813477 102.53320312 40.82080078 C104.96090074 41.98130944 106.91426646 43.31036113 109 45 C90.21983326 55.14129004 90.21983326 55.14129004 81 54 C77.45519562 52.82119072 74.05104499 51.35964898 70.625 49.875 C68.65576331 49.04363886 66.68570397 48.21422373 64.71484375 47.38671875 C63.74659668 46.97856934 62.77834961 46.57041992 61.78076172 46.14990234 C57.95054677 44.56602944 54.07928651 43.11188914 50.1875 41.6875 C43.77228442 39.32749427 37.54506918 36.68812818 31.375 33.75 C23.1828451 31.16300372 16.56288835 34.90277596 9.0625 38.125 C6.63220102 39.14357642 4.20121404 40.16051288 1.76953125 41.17578125 C0.60115723 41.66643066 -0.5672168 42.15708008 -1.77099609 42.66259766 C-5.73266736 44.30345923 -9.72381436 45.83843485 -13.75 47.3125 C-23.60846306 50.94511791 -33.35414687 54.83446597 -43 59 C-43.33 62.63 -43.66 66.26 -44 70 C-50.06563327 68.07921613 -55.87305146 65.8327466 -61.71875 63.32421875 C-64.09248594 62.36624674 -66.41787183 61.50415739 -68.84375 60.70703125 C-69.48352783 60.4941748 -70.12330566 60.28131836 -70.7824707 60.06201172 C-72.60470882 59.46464082 -74.43310563 58.88615571 -76.26171875 58.30859375 C-79 57 -79 57 -79.89453125 54.84765625 C-79.92933594 54.23792969 -79.96414062 53.62820313 -80 53 C-64.67924528 45 -64.67924528 45 -57 45 C-57 44.34 -57 43.68 -57 43 C-55.97261719 42.62488281 -54.94523437 42.24976563 -53.88671875 41.86328125 C-46.7448724 39.23385011 -39.73191681 36.51179887 -32.8359375 33.28125 C-28.82625524 31.46971311 -24.74028214 29.86121637 -20.64990234 28.24365234 C-14.73495881 25.90412572 -8.86276586 23.46738377 -3 21 C-13.4740623 16.01907999 -24.068543 11.39598055 -35.02734375 7.58203125 C-35.67324463 7.35717041 -36.31914551 7.13230957 -36.98461914 6.90063477 C-38.7757463 6.28416132 -40.57135483 5.68075341 -42.3671875 5.078125 C-45 4 -45 4 -46 2 C-46.99 1.34 -47.98 0.68 -49 0 C-44.80472853 -2.11984973 -40.57909941 -4.15275079 -36.3125 -6.125 C-35.19488281 -6.64320313 -34.07726562 -7.16140625 -32.92578125 -7.6953125 C-22.27867462 -12.44315444 -9.9809623 -4.39919192 0 0 Z " fill="#16471C" transform="translate(179,205)"/>
<path d="M0 0 C6.35718993 1.69616998 12.23130056 3.87102427 18.1640625 6.71875 C21.7032971 8.31774304 25.36359831 9.63634936 29 11 C36.59 13.97 44.18 16.94 52 20 C52 37.16 52 54.32 52 72 C43.02439024 69.75609756 43.02439024 69.75609756 39.4375 68.25 C38.17873047 67.72986328 38.17873047 67.72986328 36.89453125 67.19921875 C35.93933594 66.80347656 34.98414063 66.40773438 34 66 C31.5425158 65.01862842 29.08429587 64.03930403 26.625 63.0625 C22.20473005 61.30321296 17.80385808 59.50594268 13.4140625 57.671875 C6.54295445 54.80199946 -0.35213475 51.99233229 -7.25 49.1875 C-8.49611223 48.68038396 -9.74220607 48.17322271 -10.98828125 47.66601562 C-13.99200809 46.44356866 -16.99591675 45.22157077 -20 44 C-19.23597504 39.73066099 -17.88272355 36.48739195 -15.875 32.625 C-15.23779619 31.3837283 -14.60244016 30.14150665 -13.96875 28.8984375 C-13.47955078 27.9388916 -13.47955078 27.9388916 -12.98046875 26.95996094 C-11.37714592 23.75491221 -9.87574529 20.50403378 -8.375 17.25 C-5.69125411 11.44384063 -2.90878469 5.69692853 0 0 Z " fill="#FAFCFA" transform="translate(46,240)"/>
<path d="M0 0 C1.87762861 0.83620808 3.75654896 1.66952141 5.63671875 2.5 C7.01996338 3.11294922 7.01996338 3.11294922 8.43115234 3.73828125 C12.01437942 5.28620343 15.64509606 6.66639857 19.3125 8 C27.66368801 11.04930722 35.86175827 14.4444917 44.0625 17.875 C40.92031854 20.47710425 37.84003554 21.90817174 34.0390625 23.36328125 C32.85932861 23.81952881 31.67959473 24.27577637 30.46411133 24.74584961 C29.84645905 24.98157684 29.22880676 25.21730408 28.59243774 25.46017456 C25.40680604 26.67648254 22.22918292 27.91338718 19.05078125 29.1484375 C17.83600098 29.61991211 16.6212207 30.09138672 15.36962891 30.57714844 C8.65309601 33.21298846 1.94810381 35.94397265 -4.515625 39.15625 C-9.48116996 41.58969587 -12.39439841 42.43095834 -17.9375 40.875 C-21.334085 39.67945113 -24.63144039 38.30025898 -27.9375 36.875 C-29.03707031 36.40578125 -30.13664062 35.9365625 -31.26953125 35.453125 C-33.65980468 34.4306045 -36.04910734 33.40581215 -38.4375 32.37890625 C-48.8363379 27.91065559 -59.3223097 23.79507662 -69.9375 19.875 C-69.9375 18.885 -69.9375 17.895 -69.9375 16.875 C-59.94334801 12.83723921 -49.95008501 8.81707949 -39.82836914 5.10839844 C-36.31534373 3.80895678 -32.85451747 2.43111468 -29.4140625 0.94921875 C-28.65633545 0.6251001 -27.8986084 0.30098145 -27.11791992 -0.03295898 C-25.66794677 -0.65811884 -24.22239334 -1.2936768 -22.7824707 -1.94165039 C-14.12287165 -5.66887341 -8.24729426 -3.80075635 0 0 Z " fill="#F9FBF8" transform="translate(217.9375,241.125)"/>
<path d="M0 0 C3.92250574 1.74664212 7.88736526 3.391539 11.84936523 5.04614258 C18.05165876 7.63633368 24.21803063 10.2918035 30.34936523 13.04614258 C30.34936523 13.70614258 30.34936523 14.36614258 30.34936523 15.04614258 C29.62869873 15.33336182 28.90803223 15.62058105 28.16552734 15.91650391 C24.8722707 17.22962616 21.57956419 18.54412256 18.28686523 19.85864258 C16.58626953 20.53636719 16.58626953 20.53636719 14.85131836 21.2277832 C8.11818806 23.9171093 1.41586292 26.60872179 -5.15063477 29.68676758 C-6.30563477 30.21786133 -7.46063477 30.74895508 -8.65063477 31.29614258 C-9.80563477 31.83754883 -10.96063477 32.37895508 -12.15063477 32.93676758 C-18.6430823 34.99464157 -23.7566807 32.82519314 -29.83813477 30.29614258 C-30.81967529 29.89190063 -30.81967529 29.89190063 -31.82104492 29.47949219 C-33.76749176 28.67593713 -35.70933945 27.8620493 -37.65063477 27.04614258 C-39.1569043 26.4215918 -39.1569043 26.4215918 -40.69360352 25.78442383 C-42.59975378 24.99304282 -44.5046833 24.19871575 -46.40844727 23.40161133 C-50.40197641 21.73202746 -54.40017296 20.07403579 -58.40063477 18.42114258 C-59.09785645 18.13182861 -59.79507813 17.84251465 -60.51342773 17.54443359 C-64.0194577 16.09737522 -67.52888726 14.72875957 -71.10375977 13.46020508 C-74.65063477 12.04614258 -74.65063477 12.04614258 -75.65063477 10.04614258 C-68.69629888 7.08714084 -61.70046174 4.26803775 -54.65063477 1.54614258 C-48.43903732 -0.85247867 -42.26474108 -3.31759025 -36.13110352 -5.91088867 C-35.31254883 -6.25506836 -34.49399414 -6.59924805 -33.65063477 -6.95385742 C-32.78954102 -7.33026367 -31.92844727 -7.70666992 -31.04125977 -8.09448242 C-21.48817934 -11.5285963 -8.60678845 -3.87136684 0 0 Z " fill="#F6FAF6" transform="translate(306.650634765625,214.953857421875)"/>
<path d="M0 0 C0.6794165 0.25958496 1.35883301 0.51916992 2.05883789 0.78662109 C7.82650055 3.00290788 13.57155749 5.27803634 19.3125 7.5625 C20.12799316 7.88677979 20.94348633 8.21105957 21.78369141 8.54516602 C27.20480751 10.71967881 32.55361782 13.02946912 37.875 15.4375 C35.13609665 18.36992103 32.73368501 19.44127196 28.9375 20.8125 C20.69447582 23.86818266 12.59107219 27.15353643 4.625 30.875 C-0.01203396 32.98765157 -4.69599251 34.94852603 -9.4375 36.8125 C-10.10749023 37.08763428 -10.77748047 37.36276855 -11.46777344 37.64624023 C-18.15094354 40.21367753 -22.47957484 38.91563414 -28.8125 36.125 C-32.69637866 34.45091437 -36.56829256 32.88979733 -40.5625 31.5 C-45.88285686 29.61138848 -50.9175352 27.23978327 -56.01953125 24.83203125 C-59.98676246 23.05051988 -63.96823847 21.70566454 -68.125 20.4375 C-68.125 19.7775 -68.125 19.1175 -68.125 18.4375 C-54.57196048 12.50021651 -40.86275053 6.93128538 -27.125 1.4375 C-26.30177246 1.1070166 -25.47854492 0.7765332 -24.63037109 0.43603516 C-22.69814391 -0.33150183 -20.7558754 -1.07364482 -18.8125 -1.8125 C-17.82636719 -2.18890625 -16.84023437 -2.5653125 -15.82421875 -2.953125 C-10.19822615 -4.22324779 -5.20899843 -2.0238489 0 0 Z " fill="#F8FAF7" transform="translate(139.125,209.5625)"/>
<path d="M0 0 C10.11758585 3.37252862 10.11758585 3.37252862 13.796875 4.8671875 C14.60382813 5.19291748 15.41078125 5.51864746 16.2421875 5.85424805 C17.06976563 6.19109619 17.89734375 6.52794434 18.75 6.875 C20.51534257 7.58793932 22.28096776 8.30017924 24.046875 9.01171875 C25.32014648 9.52484619 25.32014648 9.52484619 26.61914062 10.04833984 C29.73444897 11.29356871 32.86428857 12.4945663 36 13.6875 C42.05481977 15.99634178 48.03314935 18.47349567 54 21 C53.45472656 22.15113281 52.90945312 23.30226563 52.34765625 24.48828125 C51.98752441 25.24866699 51.62739258 26.00905273 51.25634766 26.79248047 C50.45297174 28.48827724 49.64925459 30.1839124 48.84521484 31.87939453 C46.72350463 36.35470939 44.60738041 40.83248803 42.50390625 45.31640625 C42.10486084 46.16485107 41.70581543 47.0132959 41.29467773 47.88745117 C40.53035898 49.51292473 39.76806336 51.13935154 39.00805664 52.7668457 C37.18274555 56.6426441 35.2971342 60.37370639 33 64 C20.960788 61.79281113 10.94849942 56.47424971 0 51 C0 34.17 0 17.34 0 0 Z " fill="#F9FCF9" transform="translate(135,276)"/>
<path d="M0 0 C0.97839844 0.36641602 0.97839844 0.36641602 1.9765625 0.74023438 C5.79424887 2.20714694 9.43173634 3.8824664 13.0703125 5.75 C18.36666885 8.4444501 23.80681401 10.56430196 29.375 12.625 C30.80972656 13.16350586 30.80972656 13.16350586 32.2734375 13.71289062 C34.59718926 14.58429754 36.92265505 15.45074641 39.25 16.3125 C39.25 16.9725 39.25 17.6325 39.25 18.3125 C38.61610352 18.55895264 37.98220703 18.80540527 37.32910156 19.05932617 C23.4256774 24.43307034 23.4256774 24.43307034 9.625 30.0625 C8.73941406 30.42988281 7.85382813 30.79726562 6.94140625 31.17578125 C4.9379377 32.02194866 2.94763245 32.89941713 0.96484375 33.79296875 C-5.13259762 36.40415776 -9.45484496 38.09272634 -15.9453125 36.12109375 C-17.75 35.3125 -17.75 35.3125 -20.75 33.3125 C-22.77466783 32.62617192 -24.80128182 31.94518925 -26.8359375 31.2890625 C-37.9154341 27.57609447 -49.29549697 23.53975152 -59.75 18.3125 C-59.75 17.6525 -59.75 16.9925 -59.75 16.3125 C-52.2670206 12.81665441 -44.70899108 9.64856942 -37 6.6875 C-29.99055377 3.98242036 -23.00716922 1.28533452 -16.1875 -1.875 C-10.36179225 -3.81690258 -5.5029399 -2.17249268 0 0 Z " fill="#F7FBF6" transform="translate(214.75,177.6875)"/>
<path d="M0 0 C0.66 0 1.32 0 2 0 C2.66 2.31 3.32 4.62 4 7 C3.34 7 2.68 7 2 7 C2.33 47.92 2.66 88.84 3 131 C6.3 129.35 9.6 127.7 13 126 C15.64432077 125.24958465 18.30657699 124.54866024 21 124 C21 123.34 21 122.68 21 122 C23.64 122 26.28 122 29 122 C25.46897517 125.07363819 21.473532 126.4680401 17.125 128 C13.19049642 129.40153003 9.40964379 130.79180457 5.6796875 132.6875 C3 134 3 134 0 134 C0 89.78 0 45.56 0 0 Z " fill="#BBE1BF" transform="translate(213,329)"/>
<path d="M0 0 C-0.33 30.36 -0.66 60.72 -1 92 C-1.99 92 -2.98 92 -4 92 C-4 62.63 -4 33.26 -4 3 C-6.31 3.66 -8.62 4.32 -11 5 C-11.33 3.68 -11.66 2.36 -12 1 C-10.66666667 0.66666667 -9.33333333 0.33333333 -8 0 C-7.34 -0.20625 -6.68 -0.4125 -6 -0.625 C-4 -1 -4 -1 0 0 Z " fill="#58A362" transform="translate(356,314)"/>
<path d="M0 0 C2.86724686 0.57344937 3.8614515 0.8614515 6 3 C5.01 3.33 4.02 3.66 3 4 C3 32.05 3 60.1 3 89 C4.98 89.66 6.96 90.32 9 91 C9 91.66 9 92.32 9 93 C7.68647977 92.69181644 6.37420428 92.37832335 5.0625 92.0625 C4.33160156 91.88847656 3.60070313 91.71445312 2.84765625 91.53515625 C1 91 1 91 0 90 C-0.09519368 87.2001028 -0.12553944 84.42493826 -0.11352539 81.62475586 C-0.11367142 80.74678848 -0.11381744 79.86882111 -0.1139679 78.96424866 C-0.11326844 76.04775565 -0.10547455 73.13132567 -0.09765625 70.21484375 C-0.09579218 68.19845108 -0.09436823 66.18205796 -0.09336853 64.16566467 C-0.08954244 58.84734862 -0.07971139 53.5290597 -0.06866455 48.21075439 C-0.05845238 42.78829312 -0.05387133 37.36582748 -0.04882812 31.94335938 C-0.0380892 21.29556097 -0.02101169 10.64778274 0 0 Z " fill="#C8ECCE" transform="translate(55,316)"/>
<path d="M0 0 C8.29810638 1.6934911 14.78764554 4.71505821 23 8 C23 25.16 23 42.32 23 60 C20.36 59.34 17.72 58.68 15 58 C15 57.67 15 57.34 15 57 C16.98 57 18.96 57 21 57 C21.33 41.16 21.66 25.32 22 9 C19.03 8.505 19.03 8.505 16 8 C14.31405146 7.40631995 12.64520977 6.76118684 11 6.0625 C7.37103613 4.5549999 3.75037843 3.18433003 0 2 C0 1.34 0 0.68 0 0 Z " fill="#C5E9C7" transform="translate(75,252)"/>
<path d="M0 0 C1.32 0 2.64 0 4 0 C5.14346098 3.43038294 5.120116 6.0563175 5.11352539 9.67456055 C5.11367142 10.347995 5.11381744 11.02142944 5.1139679 11.715271 C5.11327175 13.93911979 5.10549332 16.16288461 5.09765625 18.38671875 C5.09579101 19.92942764 5.09436761 21.47213711 5.09336853 23.0148468 C5.08955169 27.07383868 5.07972851 31.13279473 5.06866455 35.19177246 C5.05843252 39.33422359 5.05386707 43.4766805 5.04882812 47.61914062 C5.03810551 55.74611018 5.02103907 63.87305063 5 72 C4.67 72 4.34 72 4 72 C3.98969254 71.15253204 3.97938507 70.30506409 3.96876526 69.43191528 C3.8709021 61.4563182 3.76840373 53.4807972 3.66066074 45.50532722 C3.60542983 41.4047835 3.55200956 37.30423265 3.50268555 33.20361328 C3.45504447 29.24838828 3.40270176 25.2932512 3.34705925 21.33813095 C3.32663453 19.82703711 3.30792164 18.31591916 3.29092598 16.80478287 C3.26688449 14.69284576 3.23682978 12.58107532 3.20532227 10.46923828 C3.18977798 9.26566681 3.1742337 8.06209534 3.15821838 6.822052 C3.18981223 4.04925367 3.18981223 4.04925367 2 2 C0.68 4.97 -0.64 7.94 -2 11 C-2.33 11 -2.66 11 -3 11 C-3.32019737 6.4105044 -2.97413931 3.61145488 0 0 Z " fill="#2F8A37" transform="translate(192,328)"/>
<path d="M0 0 C1.32042494 2.17481755 2.07273177 3.42821639 1.74609375 5.99609375 C0.96410585 8.09640679 0.08175028 10.06630795 -0.9375 12.0625 C-1.44603516 13.06990234 -1.44603516 13.06990234 -1.96484375 14.09765625 C-4.49506347 18.74753173 -4.49506347 18.74753173 -7 20 C-8.0761054 23.57535019 -8.0761054 23.57535019 -7 27 C-7.804375 27.66 -8.60875 28.32 -9.4375 29 C-12.75148924 32.87979228 -12.74577025 35.00014825 -13 40 C-13.33 40 -13.66 40 -14 40 C-14.6038243 32.38860946 -13.34037405 27.27303183 -9.8125 20.5625 C-8.98639459 18.91175075 -8.16087102 17.26071019 -7.3359375 15.609375 C-6.9347168 14.82240234 -6.53349609 14.03542969 -6.12011719 13.22460938 C-4.64151565 10.28803195 -3.28214949 7.3127006 -1.9375 4.3125 C-1.55464844 3.46300781 -1.17179687 2.61351562 -0.77734375 1.73828125 C-0.39255859 0.87783203 -0.39255859 0.87783203 0 0 Z " fill="#59A461" transform="translate(18,252)"/>
<path d="M0 0 C3.63 0.33 7.26 0.66 11 1 C11 1.66 11 2.32 11 3 C12.8871875 3.433125 12.8871875 3.433125 14.8125 3.875 C17.8539399 4.57303539 19.30669878 5.20446585 22 7 C24.05709596 7.24055468 24.05709596 7.24055468 26.1875 7.125 C27.445625 7.08375 28.70375 7.0425 30 7 C30.33 8.98 30.66 10.96 31 13 C20.43085717 9.59637773 10.08038165 5.66250211 0 1 C0 0.67 0 0.34 0 0 Z " fill="#509B59" transform="translate(73,434)"/>
<path d="M0 0 C0 0.99 0 1.98 0 3 C-2.31 3 -4.62 3 -7 3 C-7 3.99 -7 4.98 -7 6 C-7.78375 6.309375 -8.5675 6.61875 -9.375 6.9375 C-11.92330128 7.92875038 -11.92330128 7.92875038 -14 9 C-16.32914823 9.36141955 -18.66253478 9.69699525 -21 10 C-18.525 10.99 -18.525 10.99 -16 12 C-16 12.33 -16 12.66 -16 13 C-22.93 12.505 -22.93 12.505 -30 12 C-26.83296112 9.62472084 -24.84619827 8.37090027 -21.3046875 6.9921875 C-20.42425781 6.64542969 -19.54382813 6.29867187 -18.63671875 5.94140625 C-17.26966797 5.41353516 -17.26966797 5.41353516 -15.875 4.875 C-14.0596652 4.1646516 -12.24455006 3.45374154 -10.4296875 2.7421875 C-9.62772949 2.4313623 -8.82577148 2.12053711 -7.99951172 1.80029297 C-3.50152532 0 -3.50152532 0 0 0 Z " fill="#59A55F" transform="translate(147,177)"/>
<path d="M0 0 C-0.33 0.99 -0.66 1.98 -1 3 C-1.66 3 -2.32 3 -3 3 C-3.2165625 3.8971875 -3.2165625 3.8971875 -3.4375 4.8125 C-3.8872439 6.56150404 -4.42892341 8.28677023 -5 10 C-4.01 10.33 -3.02 10.66 -2 11 C-4 12 -4 12 -6.3828125 11.22265625 C-7.74019531 10.64837891 -7.74019531 10.64837891 -9.125 10.0625 C-10.03507813 9.68222656 -10.94515625 9.30195313 -11.8828125 8.91015625 C-12.58148438 8.60980469 -13.28015625 8.30945313 -14 8 C-14 7.01 -14 6.02 -14 5 C-12.04350603 4.16235732 -10.08474444 3.33000941 -8.125 2.5 C-6.48917969 1.80390625 -6.48917969 1.80390625 -4.8203125 1.09375 C-2 0 -2 0 0 0 Z " fill="#E7F4E7" transform="translate(162,253)"/>
<path d="M0 0 C2.31 0 4.62 0 7 0 C4.4284518 1.71436547 2.31652598 2.76149372 -0.52734375 3.875 C-1.40197266 4.22046875 -2.27660156 4.5659375 -3.17773438 4.921875 C-4.08845703 5.27765625 -4.99917969 5.6334375 -5.9375 6 C-7.73890872 6.70673604 -9.53971316 7.41501472 -11.33984375 8.125 C-12.13769287 8.43695313 -12.93554199 8.74890625 -13.75756836 9.0703125 C-16.00940474 9.96228691 -16.00940474 9.96228691 -18.10375977 11.1171875 C-20 12 -20 12 -23 12 C-23 11.34 -23 10.68 -23 10 C-21.88625 9.87625 -21.88625 9.87625 -20.75 9.75 C-17.43964342 8.84717548 -16.35665351 7.43029893 -14 5 C-12.35008418 4.29289322 -10.68437744 3.62056011 -9 3 C-8.34 2.34 -7.68 1.68 -7 1 C-7 1.66 -7 2.32 -7 3 C-3.535 2.505 -3.535 2.505 0 2 C0 1.34 0 0.68 0 0 Z " fill="#4EA055" transform="translate(314,440)"/>
<path d="M0 0 C2.31 0.33 4.62 0.66 7 1 C4.66302971 3.33697029 2.50902101 4.27094054 -0.5 5.625 C-1.96953125 6.29402344 -1.96953125 6.29402344 -3.46875 6.9765625 C-6 8 -6 8 -8 8 C-7.01 10.64 -6.02 13.28 -5 16 C-5.66 16 -6.32 16 -7 16 C-7 15.34 -7 14.68 -7 14 C-7.66 14 -8.32 14 -9 14 C-10.38232443 12.37373596 -11.71937515 10.7074998 -13 9 C-12.0625 7.125 -12.0625 7.125 -10 5 C-7.65985268 4.34644534 -5.36517106 3.93608451 -2.9609375 3.58984375 C-2.31382812 3.39519531 -1.66671875 3.20054687 -1 3 C-0.67 2.01 -0.34 1.02 0 0 Z " fill="#2A8E36" transform="translate(229,289)"/>
<path d="M0 0 C0.66 0 1.32 0 2 0 C1.01 2.97 0.02 5.94 -1 9 C-0.36707031 9.09152344 0.26585937 9.18304688 0.91796875 9.27734375 C5.22121363 10.28634287 9.21261331 11.92836994 13.3125 13.5625 C14.56643555 14.0565332 14.56643555 14.0565332 15.84570312 14.56054688 C17.89863546 15.36998877 19.94997286 16.18323457 22 17 C22 17.33 22 17.66 22 18 C16.96950571 17.55084872 12.77409664 16.71934218 8.09765625 14.83203125 C4.45698555 13.38796633 0.72215908 12.21487136 -3 11 C-2.53199289 6.94393835 -2.12046792 3.53411321 0 0 Z " fill="#3E9047" transform="translate(27,275)"/>
<path d="M0 0 C-2.7125485 2.7125485 -5.89504605 3.55453091 -9.4375 4.8125 C-15.37259284 6.96380444 -21.09829217 9.31872191 -26.765625 12.1171875 C-29 13 -29 13 -33 13 C-33 12.34 -33 11.68 -33 11 C-31.35 11 -29.7 11 -28 11 C-28 10.34 -28 9.68 -28 9 C-25.03 8.34 -22.06 7.68 -19 7 C-19 6.34 -19 5.68 -19 5 C-17.02 5 -15.04 5 -13 5 C-13 4.34 -13 3.68 -13 3 C-4.57142857 -0.42857143 -4.57142857 -0.42857143 0 0 Z " fill="#40934B" transform="translate(311,260)"/>
<path d="M0 0 C-1.65 2.31 -3.3 4.62 -5 7 C-7.64 6.34 -10.28 5.68 -13 5 C-13 5.99 -13 6.98 -13 8 C-13.66 8 -14.32 8 -15 8 C-15.33 8.66 -15.66 9.32 -16 10 C-18.475 9.01 -18.475 9.01 -21 8 C-17.50665815 5.02618079 -13.5955782 3.41559216 -9.375 1.75 C-8.694375 1.46898437 -8.01375 1.18796875 -7.3125 0.8984375 C-2.24728709 -1.12364354 -2.24728709 -1.12364354 0 0 Z " fill="#4CA055" transform="translate(195,158)"/>
<path d="M0 0 C0.66 0 1.32 0 2 0 C4.19272437 3.14608279 5.71069786 6.49098417 7.171875 10.02734375 C8.45249833 13.07788517 9.84904893 16.07602034 11.23046875 19.08203125 C12 21 12 21 12 23 C10.68 22.67 9.36 22.34 8 22 C7.67 19.03 7.34 16.06 7 13 C6.01 12.67 5.02 12.34 4 12 C2.01226251 9.01839377 1.58688856 7.43749015 1 4 C0.67516582 2.66457061 0.3449145 1.33038449 0 0 Z " fill="#62A466" transform="translate(385,244)"/>
<path d="M0 0 C1.984375 0.84765625 1.984375 0.84765625 3.03125 2.9140625 C3.26328125 3.73777344 3.4953125 4.56148437 3.734375 5.41015625 C3.97671875 6.23644531 4.2190625 7.06273437 4.46875 7.9140625 C4.63890625 8.55214844 4.8090625 9.19023437 4.984375 9.84765625 C3.994375 9.51765625 3.004375 9.18765625 1.984375 8.84765625 C1.296875 6.78515625 1.296875 6.78515625 0.984375 4.84765625 C-1.325625 4.51765625 -3.635625 4.18765625 -6.015625 3.84765625 C-6.015625 4.50765625 -6.015625 5.16765625 -6.015625 5.84765625 C-9.315625 6.17765625 -12.615625 6.50765625 -16.015625 6.84765625 C-13.75287635 4.5849076 -11.98705405 3.92103683 -9.015625 2.78515625 C-1.49196569 -0.11276485 -1.49196569 -0.11276485 0 0 Z " fill="#D0F0D2" transform="translate(362.015625,240.15234375)"/>
<path d="M0 0 C2.64 0 5.28 0 8 0 C8 0.66 8 1.32 8 2 C8.65226562 2.17015625 9.30453125 2.3403125 9.9765625 2.515625 C15.36722504 4.01038098 19.54753872 5.60206902 24 9 C22 10 22 10 20.18408203 9.51855469 C19.46591309 9.23915039 18.74774414 8.95974609 18.0078125 8.671875 C17.22019531 8.36636719 16.43257812 8.06085938 15.62109375 7.74609375 C14.38552734 7.25302734 14.38552734 7.25302734 13.125 6.75 C12.30902344 6.43675781 11.49304688 6.12351562 10.65234375 5.80078125 C6.72199216 4.25556961 3.20461026 2.8368681 0 0 Z " fill="#48984F" transform="translate(101,355)"/>
<path d="M0 0 C11.05356994 2.96495758 21.51000145 7.47543066 32 12 C31.67 12.66 31.34 13.32 31 14 C28.69 13.34 26.38 12.68 24 12 C24 11.34 24 10.68 24 10 C23.33097656 9.896875 22.66195312 9.79375 21.97265625 9.6875 C18.2943635 8.83680417 14.91061278 7.44798409 11.4375 6 C5.84182287 3.6288743 5.84182287 3.6288743 0 2 C0 1.34 0 0.68 0 0 Z " fill="#DAF7DC" transform="translate(147,281)"/>
<path d="M0 0 C-3.53746179 2.35830786 -7.18296639 3.97584017 -11.0625 5.6875 C-11.79533203 6.02072266 -12.52816406 6.35394531 -13.28320312 6.69726562 C-15.16243708 7.52730376 -17.07944523 8.27064895 -19 9 C-19.66 8.67 -20.32 8.34 -21 8 C-20.67 7.34 -20.34 6.68 -20 6 C-18.68 6 -17.36 6 -16 6 C-15.67 4.68 -15.34 3.36 -15 2 C-9.75614911 0.2520497 -5.52677733 -0.19392201 0 0 Z " fill="#5EA762" transform="translate(277,458)"/>
<path d="M0 0 C2.64 0 5.28 0 8 0 C4.46575037 3.06728918 0.4663522 4.50518926 -3.875 6.0625 C-4.56980469 6.31837891 -5.26460937 6.57425781 -5.98046875 6.83789062 C-9.9640502 8.29703675 -13.96809131 9.67920233 -18 11 C-17 8 -17 8 -15.21484375 6.90234375 C-10.1888907 4.77299486 -5.33576504 3.16416692 0 2 C0 1.34 0 0.68 0 0 Z " fill="#DDF7DE" transform="translate(234,451)"/>
<path d="M0 0 C-5.74787905 4.83344374 -11.54473113 6.9695115 -19 8 C-20.34252908 7.70588342 -21.67888546 7.37887369 -23 7 C-19.54643925 5.63342877 -16.08647708 4.28387972 -12.625 2.9375 C-11.64015625 2.54755859 -10.6553125 2.15761719 -9.640625 1.75585938 C-8.69960938 1.39169922 -7.75859375 1.02753906 -6.7890625 0.65234375 C-5.48509521 0.14175415 -5.48509521 0.14175415 -4.15478516 -0.37915039 C-2 -1 -2 -1 0 0 Z " fill="#3D9347" transform="translate(296,431)"/>
<path d="M0 0 C-0.763125 0.433125 -1.52625 0.86625 -2.3125 1.3125 C-4.93603789 2.79325171 -4.93603789 2.79325171 -6.3984375 4.53125 C-10.01685634 7.84960484 -15.85559379 7.9598454 -20.5625 8.125 C-21.366875 8.08375 -22.17125 8.0425 -23 8 C-19.18323267 5.45548844 -15.19662243 3.97419045 -10.9375 2.3125 C-10.10927734 1.97927734 -9.28105469 1.64605469 -8.42773438 1.30273438 C-7.63560547 0.99271484 -6.84347656 0.68269531 -6.02734375 0.36328125 C-4.94054321 -0.06537231 -4.94054321 -0.06537231 -3.83178711 -0.50268555 C-2 -1 -2 -1 0 0 Z " fill="#40944C" transform="translate(301,318)"/>
<path d="M0 0 C0.66 0.33 1.32 0.66 2 1 C-2.47401506 5.71585371 -5.95044556 6.81792096 -12.4296875 7.14453125 C-15.68000806 6.96176246 -17.61048603 6.2247199 -20 4 C-20 3.34 -20 2.68 -20 2 C-18.6696875 2.495 -18.6696875 2.495 -17.3125 3 C-11.02431975 4.89831857 -7.71919085 3.63798266 -1.98828125 0.77734375 C-1.00408203 0.39255859 -1.00408203 0.39255859 0 0 Z " fill="#399043" transform="translate(216,278)"/>
<path d="M0 0 C0.99 0.33 1.98 0.66 3 1 C0.66815894 4.14291622 -1.34757886 5.36485839 -5.125 6 C-10.66271246 6.4330657 -15.1015511 4.3827528 -20 2 C-16.34811918 0.92825237 -13.73567172 1.23588533 -10 2 C-10 2.33 -10 2.66 -10 3 C-8.5199159 2.88637738 -7.04089926 2.75877092 -5.5625 2.625 C-4.32693359 2.52058594 -4.32693359 2.52058594 -3.06640625 2.4140625 C-2.38449219 2.27742188 -1.70257813 2.14078125 -1 2 C-0.67 1.34 -0.34 0.68 0 0 Z " fill="#429249" transform="translate(178,356)"/>
<path d="M0 0 C-7.59 2.97 -15.18 5.94 -23 9 C-23 8.01 -23 7.02 -23 6 C-20.4609375 4.92578125 -20.4609375 4.92578125 -17.921875 3.8515625 C-16.61051143 3.27051116 -15.31965737 2.64142262 -14.05078125 1.97265625 C-11.85557627 0.93150189 -9.80558841 0.34542007 -7.4375 -0.1875 C-6.67308594 -0.36667969 -5.90867187 -0.54585938 -5.12109375 -0.73046875 C-3 -1 -3 -1 0 0 Z " fill="#E1F9E1" transform="translate(266,442)"/>
<path d="M0 0 C1.62436444 4.87309331 -0.63017576 9.21574406 -2.375 13.875 C-4 17 -4 17 -6.1875 17.9375 C-7.0846875 17.9684375 -7.0846875 17.9684375 -8 18 C-6.65150163 13.64029169 -4.95092154 9.68658562 -2.875 5.625 C-2.33617187 4.56539063 -1.79734375 3.50578125 -1.2421875 2.4140625 C-0.83226562 1.61742187 -0.42234375 0.82078125 0 0 Z " fill="#44984F" transform="translate(183,308)"/>
<path d="M0 0 C2.31 0 4.62 0 7 0 C7 0.66 7 1.32 7 2 C8.98 1.67 10.96 1.34 13 1 C13 1.99 13 2.98 13 4 C13.66 4 14.32 4 15 4 C15 3.34 15 2.68 15 2 C16.32 2.33 17.64 2.66 19 3 C18.01 3.99 17.02 4.98 16 6 C17.32 6.33 18.64 6.66 20 7 C19.01 7.495 19.01 7.495 18 8 C15.4612156 7.13804887 13.03216355 6.21672009 10.5625 5.1875 C9.88123047 4.91357422 9.19996094 4.63964844 8.49804688 4.35742188 C5.43983324 3.10837674 2.75719624 1.83813082 0 0 Z " fill="#51A55C" transform="translate(129,457)"/>
<path d="M0 0 C2.31 0 4.62 0 7 0 C7.33 0.66 7.66 1.32 8 2 C9.89533342 2.46523063 9.89533342 2.46523063 12.0625 2.625 C13.361875 2.74875 14.66125 2.8725 16 3 C16.103125 3.639375 16.20625 4.27875 16.3125 4.9375 C16.6528125 5.9584375 16.6528125 5.9584375 17 7 C17.99 7.33 18.98 7.66 20 8 C12.63272547 7.37299791 5.6544348 4.91689983 0 0 Z " fill="#D0EFD1" transform="translate(118,431)"/>
<path d="M0 0 C0 0.66 0 1.32 0 2 C-1.65 2.33 -3.3 2.66 -5 3 C-5 3.66 -5 4.32 -5 5 C-9.62440425 7.07626313 -14.1008651 8.70022952 -19 10 C-19.66 9.34 -20.32 8.68 -21 8 C-17.87745057 6.66087415 -14.75157642 5.32969342 -11.625 4 C-10.73554688 3.6184375 -9.84609375 3.236875 -8.9296875 2.84375 C-8.07890625 2.4828125 -7.228125 2.121875 -6.3515625 1.75 C-5.56604004 1.41484375 -4.78051758 1.0796875 -3.97119141 0.734375 C-2 0 -2 0 0 0 Z " fill="#D4EFD5" transform="translate(309,334)"/>
<path d="M0 0 C7.73557339 0.18104533 13.3199779 2.14832768 20 6 C20 6.66 20 7.32 20 8 C13.14381674 6.07443364 6.56747868 3.7527517 0 1 C0 0.67 0 0.34 0 0 Z " fill="#46964E" transform="translate(152,282)"/>
<path d="M0 0 C1.23637074 3.96668945 0.35517821 6.10386264 -1 10 C-0.67 10.66 -0.34 11.32 0 12 C-0.804375 12.66 -1.60875 13.32 -2.4375 14 C-5.75148924 17.87979228 -5.74577025 20.00014825 -6 25 C-6.33 25 -6.66 25 -7 25 C-8.42413644 15.39273034 -4.3132208 8.25233572 0 0 Z " fill="#6DB172" transform="translate(11,267)"/>
<path d="M0 0 C0 0.66 0 1.32 0 2 C-1.98 2.33 -3.96 2.66 -6 3 C-5.67 4.98 -5.34 6.96 -5 9 C-9.15654359 8.53816182 -11.21466571 8.11990898 -14 5 C-12.04350603 4.16235732 -10.08474444 3.33000941 -8.125 2.5 C-6.48917969 1.80390625 -6.48917969 1.80390625 -4.8203125 1.09375 C-2 0 -2 0 0 0 Z " fill="#D3E4D4" transform="translate(245,220)"/>
<path d="M0 0 C7.60837466 2.07042054 14.7728592 4.85830477 22 8 C18.11764181 9.49828872 15.56550712 8.43110582 11.75 7.0625 C10.67234375 6.68222656 9.5946875 6.30195313 8.484375 5.91015625 C7.66453125 5.60980469 6.8446875 5.30945313 6 5 C6 4.34 6 3.68 6 3 C4.35 3 2.7 3 1 3 C0.67 2.01 0.34 1.02 0 0 Z " fill="#3F924A" transform="translate(152,446)"/>
<path d="M0 0 C2.29648357 2.89585905 4.04347557 5.8172031 5.6875 9.125 C6.12449219 9.99382812 6.56148438 10.86265625 7.01171875 11.7578125 C8 14 8 14 8 16 C7.01 16 6.02 16 5 16 C4.87625 15.360625 4.7525 14.72125 4.625 14.0625 C4.41875 13.381875 4.2125 12.70125 4 12 C3.34 11.67 2.68 11.34 2 11 C2 9.35 2 7.7 2 6 C1.01 6 0.02 6 -1 6 C-0.67 4.02 -0.34 2.04 0 0 Z " fill="#54995B" transform="translate(378,227)"/>
<path d="M0 0 C0.66 1.32 1.32 2.64 2 4 C0.88625 4.12375 -0.2275 4.2475 -1.375 4.375 C-5.03103677 4.6465813 -5.03103677 4.6465813 -7 7 C-7.71927295 9.31765729 -8.3909893 11.65095874 -9 14 C-9.33 14 -9.66 14 -10 14 C-10 11.03 -10 8.06 -10 5 C-6.7 3.35 -3.4 1.7 0 0 Z " fill="#2B8236" transform="translate(145,259)"/>
<path d="M0 0 C-2.92673137 1.95115425 -5.7129896 3.29645658 -8.9375 4.6875 C-9.97777344 5.14511719 -11.01804688 5.60273438 -12.08984375 6.07421875 C-15.02021689 7.00643141 -16.19723367 7.11435288 -19 6 C-17.68 5.67 -16.36 5.34 -15 5 C-15 4.34 -15 3.68 -15 3 C-9.63999211 0.74315457 -5.8022175 -0.36263859 0 0 Z " fill="#57A158" transform="translate(243,472)"/>
<path d="M0 0 C-0.639375 0.103125 -1.27875 0.20625 -1.9375 0.3125 C-2.618125 0.539375 -3.29875 0.76625 -4 1 C-4.33 1.99 -4.66 2.98 -5 4 C-7.14453125 4.984375 -7.14453125 4.984375 -9.8125 5.75 C-10.68519531 6.01296875 -11.55789062 6.2759375 -12.45703125 6.546875 C-15.09629742 7.01715899 -16.47267519 6.72525274 -19 6 C-16.2120519 4.80303299 -13.42025583 3.61716986 -10.625 2.4375 C-9.8309375 2.09525391 -9.036875 1.75300781 -8.21875 1.40039062 C-7.45820313 1.08134766 -6.69765625 0.76230469 -5.9140625 0.43359375 C-4.8614624 -0.01415405 -4.8614624 -0.01415405 -3.78759766 -0.47094727 C-2 -1 -2 -1 0 0 Z " fill="#459852" transform="translate(232,457)"/>
<path d="M0 0 C4.29 0 8.58 0 13 0 C13.66 1.98 14.32 3.96 15 6 C4.44191344 2.92482916 4.44191344 2.92482916 0 1 C0 0.67 0 0.34 0 0 Z " fill="#54A660" transform="translate(58,428)"/>
<path d="M0 0 C0.66 0.33 1.32 0.66 2 1 C0.58833114 1.98635837 -0.82956184 2.96381255 -2.25 3.9375 C-3.43335938 4.75541016 -3.43335938 4.75541016 -4.640625 5.58984375 C-6.89409659 6.93670343 -8.39686682 7.75530548 -11 8 C-13.25 7.0625 -13.25 7.0625 -15 6 C-12.54524486 4.96971956 -10.08685649 3.95054496 -7.625 2.9375 C-6.57699219 2.49567383 -6.57699219 2.49567383 -5.5078125 2.04492188 C-3.69495092 1.30408902 -1.84876857 0.64603036 0 0 Z " fill="#469A52" transform="translate(336,302)"/>
<path d="M0 0 C-2.45267716 3.4162289 -3.78306518 4.77528642 -8.00390625 5.5546875 C-11.00680971 5.78867998 -13.98873113 5.94717072 -17 6 C-14.42166561 3.42166561 -11.89674219 2.6238529 -8.5 1.3125 C-7.3346875 0.85488281 -6.169375 0.39726562 -4.96875 -0.07421875 C-2 -1 -2 -1 0 0 Z " fill="#439750" transform="translate(235,272)"/>
<path d="M0 0 C1.4835001 0.42257276 2.96176424 0.86356322 4.4375 1.3125 C5.67306641 1.67794922 5.67306641 1.67794922 6.93359375 2.05078125 C7.95646484 2.52064453 7.95646484 2.52064453 9 3 C9.33 3.99 9.66 4.98 10 6 C8.5437455 6.67119549 7.08492133 7.33681807 5.625 8 C4.40683594 8.556875 4.40683594 8.556875 3.1640625 9.125 C1 10 1 10 -1 10 C-1 9.34 -1 8.68 -1 8 C0.65 7.34 2.3 6.68 4 6 C4 5.34 4 4.68 4 4 C2.68 3.34 1.36 2.68 0 2 C0 1.34 0 0.68 0 0 Z " fill="#D6F4D7" transform="translate(327,224)"/>
<path d="M0 0 C4.48993869 0.58652352 8.22543184 1.7643538 12.375 3.5625 C13.43460937 4.01753906 14.49421875 4.47257813 15.5859375 4.94140625 C16.38257813 5.29074219 17.17921875 5.64007813 18 6 C14.28125 8.046875 14.28125 8.046875 11.75 7.625 C11.1725 7.41875 10.595 7.2125 10 7 C10 6.34 10 5.68 10 5 C7.01758453 4.22678118 4.02419525 3.58803797 1 3 C0.67 2.01 0.34 1.02 0 0 Z " fill="#5BA462" transform="translate(289,188)"/>
<path d="M0 0 C0.54527344 0.22816406 1.09054688 0.45632813 1.65234375 0.69140625 C6.80572977 2.65585938 10.60554555 3.23240908 16.0546875 2.32421875 C18 2 18 2 21 2 C19.5625 4.0625 19.5625 4.0625 17 6 C13.90205759 6.17343693 11.0262932 5.63068968 8 5 C7.30519531 4.86078125 6.61039063 4.7215625 5.89453125 4.578125 C4 4.125 4 4.125 1 3 C0.67 2.01 0.34 1.02 0 0 Z " fill="#DAF4DD" transform="translate(159,358)"/>
<path d="M0 0 C-4.45988622 4.45988622 -9.89393791 6.02630605 -16 7 C-17.34255045 6.705981 -18.67879716 6.37856563 -20 6 C-17.04657157 4.80003066 -14.08658106 3.61718896 -11.125 2.4375 C-10.28324219 2.09525391 -9.44148438 1.75300781 -8.57421875 1.40039062 C-7.76855469 1.08134766 -6.96289062 0.76230469 -6.1328125 0.43359375 C-5.38918457 0.13509521 -4.64555664 -0.16340332 -3.87939453 -0.47094727 C-2 -1 -2 -1 0 0 Z " fill="#D0EFD4" transform="translate(323,257)"/>
<path d="M0 0 C-4.82845195 3.28585561 -9.16942351 5.87873529 -15 7 C-17.203125 6.5390625 -17.203125 6.5390625 -19 6 C-16.2120519 4.80303299 -13.42025583 3.61716986 -10.625 2.4375 C-9.8309375 2.09525391 -9.036875 1.75300781 -8.21875 1.40039062 C-7.45820312 1.08134766 -6.69765625 0.76230469 -5.9140625 0.43359375 C-4.8614624 -0.01415405 -4.8614624 -0.01415405 -3.78759766 -0.47094727 C-2 -1 -2 -1 0 0 Z " fill="#6BB072" transform="translate(62,212)"/>
<path d="M0 0 C1.32 1.32 2.64 2.64 4 4 C3.67 4.66 3.34 5.32 3 6 C-2.71658336 6.45732667 -5.48649253 5.52273754 -10 2 C-7.06156148 0.53078074 -4.24602179 1 -1 1 C-0.67 0.67 -0.34 0.34 0 0 Z " fill="#49A352" transform="translate(48,417)"/>
<path d="M0 0 C4 1 4 1 7 3 C5.35 3.33 3.7 3.66 2 4 C1.67 9.94 1.34 15.88 1 22 C0.01 22 -0.98 22 -2 22 C-1.34 21.67 -0.68 21.34 0 21 C0 14.07 0 7.14 0 0 Z " fill="#E1F8E1" transform="translate(135,348)"/>
<path d="M0 0 C0.99 0.33 1.98 0.66 3 1 C3.71727778 2.64551962 4.38325228 4.31422289 5 6 C5.66 6.66 6.32 7.32 7 8 C7.39764263 9.98821313 7.73775349 11.98944339 8 14 C7.01 14.495 7.01 14.495 6 15 C4.99267601 13.06629769 3.99436712 11.12789694 3 9.1875 C2.443125 8.10855469 1.88625 7.02960938 1.3125 5.91796875 C0 3 0 3 0 0 Z " fill="#3F9349" transform="translate(215,329)"/>
<path d="M0 0 C0.66 0.33 1.32 0.66 2 1 C-3.39304453 5.33788364 -8.30108234 7.34211897 -15 9 C-15.66 8.34 -16.32 7.68 -17 7 C-15.10435574 6.20788071 -13.20847629 5.41632424 -11.3125 4.625 C-10.25675781 4.18414062 -9.20101563 3.74328125 -8.11328125 3.2890625 C-7.08589844 2.86367188 -6.05851562 2.43828125 -5 2 C-4.08605469 1.59523438 -3.17210937 1.19046875 -2.23046875 0.7734375 C-1.49441406 0.51820313 -0.75835937 0.26296875 0 0 Z " fill="#509D58" transform="translate(355,294)"/>
<path d="M0 0 C-6.08409811 3.89785009 -10.76179827 5.65532373 -18 6 C-15.14160085 3.69740069 -12.39581962 2.13731655 -9 0.75 C-8.154375 0.39421875 -7.30875 0.0384375 -6.4375 -0.328125 C-3.81117065 -1.05204912 -2.52787043 -0.9128421 0 0 Z " fill="#529E5A" transform="translate(319,311)"/>
<path d="M0 0 C0.66 0 1.32 0 2 0 C0.65150163 4.35970831 -1.04907846 8.31341438 -3.125 12.375 C-3.66382813 13.43460937 -4.20265625 14.49421875 -4.7578125 15.5859375 C-5.16773438 16.38257813 -5.57765625 17.17921875 -6 18 C-7.04449911 14.86650268 -6.93423645 14.01031744 -6 11 C-5.34 11 -4.68 11 -4 11 C-4 9.68 -4 8.36 -4 7 C-3.34 7 -2.68 7 -2 7 C-2 5.35 -2 3.7 -2 2 C-1.34 2 -0.68 2 0 2 C0 1.34 0 0.68 0 0 Z " fill="#DAF6DD" transform="translate(185,300)"/>
<path d="M0 0 C-5.04140164 2.81532819 -9.22621075 4.5188509 -15 5 C-14.67 3.68 -14.34 2.36 -14 1 C-12.04310963 0.63794536 -10.08442332 0.28558579 -8.125 -0.0625 C-7.03445313 -0.25972656 -5.94390625 -0.45695313 -4.8203125 -0.66015625 C-2 -1 -2 -1 0 0 Z " fill="#0B4D15" transform="translate(288,250)"/>
<path d="M0 0 C0.66 0.33 1.32 0.66 2 1 C1.01 1.33 0.02 1.66 -1 2 C-1 2.66 -1 3.32 -1 4 C-2.65 4.33 -4.3 4.66 -6 5 C-6 5.66 -6 6.32 -6 7 C-8.97 7 -11.94 7 -15 7 C-12.0356239 5.02374927 -9.21212254 3.70113094 -5.9375 2.3125 C-4.87402344 1.85488281 -3.81054688 1.39726562 -2.71484375 0.92578125 C-1.81894531 0.62027344 -0.92304687 0.31476563 0 0 Z " fill="#69AF72" transform="translate(77,204)"/>
<path d="M0 0 C-2.41540306 0.98238408 -4.83221822 1.96100218 -7.25 2.9375 C-7.93191406 3.21529297 -8.61382812 3.49308594 -9.31640625 3.77929688 C-14.63376262 5.92172687 -14.63376262 5.92172687 -17.16699219 6.46313477 C-18.07433105 6.72888306 -18.07433105 6.72888306 -19 7 C-19.33 7.66 -19.66 8.32 -20 9 C-19.67 7.35 -19.34 5.7 -19 4 C-18.08476562 3.72285156 -17.16953125 3.44570312 -16.2265625 3.16015625 C-15.03804687 2.79792969 -13.84953125 2.43570313 -12.625 2.0625 C-11.44164062 1.70285156 -10.25828125 1.34320313 -9.0390625 0.97265625 C-3.09701493 -0.92910448 -3.09701493 -0.92910448 0 0 Z " fill="#3E9047" transform="translate(174,187)"/>
<path d="M0 0 C0.99 0.33 1.98 0.66 3 1 C1.88032618 3.46088737 0.75455994 5.91865536 -0.375 8.375 C-0.69210938 9.07367188 -1.00921875 9.77234375 -1.3359375 10.4921875 C-3.7734375 15.7734375 -3.7734375 15.7734375 -6 18 C-6 16.35 -6 14.7 -6 13 C-5.67 13 -5.34 13 -5 13 C-4.87625 12.195625 -4.7525 11.39125 -4.625 10.5625 C-4.41875 9.716875 -4.2125 8.87125 -4 8 C-3.34 7.67 -2.68 7.34 -2 7 C-1.26924352 4.6859378 -0.59861742 2.35171131 0 0 Z " fill="#42944C" transform="translate(35,257)"/>
<path d="M0 0 C7.78101375 1.55620275 14.79440901 4.78177257 22 8 C18.19249826 9.26916725 16.6897429 8.47776092 12.9375 7.1875 C11.34228516 6.65189453 11.34228516 6.65189453 9.71484375 6.10546875 C7 5 7 5 5 3 C2.42938689 2.35232207 2.42938689 2.35232207 0 2 C0 1.34 0 0.68 0 0 Z " fill="#D6F5D7" transform="translate(75,252)"/>
<path d="M0 0 C2 0 2 0 4.0625 1.8125 C7.45658648 5.64453312 7.09288794 9.07693918 7 14 C3.94998169 10.33997803 0 4.92148529 0 0 Z " fill="#3A9048" transform="translate(365,244)"/>
<path d="M0 0 C-0.33 1.32 -0.66 2.64 -1 4 C-5.53701494 5.45184478 -9.18061476 6.23509196 -14 6 C-11.47732009 4.31821339 -9.18908177 3.09893258 -6.4375 1.875 C-5.65246094 1.52179688 -4.86742187 1.16859375 -4.05859375 0.8046875 C-2 0 -2 0 0 0 Z " fill="#44994E" transform="translate(270,440)"/>
<path d="M0 0 C2.79422603 0.95135319 5.58524589 1.91069593 8.375 2.875 C9.1690625 3.14441406 9.963125 3.41382813 10.78125 3.69140625 C11.92207031 4.08779297 11.92207031 4.08779297 13.0859375 4.4921875 C13.7876709 4.73308105 14.4894043 4.97397461 15.21240234 5.22216797 C17 6 17 6 19 8 C17.02 8 15.04 8 13 8 C13 7.34 13 6.68 13 6 C12.01 6.12375 12.01 6.12375 11 6.25 C6.78756306 5.89896359 3.65289323 4.03039227 0 2 C0 1.34 0 0.68 0 0 Z " fill="#42934D" transform="translate(99,424)"/>
<path d="M0 0 C6.0546875 -0.1953125 6.0546875 -0.1953125 8 0 C8.66 0.66 9.32 1.32 10 2 C11.64991582 2.70710678 13.31562256 3.37943989 15 4 C15 4.66 15 5.32 15 6 C13.24719267 5.57388649 11.49782565 5.13360733 9.75 4.6875 C8.77546875 4.44386719 7.8009375 4.20023437 6.796875 3.94921875 C4.01024335 3.00347644 2.22695632 1.89291287 0 0 Z " fill="#D8F1D7" transform="translate(103,425)"/>
<path d="M0 0 C3.72006826 4.118647 6.30824355 8.71715318 8 14 C7.67 14.66 7.34 15.32 7 16 C6.34 15.67 5.68 15.34 5 15 C4.375 11.9375 4.375 11.9375 4 9 C3.01 9 2.02 9 1 9 C0.67 6.03 0.34 3.06 0 0 Z " fill="#D7F4DA" transform="translate(219,340)"/>
<path d="M0 0 C0.66 0.99 1.32 1.98 2 3 C4.17897492 4.00805555 4.17897492 4.00805555 6.625 4.6875 C7.85089844 5.06455078 7.85089844 5.06455078 9.1015625 5.44921875 C9.72804688 5.63097656 10.35453125 5.81273437 11 6 C11 6.99 11 7.98 11 9 C7 7.66666667 3 6.33333333 -1 5 C-0.67 3.35 -0.34 1.7 0 0 Z " fill="#D2F2D4" transform="translate(27,279)"/>
<path d="M0 0 C-3 2 -3 2 -6 3.4375 C-8.57816302 4.78029324 -10.13881117 5.82861303 -12 8 C-11.67 8.66 -11.34 9.32 -11 10 C-12.65 9.67 -14.3 9.34 -16 9 C-16 8.01 -16 7.02 -16 6 C-14.35 5.67 -12.7 5.34 -11 5 C-11 4.34 -11 3.68 -11 3 C-7.28026121 0.15549386 -4.62609198 -0.3227506 0 0 Z " fill="#297534" transform="translate(145,198)"/>
<path d="M0 0 C6.61242722 1.82221376 12.80520671 4.05223604 19 7 C19 7.33 19 7.66 19 8 C17.35 8 15.7 8 14 8 C14 7.34 14 6.68 14 6 C13.21625 6.04125 12.4325 6.0825 11.625 6.125 C9 6 9 6 7 4 C5.01178687 3.60235737 3.01055661 3.26224651 1 3 C0.67 2.01 0.34 1.02 0 0 Z " fill="#66AD6D" transform="translate(270,180)"/>
<path d="M0 0 C2.875 -0.125 2.875 -0.125 6 0 C6.66 0.66 7.32 1.32 8 2 C10.06043854 2.56883273 12.12186341 2.94855684 14.22265625 3.33984375 C14.80917969 3.55769531 15.39570313 3.77554687 16 4 C16.33 4.99 16.66 5.98 17 7 C11.14340094 5.33846988 5.5409866 3.52958084 0 1 C0 0.67 0 0.34 0 0 Z " fill="#D3F2D5" transform="translate(159,448)"/>
<path d="M0 0 C-0.33 0.99 -0.66 1.98 -1 3 C-4.4375 4.625 -4.4375 4.625 -8 6 C-8.99 6.495 -8.99 6.495 -10 7 C-12.00800456 6.71887936 -14.01014051 6.38932033 -16 6 C-13.31998165 4.2133211 -10.96871256 3.0677863 -8 1.875 C-7.13375 1.52179688 -6.2675 1.16859375 -5.375 0.8046875 C-3 0 -3 0 0 0 Z " fill="#4D9C58" transform="translate(335,414)"/>
<path d="M0 0 C0.33 0 0.66 0 1 0 C1 4.62 1 9.24 1 14 C0.67 14 0.34 14 0 14 C-0.33 11.69 -0.66 9.38 -1 7 C-1.66 8.32 -2.32 9.64 -3 11 C-3.66 11 -4.32 11 -5 11 C-3.77782954 6.95743617 -2.37245704 3.50711041 0 0 Z " fill="#E2F7E4" transform="translate(193,332)"/>
<path d="M0 0 C2.97 0.33 5.94 0.66 9 1 C9 1.66 9 2.32 9 3 C9.86625 3.2165625 9.86625 3.2165625 10.75 3.4375 C12.83333333 3.95833333 14.91666667 4.47916667 17 5 C17 5.66 17 6.32 17 7 C12.94180817 6.34496718 9.46028718 5.05440879 5.6875 3.4375 C4.61886719 2.98246094 3.55023438 2.52742188 2.44921875 2.05859375 C1.64097656 1.70925781 0.83273438 1.35992187 0 1 C0 0.67 0 0.34 0 0 Z " fill="#D3F1D4" transform="translate(164,266)"/>
<path d="M0 0 C-2.43504509 1.0063655 -4.87270864 2.00526413 -7.3125 3 C-8.34793945 3.42925781 -8.34793945 3.42925781 -9.40429688 3.8671875 C-12.41545674 5.08910744 -14.71886984 6 -18 6 C-18 5.34 -18 4.68 -18 4 C-14.535 3.505 -14.535 3.505 -11 3 C-11 2.34 -11 1.68 -11 1 C-4.03571429 -1.27678571 -4.03571429 -1.27678571 0 0 Z " fill="#3F9349" transform="translate(95,219)"/>
<path d="M0 0 C1.65 0.33 3.3 0.66 5 1 C2.75848118 3.24151882 0.9932888 3.96301325 -1.9375 5.125 C-2.81277344 5.47820312 -3.68804687 5.83140625 -4.58984375 6.1953125 C-7 7 -7 7 -10 7 C-10 6.01 -10 5.02 -10 4 C-8.68 4.33 -7.36 4.66 -6 5 C-6 4.34 -6 3.68 -6 3 C-4.02 2.67 -2.04 2.34 0 2 C0 1.34 0 0.68 0 0 Z " fill="#6CAF71" transform="translate(331,433)"/>
<path d="M0 0 C0.5775 0.36609375 1.155 0.7321875 1.75 1.109375 C-0.34950586 1.97493448 -2.4547907 2.82648777 -4.5625 3.671875 C-6.32013672 4.38537109 -6.32013672 4.38537109 -8.11328125 5.11328125 C-11.25 6.109375 -11.25 6.109375 -14.25 5.109375 C-13.6725 4.82578125 -13.095 4.5421875 -12.5 4.25 C-11.06590194 3.52299195 -9.64667473 2.76529106 -8.25 1.96875 C-7.59 1.60265625 -6.93 1.2365625 -6.25 0.859375 C-5.59 0.48296875 -4.93 0.1065625 -4.25 -0.28125 C-2.25 -0.890625 -2.25 -0.890625 0 0 Z " fill="#DAF3DC" transform="translate(366.25,288.890625)"/>
<path d="M0 0 C3.3 0.99 6.6 1.98 10 3 C10 3.33 10 3.66 10 4 C6.53058454 3.54177532 3.32604951 3.10868317 0 2 C0.061875 3.1446875 0.061875 3.1446875 0.125 4.3125 C0 7 0 7 -2 10 C-2.66 10 -3.32 10 -4 10 C-3.52449439 8.51965236 -3.04448784 7.04074979 -2.5625 5.5625 C-2.29566406 4.73878906 -2.02882812 3.91507813 -1.75390625 3.06640625 C-1 1 -1 1 0 0 Z " fill="#D0F1D3" transform="translate(46,240)"/>
<path d="M0 0 C0 0.66 0 1.32 0 2 C-6.08356979 5.09212176 -11.18012971 6.56699236 -18 7 C-14.87351251 4.91567501 -11.94269132 3.71441389 -8.4375 2.375 C-7.28121094 1.92898437 -6.12492187 1.48296875 -4.93359375 1.0234375 C-2 0 -2 0 0 0 Z " fill="#D0EED0" transform="translate(100,217)"/>
<path d="M0 0 C0.763125 0.20625 1.52625 0.4125 2.3125 0.625 C0.07098118 2.86651882 -1.6942112 3.58801325 -4.625 4.75 C-5.50027344 5.10320312 -6.37554687 5.45640625 -7.27734375 5.8203125 C-9.6875 6.625 -9.6875 6.625 -12.6875 6.625 C-12.6875 5.965 -12.6875 5.305 -12.6875 4.625 C-10.96223958 3.90885417 -9.23697917 3.19270833 -7.51171875 2.4765625 C-1.69866951 -0.23702365 -1.69866951 -0.23702365 0 0 Z " fill="#459550" transform="translate(125.6875,204.375)"/>
<path d="M0 0 C1.58624235 0.42683239 3.1689098 0.86696158 4.75 1.3125 C6.07257813 1.67794922 6.07257813 1.67794922 7.421875 2.05078125 C10.05772505 3.02125331 11.85407326 4.21005644 14 6 C12.68 6.33 11.36 6.66 10 7 C9.67 6.01 9.34 5.02 9 4 C7.02 4 5.04 4 3 4 C2.67 4.66 2.34 5.32 2 6 C0 3 0 3 0 0 Z " fill="#5DA86B" transform="translate(256,174)"/>
<path d="M0 0 C0.99 0 1.98 0 3 0 C2.64930333 2.59515537 2.33376494 4.52570246 0.8125 6.6875 C-1.62048302 8.44931529 -4.13206588 9.1714857 -7 10 C-7.33 9.34 -7.66 8.68 -8 8 C-7.01 8 -6.02 8 -5 8 C-5 7.34 -5 6.68 -5 6 C-3.35 6 -1.7 6 0 6 C0 4.02 0 2.04 0 0 Z " fill="#549C58" transform="translate(369,413)"/>
<path d="M0 0 C5.94912287 0.71389474 10.96992521 1.6466168 16 5 C16 5.66 16 6.32 16 7 C10.53262809 5.25192871 5.24175152 3.34205919 0 1 C0 0.67 0 0.34 0 0 Z " fill="#D0EED2" transform="translate(58,296)"/>
<path d="M0 0 C0.9075 0.226875 1.815 0.45375 2.75 0.6875 C0.36874536 3.06875464 -1.58857567 3.68936241 -4.75 4.8125 C-5.7296875 5.16570312 -6.709375 5.51890625 -7.71875 5.8828125 C-10.25 6.6875 -10.25 6.6875 -12.25 6.6875 C-12.25 6.0275 -12.25 5.3675 -12.25 4.6875 C-11.5075 4.419375 -10.765 4.15125 -10 3.875 C-7.23333026 2.84562728 -7.23333026 2.84562728 -5.3125 1 C-3.25 -0.3125 -3.25 -0.3125 0 0 Z " fill="#E1F6DD" transform="translate(223.25,273.3125)"/>
<path d="M0 0 C-2.54656278 2.81940879 -4.1720512 4.56252014 -8 5 C-10.33300933 5.03888349 -12.66709801 5.0448635 -15 5 C-12.30932731 3.20621821 -9.91421743 2.02686042 -6.9375 0.8125 C-5.62072266 0.26529297 -5.62072266 0.26529297 -4.27734375 -0.29296875 C-2 -1 -2 -1 0 0 Z " fill="#469651" transform="translate(317,239)"/>
<path d="M0 0 C4.95 1.98 4.95 1.98 10 4 C6.89448334 7.10551666 5.10801767 7.81323934 1 9 C1.33 8.01 1.66 7.02 2 6 C2.99 6 3.98 6 5 6 C3.74458443 3.48916886 2.49936512 3.12874554 0 2 C0 1.34 0 0.68 0 0 Z " fill="#E1F1E2" transform="translate(167,221)"/>
<path d="M0 0 C1.41791408 0.45445964 2.83428046 0.91374944 4.25 1.375 C5.43335938 1.75785156 5.43335938 1.75785156 6.640625 2.1484375 C8.86627958 2.95173667 10.90931672 3.89711662 13 5 C12.34 5.66 11.68 6.32 11 7 C10.278125 6.649375 9.55625 6.29875 8.8125 5.9375 C5.6877295 4.89590983 4.11838004 5.10903428 1 6 C0.67 4.02 0.34 2.04 0 0 Z " fill="#53A15C" transform="translate(362,217)"/>
<path d="M0 0 C0.33 1.98 0.66 3.96 1 6 C-1.97 5.01 -4.94 4.02 -8 3 C-8 2.34 -8 1.68 -8 1 C-2.25 0 -2.25 0 0 0 Z " fill="#52A45A" transform="translate(103,441)"/>
<path d="M0 0 C0.66 0.33 1.32 0.66 2 1 C-2.69978858 5.94080338 -2.69978858 5.94080338 -6.40234375 6.109375 C-8.63651793 5.84113292 -10.80497434 5.49266131 -13 5 C-13 4.67 -13 4.34 -13 4 C-12.39671875 3.87882812 -11.7934375 3.75765625 -11.171875 3.6328125 C-10.37265625 3.46523438 -9.5734375 3.29765625 -8.75 3.125 C-7.96109375 2.96257812 -7.1721875 2.80015625 -6.359375 2.6328125 C-3.96665457 2.08251721 -3.96665457 2.08251721 -1.828125 0.8671875 C-1.22484375 0.58101563 -0.6215625 0.29484375 0 0 Z " fill="#D6F1D6" transform="translate(248,358)"/>
<path d="M0 0 C0 0.66 0 1.32 0 2 C-3.3 2.66 -6.6 3.32 -10 4 C-10 4.66 -10 5.32 -10 6 C-12.64 6.33 -15.28 6.66 -18 7 C-15.05054406 5.03369604 -12.26302526 3.74259147 -9 2.375 C-7.948125 1.92898438 -6.89625 1.48296875 -5.8125 1.0234375 C-3 0 -3 0 0 0 Z " fill="#579E61" transform="translate(253,264)"/>
<path d="M0 0 C0 0.66 0 1.32 0 2 C-0.63808594 2.10957031 -1.27617187 2.21914062 -1.93359375 2.33203125 C-2.75988281 2.49058594 -3.58617187 2.64914063 -4.4375 2.8125 C-5.26121094 2.96332031 -6.08492187 3.11414063 -6.93359375 3.26953125 C-7.95646484 3.63111328 -7.95646484 3.63111328 -9 4 C-9.33 4.99 -9.66 5.98 -10 7 C-12.64 7 -15.28 7 -18 7 C-14.87351251 4.91567501 -11.94269132 3.71441389 -8.4375 2.375 C-7.28121094 1.92898437 -6.12492188 1.48296875 -4.93359375 1.0234375 C-2 0 -2 0 0 0 Z " fill="#43674A" transform="translate(251,197)"/>
<path d="M0 0 C0.99 0.66 1.98 1.32 3 2 C3 3.32 3 4.64 3 6 C3.66 6.66 4.32 7.32 5 8 C2.69 8.66 0.38 9.32 -2 10 C-2 9.34 -2 8.68 -2 8 C-1.34 8 -0.68 8 0 8 C0 7.34 0 6.68 0 6 C-0.66 6 -1.32 6 -2 6 C-1.34 4.02 -0.68 2.04 0 0 Z " fill="#459E4B" transform="translate(338,424)"/>
<path d="M0 0 C3.11547441 0.67883043 5.85137721 1.74106902 8.75 3.0625 C9.54921875 3.42472656 10.3484375 3.78695313 11.171875 4.16015625 C11.77515625 4.43730469 12.3784375 4.71445312 13 5 C9.78177396 6.07033136 7.96857567 5.95795392 4.8125 4.75 C3.77029297 4.37101562 3.77029297 4.37101562 2.70703125 3.984375 C1 3 1 3 0 0 Z " fill="#42944F" transform="translate(136,328)"/>
<path d="M0 0 C4.43090471 1.20842856 6.98112756 2.51668565 10 6 C9.34 7.32 8.68 8.64 8 10 C7.34 10 6.68 10 6 10 C6.33 8.35 6.66 6.7 7 5 C4.03 4.01 1.06 3.02 -2 2 C-1.34 1.34 -0.68 0.68 0 0 Z " fill="#4B9954" transform="translate(181,292)"/>
<path d="M0 0 C9.17286652 0.19256018 9.17286652 0.19256018 12.625 3.5625 C13.07875 4.366875 13.5325 5.17125 14 6 C12.41375765 5.57316761 10.8310902 5.13303842 9.25 4.6875 C8.36828125 4.44386719 7.4865625 4.20023438 6.578125 3.94921875 C3.94227495 2.97874669 2.14592674 1.78994356 0 0 Z " fill="#395A3B" transform="translate(243,251)"/>
<path d="M0 0 C0.99 0.33 1.98 0.66 3 1 C4.1875 3.5625 4.1875 3.5625 5 6 C3.37276701 5.54965877 1.74826336 5.08944646 0.125 4.625 C-0.77992188 4.36976563 -1.68484375 4.11453125 -2.6171875 3.8515625 C-5 3 -5 3 -7 1 C-5.5459375 1.0309375 -5.5459375 1.0309375 -4.0625 1.0625 C-1.12534105 1.35618499 -1.12534105 1.35618499 0 0 Z " fill="#D2DFD0" transform="translate(176,200)"/>
<path d="M0 0 C3 4 3 4 3 6 C2.34 6 1.68 6 1 6 C1 11.28 1 16.56 1 22 C0.67 22 0.34 22 0 22 C0 14.74 0 7.48 0 0 Z " fill="#E5FCE6" transform="translate(214,330)"/>
<path d="M0 0 C2.31 0.33 4.62 0.66 7 1 C4.59195432 3.40804568 2.57796225 4.00768759 -0.625 5.125 C-1.62789062 5.47820312 -2.63078125 5.83140625 -3.6640625 6.1953125 C-4.82035156 6.59363281 -4.82035156 6.59363281 -6 7 C-5 4 -5 4 -3 2.9375 C-2.34 2.628125 -1.68 2.31875 -1 2 C-0.67 1.34 -0.34 0.68 0 0 Z " fill="#379243" transform="translate(229,289)"/>
<path d="M0 0 C-5.28830549 2.15294651 -10.55123997 4.27933894 -16 6 C-16 5.34 -16 4.68 -16 4 C-11.17931887 0.49405009 -5.85026566 -1.79220392 0 0 Z " fill="#439650" transform="translate(275,348)"/>
<path d="M0 0 C-0.99 1.485 -0.99 1.485 -2 3 C-2.66 3 -3.32 3 -4 3 C-4 3.66 -4 4.32 -4 5 C-6.31 4.67 -8.62 4.34 -11 4 C-3.77464789 -1.88732394 -3.77464789 -1.88732394 0 0 Z " fill="#4E9E59" transform="translate(256,336)"/>
<path d="M0 0 C1.32 0 2.64 0 4 0 C3.67 1.32 3.34 2.64 3 4 C2.67 3.34 2.34 2.68 2 2 C0.68 4.97 -0.64 7.94 -2 11 C-2.33 11 -2.66 11 -3 11 C-3.32019737 6.4105044 -2.97413931 3.61145488 0 0 Z " fill="#40954B" transform="translate(192,328)"/>
<path d="M0 0 C1.56073255 2.34109882 2.86373867 4.56333403 4.125 7.0625 C4.47820312 7.75472656 4.83140625 8.44695312 5.1953125 9.16015625 C6 11 6 11 6 13 C3 12 3 12 1.3125 9.3125 C-0.03558623 5.91018714 -0.25833766 3.61672729 0 0 Z " fill="#499751" transform="translate(224,305)"/>
<path d="M0 0 C1.43655854 -0.08131463 2.8744483 -0.13933559 4.3125 -0.1875 C5.51326172 -0.23970703 5.51326172 -0.23970703 6.73828125 -0.29296875 C9 0 9 0 10.79296875 1.38671875 C12 3 12 3 12 5 C10.37276701 4.54965877 8.74826336 4.08944646 7.125 3.625 C5.76761719 3.24214844 5.76761719 3.24214844 4.3828125 2.8515625 C2 2 2 2 0 0 Z " fill="#5BA164" transform="translate(11,298)"/>
<path d="M0 0 C-0.62648438 0.26554688 -1.25296875 0.53109375 -1.8984375 0.8046875 C-2.71570313 1.15789062 -3.53296875 1.51109375 -4.375 1.875 C-5.18710937 2.22304688 -5.99921875 2.57109375 -6.8359375 2.9296875 C-9.13802299 3.92446067 -9.13802299 3.92446067 -11 6 C-11.99 5.67 -12.98 5.34 -14 5 C-14 4.34 -14 3.68 -14 3 C-12.23358317 2.3012307 -10.46167336 1.61633417 -8.6875 0.9375 C-7.20830078 0.36322266 -7.20830078 0.36322266 -5.69921875 -0.22265625 C-3 -1 -3 -1 0 0 Z " fill="#2A8938" transform="translate(283,254)"/>
<path d="M0 0 C0.66 0 1.32 0 2 0 C4.61588503 3.55760365 5.49357808 6.64477147 6 11 C4.0625 10.3125 4.0625 10.3125 2 9 C1.3125 6.625 1.3125 6.625 1 4 C0.67516582 2.66457061 0.3449145 1.33038449 0 0 Z " fill="#5B9E61" transform="translate(385,244)"/>
<path d="M0 0 C4.95 1.65 9.9 3.3 15 5 C15 5.33 15 5.66 15 6 C8.92671312 6.50610724 5.22771463 5.04157942 0 2 C0 1.34 0 0.68 0 0 Z " fill="#3D914C" transform="translate(92,238)"/>
<path d="M0 0 C1.21236328 0.02707031 1.21236328 0.02707031 2.44921875 0.0546875 C3.37154297 0.08949219 3.37154297 0.08949219 4.3125 0.125 C1.45665227 2.02889849 -0.6186762 2.81962177 -3.875 3.75 C-4.77605469 4.01039063 -5.67710937 4.27078125 -6.60546875 4.5390625 C-7.63607422 4.82910156 -7.63607422 4.82910156 -8.6875 5.125 C-7.09467308 0.34651924 -4.63157396 -0.13424852 0 0 Z " fill="#264928" transform="translate(241.6875,218.875)"/>
<path d="M0 0 C1.258125 -0.04125 2.51625 -0.0825 3.8125 -0.125 C4.52019531 -0.14820313 5.22789062 -0.17140625 5.95703125 -0.1953125 C8 0 8 0 11 2 C11 2.99 11 3.98 11 5 C9.53932801 4.54917531 8.08151968 4.08906463 6.625 3.625 C5.81289062 3.36976563 5.00078125 3.11453125 4.1640625 2.8515625 C2 2 2 2 0 0 Z " fill="#61AB65" transform="translate(149,465)"/>
<path d="M0 0 C3.63 0.33 7.26 0.66 11 1 C11.33 2.32 11.66 3.64 12 5 C9.15449988 4.33989524 6.47674001 3.48275034 3.75 2.4375 C3.04359375 2.16808594 2.3371875 1.89867187 1.609375 1.62109375 C1.07828125 1.41613281 0.5471875 1.21117187 0 1 C0 0.67 0 0.34 0 0 Z " fill="#67AA6D" transform="translate(73,434)"/>
<path d="M0 0 C-3.07692746 2.6815279 -5.19734663 3.42087807 -9.25 3.6875 C-10.14203125 3.75324219 -11.0340625 3.81898438 -11.953125 3.88671875 C-12.62859375 3.92410156 -13.3040625 3.96148437 -14 4 C-4.81927711 -2.12048193 -4.81927711 -2.12048193 0 0 Z " fill="#D1EFD1" transform="translate(264,354)"/>
<path d="M0 0 C2.31 0 4.62 0 7 0 C4.88613536 2.11386464 3.20732397 2.97008322 0.5 4.1875 C-0.2940625 4.55230469 -1.088125 4.91710937 -1.90625 5.29296875 C-2.5971875 5.52628906 -3.288125 5.75960938 -4 6 C-4.66 5.67 -5.32 5.34 -6 5 C-5.67 4.34 -5.34 3.68 -5 3 C-3.68 3 -2.36 3 -1 3 C-0.67 2.01 -0.34 1.02 0 0 Z " fill="#5EA763" transform="translate(388,299)"/>
<path d="M0 0 C-0.33 0.99 -0.66 1.98 -1 3 C-1.66 3 -2.32 3 -3 3 C-3.33 3.99 -3.66 4.98 -4 6 C-6.66666667 5.33333333 -9.33333333 4.66666667 -12 4 C-10.3767313 3.3291288 -8.75132422 2.66342971 -7.125 2 C-6.22007812 1.62875 -5.31515625 1.2575 -4.3828125 0.875 C-2 0 -2 0 0 0 Z " fill="#C7D9C8" transform="translate(162,253)"/>
<path d="M0 0 C-0.33 0.99 -0.66 1.98 -1 3 C-3.14453125 3.984375 -3.14453125 3.984375 -5.8125 4.75 C-6.68519531 5.01296875 -7.55789063 5.2759375 -8.45703125 5.546875 C-11.05434119 6.00968292 -12.53376528 5.85082224 -15 5 C-12.8765984 4.16260219 -10.7512272 3.33019717 -8.625 2.5 C-7.44164062 2.0359375 -6.25828125 1.571875 -5.0390625 1.09375 C-2 0 -2 0 0 0 Z " fill="#479653" transform="translate(337,230)"/>
<path d="M0 0 C0.53625 0.226875 1.0725 0.45375 1.625 0.6875 C-3.125 3.6875 -3.125 3.6875 -5.375 3.6875 C-5.045 4.6775 -4.715 5.6675 -4.375 6.6875 C-5.035 6.6875 -5.695 6.6875 -6.375 6.6875 C-6.375 6.0275 -6.375 5.3675 -6.375 4.6875 C-8.025 4.6875 -9.675 4.6875 -11.375 4.6875 C-3.62774725 -0.47733516 -3.62774725 -0.47733516 0 0 Z " fill="#75B379" transform="translate(172.375,166.3125)"/>
<path d="M0 0 C1.60746056 0.42523816 3.21089836 0.86570126 4.8125 1.3125 C6.15248047 1.67794922 6.15248047 1.67794922 7.51953125 2.05078125 C10.05247738 3.0200819 11.2716496 3.95009604 13 6 C8.02693484 5.50269348 4.36200187 4.44697666 0 2 C0 1.34 0 0.68 0 0 Z " fill="#3E934C" transform="translate(118,432)"/>
<path d="M0 0 C-0.66 0 -1.32 0 -2 0 C-2 0.99 -2 1.98 -2 3 C-2.66 3 -3.32 3 -4 3 C-4.33 3.66 -4.66 4.32 -5 5 C-7.475 4.01 -7.475 4.01 -10 3 C-4.375 -1.3125 -4.375 -1.3125 0 0 Z " fill="#54A460" transform="translate(184,163)"/>
<path d="M0 0 C0.66 0.33 1.32 0.66 2 1 C0 4 0 4 -2.3828125 4.51171875 C-3.28773438 4.56972656 -4.19265625 4.62773437 -5.125 4.6875 C-6.03507812 4.75324219 -6.94515625 4.81898438 -7.8828125 4.88671875 C-8.93082031 4.94279297 -8.93082031 4.94279297 -10 5 C-6.76527494 2.84351662 -3.62848922 1.38542316 0 0 Z " fill="#59A363" transform="translate(283,434)"/>
<path d="M0 0 C1.40907283 2.81814566 0.50872691 4.17277204 -0.4375 7.125 C-0.72496094 8.03507812 -1.01242188 8.94515625 -1.30859375 9.8828125 C-1.53675781 10.58148438 -1.76492187 11.28015625 -2 12 C-2.99 12 -3.98 12 -5 12 C-3.68938409 7.76570244 -2.05643741 3.92592596 0 0 Z " fill="#D2EED0" transform="translate(41,250)"/>
<path d="M0 0 C1.98 0 3.96 0 6 0 C6.33 1.65 6.66 3.3 7 5 C4.69 4.34 2.38 3.68 0 3 C0 2.01 0 1.02 0 0 Z " fill="#D6EFDB" transform="translate(148,258)"/>
<path d="M0 0 C-3.36423277 2.96052484 -6.69159287 3.92289822 -11 5 C-10.25 3.0625 -10.25 3.0625 -9 1 C-6.05528957 -0.21850087 -3.15451555 -0.08762543 0 0 Z " fill="#3B9246" transform="translate(330,252)"/>
<path d="M0 0 C0.70099902 1.31560731 1.37216342 2.64794843 2 4 C0.56068883 3.54738642 -0.87638999 3.08767021 -2.3125 2.625 C-3.11300781 2.36976563 -3.91351563 2.11453125 -4.73828125 1.8515625 C-7 1 -7 1 -10 -1 C-3.34883721 -2.51162791 -3.34883721 -2.51162791 0 0 Z " fill="#D9F3DB" transform="translate(84,231)"/>
<path d="M0 0 C5.45479185 0.56820748 9.91059256 1.94637945 15 4 C15 4.66 15 5.32 15 6 C9.67812773 4.78623966 4.96093728 3.27376292 0 1 C0 0.67 0 0.34 0 0 Z " fill="#4D9952" transform="translate(294,210)"/>
<path d="M0 0 C1.32 0 2.64 0 4 0 C3.67 0.99 3.34 1.98 3 3 C2.01 3 1.02 3 0 3 C0 3.66 0 4.32 0 5 C-1.98 4.34 -3.96 3.68 -6 3 C-6 2.67 -6 2.34 -6 2 C-4.02 2 -2.04 2 0 2 C0 1.34 0 0.68 0 0 Z " fill="#429C4D" transform="translate(124,450)"/>
<path d="M0 0 C1.38609004 3.15020465 0.89180331 4.31918022 -0.25 7.6875 C-2 11 -2 11 -5 12 C-3.41037341 7.96479403 -1.71767682 3.98188718 0 0 Z " fill="#D1F1D1" transform="translate(185,347)"/>
<path d="M0 0 C0.33 0 0.66 0 1 0 C1 1.98 1 3.96 1 6 C1.99 6 2.98 6 4 6 C4.33 6.99 4.66 7.98 5 9 C2.69 8.34 0.38 7.68 -2 7 C-1.42415568 4.61435923 -0.77772405 2.33317216 0 0 Z " fill="#3E9649" transform="translate(137,269)"/>
<path d="M0 0 C0.99 0.33 1.98 0.66 3 1 C1.515 4.96 1.515 4.96 0 9 C-0.66 8.67 -1.32 8.34 -2 8 C-1.125 1.125 -1.125 1.125 0 0 Z " fill="#4AA154" transform="translate(14,262)"/>
<path d="M0 0 C-0.7109375 1.953125 -0.7109375 1.953125 -2 4 C-4.1640625 4.609375 -4.1640625 4.609375 -6.625 4.75 C-7.44226563 4.80671875 -8.25953125 4.8634375 -9.1015625 4.921875 C-9.72804688 4.94765625 -10.35453125 4.9734375 -11 5 C-8.12934225 2.12934225 -4.13678472 0 0 0 Z " fill="#4A9A51" transform="translate(302,244)"/>
<path d="M0 0 C0.99 0.33 1.98 0.66 3 1 C-4.5 6 -4.5 6 -8 6 C-8 5.34 -8 4.68 -8 4 C-5 2 -5 2 -2 1 C-1.34 0.67 -0.68 0.34 0 0 Z " fill="#DDEDDD" transform="translate(233,201)"/>
<path d="M0 0 C0 0.99 0 1.98 0 3 C-2.31 3 -4.62 3 -7 3 C-7 3.99 -7 4.98 -7 6 C-7.66 6 -8.32 6 -9 6 C-9.33 5.01 -9.66 4.02 -10 3 C-6.27034861 0.96564469 -4.33094958 0 0 0 Z " fill="#61AA67" transform="translate(147,177)"/>
<path d="M0 0 C0.33 1.32 0.66 2.64 1 4 C-2.73487777 3.5020163 -4.81237635 3.12508244 -8 1 C-5.07175348 0.02391783 -3.04386724 -0.08226668 0 0 Z " fill="#409648" transform="translate(133,364)"/>
<path d="M0 0 C2 1 2 1 2.8515625 3.06640625 C3.10679687 3.89011719 3.36203125 4.71382813 3.625 5.5625 C3.88539063 6.38878906 4.14578125 7.21507812 4.4140625 8.06640625 C4.60742188 8.70449219 4.80078125 9.34257812 5 10 C5.99 9.67 6.98 9.34 8 9 C8 9.66 8 10.32 8 11 C5.03 10.505 5.03 10.505 2 10 C1.34 6.7 0.68 3.4 0 0 Z " fill="#479751" transform="translate(236,331)"/>
<path d="M0 0 C-1.59915881 0.69906942 -3.20455045 1.38389468 -4.8125 2.0625 C-5.70582031 2.44535156 -6.59914063 2.82820313 -7.51953125 3.22265625 C-10 4 -10 4 -13 3 C-12.67 2.34 -12.34 1.68 -12 1 C-9.6875 0.4375 -9.6875 0.4375 -7 0 C-6.29875 -0.20625 -5.5975 -0.4125 -4.875 -0.625 C-3 -1 -3 -1 0 0 Z " fill="#E0F8E0" transform="translate(266,331)"/>
<path d="M0 0 C-2.03819846 2.03819846 -3.29417798 2.67841059 -5.9375 3.6875 C-6.62714844 3.95949219 -7.31679688 4.23148437 -8.02734375 4.51171875 C-10 5 -10 5 -13 4 C-9.38656695 0.38656695 -4.97659681 -0.29274099 0 0 Z " fill="#D8F8DB" transform="translate(294,319)"/>
<path d="M0 0 C-0.6875 1.9375 -0.6875 1.9375 -2 4 C-4.625 4.75 -4.625 4.75 -7 5 C-7.33 4.01 -7.66 3.02 -8 2 C-2.25 0 -2.25 0 0 0 Z " fill="#3B9345" transform="translate(378,286)"/>
<path d="M0 0 C0.66 0.33 1.32 0.66 2 1 C-0.97 3.475 -0.97 3.475 -4 6 C-5.32 5.34 -6.64 4.68 -8 4 C-5.31143836 2.20762558 -3.0466145 1.01553817 0 0 Z " fill="#489B53" transform="translate(216,278)"/>
<path d="M0 0 C4.29 0 8.58 0 13 0 C9 3 9 3 5.375 2.8125 C2 2 2 2 0 0 Z " fill="#CCEFCD" transform="translate(198,280)"/>
<path d="M0 0 C0.99 0 1.98 0 3 0 C5.56616632 3.84924948 5.55097676 6.4349304 6 11 C3.84733158 8.84733158 3.06525538 7.15226256 1.875 4.375 C1.52179688 3.55773437 1.16859375 2.74046875 0.8046875 1.8984375 C0.53914063 1.27195312 0.27359375 0.64546875 0 0 Z " fill="#358D3F" transform="translate(374,264)"/>
<path d="M0 0 C4 1.33333333 8 2.66666667 12 4 C12 4.33 12 4.66 12 5 C6.73946963 5.31563182 3.55426184 4.66590937 -1 2 C-0.67 1.34 -0.34 0.68 0 0 Z " fill="#3E894A" transform="translate(110,245)"/>
<path d="M0 0 C0.55171875 0.36867187 1.1034375 0.73734375 1.671875 1.1171875 C-0.09586919 1.64841113 -1.86746583 2.16682823 -3.640625 2.6796875 C-4.62675781 2.96972656 -5.61289062 3.25976562 -6.62890625 3.55859375 C-9.328125 4.1171875 -9.328125 4.1171875 -12.328125 3.1171875 C-10.7533956 2.38992698 -9.16788221 1.68598328 -7.578125 0.9921875 C-6.69640625 0.59773437 -5.8146875 0.20328125 -4.90625 -0.203125 C-2.328125 -0.8828125 -2.328125 -0.8828125 0 0 Z " fill="#2C8C39" transform="translate(68.328125,210.8828125)"/>
<path d="M0 0 C4.60853797 0.72008406 8.67237409 2.31295939 13 4 C9.57056481 5.18771723 7.62215325 4.80226223 4.25 3.5625 C3.45078125 3.27503906 2.6515625 2.98757812 1.828125 2.69140625 C1.22484375 2.46324219 0.6215625 2.23507813 0 2 C0 1.34 0 0.68 0 0 Z " fill="#E3FBE2" transform="translate(233,187)"/>
<path d="M0 0 C-1.45381897 0.69699552 -2.91322953 1.38233866 -4.375 2.0625 C-5.18710937 2.44535156 -5.99921875 2.82820313 -6.8359375 3.22265625 C-7.55007813 3.47917969 -8.26421875 3.73570312 -9 4 C-9.66 3.67 -10.32 3.34 -11 3 C-10 1 -10 1 -7.1875 -0.1875 C-4.02095982 -0.9946573 -2.98482205 -0.91292822 0 0 Z " fill="#E0F9E0" transform="translate(305,315)"/>
<path d="M0 0 C0.99 0.33 1.98 0.66 3 1 C1.56988027 1.86646667 0.13059381 2.71781829 -1.3125 3.5625 C-2.51326172 4.27599609 -2.51326172 4.27599609 -3.73828125 5.00390625 C-6 6 -6 6 -9 5 C-2.25 1.125 -2.25 1.125 0 0 Z " fill="#0B4B12" transform="translate(142,199)"/>
<path d="M0 0 C2.76276177 0.52268466 5.3260876 1.10869587 8 2 C8 2.66 8 3.32 8 4 C6.02 4.66 4.04 5.32 2 6 C2 4.35 2 2.7 2 1 C1.34 0.67 0.68 0.34 0 0 Z " fill="#DFF5DB" transform="translate(246,192)"/>
<path d="M0 0 C-1.32 1.65 -2.64 3.3 -4 5 C-4.66 4.34 -5.32 3.68 -6 3 C-8.06874034 2.3574765 -8.06874034 2.3574765 -10 2 C-8.71211992 1.46987262 -7.41953322 0.9511671 -6.125 0.4375 C-5.40570313 0.14746094 -4.68640625 -0.14257812 -3.9453125 -0.44140625 C-2 -1 -2 -1 0 0 Z " fill="#D6EFD6" transform="translate(184,184)"/>
<path d="M0 0 C3.55780196 0.60990891 6.6828589 1.5783681 10 3 C9.34 3.66 8.68 4.32 8 5 C5.73725212 4.64644564 4.04911148 4.02455574 2 3 C2 2.34 2 1.68 2 1 C1.34 0.67 0.68 0.34 0 0 Z " fill="#66AE6E" transform="translate(240,168)"/>
<path d="M0 0 C5.75 1.75 5.75 1.75 8 4 C7.67 4.66 7.34 5.32 7 6 C5.68 5.67 4.36 5.34 3 5 C3 4.34 3 3.68 3 3 C2.01 3 1.02 3 0 3 C0 2.01 0 1.02 0 0 Z " fill="#5AA364" transform="translate(217,158)"/>
<path d="M0 0 C-3.79692186 2.82561627 -6.18569279 4.56638908 -11 4 C-3.77464789 -1.88732394 -3.77464789 -1.88732394 0 0 Z " fill="#559E5C" transform="translate(251,449)"/>
<path d="M0 0 C2.31 0 4.62 0 7 0 C0.8 4.13333333 0.8 4.13333333 -2.25 3.625 C-2.8275 3.41875 -3.405 3.2125 -4 3 C-2.68 2.67 -1.36 2.34 0 2 C0 1.34 0 0.68 0 0 Z " fill="#60A964" transform="translate(314,440)"/>
<path d="M0 0 C0 0.66 0 1.32 0 2 C-3.82989106 3.80230168 -6.78121808 4.19622241 -11 4 C-7.32740617 1.55160412 -4.45351799 0 0 0 Z " fill="#4F9C59" transform="translate(289,322)"/>
<path d="M0 0 C0 0.99 0 1.98 0 3 C-3.47325181 4.1577506 -6.36067448 4.06866652 -10 4 C-6.86268382 1.90845588 -3.85464592 0 0 0 Z " fill="#CAEBCE" transform="translate(303,264)"/>
<path d="M0 0 C1.32 0.33 2.64 0.66 4 1 C4 1.99 4 2.98 4 4 C5.32 4.33 6.64 4.66 8 5 C6 6 6 6 4.0546875 5.44140625 C3.33539063 5.15136719 2.61609375 4.86132812 1.875 4.5625 C1.15054688 4.27503906 0.42609375 3.98757812 -0.3203125 3.69140625 C-1.15175781 3.34916016 -1.15175781 3.34916016 -2 3 C-1.34 2.01 -0.68 1.02 0 0 Z " fill="#3E6445" transform="translate(226,242)"/>
<path d="M0 0 C7.38461538 0.49230769 7.38461538 0.49230769 10.5 3.0625 C10.995 3.701875 11.49 4.34125 12 5 C10.37276701 4.54965877 8.74826336 4.08944646 7.125 3.625 C5.76761719 3.24214844 5.76761719 3.24214844 4.3828125 2.8515625 C2 2 2 2 0 0 Z " fill="#CAEACC" transform="translate(86,235)"/>
<path d="M0 0 C2.31 0 4.62 0 7 0 C7 0.66 7 1.32 7 2 C7.99 2 8.98 2 10 2 C10 2.66 10 3.32 10 4 C6.44219804 3.39009109 3.3171411 2.4216319 0 1 C0 0.67 0 0.34 0 0 Z " fill="#57A160" transform="translate(318,220)"/>
<path d="M0 0 C0.66 0.33 1.32 0.66 2 1 C1.25 2.9375 1.25 2.9375 0 5 C-2.125 5.75 -2.125 5.75 -4 6 C-4 5.34 -4 4.68 -4 4 C-4.66 3.67 -5.32 3.34 -6 3 C-4.03533587 1.93224776 -2.03144641 0.93446535 0 0 Z " fill="#204D29" transform="translate(261,209)"/>
<path d="M0 0 C3.3 0.99 6.6 1.98 10 3 C6 5 6 5 3.3125 4.3125 C1 3 1 3 0 0 Z " fill="#68A66B" transform="translate(307,195)"/>
<path d="M0 0 C-1.25125384 3.75376152 -2.5652404 4.24073289 -6 6 C-6.66 6 -7.32 6 -8 6 C-8 4 -8 4 -6.6875 2.4375 C-4.56310806 0.62783279 -2.79465489 0 0 0 Z " fill="#409648" transform="translate(256,446)"/>
<path d="M0 0 C1.32 0.66 2.64 1.32 4 2 C-0.95 3.485 -0.95 3.485 -6 5 C-6 4.34 -6 3.68 -6 3 C-3.25 1.375 -3.25 1.375 0 0 Z " fill="#E4FAE4" transform="translate(284,431)"/>
<path d="M0 0 C-2.95183101 2.95183101 -5.95511947 3.08663988 -10 4 C-9.67 3.01 -9.34 2.02 -9 1 C-6.04335481 -0.4783226 -3.25770263 -0.06032783 0 0 Z " fill="#62A96A" transform="translate(353,427)"/>
<path d="M0 0 C3.3 0.33 6.6 0.66 10 1 C9.67 1.99 9.34 2.98 9 4 C6.03 3.01 3.06 2.02 0 1 C0 0.67 0 0.34 0 0 Z " fill="#549F5B" transform="translate(158,357)"/>
<path d="M0 0 C2.64 0.66 5.28 1.32 8 2 C4.25 5 4.25 5 2 5 C1.34 3.35 0.68 1.7 0 0 Z " fill="#CCEFD0" transform="translate(239,336)"/>
<path d="M0 0 C0.33 0.66 0.66 1.32 1 2 C0.22265625 4.1640625 0.22265625 4.1640625 -0.9375 6.625 C-1.31777344 7.44226563 -1.69804687 8.25953125 -2.08984375 9.1015625 C-2.39019531 9.72804688 -2.69054687 10.35453125 -3 11 C-3.33 11 -3.66 11 -4 11 C-4.36630156 7.06225823 -4.30233203 5.43460229 -2 2.125 C-1.34 1.42375 -0.68 0.7225 0 0 Z " fill="#E0FAE3" transform="translate(177,318)"/>
<path d="M0 0 C1.32 0.33 2.64 0.66 4 1 C3.34 1 2.68 1 2 1 C2.99 3.64 3.98 6.28 5 9 C4.34 9 3.68 9 3 9 C3 8.34 3 7.68 3 7 C2.34 7 1.68 7 1 7 C0.67 4.69 0.34 2.38 0 0 Z " fill="#549F5E" transform="translate(219,296)"/>
<path d="M0 0 C6.52307692 -0.36923077 6.52307692 -0.36923077 8.9375 1.5 C9.288125 1.995 9.63875 2.49 10 3 C8 4 8 4 6.0546875 3.44140625 C5.33539063 3.15136719 4.61609375 2.86132812 3.875 2.5625 C3.15054688 2.27503906 2.42609375 1.98757813 1.6796875 1.69140625 C0.84824219 1.34916016 0.84824219 1.34916016 0 1 C0 0.67 0 0.34 0 0 Z " fill="#CAECCF" transform="translate(38,288)"/>
<path d="M0 0 C-0.33 0.99 -0.66 1.98 -1 3 C-4.3 3.33 -7.6 3.66 -11 4 C-7.61125486 1.74083657 -4.15175481 0 0 0 Z " fill="#D5F2D6" transform="translate(120,209)"/>
<path d="M0 0 C2.97 0 5.94 0 9 0 C9.33 0.66 9.66 1.32 10 2 C9.67 2.66 9.34 3.32 9 4 C6.03 3.01 3.06 2.02 0 1 C0 0.67 0 0.34 0 0 Z " fill="#69A870" transform="translate(173,475)"/>
<path d="M0 0 C5.625 -0.25 5.625 -0.25 9 2 C9 2.66 9 3.32 9 4 C6.03 3.01 3.06 2.02 0 1 C0 0.67 0 0.34 0 0 Z " fill="#D2EFD2" transform="translate(64,409)"/>
<path d="M0 0 C4.95 1.98 4.95 1.98 10 4 C10 4.33 10 4.66 10 5 C6.63295715 5.2295711 4.58629732 5.33943529 1.625 3.625 C1.08875 3.08875 0.5525 2.5525 0 2 C0 1.34 0 0.68 0 0 Z " fill="#E3FAE5" transform="translate(143,351)"/>
<path d="M0 0 C0.66 0.33 1.32 0.66 2 1 C0.875 2.5 0.875 2.5 -1 4 C-4.1875 4.1875 -4.1875 4.1875 -7 4 C-4.61426621 2.10786631 -2.92824652 0.97608217 0 0 Z " fill="#CBEECC" transform="translate(342,320)"/>
<path d="M0 0 C-0.99 0 -1.98 0 -3 0 C-3.33 1.32 -3.66 2.64 -4 4 C-6.97 3.505 -6.97 3.505 -10 3 C-4.375 -1.3125 -4.375 -1.3125 0 0 Z " fill="#D5E4D6" transform="translate(174,250)"/>
<path d="M0 0 C1.98 0.66 3.96 1.32 6 2 C5.67 2.99 5.34 3.98 5 5 C3.02 4.34 1.04 3.68 -1 3 C-0.67 2.01 -0.34 1.02 0 0 Z " fill="#E7F4E6" transform="translate(216,241)"/>
<path d="M0 0 C0.99 0.99 1.98 1.98 3 3 C2.01 3.33 1.02 3.66 0 4 C0 4.66 0 5.32 0 6 C-0.99 6.33 -1.98 6.66 -3 7 C-2.625 4.0625 -2.625 4.0625 -2 1 C-1.34 0.67 -0.68 0.34 0 0 Z " fill="#218C2C" transform="translate(29,235)"/>
<path d="M0 0 C3.465 1.485 3.465 1.485 7 3 C7 3.66 7 4.32 7 5 C4.03 4.01 1.06 3.02 -2 2 C-1.34 1.34 -0.68 0.68 0 0 Z " fill="#3A5B3C" transform="translate(145,210)"/>
<path d="M0 0 C1.98 0 3.96 0 6 0 C5 2 5 2 2.625 3.1875 C0 4 0 4 -3 3 C-2.01 2.67 -1.02 2.34 0 2 C0 1.34 0 0.68 0 0 Z " fill="#348E42" transform="translate(107,210)"/>
<path d="M0 0 C1.65 1.65 3.3 3.3 5 5 C4.01 5.495 4.01 5.495 3 6 C0.375 5.0625 0.375 5.0625 -2 4 C-1.34 3.67 -0.68 3.34 0 3 C0 2.01 0 1.02 0 0 Z " fill="#4A9B54" transform="translate(283,202)"/>
<path d="M0 0 C7.75 0.75 7.75 0.75 10 3 C5.82412255 4.39195915 3.86525224 2.82323219 0 1 C0 0.67 0 0.34 0 0 Z " fill="#569E5F" transform="translate(142,278)"/>
<path d="M0 0 C-3.96 1.98 -3.96 1.98 -8 4 C-8.66 3.34 -9.32 2.68 -10 2 C-4.5 -1.125 -4.5 -1.125 0 0 Z " fill="#D0F2D5" transform="translate(292,270)"/>
<path d="M0 0 C0.99 0.66 1.98 1.32 3 2 C-1.455 3.485 -1.455 3.485 -6 5 C-5 2 -5 2 -2.625 0.6875 C-1.75875 0.460625 -0.8925 0.23375 0 0 Z " fill="#DEF8DE" transform="translate(232,269)"/>
<path d="M0 0 C2.76276177 0.52268466 5.3260876 1.10869587 8 2 C8 2.66 8 3.32 8 4 C5.125 3.6875 5.125 3.6875 2 3 C1.34 2.01 0.68 1.02 0 0 Z " fill="#0B5114" transform="translate(116,266)"/>
<path d="M0 0 C1.98 0.66 3.96 1.32 6 2 C2.25 5 2.25 5 0 5 C0 3.35 0 1.7 0 0 Z " fill="#D7F0D8" transform="translate(256,257)"/>
<path d="M0 0 C-1.75 5.75 -1.75 5.75 -4 8 C-4 5.69 -4 3.38 -4 1 C-2 0 -2 0 0 0 Z " fill="#3F9146" transform="translate(42,248)"/>
<path d="M0 0 C5.53846154 -0.36923077 5.53846154 -0.36923077 7.875 1.5 C8.24625 1.995 8.6175 2.49 9 3 C8.01 3.495 8.01 3.495 7 4 C4.64018187 3.06421005 2.30368736 2.06652192 0 1 C0 0.67 0 0.34 0 0 Z " fill="#4A9A50" transform="translate(309,216)"/>
<path d="M0 0 C2.97 0.495 2.97 0.495 6 1 C4.6875 2.5 4.6875 2.5 3 4 C2.01 4 1.02 4 0 4 C0 2.68 0 1.36 0 0 Z " fill="#58A661" transform="translate(338,208)"/>
<path d="" fill="#FFFFFF" transform="translate(0,0)"/>
<path d="" fill="#FFFFFF" transform="translate(0,0)"/>
<path d="" fill="#FFFFFF" transform="translate(0,0)"/>
<path d="" fill="#FFFFFF" transform="translate(0,0)"/>
<path d="" fill="#FFFFFF" transform="translate(0,0)"/>
<path d="" fill="#FFFFFF" transform="translate(0,0)"/>
<path d="" fill="#FFFFFF" transform="translate(0,0)"/>
<path d="" fill="#FFFFFF" transform="translate(0,0)"/>
<path d="" fill="#FFFFFF" transform="translate(0,0)"/>
<path d="" fill="#FFFFFF" transform="translate(0,0)"/>
<path d="" fill="#FFFFFF" transform="translate(0,0)"/>
<path d="" fill="#FFFFFF" transform="translate(0,0)"/>
<path d="" fill="#FFFFFF" transform="translate(0,0)"/>
<path d="" fill="#FFFFFF" transform="translate(0,0)"/>
<path d="" fill="#FFFFFF" transform="translate(0,0)"/>
<path d="" fill="#FFFFFF" transform="translate(0,0)"/>
<path d="" fill="#FFFFFF" transform="translate(0,0)"/>
<path d="" fill="#FFFFFF" transform="translate(0,0)"/>
<path d="" fill="#FFFFFF" transform="translate(0,0)"/>
<path d="" fill="#FFFFFF" transform="translate(0,0)"/>
<path d="" fill="#FFFFFF" transform="translate(0,0)"/>
<path d="" fill="#FFFFFF" transform="translate(0,0)"/>
<path d="" fill="#FFFFFF" transform="translate(0,0)"/>
<path d="" fill="#FFFFFF" transform="translate(0,0)"/>
<path d="" fill="#FFFFFF" transform="translate(0,0)"/>
<path d="" fill="#FFFFFF" transform="translate(0,0)"/>
<path d="" fill="#FFFFFF" transform="translate(0,0)"/>
<path d="" fill="#FFFFFF" transform="translate(0,0)"/>
<path d="" fill="#FFFFFF" transform="translate(0,0)"/>
<path d="" fill="#FFFFFF" transform="translate(0,0)"/>
<path d="" fill="#FFFFFF" transform="translate(0,0)"/>
<path d="" fill="#FFFFFF" transform="translate(0,0)"/>
<path d="" fill="#FFFFFF" transform="translate(0,0)"/>
<path d="" fill="#FFFFFF" transform="translate(0,0)"/>
<path d="" fill="#FFFFFF" transform="translate(0,0)"/>
<path d="" fill="#FFFFFF" transform="translate(0,0)"/>
<path d="" fill="#FFFFFF" transform="translate(0,0)"/>
<path d="" fill="#FFFFFF" transform="translate(0,0)"/>
<path d="" fill="#FFFFFF" transform="translate(0,0)"/>
<path d="" fill="#FFFFFF" transform="translate(0,0)"/>
<path d="" fill="#FFFFFF" transform="translate(0,0)"/>
<path d="" fill="#FFFFFF" transform="translate(0,0)"/>
<path d="" fill="#FFFFFF" transform="translate(0,0)"/>
<path d="" fill="#FFFFFF" transform="translate(0,0)"/>
<path d="" fill="#FFFFFF" transform="translate(0,0)"/>
<path d="" fill="#FFFFFF" transform="translate(0,0)"/>
<path d="" fill="#FFFFFF" transform="translate(0,0)"/>
<path d="" fill="#FFFFFF" transform="translate(0,0)"/>
<path d="" fill="#FFFFFF" transform="translate(0,0)"/>
<path d="" fill="#FFFFFF" transform="translate(0,0)"/>
<path d="" fill="#FFFFFF" transform="translate(0,0)"/>
<path d="" fill="#FFFFFF" transform="translate(0,0)"/>
<path d="" fill="#FFFFFF" transform="translate(0,0)"/>
</svg>
